<svg width="25" height="19" fill="none" xmlns="http://www.w3.org/2000/svg"><path d="M13.393 6.933H1.135a.772.772 0 0 1-.54-.216.772.772 0 0 1-.216-.54c0-.204.072-.378.216-.522a.742.742 0 0 1 .54-.234h12.258c.408-.072.744-.27 1.008-.594.276-.324.414-.69.414-1.098 0-.42-.138-.792-.414-1.116a1.627 1.627 0 0 0-1.008-.594 1.715 1.715 0 0 0-1.062.432c-.3.264-.486.594-.558.99a.732.732 0 0 1-.306.486c-.168.108-.354.144-.558.108a.746.746 0 0 1-.468-.288.711.711 0 0 1-.126-.558c.084-.564.3-1.068.648-1.512a3.32 3.32 0 0 1 1.314-.99 2.997 2.997 0 0 1 1.62-.234c.576.06 1.092.258 1.548.594.456.336.804.762 1.044 1.278.24.504.336 1.044.288 1.62a3.009 3.009 0 0 1-.54 1.548 3.27 3.27 0 0 1-1.224 1.098 3.26 3.26 0 0 1-1.62.342zm2.016 11.61a3.12 3.12 0 0 0 1.872-.18 3.12 3.12 0 0 0 1.458-1.206 3.157 3.157 0 0 0 .558-1.8c0-.66-.186-1.266-.558-1.818a3.12 3.12 0 0 0-1.458-1.206 3.12 3.12 0 0 0-1.872-.18H2.61a.72.72 0 0 0-.45.036.729.729 0 0 0-.342.288.704.704 0 0 0-.126.414c0 .156.042.3.126.432a.767.767 0 0 0 .792.306h12.834c.468-.024.876.12 1.224.432.348.3.54.684.576 1.152.048.456-.078.864-.378 1.224-.288.36-.66.57-1.116.63a1.708 1.708 0 0 1-1.26-.324 1.637 1.637 0 0 1-.666-1.098.732.732 0 0 0-.306-.486.659.659 0 0 0-.558-.108.723.723 0 0 0-.468.306.76.76 0 0 0-.126.54 3.238 3.238 0 0 0 1.71 2.286c.456.228.936.348 1.44.36h-.108zm5.562-8.244c.576 0 1.104-.138 1.584-.414a3.263 3.263 0 0 0 1.17-1.152c.3-.48.456-1.002.468-1.566a3.057 3.057 0 0 0-.36-1.602 3.128 3.128 0 0 0-1.08-1.224 3.032 3.032 0 0 0-1.566-.54 3.146 3.146 0 0 0-1.62.288c-.504.228-.924.57-1.26 1.026a3.328 3.328 0 0 0-.594 1.53.774.774 0 0 0 .144.558c.12.156.282.252.486.288a.715.715 0 0 0 .54-.144.732.732 0 0 0 .306-.486c.06-.456.27-.822.63-1.098a1.675 1.675 0 0 1 1.242-.36c.456.036.828.234 1.116.594.3.348.432.756.396 1.224-.024.456-.21.84-.558 1.152-.336.3-.732.444-1.188.432H4.087a.757.757 0 0 0-.468.252.763.763 0 0 0-.18.504.74.74 0 0 0 .648.738H20.97z" fill="#F05E38"/></svg>