<svg width="17" height="13" fill="none" xmlns="http://www.w3.org/2000/svg"><path d="M9.955 12.773h5.548c.223 0 .414-.08.575-.241a.733.733 0 0 0 .223-.538V5.723c0-.05-.037-.496-.111-1.337-.075-.829-.483-1.651-1.225-2.468-.557-.593-1.256-1.045-2.097-1.354-.841-.297-1.812-.445-2.913-.445h-.78v2.226l.632.13c.544.111 1.008.272 1.391.483.371.21.656.47.854.779.123.198.21.396.26.594.049.197.08.377.092.538H9.955c-.21 0-.39.074-.538.222a.765.765 0 0 0-.241.557v6.346c0 .21.08.39.241.538.148.16.328.24.538.24zM1.253 4.869a.755.755 0 0 0-.557.222.765.765 0 0 0-.24.557v6.346c0 .21.08.39.24.538.149.16.334.24.557.24H6.8c.21 0 .396-.08.556-.24a.733.733 0 0 0 .223-.538V5.723c0-.05-.03-.496-.093-1.337C7.413 3.557 7 2.735 6.244 1.918 5.688 1.325 4.994.873 4.166.564 3.325.267 2.354.119 1.253.119H.455v2.226l.65.13c.531.111.99.272 1.373.483.37.21.661.47.872.779.123.198.21.396.26.594.036.197.061.377.074.538H1.253z" fill="#BD503C"/></svg>