<svg width="598" height="377" fill="none" xmlns="http://www.w3.org/2000/svg"><path d="M557.198 135.706c.397-.789-.396-1.184-.792-1.579-.198-.198-.397.197-.595 0-.198 0-.396-.198-.594-.395.396-.79 1.585-.79 2.18-1.382.396-.395.99 0 1.387 0 .198-.197.198-.592.594-.592.396 0 .396.592.991.197.198-.197.792 0 .99 0l.199-.395c.198-.197.396 0 .594 0 .396-.395.198-.395 0-.789-.594-1.185.793-1.185.793-1.975 0-.592-.397-.592 0-1.184.396-.395.396-.593.396-1.185 0-.395 0-.395.198-.395.198-.197 0-.197 0-.395 0-.592-.198-.789-.594-1.184-.793-.593.198-.79-.198-1.382.594-.395-.397-.988.198-1.58-.595-.592.198-2.172.198-2.961 0-.593.594-.593.594-.79l-.594-1.777c-.396-1.777-.991-3.356-1.387-5.133-.198-.395-.397-.593-.397-.987 0-.198-.594-.593-.792-.79-.396-.395 0-.592.594-.592.595 0 .198-.79.991-.79.198 0 .396.197.595.197.198 0 .396-.197.594-.197.396 0 .793-.592 1.387-.592s2.378-.988 2.378-1.777c0-.395-.595-1.185.396-1.185.793 0 .793-.395 1.189-.987.198-.198.396-.395.594-.395.595 0 .199 0 .397.395s.594.592.792.592v-.197c1.189-.79 2.774-1.185 4.36-1.58-.397.593.396.79.99 1.185.199 0 .397-.198.397-.395 0-.395-.793 0-.991-.395.991-.592 2.18.395 2.774.79-.396.197-.396.395-.198.987.991.395 1.189 1.185.991 1.974.396.198.594.593.99.593.198 0 .198-.395.397-.395.396 0 .594-.395.792-.592.396-.395.793-.593.396-1.185-.198-.395-.198-1.185.199-1.58-.595-.592.396-1.579.792-2.171.198-.395 1.784-.987 2.18-.79-.595-.79.793-.395.198-.987.396-.198.595-.593 0-.593.198-.394.396-.394.198-.987.793.198.793-.592.198-.592.199-.197.198-.395.198-.395.199-.197 0-.395.199-.395 0 0 .396.198.198.198.198-.198.198-.395.594-.79.198-.395.793 0 .595-.79.198-.395.594-.592.396-.987-.198-.197-.198-.592-.396-.592.396-.198.792-.198.99-.593.199-.394.199 0 .397 0s.198-.197.198-.394c0-.395.396 0 .594-.198.198-.395 0-.592 0-.79-1.189-.197.198-.592.198-.79 0-.789-.792-.394-.792-1.184 0-.987.991-1.382 1.585-1.974.198-.395.396-1.185.396-1.382 0-.395-.198-.395-.198-.79 0-.197.198-.395.198-.79s.397-.395.397-.592c0-.197-.199-.592-.199-.79.397-.395.595-.79.793-.987.396-.395.793 0 .793-.79 0 0-.397-.197-.397-.592 0-.395-.198-.395-.198-.592-.198-.987.397-1.58 1.189-2.172.396-.395.991-.395 1.387-.395.595 0 .793-.197 1.189-.592.198-.198.396-.593.793-.987.198-.198.396-.198.594-.395.198-.198 0-.395.198-.593.198-.197.793-.987.793-1.184 0-.395-.793-.79-.991-1.185-.198-.197 0-.395-.198-.592-.198-.197-.198 0-.396-.197-.199-.198-.397-.988-.397-1.185.199-.79.991-.79 1.189-1.382.198-.592 0-1.58.595-1.974-.198-.198-.595-.198-.793-.198-.396-.197-.396-.79-.594-.79-.199 0-.595.198-.991 0-.198 0-.396-.394-.396-.394s-.397.197-.595.197c-.991 0-1.189.395-1.981.592-.595.198-1.387-.197-1.586.79-.396.395-.99-.197-1.585.197-.198.198-.594-.197-.99 0-.199.198-.397.593-.397.79-.198.198-1.189 0-1.387.593 0 .197-.396 1.184-.792.79-.595-.593-.991-.198-1.586-.198-.594 0-.792-.395-1.585-.198-.594.198-.792-.197-1.189.593-.396.395-.99.197-1.387.592-.396 0-.198.79-.99.79-.397 0-.991-.593-1.189 0-.198.592.396.592-.397 1.382-.396.395-.198.79-.396 1.184-.198.395-.793.198-1.387.198-.198 0-.396-.395-.594-.395-.199 0-.397.197-.793.197-1.189.395-1.585.593-2.774.395-.595.593-1.189.198-1.783.395-.991.395-1.189-.592-1.982.198-.594.592-.792-.593-1.189-.79-.594-.198-1.783 0-2.378 0-.198 0-1.387.592-1.585.592-.396.198-1.585-.395-1.585-.592 0-.79.198-1.185-.396-1.975-.397-.592-.991-.79-1.387-1.382-.397-.197-.595-.394-.793-.987-.198-.987.396-.79.793-1.382.198-.197 0-.592.198-.79.198-.197.396-.197.396-.197.396-.395.396-.592 0-.987 0-.197-.198 0-.396-.198-.198-.197-.396-.197-.396-.394 0-.593.396-.988-.199-1.185-.792-.198-1.188.79-1.188-.592 0-.395-.397-.79-.991-.593.396-.79.594-1.974 1.189-2.764.99-1.58-1.387-.197-1.387-.592 0-1.185-2.378.197-2.774-.197-.595-.593-1.586-.79-2.18-1.58-.198 0-.396-.395-.595-.395-.594 0 0-.592 0-.79-.198-.197-.594 0-.792-.197-.198-.197 0-.395 0-.592 0-.198-.595-.198-.793-.198-.396-.197-.396-.197-.396-.79 0-.394-.396-.394-.793-.394-.198 0-.198.197-.396.197s-.198-.197-.396-.197c-.793 0-.396-1.382-.793-1.777-.792-.79-1.189 0-1.189.79s-.99-.198-1.189-.198c-.198 0-.396-.395-.594 0-.396.395-.396.395-.793.395-.792 0-.594-.79-1.189-1.185-.198 0-.792-.197-.792-.197 0-.197-.396-.197-.595-.197-.198 0-.792.592-.99.197-.198-.395.198-.592.396-.79.594-.197-.991-1.184-1.189-1.184-.396 0-.198.592-.594.592-.397-.197-.595-.197-1.189-.197-.397 0-.793-.198-.991-.198-.198 0-.198.197-.396.197s0 .593-.198.593c-.199 0-.595-.198-.793-.198-.198 0-.396.198-.793.198-.792 0-1.188-.198-1.783-.593 0 0-1.387-.197-1.981-.197 0 0-.793-.592-.793-.79-.396-.395-.396-.197-.396-.79 0-.986-1.585-.197-1.585-1.381 0-.395.198-.79.198-.988 0-.394-.397-.592-.397-.987 0-.79 0-.987.595-1.382.198-.197.594-1.184.396-1.382-.594-.395-2.576-.79-2.378-1.777 0-.197.397-.987-.198-.987-.198 0-.396-.197-.198-.395.198-.592.991-1.184.396-1.777-.198-.395-.594-.592-.594-.987 0-.197.396-.395.198-.592-.594-.592-.991-1.185-1.387-1.777-.198-.395-.198-.592-.594-.79-.397-.197-.595-.197-.793-.79-.396-.592-.793-.592-.793-1.381v-.79l.595-1.185c.396-.592-.991-.79-1.189-.197 0 .197.594.592-.396.592-.199 0-.397-.395-.397-.592-.198-1.382 1.387-.592.991-1.382-.198-.79-1.783 0-.991-.987.595-.79-.198-.79-.792-.988-1.189-.592.594-.79 0-1.382-.198-.197 0-.395 0-.592 0-.395-.595-.197-.793-.197-.396-.198-.991-1.58-1.189-1.975-.198-.592-.792-.987-.792-1.58 0-.591.99-.394.99-.986 0-.593.397-.988-.594-1.185-.396 0-1.585-.197-1.585-.79 0 0 1.189-.592 1.387-.79-.397 0-.991-.197-1.189-.394.594-.395.198-.987-.198-1.58-.397-.592-.991-.395-1.189-.592v-.79c-.198-.197-.595-.592-.793-.592-.594-.395-.594.79-.991.197-.594 0-.396-.987 0-1.184 1.189.395.001-.79.595-.987.991-.395-.198-.988-.595-.593-.396.593-.792-.592-1.188-.79-.595-.197.198-.987-.595-.79-.594.198-1.783.79-1.783 0 0-.591 1.189-.394.991-.986 0-.198-.595-.395-.793-.395-.198 0 0-.592-.396-.592-.397 0-.595.197-.991.197s-.198-.395-.396-.592c-.595-.395-1.387-.395-1.982-.79-.594-.395-1.189-.592-1.783-.592-.396 0-1.784 0-1.982.592 0-.198 0 1.777-.396.79-.396-.593-.793-.593-1.387-.593.198 0-.396-.592-.594-.592-.397-.197-.397 0-.793 0-.595.197-.396 0-.991-.197h-.594c-.198 0 0-.395-.198-.395-.397-.198-.199 0-.595-.395-.198-.198-.198-.592-.396-.79-.595-.987-.991 0-1.585 0-.397 0-.198-.395-.595-.592-.198-.198-.396.197-.594-.395-.397-1.185-2.18-.79-2.972-1.185-.397-.197-.397-.592-.793-.79-.396-.197-.396.396-.793.593.199-.197.198-.592-.198-.592-.198 0-.198.987-.594.395-.397-.395-1.585-.593-2.18-.395-.396.197-.792.592-.991.79-.198.197-.792-.198-.99-.198-.595 0-1.387.79-1.982.79h-1.387c-.198 0-.396-.198-.792-.198-.199 0-.397.198-.595.198-.594 0-1.387.395-1.783 0-.793-.79-.198-.198-.991-.198-.396 0-.396.198-.793 0-.594-.197-.792 1.185-1.585.593-1.585 0-2.774.394-4.161.987-.594.197-.991.395-1.585.592-.198 0-.595-.197-.793-.197-.198 0-.594.394-.792.592-.397.197-.595.197-.991.197s-.594-.395-.793-.395c-.198 0-.594.198-.792.198-.198 0-.793-.198-1.189 0-.198.197-.198 0-.198 0v.592c-.198.198-.595.198-.991.395-.198.197-.198.592-.396.79l-.595.592c-.396.198-.594.395-.99.592-.397.395-1.189 1.185-1.586 1.382-.396.198-.198.593-.396.79 0-.197-.594.395-.594.395-.397.197-.595.592-.991.79-.396.197-.595 0-.991.395-.198.197-.396 0-.198.394.198.198.198.79 0 .988-.396.79.396 1.184 1.189 1.184.792 0 .991-.592 1.783-.395.198 0 .396-.394.793-.394.396 0 .396.197.792.197.595.197 1.387.79 1.982.79-.198.395 0 .987-.198 1.58 0 .197-.793 1.184-.793 1.381 0 .395.793.79.991.987.396.395 0 .988.594 1.382-.198.198 0 .395-.198.79-.198.198-.396.198-.594.395-.198.197-.198.592 0 .987-.198.198-.397.987-.595 1.185 0 0-1.189.395-.99.395-.793 0-.397.197-.595.395-.198.197-.198.394-.594.394-.199 0-.793.593-1.189.79a2.38 2.38 0 0 0-.991.987c-.198.395-.793 0-.991.395-.198.395-.396.395-.594.79-.198.197-.793.987-.198 1.382-.595.197-.199.79-.595 1.184-.198.198-.594.198-.594.395 0 0 .396.198 0 .395-.198.198-.793.79-.793.987-.198.395.198.79-.594.593.198.592 0 1.777-.595 1.974l.198.197c-.396.395-.792.395-1.188.79-.199.198-.397.79-.991.987.198.395.198.593 0 .79v1.185c0-.198-.397.79-.397.592-.198.197-.594.395-.792.592-.396.198-1.783 2.172-1.189 2.172.198 0-.198.79-.793.79-.792 0-.792.987 0 .79 0 0 0 .394-.198.394.198.198.991 0 1.189 0 1.189 0 .198.79.198 1.58 0 .395.397 1.184 0 1.58-.396.394-1.189.986-1.387 1.184h-.594c-.396.197-.793.197-1.189.197-.198 0-.595-.197-.793-.197-.594 0-1.189.395-1.783.592-.991.198-1.783.198-2.18.987-.198.198-.198.593-.396.79-.198.198-.594-.197-.793 0-.198.592-.396.395-.99.79-.397.197-.793 1.184-1.387 1.184-.397 0-.991.593-1.387.988-.397.197-.991.197-1.189.592-.198.395-.397.197-.991 0-1.189-.395-2.18-1.382-3.567-1.382-2.377 0-4.953-1.185-6.935-2.567-.792 1.58-4.557 8.885-5.746 11.056l-.595 1.185c-.198.197.397.395.199.79-.199.395-.595.592-.793.987-.595.79-.991 1.58-1.585 2.567v3.553s-2.18.987-2.972 1.382c.396.395.198 1.185.396 1.58.198 1.382.792 1.58 1.783 2.567.396.197 1.982 2.171 2.18.987.792-.79 1.387-1.185 2.179-1.777.793-.593 1.586.197 2.576.197.991 0 1.982-.592 2.774-.592 1.189 0 1.784.197 2.973.592.792.395 1.387.987 2.179 1.58.793.592 1.189.592 1.784-.198.198-.395.594-.592.99-.987.199-.987.991-1.777 1.982-2.172 0-.197.198-.197.198-.395.396-.394 1.585 0 2.18 0 .594-.197 1.189-.592 1.783-.394.396 0 .594.394.991.394.396 0 .594-.394 1.189 0 .198 0 1.387-.197 1.585 0l1.189 1.777c.792 1.185 1.387 1.185 2.576 1.777.396.198 1.387.395 1.585.593.198.394 0 1.184.198 1.579.594.987 2.378 0 1.585 1.382.595-.197.595.197.793.395.198.197.594.197.594.395.198.395.595.592.793 1.184 0 .198.594.198.792.198.199.197.199.395.397.592.396.395.99.987 1.189 1.58 0 .394-.199.592 0 .987.198.197.396.197.594.395.198.197 0 .394 0 .394h.396c.198.395 0 .198 0 .593.198.395 0 1.184 0 1.382.198.79 0 .79-.594 1.382 0-.198-.198-.198-.396-.395-.595 1.58-2.18.592-3.369.592-.594 0-1.189.395-1.981 0-.595-.197-1.586-.197-1.784-.592-.198-.198-.792-.79-.594-.79h-.991c-.198 0-.198-.395-.198-.395-.595-.592-.991.593-1.189.987-.198.395-1.189-.197-1.585-.197 0 .395-1.189.197-1.585.197-.397 0-.595-.79-1.387-.592-.793.198-.991.79-1.784.79-.594 0-.594.592-1.189.592-.594 0-.99.395-1.387.79-.198.197-.198.592-.792.592-.595 0-.595.198-1.189 0-.396-.197-.595-.592-.793-.987-.396.395-.991.395-1.585.592.396.395 0 1.382-.396 1.777-.397.79 0 .79-.991.79h-2.18c-.594-.197-1.585-.592-2.179-.197-.397.197-.595.79-1.189.79-.396 0-.793.197-1.189.394-.198.198-.198.593-.198.79-.198.395-.991.79-1.387 1.185-.595.592-.793 1.184-1.189 1.776-.198.395-.793 1.185-.396 1.58.594.592.198.79-.199 1.382-.198.395.199.395-.396.592-.198.198-.594.395-.792.198-.397-.395-.793.197-.991.197-.595.592-1.387.79-1.982 1.382-.99 1.185-1.585 1.185-2.972 1.58-.991.197-1.981.197-2.972.197-1.189 0-1.982.197-3.171-.197-.396-.198-.99-.593-1.387-.395-.396.197-1.387.395-1.585.592-.198.197 0 .592 0 .79 0 .197-.198.395-.396.592-.396.592-.595.79-.991 1.185-.396.197-.792.592-1.189.789-.198.198-.198.395-.396.593-.198.197-.396.197-.594.197-.199.198-.397.79-.595.987-.198.198-.793.198-1.189.395-.792 0-1.387.592-2.179 1.185-.793.592-1.586 1.579-2.378.592-.595-.592-2.18 0-2.774-.197-.793-.198-1.784-.395-2.576-.593-.991-.197-1.982-.395-2.972-.789-.793-.198-.991-.988-1.586-1.58-.594-.592-1.585-.197-2.377-.395-.199 0-1.387 0-1.387-.197 0-.395-.793-.198-.991 0-.397.395-.991.592-1.585.79-.793.394-.991 1.184-1.387 1.974-.397.592-1.189 1.579-1.189 2.369 0 .395-.198.79-.198 1.185 0 .197-.397.197-.397.592 0 .395-.991.79-.991 1.382 0 .395-.198.987.397.987.396.198.594.198.792.79 0 0-.198.197 0 .395 0 .197.199.395.199.395.198.197.396.592.594.789.396.79.991.988 1.783 1.382.595.593 1.784 1.777 1.585 2.764 0 .198 0 .79-.396.79s-.198.395-.396.395c-.991 0-.991 0-1.585.592-.198.198-.991 1.382-1.387 1.382-.793 0-1.189-.197-1.982.395-.594.593-2.179.79-2.972 1.185-1.387.592-1.982 1.777-2.972 2.961-.198.198-.793.395-.991.593-.396.395 0 .987-.594 1.579-.397.198-1.388.592-1.388.987-.396.79-.396.79-1.188 1.185-.595.197-1.387.395-1.982.79-.396.197 0 .394-.396.394h-.793c-1.387 0-3.566 1.185-4.557 2.172-.198.198-1.784.395-2.18.395-.792 0-1.981-.197-2.774-.395-.594 0-1.189.79-1.981.593-.991-.198-1.982-.395-2.774-.593-1.784-.197-3.369 0-5.152.198-.991.197-1.784.197-2.774.197-.397 0-.991.198-1.189 0-.397-.197-.397-.395-.991-.592-.594-.198-1.982.197-2.18.987-.198.395-2.179.592-2.576.592-.792.198-1.585 0-2.179.198-.991.395-1.784.789-2.774 1.184-1.586.593-3.171 1.58-4.756 1.975l-.991.395c-2.576 1.382-5.35 1.974-7.529 3.751-.793.789-.991 1.184-1.784.395-.396-.395-1.585-.198-2.179-.198-.397 0-1.784 0-1.784-.197v-2.369c-1.585.197-3.566.789-5.151.789-3.171 0-5.747-.987-8.521-2.171-1.783-.79-3.567-1.975-5.548-1.975-.396 0-.793.198-1.189.198-.594-.198-1.189-.198-1.585-.395-1.189-.395-1.783-.395-2.576-1.382-.594-.79-1.189-1.382-1.783-2.172-.199-.395-1.586-.395-2.18-.395-1.982-.395-3.963-.987-6.143-1.382-1.585-.395-3.17-.395-4.755-.395-.991 0-1.585-.197-2.18.395-.396.395-1.981 0-2.576 0-1.585 0-3.17.79-4.755.987-1.387 0-2.973-.197-4.36-.395-3.566-.197-6.935-.395-10.501-.987-2.775-.395-5.35-.987-8.125-1.382-.396 0-1.188.395-1.783.592-.792.198-1.585 0-2.18 0-1.188 0-2.575.198-3.764.395-.198-1.382 0-1.777-.991-2.764-.991-.789-1.783-1.579-2.774-2.369-.991-.987-1.387-1.382-1.387-2.764 0-.79-.991-1.579-1.387-2.369-.397-.987-.595-2.172-1.189-3.357-.198-.394-.396-.987-.793-1.382 0-.197-1.189 0-1.387 0-.991-.197-.792-1.382-.594-1.974.198-.592 1.189-1.579 0-1.579-.991 0-1.982.197-2.972.394-.595 0-.595-.197-.991-.394-.396-.198-.793-.198-1.189-.395-1.189-.198-1.387-.79-2.18-1.58-.792-.592-1.783-.592-2.377-.987-.397-.197-1.189-1.184-1.388-1.579-.198-.198-.792-.593-.99-.593-.397-.197-.793-.592-1.189-.789-.793-.395-1.784-.593-2.378-1.185-.594-.592-1.585-1.185-2.18-1.185-.594 0-.99 0-1.585-.394-.198-.198-.792.197-1.189 0-.99-.395-1.981 0-2.972-.198-.198 0 0-.592-.396-.592-.198 0-.198.395-.396.395-.397 0-.397-.198-.991-.198-.793.198-1.982.395-2.774.395-.397 0-.991-.197-1.387-.395-.397-.197-.595.198-.991.198s-.793-.395-1.189-.593c-.396-.197-.793-.197-1.189-.197h-3.368c-.397 0-.991.197-1.387-.197l-.595-.593c-.198 0-.396.395-.594.395-.595.198-.991-.197-1.586-.395-.594-.197-.594-.592-.99-.789-.595-.198-.991-.198-1.387 0-.198 0-1.189.592-1.189 0 0-.79.198-.395-.198-.988 0 0-.793.198-.595-.197.198-.395.198-.395.198-.592-.198-.593-.198-.79-.594-1.185-.595-2.172-.595-2.172-.595-3.159 0-.592.595-.987.595-1.382 0-.197-.396-.395-.198-.592.198-.198.396-.593.594-.79.595-.79 1.387-1.777 2.18-2.172.198-.197.198-.987.198-1.382-.198-.395-.594-.79-.793-1.382-.198-.395-.594-1.184-.198-1.58.397-.394.793-.987.793-1.579 0-.395.792-.79.594-1.382h-.594v-.395c0-.197.198-.592.198-.79 0-.987-.396-.79-.793-1.579v-.987c-.396-.197 0-.395-.198-.79l-.594-.395c-.396-.395-1.189.198-1.387-.79-.397-.986-1.387-1.579-1.784-2.763 0-.198-.396-.395-.396-.79 0-.198.595-.198.595-.79 0-.197-.595-.197-.595-.395-.198-.197 0-.592 0-.987 0-.592-1.585-1.58-.991-1.974 0-.987-1.783-.593-2.377-1.185-.397-.395-.397-.592-.397-1.184 0-.988-.198-.198-.792-.79-.595-.198-.198.395-.397.592-.198.198-.594 0-.792 0-.793.198-.595.198-1.189-.197-.198-.198-.198-.198-.198-.395-.198-.198-.595-.198-.595-.395 0-.592-.594-.395-.594-.987 0-.79-.991-.395-1.585-.395-.397 0-.595-.198-.793-.198a2.733 2.733 0 0 0-.792.593c0 .395-.793.197-.991 0-.198-.198-.595.197-.991 0-.198-.198-1.387-1.185-1.387-1.382 0-.198-.594-.198-.793 0-.396.197-.594-.198-.99-.395-.397-.395-1.189-.395-1.586-.987-.396-.395 0-.987 0-1.382 0-.198-.594-.593-.594-.79-.396-.395-.396 0-.594 0-.595-.198-.793-.395-1.189-.79-.397-.197-.595-.592-.991-.592-.198-.198-.396.395-.595.197-.198-.197-.792-.79-1.188-.395-.199.198-.397-.197-.595-.197-.594 0-.198-.79.198-.79.397-.395 1.387-1.184 0-1.58-.198-.197-.396-.197-.594 0-.198 0-.396-.197-.595-.197-.396-.197-.594-.197-.594-.79 0-.592-.793 0-.396-.986.396-.593.594 0 .99-.395.595-.593-.198-.593-.396-1.185-.198-.592.396-.79.198-1.184-.396-.988-1.981-.198-2.774 0h-.594v.394c-.198.198-.397.198-.793.198-.594 0-.991-.198-1.585-.395-.396-.198-.991-.198-1.387-.198-.595 0-.991.395-1.387.395s-.595-.197-.793-.197c-.396 0 0 .197-.198.197s0 .593-.198.593-.396.197-.594.395c-.991.79-.199 1.776.396 2.369-.198.197-.793.592-.793.987 0 .592.397.395.198.987l-.792.79c-.397.197-.595.395-.793.79-.198.197 0 .394-.198.394s-.594 0-.793.198c-.99.395-1.387.395-1.783.395-.396 0-1.387.592-1.387.987-.793 0-1.585-.198-2.378-.198-1.783-.197-2.179.593-2.972 1.975-.198.592-.793.987-.793 1.58 0 .591-.198 1.184-.396 1.776-.792.987.198 1.777.198 2.764 0 .79.198 1.185.397 1.777 0 .592-.199.987-.199 1.58 0 .394.595.79.793 1.382.198.394 0 .79 0 .987 0 .197.198 1.184.198 1.184-.198.198-.792.395-.991.395-.198 0-.594.79-.594 1.185 0 .197.198.592-.198.592h-.991c-.396 0-.396 0-.792.197-.199.198-.397-.197-.595-.197-.594.197-.396.395-.793.79-.198.197-.792.592-.99.79-.397.197-.793.197-1.189.394-.198.198.198.593-.396.593h-.793c-.396.395-.991.197-1.387.197.198-.79.792-1.382-.198-1.974-.595-.395-1.387.395-1.982 0-.792-.395-1.981-.395-2.774-.198-.396 0-.594.395-.991.395-.198 0-.792-.197-1.188-.197-.991.592-1.982-.79-3.17-.79-1.19 0-1.982-.79-2.775-1.184-.396-.198-.99-.198-1.585-.395-.595-.395-.595-.593-1.387-.593-.595 0-.595.79-.793 1.382v.593c0 .197-.198.394-.198.592 0 .197.198.395.198.79 0 .197-.396.592-.396.987-.198.592-.793.987-.99 1.382-.595.987-.595 2.37-.992 3.356-.198.593-.594 1.185-.792 1.777-.198.592-.396.79-.99 1.382-.199.198-.199.593-.199 1.185 0 .592-.198.987-.198 1.382-.396.987-.595 1.777-1.189 2.764-.396.592-.99 1.58-.99 2.172-.397 2.171 3.368.592 3.368 2.171 0 1.185-.198 4.344-1.982 3.159-.99-.592-.99-1.382-2.378-.987-.792.198-1.387.592-1.981.79-.396.197-.793-.395-1.189-.592-.198 0-.198.394-.594.197-.595-.197-.198-.395 0-.79.396-.987-1.19-1.777-1.982-.987-.792.987-1.783.987-2.774 1.185-.99.197-1.783.789-2.774.987-.594.197-1.189-.198-1.585.197-.397.395-.99 0-1.387 0-.595 0-1.19.198-1.585.593-.397.197-.991-.198-1.388 0-.594.197 0 .789-.99.592-.595-.197-.793.395-1.19.197-.593-.197-.792 0-1.386 0-.198 0-.595.593-.99.79-.199.395-1.388.592-1.388.987s.99.79 1.387.987c.793 0 1.585-.394 2.576-.394.198 0 .793.592.99.592.199.197.595 0 .992 0 .99.395 1.188.592 0 .79-.793.197-.793.592-.397 1.184-.594.79-.792 2.764-.396 3.554s-.198 1.185-.198 1.974c0 .593.792.79.792 1.58.199.395.595.592.793.987.198.395.198.987.594 1.382.397.592.595 1.777.991 2.369.198.395.99 1.58.793 2.172-.198.395-.991.592-.793 1.185.198.394.793 0 .99.197.2.197.793 2.172 0 2.369-.594.198-.792-.395-1.386-.395-.396 0-.793.395-1.189.593-.198.197-.198.394-.594.394-.397 0-.595 0-.793.198-.594.197.198.592.396.79.397.197.397.592.991.592.396 0 .396.197.594.592-.594 0-.99.395-1.387.395-.396 0-.396.395-.792.395-.198 0-.397-.197-.595 0-.594.592-.396.987-.792 1.382-.595.592-.198.79-.198 1.382 0 .395.792.79.594 1.185-.198.394 0 .987 0 1.382.396.987.99 1.579-.198 1.974.396.395.198.592.396.987.198.198 0 .592-.198.79-.396.197-1.783 0-2.378 0-.396 0-.99 0-1.387.395-.594.197-.198.789-.594 1.184-.198.198-1.19 0-1.585.198-.397.197-1.784 1.382-2.378 1.184-.396-.197-.99-.197-1.19.198-.395.592-.593.395-1.188.592-.793.395-1.981.79-2.774 1.382-.396.198-.99.395-1.387.592-.595.198-.396.593-.793.593-.594.197-1.189.395-1.783.789-.198.198-.793.198-.99.593-.199.79.395.592-.199 1.382-.198.197-.594 0-.793.395-.198.197-.198.395-.198.592-.198.395-.792.987-1.189 1.185-.594.197-.594 0-1.188 0-.595 0-1.19-.198-1.784 0-.396.197-1.387.987-1.783.592-.396-.198-.595-.198-.99.197-.199.198-.397 0-.595 0-.397-.197-.793-.395-1.387-.395h-1.387c-.198 0-.397.198-.595.198-.198 0-.396-.395-.594-.395-.793 0-1.387.395-1.982.395l-.792.79c0 .789.594.987-.397 1.382-.396.197-.792.789-.792 1.184 0 1.185 0 .987-.595 1.777-.396.395-.396.987-.792 1.382-.397.395-.991 1.185-1.387 1.185 0 0-.793-1.382-.793-.987 0 .197-.594.394-.594.592-.397.395-.397.197-.793 0-.594-.198-.594.592-1.189.197-.396.198-.396.79-.99.79-.199 0-.793-.197-1.19-.197-.198.197-.594.395-.792.197-.198-.197-.198-.592-.396-.79-.199-.197.198-.197.198-.395 0-.592-.595-.789-.595-1.579 0-1.777-2.18 0-2.774.395l-.594.592c.198-.197-.793.395-.595.395-.198 0-.396-.197-.792-.197-.198 0-.595.197-.793.197-.792 0-1.189-.79-1.783-.79-.595 0-.99.79-.793 1.382.198.395.793.395.793.79s-.396.395-.793.198c-.396-.198-1.585-.198-1.585.394 0 .198-1.387.988-1.585.988-.396.197-1.189 1.184-1.585 1.184-.397 0-1.387-.395-1.784-.197 0 .197-.198.395-.594.395-.396 0-.595 0-.793.197-.198.197-.198.395-.198.592-.198.395-.396.395-.594.79-.198.592-.793.79-.793 1.382 0 .987.396.592.595 1.185.198.592.198.987.594 1.382-.99.197-.793 1.382-1.783 1.382-1.387.197-.991 0-.991 1.184 0 .987-.793.987-.198 1.975 0 .197.396.395.594.592.198.197 0 .395.397.79.396.197.594.592.99.789.397.198 0 .593 0 .79 0 .198-.792 0-.99.198-.397.394-.199.789 0 .987.594.592 0 .592 0 .987 0 .197.396.197.396.395 0 .197 0 .395.198.592.198.395 1.189 1.185 1.783 1.185.595.197 1.19-.198.595-.79.594 0 .594-.79.594-.79.198 0 .396-.395.595 0 .594.593 1.189 0 1.981 0 .595.198 1.387.79 1.982.987.594.198.99.198 1.387.79.594-.395 1.387.395 1.387 1.185 0 .789-.793.789-.793 1.579 0 .79.198 1.382.198 2.172 0 .79.793.395.991 1.185 0 .394-.198.987 0 1.184.198.198-.198.395 0 .592.198.395.594.198.793.79 0 0-.595.79-.397.79-.594.592 0 1.382.595 1.579.594.395 1.189.988 1.783 1.58-.793.197-.793 0-.793.79 0 .394-.396.197-.792.394-.198 0 .198.198-.198.198h-.595c-.396.197.198.592-.594.592-.793 0-.793.395-1.19-.395-.197-.395-1.188 0-1.188.395-.198-.197-1.387 0-1.387 0 0 .79-.793.395-1.189.592-.396.395.793.79.99.988.199.197.199.395.397.395h.396c.397 0 .595-.198.991-.198s.396.395.595.395c.99 0 .594 0 1.188.592 0 .593.595 1.185.595.198 0-.395.793-.593 1.189-.593.198 0 .793-.395.99 0 .397.395.397.395.793.395.397.198 1.19.198 1.585.593.397.789.199 2.764 1.387 1.579.595-.592 1.982.197 2.774.79.595.395.793.789.991 1.579.198.395.595.592.595.987.396.198.198.79 0 1.185v.79c.396.197.396.592 0 .987v.395c-.198.197-.793.592-.793.789 0 .395.198 1.185.793 1.185.198.79.792-.197.99.197 1.387-.197-.396 2.567 1.784 1.975h.594c.198.197.396-.395.595-.198.396.198.396-.394.99-.394.595 0 .991-.79.991.197 0 .395-.396.987 0 1.185.396.197.99.394 1.387.592.198.197.198.395.396.395h.793c.595.197.793 1.184 1.387.789.198 0 .793-.394.793 0 0 .198.198.395.396.395s.793.198.793.198.594-.198.792-.198c.397 0 .793.79 1.19.79.792 0 1.386-.197 1.98-.197.199 0 .595.197.793.197.198 0 .198-.395.397-.592.396-.198.99.592 1.386.592.595 0 .595-.395.991-.592.397.395.595.987.595 1.579 0 .395-.595.79-.397 1.382.595.79.991 1.777 1.387 2.567.199.197.199 1.184.199 1.382 0 .197.396.395.594.592v.592c.594 1.185.396 1.975 1.585 2.37.793.197 2.378.197 2.972.592.397.395.793.395.991.987.198.592.396.395.991.395.396 0 .793.79.793 1.185 0 .789-.199.987-.793 1.382-.99.592-1.982.395-1.783 1.777.594 1.382.792 1.974.792 3.553 0 .593-.198 1.185 0 1.777.198.593.793.987 1.19 1.382.395.395.593.79.99 1.185l.594.197c.198 0-.198.395 0 .79.397.395.397-.197.595-.197.198 0 .396.394.594.394.198 0 .793.198.99.198.2 0 .397-.198.595-.198.991.395-.792 1.975 0 2.765.397.394.793.394.991.987.198.592-.198.987.793 1.184v.395c.594.592-.595 1.185-1.19 1.382-.197.198-.792.79-1.188.987-.198 0-.594-.197-1.189 0-.594.198-.594.395-.793.988-.198.592-.198.394-.792.394-.397 0-.793.395-1.189 0-.396-.394-.793-.592-.99-.789-.199-.198-.397-.79-.397-1.185 0-.592.594-.79-.396-.79-.397 0-.397.593-.991.593-.198 0-.396.197-.595.197-.198 0-.396-.197-.792-.197-.397 0-.99.197-.99.592l.593.987v.987c0 .395.397.79 0 1.185.595.197.793.395.991 1.184.198.395 1.19 1.185 1.585 1.382.793.198-.396 1.777-.396 2.37 0 .197.396.789.396.987.199.197.595-.198.595 0 0 .197.198.592.396.79 0 0-1.189.592-1.387.789-.396.79 1.19.79.595 1.185-.991.987.99 2.172 1.585.592.198.395.396.395.792.198 0 0-.198-.593 0-.79.397-.395 1.784.197 1.387.592-.198.395.199.198.397.198.396 0 0 .395.198.592.198.197.198.395.198.395.198.395.396 0 .396.592s.397.592.793.79c.396.197.396.592.594.987.397-.395.793.197.991.395.396.395.595.592 1.189 0 .396.395.396 0 .595 0 .396 0 .792.197 1.188.197-.198 0 1.19.987 1.387 1.185.793.197.793.79 1.19.987 0 0 .396-.197.594-.197.396 0 .198.197.396.395.793.394 0 .394 0 .789s.396.79 0 1.382c1.387 0 2.18.79 3.567 1.185.198-.79 2.576 1.579 2.972 1.777.594.197.99.395 1.387.79v.197c.198.395.594.79.594.987 0 .395.199.987.397 1.185.396-.395 1.387.395 1.387-.395 0-.395.99-.198.396-.987.99.197 1.189-1.382.99-1.975-.197-.395.397-.789.793-.395.397.395.793.198.793-.394l.793-.395c.198.197.99.197 1.387.395.396.197 2.18 0 2.18.592 1.188-.79 1.188.197 1.188.987 0 .395.595 0 .793.395.198.395-.397.592-.397.592 0 .198.199.79.199.79.198 0 .198 0 .396-.197.198-.198.198.197.396.394.595.198 1.387.198 1.585.593.397.395.991.592 1.387.789.793.593.397.988 1.388.988-.397.592.594.987.99 1.382 0 0 .397.394.198.394.397 0 .397-.394.595-.394.396 0 .396.592.792.197.198.198.595.198.793.592.396.988.396 0 .594 0 .793 0 .793.395 1.388.79.396.198-.199.592 0 .987.792-.987.99.987 1.386 1.185l.991.987c.397.395-.198.79.595.987h.594s.793-.592.793-.79c.198-.197 1.189-.197 1.585-.197 0 0 .793-.79.991 0 .792-.395.396.395.99 0 .397-.197.199.592.793.592 0 .198-.198.593-.198.79.198.198.396.395.396.592 0 .395.396 0 .595.198.198.395-.595.987-.199 1.184.199.198.397.593.793.593.198 0 .594 0 .793.197.198.198.396.987.594.987.396.198.793.198 1.189.395.594.198.793.592 1.387.592-.198.198-.198.593 0 .79h.594l.595.592c.396.198.594-.394.792 0 .397.395.595-.197.991-.394.397-.198.198-.395.595-.395.396 0 .594.197.99.395.595.197-.594 1.579-.792 1.777.396.394.198.987 0 1.382.198.197.792 0 .991 0 .594.592.792.197 1.387.197.198 0 .396.395.594 0 .198-.197.396-.395.793-.197.396.394 1.189-.198 1.189.394.594 0 .594-.789.99-.789.198 0 .198.592.198.395.199.394 0 .592.397.789.594.198 1.189.395 1.189.987 0 0 .198.395.198.79 0 .198.396.395.594.395.198.395-.198.79.198 1.185.199.197.595 0 .991 0 .198 0 .198-.395.396-.395-.198-.198 0-.79-.396-.79 0-.79-.396-.79.198-1.185.793-.394.397-.592.793-.197-.198.592-.198.987.198 1.382.594 0 1.189.79 1.783.79.397 0 .199.197.595 0 .396-.198.792-.198.594-.79 0-.197.198-.987.397-1.185.198 0 .198.198.396.198 0 0 .594-.198.792-.198.595 0 .397.395.793.79.198.198.793 0 1.189.395.198.395.396.79.991.592.396-.197.396-.197.792.198.198.197.198.197.198.592 0 0 .595-.197.595.198 0 .394.594.197.991.197.198 0 .396.197.792.197s.198-.592.991-.394c-.198.197 0 .197 0 .592.594-.395 1.189-.198 1.783-.198.198 0 .198.198.595 0 .396-.197.396.198.792.198.793 0 .793-1.185 1.189-1.185s.991.198 1.387.198h.991c-.198-.593.396-.593.594-.593.793-.197 1.784-.197 2.378-.592.198-.197 1.189-.395 1.189-.395.198-.395.595-.592.793-.79.396.79 1.387.395 1.981 1.382-.198.593-.198.79.198 1.185.198.198-.198 1.58-.198 1.777-.396 1.382-1.387 2.369-.198 3.554 0 0 .594.395.793.592 0-.395.594-1.777.792-1.974.198-.198.793 0 1.189-.395s0-.592.198-.987c.397-.79.793-1.777 1.585-2.172.793-.395.991-.987 1.586-1.58.396-.789 1.189-1.382 2.179-1.776.397-.198.793 0 .991-.198.198 0-.198-.395 0-.592h.396c.595-.592.991-.395 1.586-.592.99 0 3.566.197 3.962 1.184-.396.395-.99 1.185-.198 1.382.397.198.793.198 1.189 0 .397-.197.397 0 .793 0s.594-.197.991-.197c.396 0 .594.197.99.395.595.197 1.586-.198 1.784.592.396.197 1.387.592 1.585 0 .396-.592.792-.987 1.585-.987 0 0 1.189.79 1.189.987.594.395 1.783-.197 2.18.592.396.593-.199.593-.199.987 0 .395.199.593.199.79 1.188 0 2.179.395 3.368.395.396-.197.396-.395.793-.592.198-.198.396-.198.396-.198.198-.197.396.198.594 0 .199 0 .199 0 .397-.197.198 0-.198-.592.198-.592.198 0 .396.789.594.987.397-.987.397-.198.595-.395.198-.198.198-.395.396-.592 0 0 .198.394.396.197.397-.197.199-.197.595-.197.396 0 .198-.593.396-.593.595 0 .991-.197 1.387-.592l-.198-.198c.594-.789-.793-.197-.396-1.184.198-.395.198-.395.594-.592.198 0 .198-.198.396-.198.397-.197.199 0 .397 0 .99-.395 1.585-1.382 2.576-1.777.396-.197.792-.987.99-1.382.199-.395 0-.592.199-.987.198-.197.198-.197.198-.395 0-.395.198 0 .594-.197.198 0 .198-.395.396-.395.199 0 .397.197.595.197.198 0 .792-.395.991-.395.594 0 2.179.395 2.179-.394.397.592.793-.198 1.189-.395a9.68 9.68 0 0 1 1.387-.593s-.198-.197-.198-.394c.198-.198.396-.198.793 0 .99-.395-.198-1.185.594-1.58.396-.197.595.395 1.189-.197.198-.198.198-.593.396-.79 0-.198.397-.197.595-.395.396-.395.99-.395 1.189-.79.198-.395.792-.197 1.189-.197.594-.198.99-.79 1.387-1.382.99.197 1.387 1.184 1.585 1.777.594-.593 1.387.197 1.981.395 0 0 0-.395-.198-.593.396.395.991.593 1.585.79.198 0 .595.197.793.197l.594.198c.793.395 1.387.592 1.784-.395v-.395h.594c.198-.197-.198-.592-.198-.79.396 0 .594 0 .594-.394 0-.198.595-.198.793-.395.396-.198.594-.593.793-.79.198 0 .594-.197.792-.197.198 0 .396-.395.595-.395.198 0 .198.197.396.197s.396-.395.594-.395c.793-2.171 2.18 3.554 3.369 1.185.198 0 .396.395.594.592-.198.198-.396.987-.594.987-.396 0-.793.198-1.189.395-.396.198-.198.592-.793.592-.396 0 .199.593.397.79.198.395-.397.593-.198.987.198.593.594 0 .99-.394.595-.79 1.585-1.185 2.576-1.185-.198.197-.594 1.185-.198 1.185.396 0 .396.789.595 1.184.198.395.99.79.396 1.382-.198.198-.991.592-1.387.395.594.395.198.592 0 .79 0 0-.595.197-.595 0 .198.789-.396.197-.594.395-.198.394.198.592.198.789 0 .593-1.189.395-.793.79.199.198 1.387.592 1.387.198 0-.395.397-.395.793-.395s.595-.198.991-.593c.198.198.792.198 1.189.395.594.198.396.79 1.189.79.198 0 .396-.197.594-.197.198 0 .198.197.198.197.198 0 .595.395.991.395s.793-.987 1.189-.395c.198.197.991.592.991.79 0 .592.99.592 1.188.789 0-.197.595-.394.595-.592 0 0 1.189-.197.594-.79-.198-.197.793-1.974.793-1.974.396 0 .396.79.793.395.396-.395.594-.198.792.395 0 .197 0 .395.198.592.198.198.198 0 .397.198.198.789.594.197 1.188 0 0 .394.991 1.184 1.189 1.184-.198.198-.198.592 0 .79h.595c.198 0 .198.395.198.395.396.197.594.395.396.789-.198.395.198.79-.198.988-.198.592.595.592.793 1.184 0 0-.595 0-.198.395l.396.198c-.396.394.396 2.369.792 2.764.199.394.397.394.793 0 .396-.395.198-1.58.594-1.382.397.394.793 0 .991 0 .397 0 .397 1.184.991.592s.793.395.594.79c-.198.197 0 1.579.199 1.579.396.395.198.79 0 1.185-.199.592 0 .592 0 1.184 0 .198-.199.79.198.79.396 0 .198.197.396.395 0 0-.198.592-.198.79 0 .394.198.592.198.789 0 .198-.396.395 0 .593.198.197.396.394.198.592-.198.395 0 1.777 0 1.777-.594.197-.198 1.579-.198 2.172 0 .394-.594.987-.793 1.579.397 0 .793.592.397.79-.198.197 0 .395-.397.592-.396.198-.396-.197-.198-.592-.198.197-.792.197-.792.592 0 .395.594.79.198 1.185.198 0 .198.197.594.197.397 0 0 .395 0 .395l.397.395c.396 0 .396.79 0 .79-.397 0-.199.394-.793.394-.198 0-.396-.394-.594-.394-.595 0-.793 1.382-1.189 1.579-.397.395-.397.197-.397.592 0 .395 0 .395-.396.593-.396.197-.396.394-.594 0 0-.198-.595-.198-.793-.395-.198-.198-.198.789-.198.987 0 0-.396.197-.396.395 0 .197.396.79.396 1.184 0 0-.396-.197-.595-.197-.198.197-.198.592-.396.987-.198.198-.396 0-.594.395-.198.197-.397.592-.595.592-.594 0-.198-.197-.594-.395-.397-.197-.397-.394-.595.198-.198.592-.198.79-.594 1.382-.198.197-.396 0-.595.197-.198.395.199.395.199.593 0 .394-.199.987 0 1.184.396.395.792.593-.199.593-.396 0-.792.394-1.188.592-.793.592-.397.395-.397.987s0 1.185-.198 1.777c0 .395-.396.987.198.79.198-.198.397 0 .793 0 .594 0 .198 0 .396.394 0 0 .396-.197.396.395 0 .395-.594 0-.594.395 0 .593.793 0 .991.395.198.198-.198.395-.198.592 0 .198.198.395.198.593 0 .197-.198.395-.397.395 0 0 0 .197-.198.197-.198.197-.396 0-.396 0-.198.395-.198.79-.594.987-.397 0-.397.395-.793.592.396.395 1.189.198 1.189.988.396-.198 1.387-1.58 1.783-.988l.595-.592c-.199-.79.792-.395 1.189-.79.99-.592 2.179-.394 3.17-.394.594 0 .792-.395 1.387-.395.396 0 .991.395.991.395.396 0 .792.197 1.189 0 .198 0 1.387 0 1.585-.198.396-.395.792 0 .594.395-.198.395-1.189.592-1.585.987-.198.198-.396 0-.793.198 0 0 .199.394.397.394 0 .198-.198.593 0 .79.198.395-.595.395 0 .79.198.197.792 0 .99 0 .397.395.199.987.595 1.579.198.198-.198.395-.396.593-.397.197-.199.395-.199.789.199.593.397 0 .793.593.198.395.198.592.198.789 0 0-.792.395-.198.593.991.197-.198.789-.198 1.184 0 .198 1.585.198 1.783.198-.396.197 0 .592.397.79.396.197.99-.198 1.387-.198.792 0 2.377-.395 2.774.592-.397.395.396.988.396 1.382-.198 0-1.189-.197-1.189-.197-.198.197.198.592-.198 1.185l-.595.592c-.198.395 0 .395 0 .79 0 .394.595.987.199 1.184-.199.198.198.592 0 .592-.199 0-1.387 1.185-.991 1.383 0 .394-.793 1.382-.595 1.776-1.188.198.199.79.595.988h1.189c.396 0 .396-.593.792-.395.595.395.793 0 1.586.395.594.197.594.987 1.188.197.199.197.397.592.595.592.396 0 .198-.395.594-.395.198 0 .595.198.793.198 0 .197 0 .395.198.592 0 .79-.793 2.369.198 2.962.397.197 1.585 0 1.585.592-.396 0-.792.987-.594 1.382.198.395.594.592.991.79.198-.593.594-.395.99-.593.397-.197.397-.987.991-.394 0 0 .198-.198.396-.198.397.592 0 .592.793.79.595.197.793-.198 1.387-.198 1.189 0 1.387-1.579 2.378-1.974.396 0 1.981-.987 2.18-.987 0 0 .198.987.198 1.185.198.394.198.592 0 .987 1.189-.198.594.789.594.789 0 .593 0 .79.595.988-.199.197-.199.394-.397.592.595.197 0 1.579.991 1.579.198 0 .594-.394.594-.592.199-.197.595 0 .793-.197.594-.198.991 0 1.585 0-.594.789.397.197.793.395l.198.592c.198.197.396-.395.793 0 0-.592-.199-.79.396-.79.594 0 0-.592-.198-.592-.198-.198-.793-.198-.793-.395-.198-.198.198-.79.198-1.185s.198-.592.198-.789c0-.593 0-.395.397-.988.198-.197-.595-1.184-.595-1.184.198-.395.198-.79.397-1.185-.397 0-.793-.592-.793-.79 0-.592-.594-.394-.991-.789l.198-.198c0-.395-.594-.592-.594-.987 0-.197.396-1.382 0-1.382s-.198-.79 0-.79c.594 0 .793-.987.793-.987v-.79c.396-.789.99-.592 1.585-.197 0 .79.792 1.382.792.592 0-.592.595 0 .991-.395.396-.197 1.189.001 1.387.593.595-.987 1.387.395 1.387-.987 0-.593 1.387-.988 1.387-1.58-.396 0-.198-.395-.396-.592.991.197.396-1.185 1.585-.592.198 0 0 .197 0 .394 0 .395.198 0 .396.198 0 0 .397-.395.793.395l.396-.395c.198.197.397.592.793.79.198 0 .396.197.594.197.397 0 .198.395.198.592.397.593 1.586 1.777 1.982.987-.396-.394-.198-.592.198-.592.198 0 .396 0 .595-.197.198-.198 0-.395 0-.395.198-.198.198-.395.396-.592.198-.198.792-.395.792-.395 0-.593.595-1.58 1.388-.987.198.197.198 1.382.792 1.579.396.197.595.197.793-.197.198-.395-.198-.395 0-.79 0-.395.594-.395.594-.79 0-.592.793.395.793.592.396.395 2.378 2.764 2.972 2.172.396 0 .396-1.777.594-2.172.397-.789 1.189-.987 1.982-.987-.793.987.594.987 1.189 1.382 0-.395 1.585-1.382 1.981-1.579 0 .592.793.197 1.189.197l.198.198c.198-.198.397-.593.595-.79.396-.395.594-.197.594-.79 0-.395-.396-.789-.396-1.184 0-.395.396 0 .594-.198.198-.197 0-.395.198-.592h.793c.396 0 .594-.592.991-.592.396 0 .396 0 .594-.198.198-.197.397.198.595 0 .198-.197 0-.395.198-.592l.594-.592c.198.197.397 1.579 1.189.987 0 .789.991.987 1.189 1.382.198.197-.198.987 0 1.184 0 0 .991.198 1.189.198.793.197.991.395 1.783.987.198.197.991.197 1.387-.197.199-.395 1.586-.79 2.18 0 .198.197 0 .987.396.987.793 0 .793-.198 1.387-.198.198 0 1.784-.987 1.784-.197 0 .592 1.387-.198 1.387.987.198-.197.594 0 .792.197 0 .198-.99.593-.594.988l-.595.394c-.198.395.199.79-.396.988-.198 0-.198-.593-.792-.395-.199.197-.199.789-.397.987l.397.197c-.397.198-.595.79-.199 1.185.397.395.991 0 1.189.79 0 0 .198.197.198.395.199.197-.396.197-.396.394 0 .593.198.198.198.395 0 .593.198.987 0 1.58.198.197.397.197.595 0 .198-.198.594-.198.594 0 .396.395.595 0 .991.197 0 0 0 .395.198.592.198 0 .396-.197.595-.197.396.197.594.197.396.592-.198.395-.198.198 0 .593.198.197 1.981 1.382 2.179 1.184.793-.789.595.987 1.189 1.185 0-.198.397-.79.793-.79.198 0 .198.395.198.592 0 .198.396.198.595.198 0 0 .99-.198 1.188-.198l1.189-.592c.198.198.397 0 .793.198.396.197 0 .592.396.592.198 0 .396.592.396.79-.198.592-.396.394 0 .789.199-.197.199-.395.397-.592.396.197-.595.987.396.395.396-.198.595-.592.198-.395-.594.197-.396-.395-.198-.395.198-.197.595 0 .991.198a1.78 1.78 0 0 1 1.189-1.185c.792.395-.397.987-.198 1.382 1.188-.395.792-1.382 1.188-1.974.793.395.199.395.991 0 .198.592-.198.987-.396 1.382 1.189.197 1.387-.593 1.783-1.382-.198-.593-1.585-1.975 0-1.975.595.395-.198.593-.198 1.185.198.79.793.197 1.387.592 0 .395 0 .987.198 1.185.397 0 .595-.395 1.189-.198.396 0-.198-.394 0-.789.595.987 2.18.789 3.171 1.382 0 .789-.991.197-1.189.987 1.387.79 3.17 0 4.953-.395 0-.395 0-.79.199-.987-1.982-.79-1.189-3.159.594-3.751.198 1.184-1.387.987-1.387 1.777.198.789.793 0 1.387 0 .198.789-.594.394-.396 1.184.594.395.198.79 1.189.592-.199.198-.595.395-.397.988 0 .394.793.197.793.592.396 0 0-.592.198-.987.396.789.594.789 1.585.987.198.987-.594 1.184-1.585 1.184.198 1.185 0 1.777-.991 2.172.991.79 0 1.382 0 2.764.198.198.793.987.793.198.198.789.396 1.382 0 1.777.991.987 1.189 1.974 2.576 2.566 0 .79-.793-.197-1.189-.197-.595.79.991.987.198 1.777 2.18 0 5.35.592 6.143-2.172.198-.987-1.189-1.185-.397-1.579 0-.395-.792.197-.594-.593-.595 0 .198.987-.198.987-.397-.197-.991-.197-.991-.987-.396-.79.793 0 .793-.592.198-1.382-.991-1.185-1.982-1.185-.198-.395-.198-.789-.396-1.382.792-.592 1.585-1.382 2.378-1.974 0-.987-.595-1.185 0-1.974.99.592-.199 2.764 1.387 2.764.198-.198.198-.395.396-.593.198-.592-.396-.394-.793-.394 0-.593.793-.395 1.387-.395-.396-.79.397-.79 1.189-1.58 1.784.198 3.171-.987 5.152-1.184.198.592-.594.197-.594.789.792-.395 1.783-.592 1.783-1.579.198 1.184.793.79 1.982.79 0-.988 1.387-.79 1.585-1.777 0-.395-.595-.198-.793-.395 0-.592 1.387-.395 1.189.592.991-.395 1.981-.79 2.972-1.382.397 1.185 2.576 1.58 2.774-.197.991-.198.595.987 1.585.789.793-.592 1.388-2.369 2.378-1.974.793-.197 0 .987.595.987.99.395.396-.987 1.387-.79-.595-1.974 1.189-3.553-.198-5.133.99-.79.792 1.185.792 1.975.991.197.595-.79.991-1.185.594 0 .793.592 1.189.987-.198.592-.793-.197-.793-.592-.594.395-.594 1.579-1.189 2.172.397.394.991.394.793 1.382.594-.198.396-.79.991-1.185.594.197.198.395.198.987.594 0 .991 0 1.189-.395 0-.592-.397-.592-.991-.592.594-.592-.793-1.185.396-1.382-.594-1.382-1.981-1.974-1.783-3.751-.991-.198-.793-1.185-1.189-1.975-1.783-.197-1.387-2.171-1.981-3.553.792.592.792 1.974 1.387 2.764 1.189-.198.99.197 1.783.789.198-.987.594-.197 1.387 0v-.987c-.396-.395-1.585 0-2.18-.197-.396-.395-.594-.987-.594-1.974.396.592 1.783-.198 2.18-.395 2.576.789 4.161-.988 7.331-.198-.991.79-3.17.79-2.576 2.369-.198-.987-.594.198-.792-.592-.397 0-.199.592-.595.79.595.395.595 1.382 1.585 1.184-.198 1.58 1.585 1.777 1.189 2.962.793 0 .793-.79 1.387-.395-.198.592-.991.592-1.387 1.185.198.592.991.395 1.387.592-.594.395-1.387.592-1.783 1.185.198.789 1.387 0 1.585.394.198-.592.198-1.382 1.189-1.382.594 0 .396.593 0 .79.198.79 1.387.198 1.387 1.382.793-.395-.396-.592 0-1.579 1.189 1.382-.594-.79.594-.79.991 0-.198 0 0 .592.397 0 .595-.197.991-.395 0-.394-.396-.592-.594-1.184-.991.197-.991.987-1.784.395.397-.198.991-.79 1.586-.395.198-.79-.991-.198-.793-.987.594-.198.991-.395 1.585-.593.396.395.991.79.991 1.58.594-.198.991-.198 1.387-.593-.396-.197-.595-.592-1.387-.592.198-.395.594-.395.793-.79 0-.592-.595.395-.595-.197.198-.987 1.585-1.382 2.378-1.185-.396.395-.198 1.185-.198 1.58.396.592 1.783-.592 1.387.79.198-1.382 1.387-1.777 1.783-2.962.991.592.595-.197 1.783-.197-.198.197-.594.395-.594.789.594.198.594-.394 1.189-.197.396.395-.198.592.198.987 1.189-.395 1.189.198 1.982.395.594-.197-.397-.592.396-.79-.198-.395-.397.198-.991-.197.396-.198.396-.592.595-.79 0-.395-.595 0-.991-.197-.198-.79.99-.198.792-1.185.198 0 .199.395.199.79.396-.198 1.188-.198 1.387-.79.594-.197.396.592 0 .592.198.593 1.585.198 1.188 1.382 1.189-1.184 3.369-.197 4.36-2.171.594 0 .99.197 1.387.592 2.179 0 .991-2.172 2.179-2.962-.198-.592-.99.395-1.189-.197 0-.592 1.388-.395 1.388.592.396-.592.99-1.184 1.585-.592-.198-.395-.397-.592-.397-1.185-.594 0-1.387 0-1.585.395-.792-.789-1.783-1.579-2.576-2.566 1.585.395 3.171 2.961 5.152 1.382-.198-.79 0-1.185 0-1.975.396-.394 1.387.395 1.585-.394.397 0 .397.592.397 1.184.792 0 .792-1.184 1.783-.592.198-.198.198-.987.198-1.58.595.198.595-.197 1.189-.197-.198.395-1.189.987.198.987 0 .592-.991.198-.991.987h.991c.396-.592.396-1.382 1.387-1.579-.198-.593-.594-.198-1.189-.198.397-.395.595-1.382.595-1.579 1.387-.198 1.189.987.991 1.777.792-.79.396-2.962 1.981-2.962 0 .593-.991.79-.594 1.382 1.387-1.184 1.981-3.159 3.963-3.948.198-.988-.793-.593-.793-1.382-.595 0-.991.394-1.585.394v-1.184c.792 0 1.387.395 1.585-.198-1.387-.789.793-.789 1.387-1.776.198.394.198 1.184.396 1.579.198-.592 1.189-.592 1.585-.79.397-.395 0-.395.199-1.184.594.395.396 1.579 1.585 1.382.198.395-.396.197-.396.592.99.592 1.387-.592.99-1.579.793.789.793-.593 1.387-.79-.198-.395-.792-.395-1.387-.395 0-.395.198-.987-.396-.79.594-.197.793 0 .594-1.184.397.197 1.189.592.793 1.184.793-.395 1.585-.395 2.576-.197-.198-.395-.991-.198-.793-.987.595-.198.198.592.991.395 0-.988-1.189-.79-1.585-1.58-.198-.79.792-.395.991-.987 0-.395-.397-.592-.793-.79.198-.395.793-.395 1.387-.592.396 0 .595.395.793.79.594.197.198-.593.792-.395-.198.987.991.197 1.189.987.396 0 0-.987.793-.79.198-.592-.595-.395-.397-.987-.594-.197-.594.395-.99.592 0-.789-.397-.789-.991-1.579.198-.79 1.783-.395 1.585-1.58.396.593-.594.79 0 1.58.396 0 .198-.987.595-1.185 1.188-.197.99 1.185 1.585 1.58.991.197-.397-.987.594-.987 0 .592 0 1.184.595 1.382.594-.988-.991-1.58-.397-2.567-.594-.198-.594.395-1.189.197 0-.592-.396-.592-.198-1.382.595 0 .793-.197 1.387 0 .397-.987-.594-2.566.991-1.974-.198-.592.198-.592.198-1.185-.198 0-1.189-.197-1.783-.197-2.18 2.369-3.369-1.382-4.954-1.777 1.387-.592 1.585 1.974 3.369 1.185.198.197.594.592.792.987.397-1.185 2.576-1.777 1.784-2.567 1.387-.395 1.981-.395 3.17-1.184-.793.394-1.981-1.975-1.585-2.172-.793-.987-1.982.395-2.378-.592.793-.395.595-.79.198-1.383.595-.394.991.395 1.387.593 0-.198-.594-1.185-.594-1.777.396.197.594.987.792 1.382.397-.395 0-1.382.991-1.185-.396.198 0 1.185 0 .395.595.198-.198.79-.198.987.198.395.793.198.594.988.199-.593.595-.79.595-1.58h1.387c-.396 1.185-1.982 1.382-2.378 2.567.991.592 1.189-1.185 2.576-.987.991-.988 0-1.777-.793-2.567.991.197.991-.592 1.982-.395.396-.79.198-1.185.594-1.974.595.197.793.197 1.189-.198 0-.395-.594-.592-.396-1.382.198.79.991-.197 1.189.987.594-.592.594-1.579.594-1.974 0-.79.793 0 1.189 0 0-.395-.198-1.185.397-1.185 0-.394-.793-.197-.793-.789-.198-.79.793-.593.594-1.58 0-.987-1.188-1.184-1.585-1.184 0-.395.397-.395.595-.79.792.197.792 1.185 1.585 1.579.594-.592.991-1.382 1.585-1.974-.396-.79-1.387-.987-2.576-.987.198-.79-.396-.79-.396-1.382.792-.198.594.592.792.987.199-.197.199-.395.595-.395.396.79 1.783.395 1.981 1.382.991-.987 1.784-3.159 2.973-4.541.594.198.396.987.792 1.58-.792.395-1.387.789-1.387 1.974.793.197.396-.592 1.387-.395.396-.395-.396-.592 0-1.382.396.198.198.79.991.592.396-.789.396-1.579 1.189-1.974.792-.197.792.592 1.189.987.792 0 .792-.987.594-1.382-.198.198-.198.395-.594.395 0-1.185-.595-1.777-.793-2.961-.594 0-.991-.198-1.783-.198 0-.79-.991-.79-.991-1.579.396 1.382 2.576 1.184 4.161.987 0-.395 0-.987.198-1.185-.198-.592-1.189-.592-1.387-.987 0-.79 1.189.198 1.387.198.793-.593-.396-1.185-.396-1.975-.793-.197-.991 0-1.783 0 0-.197 0-.592-.198-.592.396-.592 1.585-.592.99-1.58.595 0 .397.593.991.593.594-.395-.594-.593.198-.987.793-.198.198.987.396 1.579.397 0 .397-.197.793-.197.396-.395 0-1.58.396-1.975 1.189.79-.396 2.369.198 3.357 0 .197 1.189-.593 1.388.394.792-.592 0-1.776.396-2.566-.198.197-.198.395-.595.395.397-.79-.594-1.777.595-1.777-.991-.987 0-1.185-.198-2.172-.595 0-.991.592-1.586.592.793.198.595.988.199 1.58-.793.197-.595-.592-.991-.987-.595.789-1.585.987-2.378 1.382-.594-.593-.198-.987 0-1.58 1.585.198 3.567-.789 3.963-2.369 1.387-.197 1.585-.197 2.576-1.382-.991-.197-2.378 0-3.765-.592-.792.592-1.585.987-2.378 1.579.199-.395.397-.79.397-1.382.198.198 1.189 0 1.387-.395 0-.592-.793-.395-.991-.987-.793-2.172-2.774-3.949-4.954-2.369-.594.395-.99 1.185-1.981 1.382-.793.197-1.387-.592-1.784.197 0-.789-.396-1.579-.198-2.369-.99-.79-2.576-.197-2.576.987-.594-.395.199-1.184.199-1.382 2.575-.197 5.746 1.382 5.35-1.579 3.17-1.58 5.548-3.554 9.511-3.949-.595-2.369-1.586-4.343-3.567-5.133 0 .395.594.592.396 1.382 0 .197-1.981.197-.99.395-.199.592-.595-.198-1.189 0 .396-.395 1.387-.395 1.783-.79-.793-.79-1.387-2.172-2.774-2.369-.595-1.974-2.378-2.567-4.756-2.764.793-2.962-3.368-2.567-4.557-1.975.198-.592.991-.987 1.387-1.382 2.18.395 4.161.593 4.557 2.962.991-.197 1.586.197 2.18-.592.594.197-.396.395-.198.987 1.783 1.579 3.963 2.566 6.539 3.356.198-.197.792-.197.792-.79-1.783-1.184-4.161-1.579-4.953-3.553 1.387.789 3.17 2.171 5.152 1.579-.595-2.369-1.982-4.738-4.558-4.343-.396-.198 0-1.185-.792-1.185.594-.592.198-1.185.198-2.172-1.784-.395-3.567-1.777-4.756-1.974.198-1.185.396-2.567 0-4.541 0-.395-.594 0-.991-.197-.198-1.975-2.377-2.765-1.585-4.739 0-.592-.792-.592-.991-.987.199-1.382 0-2.764-1.387-3.159.397-1.777-.792-3.356-1.189-5.133-2.575-1.58-5.944-2.172-7.925-4.146-.199-.593.198-.79.198-1.382-.595.592-1.586.197-2.576.197-.198.79.594.395.396 1.185-1.189 0-2.378 0-3.368-.395.594-.592 1.585.197 2.377 0 .595-1.185-.198-3.554 1.189-4.541.198.197.198.395.595.395.198 0 .198-.395.396-.395.198-2.567 2.378-3.159 2.774-5.528 1.189-.198 1.387-.395 2.378-.395.396-.395.396-.987.198-1.58.594.593.594.395 1.387 0-.793-1.777 1.981-1.579 2.576-2.764-.396-.592-.793.593-1.189.395-.594-.197 0-.592.198-.79-.198-.592-1.387-.197-1.387-1.184 0-.79 1.387-.987 1.585-.395.595 0-.198-.987.397-.987.99.197.396 1.777-.199 1.974 1.189.592 2.973-.395 4.36-.79-.595-.394-.397-1.579-.793-1.974.198-.197.991.198.991-.197.198-.79-.793 0-.595-.79.595.197.199-.79.991-.592.595 0 .595.592.991.789.396-.395.396-.987 1.189-1.579-.198-.395-1.189 0-.991-.987-.396 0-.991-.198-.793.395-.594-.395.199-.988.793-.988.198.593.991.395 1.189.988 1.387-1.185 4.359-2.567 5.944-1.777.397-.198.199-.79.397-1.185.396.395 2.972-.987 2.972-1.579.594 0 .793.197.793.987.792-.198.99-1.185 1.585-1.58-.198.395-.397 1.185-.198 1.777.396.395 2.576.79 2.377-.592 1.387.987.397-.79 1.387-1.185-.198-.395-1.188.198-1.585.198.595-.198.595-1.185.991-1.58 1.387.593.991-.987.991-2.171.396-.198.594-.395 1.387-.395-.198-.987-1.189-.395-1.585-.395-1.586 0-3.171-.198-4.162-.592-.198-.593.595-.198.397-.79-.397-.593-1.784 0-1.982.79-1.783.197-3.17-.001-4.161.394-.594-.592-1.981-1.382-1.387-2.171-.396.592-1.387.592-2.378.592-.198-.198-.198-.987-.198-1.58-1.189.395-1.585-.592-2.179-1.382-2.18 0-3.963.988-6.143 1.58.793 2.172-2.576 2.961-4.359 3.751-.199.592.594.395.792.79-1.585 3.159-7.529 1.777-9.511-.395.198-1.382-.198-3.356 1.387-4.541-2.378-2.567-4.359 3.159-6.737 1.185 2.774.197 3.765-2.962 5.945-2.172.594-1.185-.595-1.974-.793-2.962-.594-.197-.198.593-.793.395 0-.987.199-1.184 0-1.777-1.189.198-2.179.79-2.972 1.58-1.387-.593-2.972-.79-4.557-.593-1.189-1.184-2.378-1.382-3.765-2.369-1.189-1.974-2.18-5.133 0-6.712-.991-.395-2.774-.593-3.963-1.382 1.387.197 3.567.394 4.557.987-.792-1.382 1.586-2.962 3.567-2.172.198.987.793 1.382 1.387 1.777 1.387 0 1.982-.79 2.774-1.58.991.198 2.18 0 2.774.593 1.387-.593 2.774-2.37 4.161-3.554 0-.592-.99 0-.99-.79-.595-.197-.199.592-.793.395-.594-.395-.991-.987-1.783-1.185.198-1.184-.793-.987-1.189-1.579-.198-.987.198-1.382.198-.198.198.593 1.387.395 1.189 1.58 1.585.197 1.585.79 3.17.79.793-1.58.793-3.554 2.774-3.949.397-.197.198-.79.397-1.185 3.368-.394 5.151-2.764 8.52-3.158 1.189-.395.198-1.777 1.387-1.975 0-.197-.396-.197-.594-.197 1.387-1.382 2.179-3.357 4.557-3.949 0-.197-.594 0-.594-.395 0-.592.99-.197.594-1.184.991.394 1.387-.593 1.783-1.185.793.395 2.378-.592 2.576.592 0-.592 1.189-.987.991.198.396-.198.991-.987.991-.987.594-.593.198.789 0 1.184h1.189c.396-.592.594-1.579 1.189-2.172 1.188 0-.793 1.185.594.988.198.789-.793.394-.991.987.793.789 1.784 2.172 3.369 1.777-1.387-.79.396-2.172 1.387-1.777.594-.593.594-1.58 1.387-1.975.594.988-.991 1.382-.991 2.37-.396 0-.991.197-1.585.394 0 .988.991.988 1.387 1.383 0 .789-.991.197-.991-.198-.594 0-.198.987-.792 1.185.594.395 1.188.789 1.387 1.579-.595.592-.595 1.777-1.586 1.777-.198.592.397.592.199 1.185-1.189.592-2.378 1.974-2.576 2.961-1.387.592-2.973.987-3.765 2.567.792.197.991.987.991 1.382-.595-.198-2.576-.198-3.171 1.184.595.395 1.982 0 2.576-.394.595.197 0 .789-.594.592 0 .79.594.987.792 1.579 1.784 0 2.18-.197 3.765-.395-1.189.395-1.585 1.777-2.972 1.58.396.197.396.79 0 .987-.198.79.991.197.792.987-.594.79-2.377 1.382-3.17.79-.198 1.579-1.387 1.185-2.576 1.382.793.395 0 1.579.595 2.369 1.783-.987 3.17-1.579 5.548-1.579.198-.79-.397-.987-1.189-.987.594 0 .594-.79 1.189-.988 0 .79.198 0 .396 0 .595 0 .595 1.185 1.387.79.793-.592-.792-.79-.198-1.184.793.197 2.774-.395 2.378-1.777 2.972-2.567 5.746-3.554 9.313-5.529.594-.197.396.198.792.395.991-.394 1.387-.592 1.585-1.579 0 .197.991.79.991 0 .397 0 0 .592.198.987.595-.197.991-1.579 1.586-.592.198-.395.396-.593.594-.987 1.585.394 3.963.592 5.548-.198.198 0 0 .987 0 1.185.198-.198.595-.198.396-.79-.198-.79.793-1.185.793-1.185 0-.394.198-.394.198-.197.198-.395 0-1.185.397-1.382.396-.395 1.188-.592 1.188-1.185 0-.394 1.387-.592 1.586-.789.396-.198.198-.988.792-.988.396 0 .595-.592.793-.789.396-.593.396 0 .594 0 .397 0 .397-.198.595.197.396-.197.396 0 .198-.592-.198-.395 0-.592.594-.592 0 0 .793-.395.991-.593.396-.197.793-.789 1.387-.789v.394c.396-.197.991 0 .991-.197s.594-.592.594-.79c0-.395.793.198.793-.197 0-.198 0-.592.198-.592s.396.789.991.197c-.198 0-.198-.197-.397-.395.199-.197.991-.79 1.189-.987.595.395.793-.198 1.387-.198.397 0 .595.198 1.189.198.198 0-.198-.592-.198-.592l.396-.395c.595.197.991-.79.991-.987 0-.593 1.783-.79 1.783-1.777 0-.198 1.189-1.777 1.586-1.777 0 0 .198.197.198.395.792 0 0-.988.198-1.382.198-.395.793-.988.793-1.382 0-.593-.793-.395.198-.988.198-.197.396-.197.792-.394-.198-.198-.198-.395-.198-.593.793-.789.396.198.991.395.594 0 .198-.395.594-.395.397 0 .397-.197.595-.395.198-.197.198-.394.594-.394v.394h.198c.595.198.793.395.991.988-.594.197-.396.592.198.592.198 0 .198.197.397.395.198.197.396.197.594.197-.396 0-.793.395-.594.79.198.395.594-.198 1.189.395.198-.395.396-.198.594-.198-.198.395 0 .395.198.395s.198-.197.396-.197.397.197.397.197c.198 0 .594-.197.594-.197.198 0 1.387.789 1.585.987l.397-.395v-.395c.396.198 2.179.79 1.981 0 .198.198.396 0 .793.198 0 0 .396 0 .594-.198 0 .395.198.592.595.395l.198.395c.594.987 1.387-1.185 1.387-1.382.198-.198.198-.198.396-.592.198-.395-.198-1.185-.594-1.382-.397-.198-.397-.395-.595-.79-.198-.198-.396-.592-.594-.592-.198-.395-.595-2.172-.397-2.37 1.189 0 2.973-1.184 3.963 0h.793c.396 0 .594-.197.991-.395.198 0 .198.198.396.198s.396-.395.396-.395c.198 0 .793 0 .991.197.595.198.793.198 1.189-.197 0 0 0-.395.198-.592.198-.198.396.197.595 0 .198-.395.396-.198.792-.395.396-.395.793-.592 1.189-.987-.396-.198-.396-.395 0-.593 0 0-.198-.394-.396-.592.792 0 .396-.197.594-.592.198-.198.396 0 .595 0v-.395h.396l.198-.395.198.197s.397-.197.793-.197c.198.197.396 1.185.792 1.185.397 0 .199-.198.397-.395.198-.198.594-.198.198-.79h1.189c.594 0 .198-1.185 0-1.579.594-.198.198-.395.198-.79 0-.198.396-.198.594-.592-.594 0-.198-1.382 0-1.777 0-.395.199-.395.397-.79.198-.592.198-.395.792-.592l-.396-.395v-.593c.594-.394.793.593 1.387.79.396 0 .793-.197 1.189-.197.594 0-.198.592 0 .79.198.197.594-.198.991 0 .594.197.396.197.396.789 0 .395-.396 1.58.198 1.975.594.197.595.987 1.387.789-.198.395.198.79.396.79.397-.197 0-.592.199-.592.594-.395.396.592.594.987 0 .197.198.197.198.395-2.972 0-2.576 0-2.378-.198zM431.176 57.72c-1.585.987-2.18 2.764-4.161 3.16.594 1.184-.198 2.368-1.784 1.973-.198-.79.397-.592.595-1.184-.198 0-.396-.197-.396-.395-.199 0 0 .197 0 .592-1.189-.395-.397-1.382-1.388-1.776 0-.395.397-.593.199-1.185 3.368-.79 3.764-4.344 6.539-5.528.594.395-.199.987 0 1.58.198.394.396.591 1.188.591.199 1.185-1.585 1.383-.792 2.172zm2.774-.197h-1.783c.396-.593-.199-.395-.199-1.185.991.79 1.387-.592 2.378-.395.198.988-.594.79-.396 1.58zM75.3 269.17c-.792-.197-1.98.198-1.98-.79.99.198 1.188-1.184.99-1.777h.99c.2.79-.395.79-.792.988 0 .789 1.19.395.793 1.579zm.595.395c-.198-.79 0-1.579 0-2.172.793 0 1.586 0 2.18.198 0 1.184-.99 2.171-2.18 1.974zm17.041-9.477c.198-.592-.396-.395-.396-.79-.793.198-2.378.593-2.378-.592h1.387c0-.395-.198-.395-.198-.79 1.189 0 1.783.198 2.576.988 0 .394-.198.394-.396.394.396.593.396.198.99 0 .198.395.991.395.991 1.185-.99-.592-1.387-.395-2.576-.395zm8.917-.592c.396 0 .396.197.792.197-.198.79.397 1.185.199 1.975-.991-.593-.595.395-1.586.592 0-.987.199-1.579.595-2.764zm-.595 4.738c-.396-.592-.594-.592-.396-1.579 1.387 0 3.17-.198 3.765.592-.396.987-1.783 1.185-3.369.987zm17.437 3.357c.595-1.58-1.783-1.975-1.783-.79-.396-.592-1.585-.198-1.981-.79-.397-.987.396-1.382.594-2.172.991 1.777 2.774.198 4.558 1.382-.595.79 0 2.567-1.388 2.37zm8.323-3.752c.198 1.777-.991 2.37-1.387 3.752-.595 0-.595-.593-.991-.988.793-1.974 2.774-2.764 2.576-5.725.396 0 .792.197 1.189.395-.198.987.396 1.382.396 2.172-.594.592-1.189 0-1.783.394zm3.566 2.172v-1.382c1.189-.592 2.973-1.974 3.369.395-1.585-.79-2.18.79-3.369.987zm-2.179-122.606v-1.579c.396 0 .396-.593.991-.395.198-.79-.397-.987-.397-1.777 1.982.592 2.972.987 5.152 1.382.198.987 0 1.579.991 1.974-1.784-.592-4.954-1.184-6.737.395zm7.133-64.955c0 .395.793 0 .595.79-1.784-1.185-2.18 1.382-2.973 2.171-.198-1.58-1.981-1.184-1.783-2.566.198-1.58 3.963-1.382 5.152-1.58 0 .592-.991.395-.991 1.185zm18.23 178.282c-.595.197-.396-.395-.793-.592-.198.987-.396 1.974-1.189 2.961-.594-.592-.594.197-1.783 0-.198-.987-.594-1.185 0-1.974-.594-.395-1.189.197-2.378.197v.79c.595-.198.396 0 1.189-.198.198 1.777-1.783 1.777-.793 3.159-.594 0-.99-1.974 0-1.579 0-.198-.594-.198-.396-.79-.594-.197-.396.198-.991.198.199-.79-.99 0-.792-.79.198.197.594.197.991.197 1.387-.987-.595-1.579-.793-2.764h1.783c-.198.593.198.395.397.79 0-1.185 1.783-.395 1.783-1.58.991.395 1.783.395 3.369.988.198.197.396.395.396.987zm2.179-63.179c-2.179-.197-3.17-.79-4.755-1.382 1.981-.197 3.17-.987 5.35 0-.198.592-.595.79-.595 1.382zm14.267 73.643c-.792-.395-.792.395-1.387 0-.198.592.198.395.198.987-1.783.987-3.566 1.185-4.953 1.974-.595-.197-.397-1.184-.991-1.579.792-.79-.198-1.382-.198-2.369.594-.395.99-.198 1.981-.198 0 .592.793.592 1.189.987 1.189-1.579 2.18-.789 4.359-1.382 0 .593 0 1.185-.198 1.58zm65.984-82.132c-1.387.394-1.784 0-3.369 0-.198-.198-.198-.593-.396-.593 0-2.566 3.963-1.382 3.765.593zm-3.963 38.104c-1.586-.197-2.973-.592-3.369-1.974 1.585.197 2.972-.987 3.765.592.594.198.198-.592.793-.395 0 1.185-1.388.198-1.189 1.777zm1.783.395c0-.395-.198-.395-.198-.79.396-1.184 2.774-3.948 2.378-.987.198.592.792.592 1.189.987-1.189.79-1.982.395-3.369.79zm30.911-19.941c-1.189 0-2.576 0-2.576-1.184-1.387-.198-4.755.987-5.35-.987h-1.189c-.198-.593.198-.395.198-.988-.594-.394-1.783-.394-1.783-1.579.595-.395.991.197 1.783 0 .793-1.185-.99-1.777-.396-2.764 1.784-.592 2.972.395 4.954-.198.594 1.382 2.972 2.172 1.585 3.949 1.585.592 3.369 1.58 2.774 3.751zm.396-2.369c-.792 0-1.387 0-1.387-.987h1.387v.987zM351.718 359.2c-.396 0-.792-1.185-.99-.988-.397-.197.198-.789.198-1.382.792-.197-.198 1.382.99.988 0 .394-.396.789-.198 1.382zm41.611-9.082c-.594 0-.396-.79-1.387-.593 0-.394.397-.394.199-.987h.594c.396.593 0 1.185.793.593 0 .394 0 .789-.199.987zm9.512.987c.396 0 .99 0 .99.592-.396-.395-.99-.197-.99-.592zm5.151-2.962v-.789c.397 0 .595.197.793.197-.198.395-.198.79-.793.592zm9.908-56.663c-.198 0 0 .987-.396 1.382-.595-.395-.595-1.382-1.586-1.579-.594.592.991.789.793 1.579-.396 0-.396-.395-.991-.197.793-.395-.99-.988-.396-.198-.594-.79-.198-1.382.396-2.172.397.198.991.395.991 1.185.594-.197-.198-.592 0-1.185 1.189.198 1.783.79 1.981 1.58-.396.395.001-.592-.792-.395zm1.783-2.764c-.792-.197-.792.197-1.585.197 0-.394 0-.987.198-1.382-.594-.197-.396.593-.594 1.382.198.593.99.395.99 1.185-.594.197-.198-.592-.792-.592-.396 0 .198.592 0 1.184-.595-.395-.595-1.382-1.387-.592.198-.987.198-.987 0-1.777.198.198.396.198.792.198.397 0-.396-1.382.199-1.58-.595-.395-1.189-.592-1.982-.79.198-.987-.991-.592-.991-1.382-.198 0-.198.395-.198.593 0-.395-.991-2.172-1.981-1.185.396-.79 1.387-.79 1.783-1.382 0-.592-.396-.79-.198-1.579.793 0 .792-.79 1.189-1.185.396 0 .396.592.396 1.185-.396 0-.792.197-.792.789.396.593 1.188 0 1.387-.395.594.395-.199.988-.793.988.198.197.198.592.198.987.991-.593 1.189.789 2.18 0 .594.197-.198.592 0 1.184.198-.395.594-.592.594-1.382.991.198.991.395 1.982.198 0 .987.198.592.792.789 0 .198 0 .593.198.593 0 .592-.792-.79-.792.197-.595-.395-1.387.198-1.387-.79-.595.593.991 1.58-.397 1.777.199.395.397.988 1.189.79.199.987-.594.79-.198 1.777zm2.18 55.676c-.991-.592-1.982-1.382-1.387-2.961.198.789 1.585 1.184.991 2.171.198-.197.198-.394.594-.394-.198.394-.198.789-.198 1.184zm29.326-30.997c-.198.395-.396.79-.991.987-.396-.395 0-1.579-1.387-1.382.793-1.184 1.783 0 2.378.395zm18.031-35.735h.595c0 .395 0 .987-.595.987v-.987zm-13.87 27.443c-.594-.987.594-.197.594-1.185h.595c.396.395-.198.593.198.988-.594.592-1.189-.79-1.387.197zm.396-50.346c-1.981.395-2.378-.592 0 0zm-2.576 5.134c.991.197 1.387-.79 2.18-.593 0 .593-.396.593-.198 1.382.792 0 .792-.789 1.585-.789.594.79-.594 1.184-.991 1.579.793 0 .793.198.793 1.185.396 0 .594-.395 1.189-.198.198 1.382-1.189.988-1.387 1.975.792.987.99-.79 1.783-.987.198 1.579-1.981 2.171-4.161 1.974-.793-.395-1.585-2.172-1.783-2.962 0-.394.792-1.184.99-2.566zm-8.52-15.4c.396.592.594.197 1.189.79.198-.79.198-.79.198-1.975.991 0 .594.593 1.387 0 0 1.185.396 1.777.198 2.962-.991 0-.792-.592-1.189.395-.396-.395-.792-.395-1.387-.198-.396-.197-.198-1.184-.792-1.184.198-.395.594-.198.396-.79zm-7.133-3.554c.198-.592.198-.79.396-1.579.594.395 1.189.592 1.981.592-.594-.79-1.585-1.579-1.585-2.961.397 0 .397-.593.991-.395 0 .395 0 .987.594.789-.198.79.397.988.595 1.382.594.198.396-.197.991-.197 0 .592.594.592.99.987-.792.987-.792 2.567-1.783 3.159-.594-.197 0-.79 0-1.185-.396-.197-.594-.394-1.189-.592-.396.79-2.378.987-2.972 0 .594 0 .198-.592.991 0zm-5.549 17.374c-.99 0-1.188 1.58-2.179 1.58-1.189.197-2.972-.987-2.972-2.567.594-.395.792-.197 1.585 0 0 .395 0 .987.198 1.185 1.189.395 1.981-1.185 3.368-.198zm-1.981-75.419c0 .197-.198.395-.396.79h-.991c.198-.593.991-.395 1.387-.79zm-.793-4.146c-.396.789-1.387.789-2.179 1.184-.198-.789 0-.987-.198-1.579 1.188-.395 1.387.395 2.377.395zm38.838-26.456c-.793.197-1.189-.198-1.189-.987.396 0 .594.394 1.189.197v.79zm.99.987c-.594 0-.396-.79-.792-1.185.594-.197.396.198.99.198 0 .395.199.987-.198.987zm1.982-.79c.198-.79.792-.79 1.387-1.184-.198.987-.991.987-1.387 1.184z" fill="#7CBFCE"/></svg>