<svg width="17" height="18" fill="none" xmlns="http://www.w3.org/2000/svg"><path d="M3.418 7.075v-.85h1.037v.918l-1.037-.068zm-.374-.85H1.242V2.774c0-.26.091-.482.272-.663a.96.96 0 0 1 .68-.272h6.12V.92h-6.12a1.803 1.803 0 0 0-1.36.527 1.8 1.8 0 0 0-.425.612 1.92 1.92 0 0 0-.136.714v4.3h2.771v-.85zm11.492 0c.023.385-.09.725-.34 1.02-.238.295-.55.476-.935.544a1.455 1.455 0 0 1-1.037-.221 1.517 1.517 0 0 1-.629-.884h-.697L9.42 8.894H7.974v-.97h.97l1.325-2.107h1.275c.057-.408.25-.737.578-.986.34-.26.714-.363 1.122-.306.408.056.737.255.986.595a1.4 1.4 0 0 1 .306 1.105zm-.918 0a.532.532 0 0 0-.187-.408.614.614 0 0 0-.425-.17.533.533 0 0 0-.408.187.615.615 0 0 0-.17.425c0 .159.063.294.187.408.125.113.267.17.425.17a.5.5 0 0 0 .408-.187.614.614 0 0 0 .17-.425zM8.57 4.559a1.493 1.493 0 0 1-.187-.731A1.52 1.52 0 0 1 9.3 2.417c.284-.125.573-.153.867-.085.306.057.567.193.782.408a1.4 1.4 0 0 1 .425.782c.068.295.04.584-.085.867-.113.283-.3.51-.56.68a1.45 1.45 0 0 1-.834.255c-.226 0-.447-.045-.663-.136l-1.58 1.887h-2.84v-.85h2.414L8.57 4.559zm.731-.731c0 .159.057.3.17.425.125.113.267.17.425.17a.556.556 0 0 0 .408-.17.586.586 0 0 0 .187-.425.532.532 0 0 0-.187-.408.532.532 0 0 0-.408-.187c-.158 0-.3.062-.425.187a.556.556 0 0 0-.17.408zM9.708.92H8.671v.918h1.037V.92zM6.563 7.925v.969H7.6v-.97H6.563zm-2.09 1.734h7.122c.114-.352.33-.623.646-.816a1.423 1.423 0 0 1 1.02-.221c.374.056.68.226.918.51.25.283.374.612.374.986s-.124.702-.374.986a1.44 1.44 0 0 1-.918.51 1.47 1.47 0 0 1-1.02-.204 1.52 1.52 0 0 1-.646-.833H4.472v-.918zm7.972.459c0 .159.057.3.17.425.125.113.267.17.425.17a.556.556 0 0 0 .408-.17.585.585 0 0 0 .187-.425.532.532 0 0 0-.187-.408.532.532 0 0 0-.408-.187c-.158 0-.3.062-.425.187a.557.557 0 0 0-.17.408zM11.102.92h-1.02v.918h1.02V.92zm-9.86 15.147V15.2H.273v.867c0 .34.08.651.238.935.17.283.397.504.68.663.284.17.595.255.935.255h5.831v-.918H2.194a.96.96 0 0 1-.68-.272.902.902 0 0 1-.272-.663zm14.127 0c0 .26-.09.481-.272.663a.902.902 0 0 1-.663.272h-2.652v.918h2.652c.34 0 .652-.085.935-.255a1.69 1.69 0 0 0 .663-.663c.17-.284.255-.595.255-.935v-4.37h-.918v4.37zm0-4.743h.918v-1.02h-.918v1.02zm0-1.326h.918V8.894h-.918v1.105zm-3.774 4.42h-1.224l-1.326-2.091H.273v-.918H9.47l1.428 2.108h.748c.125-.363.357-.63.697-.8.34-.18.692-.226 1.054-.135.374.08.67.277.884.595.216.306.3.651.255 1.037-.045.374-.21.685-.493.935-.283.25-.617.374-1.003.374-.34 0-.646-.102-.918-.306a1.49 1.49 0 0 1-.527-.8zm.85-.46c0 .126.029.239.085.34a.578.578 0 0 0 .272.222.712.712 0 0 0 .34.05.591.591 0 0 0 .442-.816.578.578 0 0 0-.22-.271.523.523 0 0 0-.324-.102c-.158 0-.3.056-.425.17a.557.557 0 0 0-.17.408zM14.435.922h-2.959v.918h2.958c.261 0 .482.09.663.272a.902.902 0 0 1 .272.663V8.18h.918V2.774c0-.34-.085-.652-.255-.935a1.694 1.694 0 0 0-.663-.663 1.783 1.783 0 0 0-.935-.255zM1.241 14.06h2.16v-.917H.272v1.683h.97v-.765zm10.15 2.364a1.52 1.52 0 0 1-.494.969c-.283.26-.623.39-1.02.39-.385 0-.72-.13-1.003-.39a1.517 1.517 0 0 1-.493-.97c0-.26.063-.503.187-.73l-1.343-1.632H5.17v-.918h2.482l1.581 1.904a1.71 1.71 0 0 1 .663-.136 1.4 1.4 0 0 1 1.054.442c.295.295.442.652.442 1.07zm-.919 0a.6.6 0 0 0-.102-.34.49.49 0 0 0-.255-.221.637.637 0 0 0-.663.119.636.636 0 0 0-.119.663.49.49 0 0 0 .221.255.6.6 0 0 0 .34.102.556.556 0 0 0 .408-.17.556.556 0 0 0 .17-.408zm-6.375-5.848v-.918h-1.02v.918h1.02zm-1.326 0v-.918H1.667v.918h1.105zm1.054 2.567v.918h1.037v-.918H3.826zm-2.584-4.25H6.19v-.97H.273v3.06h.97v-2.09z" fill="#F05E38"/></svg>