<svg width="16" height="19" fill="none" xmlns="http://www.w3.org/2000/svg"><path d="M14.12 3.973c-.35 5.737-2.36 10.062-6.03 12.978-3.673-2.904-5.683-7.23-6.03-12.978 1.08-.06 2.13-.264 3.15-.612S7.19 2.54 8.09 1.94c.9.6 1.86 1.074 2.88 1.422 1.02.348 2.07.552 3.15.612zm1.277-1.188c-.18 7.164-2.616 12.39-7.308 15.678C3.373 15.175.937 9.95.781 2.785c1.32.06 2.604-.108 3.852-.504A10.852 10.852 0 0 0 8.09.463a10.892 10.892 0 0 0 3.438 1.818c1.26.396 2.55.564 3.87.504zm-.972.918a12.044 12.044 0 0 1-3.33-.576A11.98 11.98 0 0 1 8.09 1.615a11.894 11.894 0 0 1-3.024 1.512c-1.068.348-2.172.54-3.312.576.156 2.868.702 5.388 1.638 7.56 1.056 2.448 2.622 4.464 4.698 6.048 3.9-3 6.012-7.536 6.336-13.608z" fill="#F05E38"/></svg>