<svg width="67" height="42" fill="none" xmlns="http://www.w3.org/2000/svg"><path fill-rule="evenodd" clip-rule="evenodd" d="M60.367.406l6.13 4.499-7.02 3.046.337-2.861c-3.697-.132-7.125.365-9.888 2.402-.684.51-1.209 1.049-1.402 1.6l-.002.008-.003.008c-.418 1.124.233 2.656 1.469 3.546 1.002.722 2.206 1.092 3.556 1.455 2.541-.242 5.24.78 7.034 2.566 1.232.72 2.357 1.62 3.27 2.773 1.185 1.498 1.809 3.464 1.759 5.34-.05 1.863-.77 3.728-2.384 4.921-.385 1.449-.983 2.863-1.876 4.117-1.982 2.818-5.16 4.421-8.272 5.367l-.008.003-.008.002c-.713.203-1.754.496-2.762.26-1.722-.39-2.479-1.769-2.891-3.111-.335 1.208-.903 2.369-1.905 3.26-1.009.914-2.244 1.343-3.474 1.536-1.223.192-2.504.16-3.648.108h-.003l-.08-.004c-2.305-.091-4.784-.19-7.122-.955-1.132.265-2.3.461-3.446.507-2.132.085-4.29-.346-5.987-1.91l-.002-.002c-1.575-1.462-2.198-3.429-2.313-5.418-.114-1.982.267-4.061.78-5.88-2.027-1.672-3.656-3.812-4.448-6.377l-.002-.006-.002-.006-.126-.44c-.205-.725-.349-1.233-.696-1.644-.384-.446-.973-.65-1.803-.635-.837.016-1.783.255-2.687.548-.674.23-1.358.459-2.039.688h-.002l-.003.001-.002.001-.886.298.938 2.742-7.483-1.452 5.024-5.739.948 2.772c.295-.1.591-.2.887-.298l.002-.001c.686-.23 1.37-.46 2.045-.69l.006-.002.006-.002c.948-.308 2.102-.616 3.214-.637 1.12-.02 2.33.254 3.192 1.258l.002.003.002.002c.621.733.88 1.677 1.077 2.392.032.118.063.23.093.334.602 1.943 1.79 3.641 3.321 5.043.78-2.28 1.837-4.55 3.457-6.399 3.095-3.532 8.156-5.272 12.817-4.36 3.97.776 7.459 3.444 9.328 6.986.206-.788.439-1.573.722-2.319.594-1.565 1.442-3.056 2.84-4.142.228-.177.462-.336.704-.479a8.66 8.66 0 0 1-1.71-.94c-1.614-1.164-2.886-3.453-2.098-5.587.38-1.073 1.276-1.878 2.015-2.428l.004-.003c3.273-2.414 7.24-2.902 11.16-2.746l.344-2.92zm-6.936 15.508c-.872.128-1.694.45-2.383.988l-.002.001c-1.042.81-1.738 1.967-2.271 3.372-.46 1.214-.775 2.541-1.1 3.919l-.001.001c-.055.232-.11.466-.167.7l-.003.015c.5 1.998.577 4.07.506 6.08.034.096.066.194.097.294.17.544.295 1.127.404 1.696l11.077-3.55.009-.003.022-.008c.77-.255 1.453-.481 2.037-.806.088-.404.16-.813.218-1.225.442-3.355-.194-6.913-2.375-9.273l-.029-.03c-1.585-.888-3.426-1.49-5.313-1.98h-.004l-.004-.001c-.181-.05-.367-.098-.556-.147l-.162-.043zm10.128 6.813c.15.846.222 1.706.227 2.558a5.9 5.9 0 0 0 .04-.543 6.609 6.609 0 0 0-.267-2.015zm-2.588 8.107c-.235.083-.465.159-.684.231l-.135.045-.005.001-11.308 3.625c.061.297.127.583.202.857.355 1.29.83 1.952 1.654 2.138h.005l.004.002c.485.115 1.079-.015 1.858-.236 2.941-.895 5.675-2.338 7.326-4.688l.002-.002.001-.003a9.95 9.95 0 0 0 1.08-1.97zm-15.386-.694c.25.354.461.733.63 1.139a57.26 57.26 0 0 1-.098 1.619v.006c-.02.292-.042.581-.07.866l-12.64 4.052c-.7.223-1.42.438-2.143.623a10.772 10.772 0 0 1-.34-.136c-2.28-.952-4.127-2.89-4.304-5.064v-.003a4.858 4.858 0 0 1 .303-2.095c3.46 1.106 7.119 1.492 10.62 1.846h.004l.063.006c1.447.137 3.155.299 4.773-.264l.004-.002.005-.001c1.45-.523 2.46-1.457 3.193-2.592zm.08-5.21a26.26 26.26 0 0 1-.621 2.186 11.03 11.03 0 0 0-1.53-.934c-2.09-1.06-4.56-1.56-6.854-1.616-2.613-.073-5.446.287-7.826 1.722a8.81 8.81 0 0 0-2.782 2.67 17.595 17.595 0 0 1-3.786-2.025c.767-2.392 1.77-4.659 3.318-6.426 2.678-3.057 7.096-4.576 11.13-3.787 4.03.788 7.515 3.856 8.804 7.733.053.159.102.318.148.478zm-23.92 3.795c-.385 1.533-.627 3.148-.54 4.642.099 1.703.616 3.172 1.749 4.225 1.225 1.128 2.844 1.511 4.702 1.437.26-.01.521-.03.785-.056-1.887-1.279-3.404-3.23-3.597-5.584a6.588 6.588 0 0 1 .401-2.844 19.566 19.566 0 0 1-3.5-1.82zm6.053.84a7.005 7.005 0 0 1 1.96-1.762c1.966-1.186 4.406-1.535 6.853-1.466h.004c2.088.05 4.285.508 6.088 1.422.59.3 1.133.645 1.615 1.037-.596 1.073-1.378 1.853-2.528 2.269-1.209.419-2.539.31-4.069.165-3.417-.345-6.781-.708-9.922-1.666zm6.982 9.678c1.182.137 2.41.188 3.674.238h.006c1.136.053 2.26.074 3.289-.087 1.021-.161 1.887-.493 2.553-1.099l.004-.004.005-.003c.724-.642 1.152-1.527 1.415-2.554L34.78 39.243z" fill="#EF5E38"/></svg>