<svg width="39" height="40" fill="none" xmlns="http://www.w3.org/2000/svg"><path fill-rule="evenodd" clip-rule="evenodd" d="M18.813.366C6.975.366 3.5 9.295 2.571 13.174c-.56 2.357.304 3.45.909 4.217l.02.025c.323.404.404.526.364.606-.223.893-.789 1.785-1.633 3.118l-.226.357c-.07.11-.141.217-.211.324v.001c-1.997 3.06-3.402 5.214 1.868 6.463l-.005.048c-.047.475-.206 2.072-.44 2.578a.838.838 0 0 0 .364 1.05c.242.122.404.203.808.445-1.006 1.166-.64 1.491-.134 1.942.39.346.861.765.861 1.694 0 2.465 1.374 3.354 2.667 3.354.97 0 5.333-.121 8.566-.687 3.596-.646 4.808-4.808 5.858-8.485.283-1.01-1.252-1.454-1.535-.444-.97 3.394-1.98 6.869-4.566 7.313-3.151.566-7.353.646-8.283.646-.727 0-1.05-.565-1.05-1.737 0-1.212-.606-2.1-1.091-2.626a2.72 2.72 0 0 1 .606-.566c.485-.364.404-1.172-.202-1.374a.735.735 0 0 0-.283-.202 8.549 8.549 0 0 1-.848-.444c.202-.848.323-1.899.323-2.303 1.454.08 1.212-1.737.121-1.576-.848 0-3.475-.727-3.758-1.333-.019-.497.76-1.701 1.622-3.037.96-1.485 2.025-3.134 2.217-4.155.199-.886-.185-1.36-.605-1.877-.518-.638-1.09-1.343-.688-2.972C5.197 9.214 8.51 1.982 18.813 1.982c11.637 0 17.94 6.707 17.94 13.05 0 8-5.536 11.718-7.92 12.93-.282.12-.444.404-.444.727 0 3.636.97 8.202 2.303 10.869.485.929 1.899.242 1.455-.728-1.172-2.343-2.02-6.343-2.101-9.656 5.252-2.91 8.363-8.162 8.363-14.142C38.33 7.922 31.5.366 18.813.366zm2.668 8.768c-.768.444-1.737.444-2.384-.122l-.444-.404a.464.464 0 0 0-.727.162l-.202.485a2.074 2.074 0 0 1-3.071.97l-.445-.243c-.282-.162-.687.04-.687.364l-.01.192c-.03.571-.065 1.248-.717 1.828-.606.566-.242 1.454.485 1.454.687 0 1.374-1.09 1.576-1.737 1.454.364 2.99-.162 3.879-1.374 1.94.97 4.484-.04 3.838-1.212a.787.787 0 0 0-1.09-.363zm2.906 11.272h3.677c.445 0 .849-.404.849-.849a.853.853 0 0 0-.849-.848c-5.19 0-6.188-.135-6.816.284-.212.143-.382.349-.659.645-.888 1.374.122 3.111 1.698 3.111a3.608 3.608 0 0 1 3.555 3.111l.404 2.667c.162 1.05-1.414 1.253-1.576.202l-.363-2.667c-.121-.97-.97-1.697-1.94-1.697a3.625 3.625 0 0 1-3.555-4.444h-.849c-1.495 0-2.788-.97-3.273-2.343h-3.07c-3.798 0-5.374-5.778-1.414-7.354-.445-2.667 2.02-4.889 4.606-4.162 1.252-2.424 4.646-2.626 6.222-.404 1.899-1.09 4.364-.282 5.212 1.738 2.707-.606 5.131 1.899 4.364 4.606 2.909 1.333 2.828 5.576-.202 6.788a2.466 2.466 0 0 1-2.344 3.232h-3.677c-1.05 0-1.05-1.616 0-1.616zm-6.343-2.101h1.576c1.168-1.301 2.225-1.28 5.676-1.21.728.014 1.562.031 2.526.038.404 0 .848 0 1.454.323 2.384-.242 2.506-3.717 0-4.12l-.404-.082c-.323-.04-.485-.404-.323-.686l.283-.445c1.09-1.778-.889-3.92-2.748-2.909l-.444.242c-.283.122-.646-.04-.687-.363l-.08-.485c-.162-1.253-1.415-2.101-2.708-1.697-.476.17-.752.455-1.069.782l-.183.188c-.243.282-.647.161-.768-.162l-.162-.525c-.565-1.778-3.393-2.222-4.08.606a.468.468 0 0 1-.687.283l-.404-.243c-1.738-1.01-3.717.808-2.91 2.627l.203.403a.457.457 0 0 1-.364.647l-.364.04a2.296 2.296 0 0 0-1.495.809c-1.171 1.494.203 3.595 1.697 3.595h2.91a3.454 3.454 0 0 1 3.434-3.03h5.859c.323-.323.565-.727.646-1.172.242-1.252 2.747-.687.93 1.819 2.1 1.899-.082 2.909-.607 1.818-.162-.364-.444-.647-.808-.849h-5.98c-1.09 0-1.98.93-1.858 2.06.08.97.97 1.698 1.94 1.698z" fill="#EF5E38"/></svg>