<svg width="30" height="15" fill="none" xmlns="http://www.w3.org/2000/svg"><path d="M29.698 13.743a.704.704 0 0 1-.518.21.687.687 0 0 1-.504-.21L18.316 2.25a.716.716 0 0 0-.49-.21.569.569 0 0 0-.476.21L12.716 6.8l5.628 6.622c.14.14.21.308.21.504 0 .205-.07.378-.21.518a.742.742 0 0 1-.476.168.721.721 0 0 1-.546-.238L10.49 6.421a.571.571 0 0 0-.476-.238c-.196 0-.36.07-.49.21l-7.476 7.98a.586.586 0 0 1-.504.224.713.713 0 0 1-.504-.196.677.677 0 0 1-.238-.56.684.684 0 0 1 .196-.518l7.462-7.91c.205-.233.452-.406.742-.518.298-.121.606-.168.924-.14a2.064 2.064 0 0 1 1.456.812l.196.224 4.578-4.578c.205-.196.438-.345.7-.448.261-.112.536-.163.826-.154.289 0 .56.06.812.182.261.112.49.27.686.476l10.36 11.438c.14.15.205.322.196.518a.73.73 0 0 1-.238.518z" fill="#F05E38"/></svg>