<svg width="404" height="399" fill="none" xmlns="http://www.w3.org/2000/svg"><path d="M402.293 49.953c.482-2.412-.724-3.859-1.929-4.824-2.894-.723-4.341-2.652-5.065-5.064-.965-2.894 0-8.923-3.859-6.753-1.688.965.724 3.618-1.929 4.341-2.412.724-4.582-2.894-2.894-4.823-5.547 1.447-5.547-3.618-8.923-5.306-3.859-1.93-1.93-9.405-1.93-12.54.242-3.377 1.689-3.136-2.652-4.583-1.93-.723-5.547 1.206-6.512.242-.965-.965 4.582-5.547.724-5.547-2.653 0-4.341 1.688-7.235 1.205-3.859-1.447-4.583-7.235-8.441-4.823v3.376l2.411 1.93c-3.858 1.93-3.135.241-4.582 4.1-.723 1.929-2.17 3.135-2.653 5.064-.964 2.653-4.341 11.817 0 12.059-.964 2.411-3.617 1.929-3.617 3.617 0 2.17 2.17 4.1-1.206 4.823.724 1.689 2.894 9.647-.724 9.647-3.135 0-4.582.241-7.958 0 1.929 2.894-.965 3.377-1.688 4.582-.965 1.447.482 2.653-1.93 2.653-2.17 0-3.376-6.511-4.823-7.235-1.929-.965-4.582.724-4.582.724l-1.447-1.447-1.206 2.894h-2.17s-.483 2.652-.242 2.411c-1.205.965-3.135-.964-3.858.724-1.206 2.412 1.447 4.1-3.377 4.1 1.206 1.206 1.93 3.135 2.412 3.617-2.894.724-2.894 2.653 0 3.618-1.929 1.929-4.341 4.1-7.235 6.029-2.17 1.447-3.135 0-4.582 2.894-.724 1.447-3.135-.241-3.859.723-.965.965-.723 3.136-1.206 3.618-2.894 2.412-4.1 2.894-7.958.965-.965-.483-5.788-1.206-6.753-.965-.482.241-2.412 1.688-2.894 2.17-1.206.724-1.929-1.205-3.135-.964-2.171.723-3.376 2.894-6.029 2.411h-4.824c-5.546-8.44-18.087 0-25.322 0-1.93 1.689 1.206 13.023 2.411 15.676.242.724 2.412 2.653 3.377 4.1 1.206 2.653 1.929 2.894 4.582 4.582 3.135 2.171 5.065 6.994 4.341 9.406-.723 2.412-1.447 1.688-2.412 3.617-1.205 2.412-6.029 15.676-9.646 9.647-1.206-2.17-1.689-2.17-1.206-2.653-2.171 1.206-4.341.724-4.1-2.17-.482.723-4.1 1.688-3.618 1.206-2.894-1.206-3.858 0-5.546-1.206 1.205 4.582-10.853 1.688-13.506.241.483.482.241 2.17.241 2.17l-2.17 2.171c-.482-1.447-8.2-6.753-10.129-6.994-.483 0-2.653 1.206-3.618 1.206-.241 0-1.688-1.206-2.411-1.206-.483 0-1.447 1.206-2.412 1.206-1.929 0-2.894-.724-1.688-3.135-1.688-.965-2.894-1.447-4.341.723-3.135-3.617-5.547-.482-7.235-2.411-2.171-2.412.723-4.824 3.617-4.824-1.447-.241-2.17-.482-3.617-1.206-1.447-.723-.724-2.411-2.412-2.411-3.617 0-5.064-2.653-1.206-3.618-1.447-3.135-2.653-4.1-6.029-6.029h-1.688v-2.412c-3.376 0-2.653.724-4.341 2.412-1.447 1.206-1.688 2.412-3.618 2.412-2.652 0 .242 2.894-3.617 2.411-3.376-.482-.965-7.476-6.029-2.411 0 .723-.483 2.894.964 3.617-2.411.965-3.135 1.688-4.582 2.412-6.27 3.376-.965 2.412-1.206 6.029-.241 2.412-3.376 7.235-4.823 9.164-1.688 2.171 3.135 8.441-1.447 8.682.482-.482-1.929-1.929-1.447-2.17-2.653-.482-10.611 9.647-10.611 11.576 0 6.994-11.818 7.235-12.059 11.576 1.206.482-1.929 7.235-5.788 6.27l-2.653 2.653c.483 0 2.894 3.859 1.206 4.1-3.376.965-4.341-.965-7.235-.965-3.858 0-4.1 3.136-8.44 1.206-.483 1.447-5.548 4.341-7.236 6.029.965.483 1.447 1.93 2.412 2.412-3.859 4.823-5.547-.241-6.994-.241-2.17 0-1.93 2.412-1.93 3.859 0 2.652-4.823-.483-4.823 1.447 0 1.205-3.617 4.099-3.617 5.546 0 1.689-3.859.483-6.03 1.689.483-.483-.24-2.412.242-2.653-3.135-.724-6.03 3.135-8.682 4.582-.965.482-6.03 3.617-6.753 3.617-2.894 0-4.823 1.206-3.376 4.1 1.688 3.377 1.206 2.894-1.447 3.859-2.412-2.412-2.412-.724-4.341-.724-1.93 0-1.688-4.099-4.1-.723-1.447 1.929-3.135 5.547-5.788 5.547-4.1 0-2.653 4.341-4.823 6.029-1.447 1.688-10.612 3.135-10.612 5.788 0 3.376-5.788 5.065-7.958 7.717-2.653 2.171-1.206 6.753-2.894 9.647.482.965.723 3.618-1.206 5.065 2.411 4.582 9.888 3.858 14.47 6.029.241 6.511 7.958 8.923 2.412 14.47 2.893 2.412 5.064-2.894 9.646-2.412v-7.235c8.923 6.512 18.57 5.788 24.117 14.47 2.412-6.029 7.717-2.894 9.647 1.206 6.511-1.206 11.817-9.888 15.676-3.618-4.583 3.377-12.541 3.618-10.853 13.265 1.688.723 5.306.723 8.44 0-.964 1.688-3.134 2.653-6.028 2.411 4.1 11.094-20.74 28.458-16.882 42.446.482 1.688 7.235 9.164 6.03 1.206 3.617 1.447-1.689 4.582 1.205 6.029 8.923-1.447 15.917-6.029 21.705 1.206.724-2.653-6.03-6.753 0-7.235.482 4.823 4.1 6.27 3.618 12.058-6.512-2.412-16.882-10.611-21.706-1.206-2.894-6.994-11.093 3.377-10.852-3.617-2.894.723.241 7.476-2.412 8.441-3.617.964-4.34-1.206-7.235-1.206-.964 4.1 1.93 4.582 1.206 8.441-6.511 3.376-10.611 7.717-8.44 16.881-4.342 2.894-7.718 6.994-13.265 8.441 7.476 4.1 18.811-3.376 21.705 4.824 6.03-1.93 9.888-4.341 16.882-2.412-.724 6.753-5.065 3.376-10.853 3.617-.24 2.653.965 3.859 3.618 3.618-2.894 2.412-6.512-.965-10.853 1.206-1.93 10.852 14.712 6.029 16.882 6.029 5.547-.241-1.206 4.341 2.412 6.029 5.305-.482 6.27-5.064 8.44-8.441 1.448 1.688 5.065 1.447 4.824 4.824-4.582 5.788-13.988 6.993-19.293 12.058 6.029 0 15.675 2.171 19.293-7.235 1.688 1.206 4.582 1.206 6.03 2.412 3.375-2.171.24-10.853 7.234-9.647-1.206-4.823-4.823-7.235-9.647-8.441 5.547-2.412 10.612-.723 15.676 0-1.206 8.441 6.03 8.441 8.441 13.264 3.135-2.653 4.1-3.135 7.235-3.617 1.447 3.376-.482 8.923 6.029 9.646 2.171-1.447.965-6.27 2.412-8.44 6.512.964 9.888-1.447 14.47-2.412 3.618-.965 7.476 3.859 8.923 6.029 1.688 2.412 3.859-2.894 5.547-3.617 1.688-.724 3.618 2.652 1.929 3.617 2.171-2.17 2.653-7.476 5.306-7.476 2.894 0 3.377-2.412 5.547-4.341 2.412-2.412 2.412-5.306 5.547-7.235 2.894-1.929 2.653-4.341 4.823-6.753 1.688-1.688 2.412-2.894 4.824-4.582 2.894-1.929 5.788-1.447 8.44-3.135 3.618-2.412 6.512.241 10.371-.482 3.617-.965 5.064.482 8.199.482 3.859 0 5.788-1.206 9.647-1.206 1.206 0 8.923-.965 9.406-.723 2.411 2.411 1.447 2.652 5.064 1.447 2.894-.965 5.306.241 8.682.241 6.753 0 12.541-2.653 17.605-7.959 4.1-4.1-1.688-13.023 5.547-15.193-2.17-4.341-4.341-8.441-6.752-12.3-2.171-.241-2.653 1.447-4.824 1.206-7.717-11.094-24.599-13.264-27.734-28.94-2.171.241-6.029-1.206-4.823 2.411-5.065-7.476-14.229-1.688-19.294-8.44-1.929-6.994 3.376-6.994 6.029-9.647 1.206-3.618-2.653-2.171-4.823-2.412 1.929-1.688 7.235-2.411 8.441-1.206-.482-6.511-2.171-11.093 1.206-15.675-.724-3.618-5.547-3.377-3.618-9.647 0-5.547-7.235 1.447-6.029-3.618 1.206-.964 1.929-2.17 2.412-3.617 4.341-1.93.723 4.1 3.617 3.617 5.306-5.547 16.4-5.547 24.117-8.441-.965-7.235 4.582-6.27 6.029-13.264 6.27.483 12.3 1.447 14.47 6.029 2.894-2.411-1.447-5.064 2.412-7.235 8.682 3.859 18.329-7.958 27.734-10.852 1.929-4.823-3.135-2.412-3.617-4.824 13.264-10.611 34.728-13.023 38.828-32.798 13.264-.483 15.675-11.576 31.351-9.647 2.894-15.194-4.099-25.564 4.824-41.24-3.377-3.858-6.753-1.205-10.853 0 .724-1.688 1.929-2.894 3.618-3.617-6.994-12.3 3.617-26.77 13.264-30.146 1.929-9.647 9.164-19.535 16.882-19.294 1.447-5.064 4.582-8.44 7.235-12.058 2.652-.723 1.688 2.412 3.617 2.412 3.377 1.447 3.618-6.512 3.618-8.923 4.1 1.688 5.788-3.859 7.958.482 3.377-.965 5.547 2.17 4.1 3.617-1.206 1.206 3.618.724 6.753-1.205v-.483c-1.93-.24-1.688-1.447-1.206-3.617zM93.84 365.159h-3.618v-4.824c3.135-.241 3.859 1.689 3.618 4.824z" fill="#7CBFCE"/></svg>