<svg width="49" height="41" fill="none" xmlns="http://www.w3.org/2000/svg"><path fill-rule="evenodd" clip-rule="evenodd" d="M5.56 8.84C4.639 3.46 16.328.848 19.61.447 15.168.407.195 1.892.996 9.884c0 .201.04.402.12.603.88 3.333 5.965 5.22 12.49 6.024 7.647.964 28.064 2.169 34.63-3.695.52-.482 1-1.165.56-1.928-.08-.16-.24-.361-.4-.522-2.007 3.54-9.909 3.588-13.34 3.609-.266.001-.505.003-.712.006C29.499 14.1 7.2 13.78 5.56 8.84zm7.044 2.892l.128-.037c1.746-.507 14.216-4.128 23.932-2.413 2.602.442 4.364 1.044 5.325 1.647.4.24.68.522.84.803.16.281.2.562.16.803.178-.022.355-.057.526-.09.137-.027.27-.053.395-.07a7.863 7.863 0 0 0 1.602-.482c.6-.242 1.24-.563 1.681-.924.36-.321.6-.683.52-1.044 0-.04 0-.08-.04-.12l-.04-.121c-1.32-.763-3.362-1.366-5.925-1.727-4.123-.603-9.407-.643-14.772-.16-5.204.481-11.97 2.087-16.213 3.614.144.032.412.07.706.113.438.064.936.136 1.175.208zm3.734 8.745l.27.05c3.524.682 23.7 2.168 26.263-.723 1.481.843.12 1.847-1.441 2.49-2.402 1.004-8.327 1.727-14.613 1.767-5.324 0-10.889-.442-14.772-1.607-2.002-.602-3.403-1.325-4.324-2.088-1.52-1.205-2.241-3.092-1.08-4.78.28.121.6.202.92.282-1.758 2.703 6.975 4.283 8.777 4.609zm-1.49-.954c.08.02.51.1.94.18.43.08.861.16.941.181 7.366-.562 16.014-.843 23.42.321.32-.04 2.682-.682 2.161-.642-4.443-2.33-23.419-1.727-27.462-.04zm5.178 8.389l.267.045c3.843.602 16.533 1.727 19.976-.803.52.08 1.201.522 1.041 1.285-.16.682-2.362 1.727-7.646 2.49-3.563.522-8.087.682-13.332 0-3.643-.482-14.772-3.494-9.567-8.193.03.01.087.02.154.032.205.035.506.088.446.209-2.14 3.165 6.817 4.633 8.66 4.935zm-2.135-1.321c.96.2 1.4.281 2.362.442 3.482-1.406 15.893-1.205 16.453.723.72-.08 2.682-.322 3.163-.964-3.723-2.57-18.175-2.089-21.978-.201zm.645 9.276c.6.145.903.22 1.797.322 1.44 3.254 9.528 3.615 12.73 3.294-4.123 1.606-11.93 1.606-14.652-3.334-.04-.06-.07-.12-.1-.18s-.06-.12-.1-.181c.12.028.226.054.325.079zm2.195-2.087c-.52-.08-5.885-1.526-4.724-3.293-.1-.02-.41-.14-.72-.261-.31-.12-.62-.241-.72-.261-.721 1.044-.281 2.972.64 3.735.6.481 1.441.923 2.682 1.285 2.402.723 5.845 1.004 9.128.964 3.883-.04 7.526-.442 9.047-1.085.961-.401 1.441-.763 1.642-1.084.04-.08.08-.2.08-.241 0-.062-.047-.1-.087-.132a.433.433 0 0 1-.033-.029c-.08-.08-.2-.12-.36-.16-.04.2-.241.401-.641.522-.36.16-.961.28-1.682.401-3.162.482-9.247.603-14.252-.361zm.686-.343a22.91 22.91 0 0 1-.925-.18c1.561-1.043 16.013-1.405 16.134-.04.32-.04-1.401.402-1.602.442-4.043-.682-9.648-.763-13.05-.12a63.75 63.75 0 0 0-.556-.102z" fill="#F05E39"/></svg>