<svg width="32" height="15" fill="none" xmlns="http://www.w3.org/2000/svg"><path d="M29.695 14.427a16.213 16.213 0 0 1-3.906-.532 16.322 16.322 0 0 1-3.654-1.428 12.921 12.921 0 0 1-4.186 1.456 12.957 12.957 0 0 1-4.41 0 12.922 12.922 0 0 1-4.172-1.456 16.766 16.766 0 0 1-4.214 1.484 16.97 16.97 0 0 1-4.452.364.797.797 0 0 1-.518-.294.796.796 0 0 1-.182-.56.802.802 0 0 1 .28-.546.8.8 0 0 1 .602-.196c1.41.056 2.805-.075 4.186-.392a15.689 15.689 0 0 0 3.948-1.456l.434-.238.42.252c.299.186.686.382 1.162.588.896.382 1.81.667 2.744.854a11.11 11.11 0 0 0 3.752.14 10.084 10.084 0 0 0 4.214-1.582l.392-.35.462.28c1.25.718 2.58 1.232 3.99 1.54 1.41.317 2.833.42 4.27.308a.78.78 0 0 1 .602.168.85.85 0 0 1 .308.56.754.754 0 0 1-.182.602.745.745 0 0 1-.56.308c-.439.065-.882.107-1.33.126zm0-5.054a16.674 16.674 0 0 1-3.906-.518 16.823 16.823 0 0 1-3.654-1.442 12.92 12.92 0 0 1-4.186 1.456 13.449 13.449 0 0 1-4.41 0 12.921 12.921 0 0 1-4.172-1.456A17.452 17.452 0 0 1 5.153 8.91c-1.465.308-2.95.424-4.452.35a.819.819 0 0 1-.518-.28A.776.776 0 0 1 0 8.435a.778.778 0 0 1 .266-.574.794.794 0 0 1 .616-.21 16.2 16.2 0 0 0 4.186-.378 15.686 15.686 0 0 0 3.948-1.456l.434-.266.448.28c.607.345 1.293.653 2.058.924 1.475.513 2.926.756 4.354.728 1.97-.038 3.78-.593 5.432-1.666l.392-.336.462.28c1.25.718 2.58 1.236 3.99 1.554a14.28 14.28 0 0 0 4.27.28.754.754 0 0 1 .602.182.74.74 0 0 1 .308.56.795.795 0 0 1-.182.616.76.76 0 0 1-.56.294c-.439.065-.882.107-1.33.126zm0-5.054a16.183 16.183 0 0 1-3.906-.504 16.061 16.061 0 0 1-3.654-1.456 12.92 12.92 0 0 1-4.186 1.456 13.449 13.449 0 0 1-4.41 0 12.921 12.921 0 0 1-4.172-1.456 17.452 17.452 0 0 1-4.214 1.498c-1.465.308-2.95.424-4.452.35a.819.819 0 0 1-.518-.28A.776.776 0 0 1 0 3.38a.778.778 0 0 1 .266-.574.794.794 0 0 1 .616-.21 16.2 16.2 0 0 0 4.186-.378A15.686 15.686 0 0 0 9.017.763L9.45.427l.42.252c.299.186.686.382 1.162.588.896.382 1.81.667 2.744.854a11.1 11.1 0 0 0 3.752.14A10.083 10.083 0 0 0 21.743.679l.392-.252.462.28c1.25.718 2.58 1.236 3.99 1.554a14.28 14.28 0 0 0 4.27.28.8.8 0 0 1 .602.196c.177.14.28.322.308.546a.795.795 0 0 1-.182.616.76.76 0 0 1-.56.294c-.439.065-.882.107-1.33.126z" fill="#F05E38"/></svg>