<svg width="21" height="23" fill="none" xmlns="http://www.w3.org/2000/svg"><path d="M20.666 3.235a.833.833 0 0 0-.176-.264c-.44-.425-1.18-.476-2.222-.154-.821.264-1.804.756-2.948 1.474l-.814.55a.4.4 0 0 0-.198.242.55.55 0 0 0 0 .308.65.65 0 0 0 .176.22.586.586 0 0 0 .264.066.534.534 0 0 0 .264-.11c.983-.674 1.855-1.195 2.618-1.562.616-.278 1.13-.447 1.54-.506.337-.044.565-.014.682.088a.52.52 0 0 1 .11.242 5.839 5.839 0 0 1-1.342 3.234 36.158 36.158 0 0 1-1.166 1.672 7.157 7.157 0 0 0-1.276-1.606 7.676 7.676 0 0 0-3.564-1.98 7.96 7.96 0 0 0-3.982 0 7.676 7.676 0 0 0-3.564 1.98 7.33 7.33 0 0 0-1.694 2.464 7.297 7.297 0 0 0-.594 2.904 7.39 7.39 0 0 0 2.288 5.368 7.935 7.935 0 0 0 1.65 1.232c-1.467.998-2.677 1.687-3.63 2.068-.88.367-1.445.44-1.694.22a.27.27 0 0 1-.11-.22c0-.088.007-.168.022-.242a9.516 9.516 0 0 1 2.156-4.202.429.429 0 0 0 0-.33.31.31 0 0 0-.132-.308.306.306 0 0 0-.308-.088.402.402 0 0 0-.286.176c-.924 1.232-1.584 2.325-1.98 3.278-.513 1.232-.513 2.09 0 2.574.293.25.638.367 1.034.352.733 0 1.68-.3 2.838-.902a20.545 20.545 0 0 0 3.014-1.958 7.787 7.787 0 0 0 4.51.418 7.879 7.879 0 0 0 4.026-2.068 7.39 7.39 0 0 0 2.288-5.346c0-1.012-.19-1.972-.572-2.882.968-1.217 1.716-2.339 2.244-3.366.719-1.393.895-2.405.528-3.036zM15.54 17.227a6.932 6.932 0 0 1-1.1.858 6.984 6.984 0 0 1-3.828 1.122c-.719 0-1.423-.11-2.112-.33a54.244 54.244 0 0 0 4.598-3.982 53.758 53.758 0 0 0 4.136-4.444c.235.66.352 1.342.352 2.046 0 .66-.103 1.313-.308 1.958a6.13 6.13 0 0 1-.858 1.76 7.26 7.26 0 0 1-.88 1.012zm-9.834 0a6.541 6.541 0 0 1-1.496-2.134 6.711 6.711 0 0 1-.506-2.574c0-.894.169-1.745.506-2.552.352-.82.85-1.54 1.496-2.156a7.171 7.171 0 0 1 6.666-1.738 7.17 7.17 0 0 1 3.168 1.738c.279.25.528.521.748.814.22.294.41.602.572.924a59.369 59.369 0 0 1-3.102 3.52l-1.232 1.21a47.235 47.235 0 0 1-4.994 4.224 6.828 6.828 0 0 1-1.826-1.276zm7.414-9.68a.376.376 0 0 1 0-.308.404.404 0 0 1 .264-.198.372.372 0 0 1 .33.022 7.07 7.07 0 0 1 1.254.924.422.422 0 0 1 0 .616.467.467 0 0 1-.308.11.467.467 0 0 1-.308-.11 4.452 4.452 0 0 0-.946-.792.394.394 0 0 1-.22-.264h-.066zm-.748-.154a5.747 5.747 0 0 0-1.496-.286 5.465 5.465 0 0 0-2.222.33 5.468 5.468 0 0 0-1.892 1.144.498.498 0 0 1-.33.11.467.467 0 0 1-.308-.11.422.422 0 0 1 0-.616 6.467 6.467 0 0 1 3.08-1.584 6.519 6.519 0 0 1 3.476.198.402.402 0 0 1 .242.22.372.372 0 0 1 .022.33.502.502 0 0 1-.22.242.448.448 0 0 1-.308.022h.022-.066zm.264-4.202c.396 0 .733-.132 1.012-.396.293-.278.455-.616.484-1.012a1.413 1.413 0 0 0-.506-.946 1.436 1.436 0 0 0-.99-.374 1.49 1.49 0 0 0-.99.374 1.45 1.45 0 0 0-.484.946c.03.411.19.756.484 1.034a1.44 1.44 0 0 0 1.056.374h-.066zm0-.88a.555.555 0 0 1-.374-.132.448.448 0 0 1-.132-.33.593.593 0 0 1 .198-.33.526.526 0 0 1 .352-.132c.147 0 .271.044.374.132a.593.593 0 0 1 .198.33.467.467 0 0 1-.198.33.526.526 0 0 1-.352.132h-.066z" fill="#F05E38"/></svg>