<svg width="16" height="13" fill="none" xmlns="http://www.w3.org/2000/svg"><path d="M6.389.119H.84a.785.785 0 0 0-.575.24.733.733 0 0 0-.223.539v6.271c0 .05.037.495.111 1.336.075.83.483 1.652 1.225 2.468.557.594 1.255 1.045 2.097 1.355.84.296 1.812.445 2.913.445h.779v-2.227l-.63-.13a4.913 4.913 0 0 1-1.392-.482 2.377 2.377 0 0 1-.854-.78 2.07 2.07 0 0 1-.26-.593 3.278 3.278 0 0 1-.093-.538h2.45a.73.73 0 0 0 .538-.223.765.765 0 0 0 .241-.556V.898c0-.21-.08-.39-.241-.538a.706.706 0 0 0-.538-.241zm8.702 7.904a.755.755 0 0 0 .557-.223.765.765 0 0 0 .24-.556V.898c0-.21-.08-.39-.24-.538a.726.726 0 0 0-.557-.241H9.543c-.21 0-.396.08-.557.24a.733.733 0 0 0-.222.539v6.271c0 .05.03.495.092 1.336.075.83.49 1.652 1.244 2.468.556.594 1.249 1.045 2.078 1.355.84.296 1.812.445 2.913.445h.798v-2.227l-.65-.13a4.963 4.963 0 0 1-1.373-.482 2.551 2.551 0 0 1-.872-.78 2.07 2.07 0 0 1-.26-.593 5.032 5.032 0 0 1-.074-.538h2.43z" fill="#BD503C"/></svg>