<svg width="40" height="40" xmlns="http://www.w3.org/2000/svg"><path d="M20 40C8.954 40 0 31.046 0 20S8.954 0 20 0s20 8.954 20 20-8.954 20-20 20zM7.361 26.579c-.2 0-.361.16-.361.356v1.067c0 .196.162.355.361.355H32.64c.2 0 .361-.16.361-.355v-1.067a.358.358 0 0 0-.361-.356H7.36zm10.111-2.021c.05-.024.097-.049.144-.075 1.364-.76 1.798-2.392.97-3.643l-1.006-1.52c-.523-.792-1.46-1.276-2.469-1.276H11.98c-1.01 0-1.946.484-2.47 1.275l-1.005 1.52a2.593 2.593 0 0 0-.124.208c-.704 1.314-.113 2.903 1.319 3.549l.19.086v-2.726c0-.59.485-1.067 1.083-1.067h5.417c.598 0 1.083.478 1.083 1.067v2.602zM13.5 17.333c1.595 0 2.889-1.274 2.889-2.845 0-1.571-1.294-2.845-2.889-2.845-1.595 0-2.889 1.274-2.889 2.845 0 1.571 1.294 2.845 2.889 2.845zM11.333 21.6a.717.717 0 0 0-.722.712v3.556h6.139v-3.556a.717.717 0 0 0-.722-.712h-4.695zm19.14 2.958c.048-.024.096-.049.143-.075 1.364-.76 1.798-2.392.97-3.643l-1.006-1.52c-.523-.792-1.46-1.276-2.469-1.276H24.98c-1.01 0-1.946.484-2.47 1.275l-1.005 1.52a2.593 2.593 0 0 0-.124.208c-.704 1.314-.113 2.903 1.319 3.549l.19.086v-2.726c0-.59.485-1.067 1.083-1.067h5.417c.598 0 1.083.478 1.083 1.067v2.602zM26.5 17.333c1.595 0 2.889-1.274 2.889-2.845 0-1.571-1.294-2.845-2.889-2.845-1.595 0-2.889 1.274-2.889 2.845 0 1.571 1.294 2.845 2.889 2.845zM24.333 21.6a.717.717 0 0 0-.722.712v3.556h6.139v-3.556a.717.717 0 0 0-.722-.712h-4.695z" fill="#9AA3AA" fill-rule="evenodd"/></svg>