<svg xmlns="http://www.w3.org/2000/svg" viewBox="0 0 28.51 28.67"><title>flavicon</title><g id="Layer_2" data-name="Layer 2"><g id="Layer_1-2" data-name="Layer 1"><path d="M14.26,5.85a8.49,8.49,0,1,0,8.43,8.49A8.48,8.48,0,0,0,14.26,5.85Zm0,14.45a6,6,0,1,1,5.93-6A6,6,0,0,1,14.26,20.3Z" fill="#f05e39"/><path d="M14.26,10.12a4.22,4.22,0,1,0,4.19,4.22A4.21,4.21,0,0,0,14.26,10.12Z" fill="#f05e39"/><path d="M14.26,0A14.34,14.34,0,1,0,28.51,14.34,14.3,14.3,0,0,0,14.26,0Zm0,24.5a10.16,10.16,0,1,1,10.1-10.16A10.14,10.14,0,0,1,14.26,24.5Z" fill="#f05e39"/></g></g></svg>