<?xml version="1.0" standalone="no"?>
<!DOCTYPE svg PUBLIC "-//W3C//DTD SVG 20010904//EN"
 "http://www.w3.org/TR/2001/REC-SVG-20010904/DTD/svg10.dtd">
<svg version="1.0" xmlns="http://www.w3.org/2000/svg"
 width="700.000000pt" height="700.000000pt" viewBox="0 0 700.000000 700.000000"
 preserveAspectRatio="xMidYMid meet">
<metadata>
Created by potrace 1.11, written by Peter Selinger 2001-2013
</metadata>
<g transform="translate(0.000000,700.000000) scale(0.100000,-0.100000)"
fill="#000000" stroke="none">
<path d="M3278 6995 c-1 -1 -39 -5 -83 -9 -231 -18 -467 -66 -730 -149 -71
-22 -132 -41 -135 -42 -47 -10 -296 -119 -440 -193 -258 -133 -499 -295 -726
-487 -112 -95 -351 -343 -453 -470 -342 -426 -586 -949 -675 -1445 -12 -73
-19 -107 -24 -125 -3 -11 -7 -236 -9 -500 -4 -405 -2 -495 12 -585 19 -125 70
-361 95 -445 54 -177 72 -230 113 -335 197 -506 511 -964 888 -1299 115 -102
236 -200 280 -226 10 -5 62 -40 116 -76 95 -64 125 -82 243 -148 239 -134 591
-270 881 -340 174 -41 194 -45 389 -75 19 -3 64 -8 100 -11 36 -3 81 -8 100
-11 19 -3 130 -7 245 -8 193 -3 287 1 450 19 110 12 123 14 182 24 32 6 72 14
88 16 17 3 37 8 45 10 8 2 31 7 50 10 198 33 589 174 810 292 91 49 252 143
260 152 3 3 39 28 80 55 168 110 338 252 520 435 418 420 724 930 904 1506 18
60 65 244 72 283 3 15 11 59 19 97 20 102 25 140 44 315 9 78 6 498 -3 585
-73 682 -303 1273 -700 1800 -361 481 -828 841 -1431 1105 -158 70 -517 182
-655 205 -19 3 -53 10 -75 15 -22 5 -62 12 -90 15 -27 4 -57 8 -65 10 -8 2
-46 7 -85 11 -38 3 -79 8 -90 11 -22 5 -511 13 -517 8z m497 -1038 c11 -3 47
-8 80 -11 33 -4 67 -9 75 -11 8 -2 26 -6 40 -9 14 -2 43 -7 65 -11 95 -17 328
-91 445 -142 751 -327 1314 -1049 1466 -1878 21 -118 28 -212 29 -390 0 -238
-7 -301 -60 -570 -27 -135 -118 -381 -209 -563 -315 -633 -913 -1104 -1626
-1280 -207 -51 -331 -66 -565 -66 -248 -1 -312 5 -535 49 -179 36 -417 122
-622 226 -302 154 -601 395 -812 653 -74 91 -196 259 -196 270 0 2 -18 33 -39
68 -103 170 -210 446 -251 653 -7 33 -13 65 -15 70 -26 125 -39 273 -39 460 0
126 11 321 19 335 1 3 5 28 9 55 14 115 84 398 116 470 5 11 25 63 46 115 92
237 274 532 439 709 33 36 158 160 199 196 76 70 291 221 400 281 208 116 456
212 686 264 134 31 147 33 330 55 97 11 477 13 525 2z"/>
<path d="M3329 5566 c-2 -2 -31 -6 -64 -9 -159 -15 -396 -77 -560 -146 -92
-38 -277 -138 -368 -198 -331 -220 -592 -520 -745 -855 -56 -121 -121 -315
-136 -403 -3 -16 -8 -43 -12 -58 -7 -32 -9 -49 -21 -152 -15 -132 -8 -439 12
-542 2 -11 6 -36 9 -55 17 -107 71 -305 102 -375 8 -17 14 -36 14 -43 0 -25
133 -283 192 -373 226 -343 524 -588 928 -761 160 -68 404 -128 625 -152 154
-18 450 -4 585 26 25 5 57 12 71 14 14 2 62 14 105 26 387 109 742 342 1009
665 89 106 115 144 182 253 163 269 257 533 298 837 15 109 17 359 5 445 -5
30 -11 73 -14 95 -11 76 -17 110 -28 150 -6 22 -13 49 -15 59 -10 57 -89 270
-136 369 -107 226 -230 401 -396 568 -121 120 -208 192 -333 273 -342 222
-739 342 -1144 344 -89 1 -163 0 -165 -2z m426 -620 c50 -9 101 -20 115 -25
14 -5 45 -15 70 -22 266 -77 557 -292 729 -538 34 -47 64 -90 69 -96 18 -23
101 -195 126 -260 198 -528 65 -1095 -355 -1514 -360 -361 -842 -514 -1312
-416 -430 89 -831 393 -1029 780 -100 196 -148 400 -148 630 0 204 26 354 92
535 143 392 409 663 828 844 210 90 568 126 815 82z"/>
<path d="M3330 4514 c-405 -72 -738 -373 -838 -759 -61 -233 -21 -534 100
-755 133 -244 362 -420 638 -491 231 -59 488 -40 686 51 314 144 517 406 600
772 14 62 13 250 -2 328 -77 410 -415 758 -820 846 -99 21 -266 25 -364 8z"/>
</g>
</svg>
