<?xml version="1.0" standalone="no"?>
<!DOCTYPE svg PUBLIC "-//W3C//DTD SVG 1.1//EN" "http://www.w3.org/Graphics/SVG/1.1/DTD/svg11.dtd">
<svg xmlns="http://www.w3.org/2000/svg">
<metadata>Copyright (C) 2018 by original authors @ fontello.com</metadata>
<defs>
<font id="radar" horiz-adv-x="1000" >
<font-face font-family="radar" font-weight="400" font-stretch="normal" units-per-em="1000" ascent="850" descent="-150" />
<missing-glyph horiz-adv-x="1000" />
<glyph glyph-name="facebook" unicode="&#xe800;" d="M0 313l0 191 154 0 0 96q0 104 68 177t163 73l153 0 0-191-153 0q-15 0-27-16t-12-41l0-98 192 0 0-191-192 0 0-463-192 0 0 463-154 0z" horiz-adv-x="538" />

<glyph glyph-name="twitter" unicode="&#xe802;" d="M0-37q30-3 60-3 176 0 314 108-82 1-147 50t-89 125q20-4 47-4 35 0 67 9-88 17-145 87t-58 160l0 3q53-30 115-31-52 34-82 90t-31 120q0 68 35 127 94-117 230-186t290-78q-7 33-7 58 0 104 74 178t179 74q109 0 184-80 87 18 160 62-28-91-110-140 73 9 144 40-48-75-125-131l0-33q0-101-29-202t-90-194-145-165-201-115-253-42q-209 0-387 113z" horiz-adv-x="1230" />

<glyph glyph-name="linkedin" unicode="&#xe803;" d="M0 730q0 50 35 83t91 32q55 0 89-32 35-33 35-86 0-48-34-80-35-33-92-33l-1 0q-55 0-89 33t-34 83z m13-875l0 668 222 0 0-668-222 0z m345 0l222 0 0 373q0 35 8 54 14 34 43 58t71 23q112 0 112-151l0-357 222 0 0 383q0 148-70 225t-185 76q-129 0-201-111l0-2-1 0 1 2 0 95-222 0q2-32 2-199t-2-469z" horiz-adv-x="1036" />

<glyph glyph-name="help" unicode="&#xe822;" d="M494 740q86-62 86-184 0-64-42-124-12-20-88-80l-46-30q-40-34-48-60-6-16-8-44 0-14-16-14l-128 0q-16 0-16 12 4 98 28 124 16 22 48 48t56 42l24 14q22 16 34 34 28 44 28 70 0 40-26 78-28 36-92 36-68 0-94-44-28-42-28-92l-166 0q6 162 114 232 70 42 166 42 130 0 214-60z m-216-636q44 0 73-30t27-74q-2-46-32-73t-74-25q-44 0-73 29t-27 75 32 73 74 25z" horiz-adv-x="580" />

<glyph glyph-name="checkbox-selected" unicode="&#xe84b;" d="M813 38l-625 0 0 625 461 0 39 62-500 0c-35 0-63-28-63-62l0-625c0-35 28-63 63-63l625 0c34 0 62 28 62 63l0 412-62-100 0-312z m105 742c-8 5-16 8-24 8-14 0-28-7-37-20l-340-490-131 150c-18 16-45 15-62-3s-15-45 3-62l158-180c1-2 2-3 3-4l4-5c1 0 2 0 2-1 1-1 2-2 3-3 3-2 6-3 9-4 1 0 1-1 2-1 4-1 9-2 13-2 0 0 1 0 1 0 12 0 24 4 32 14 2 1 2 3 4 5 0 0 0 0 0 1l372 537c14 20 8 47-12 60z" horiz-adv-x="1000" />

<glyph glyph-name="checkbox-empty" unicode="&#xe84d;" d="M813 725l-625 0c-35 0-63-28-63-62l0-625c0-35 28-63 63-63l625 0c34 0 62 28 62 63l0 625c0 34-28 62-62 62z m0-687l-625 0 0 625 625 0 0-625z" horiz-adv-x="1000" />

<glyph glyph-name="close" unicode="&#xe869;" d="M314 102c12-13 32-13 44 0l173 173 173-173c12-13 32-13 44 0 13 12 13 32 0 44l-173 173 173 173c13 12 13 32 0 44-12 12-32 12-44 0l-173-173-173 173c-12 12-32 12-44 0-12-12-12-32 0-44l173-173-173-173c-12-12-12-32 0-44z" horiz-adv-x="1000" />

<glyph glyph-name="docs" unicode="&#xe885;" d="M125-25l63 0 0-63c0-34 28-62 62-62l625 0c35 0 63 28 63 62l0 751c0 34-28 62-63 62l-62 0 0 63c0 34-28 62-63 62l-625 0c-34 0-62-28-62-62l0-750c0-35 28-63 62-63z m750 688l0-751-625 0 0 63 500 0c35 0 63 28 63 63l0 625 62 0z m-219 62c18 0 32-14 32-31 0-17-14-31-32-31l-252 0c-18 0-32 14-32 31 0 17 14 31 32 31l252 0z m-440-187l440 0c18 0 32-14 32-32 0-17-14-31-32-31l-440 0c-17 0-31 14-31 31 0 18 14 32 31 32z m0-188l440 0c18 0 32-14 32-31 0-17-14-31-32-31l-440 0c-17 0-31 14-31 31 0 17 14 31 31 31z m0-187l440 0c18 0 32-14 32-32 0-17-14-31-32-31l-440 0c-17 0-31 14-31 31 0 18 14 32 31 32z" horiz-adv-x="1000" />

<glyph glyph-name="arrow-down" unicode="&#xe88e;" d="M460 550l-230-400-230 400 460 0z" horiz-adv-x="460" />

<glyph glyph-name="arrow-left" unicode="&#xe88f;" d="M400 580l0-460-400 230z" horiz-adv-x="400" />

<glyph glyph-name="arrow-right" unicode="&#xe890;" d="M0 580l400-230-400-230 0 460z" horiz-adv-x="400" />

<glyph glyph-name="arrow-up" unicode="&#xe891;" d="M0 150l230 400 230-400-460 0z" horiz-adv-x="460" />

<glyph glyph-name="email-plane" unicode="&#xe8c4;" d="M894 720q14 4 22-3t4-19q-2-6-72-310t-74-316q-2-14-14-19t-24 1l-248 134-30 16 22 26q388 420 394 426 4 4-1 9t-9 1l-550-402-112 44-190 76q-12 4-12 12t12 12q8 4 441 157t441 155z m-582-728l0 204 160-82q-130-116-142-128-18-14-18 6z" horiz-adv-x="921" />

<glyph glyph-name="link" unicode="&#xea18;" d="M547 184l-2 0c-7-1-14-4-19-9l-126-126c-27-27-63-42-101-42-38 0-74 15-101 42-26 26-41 62-41 100 0 38 15 74 41 101l134 134c7 7 15 13 23 18 9 6 18 11 29 15 9 3 19 6 29 7 7 1 13 1 20 1 3 0 5 0 9 0 34-2 67-17 91-41 15-15 27-34 34-53 5-16 22-25 37-20 1 0 1 0 1 0 0 0 0 0 0 0 16 5 25 22 21 37-9 31-24 57-48 81-31 30-70 50-113 57-3 0-7 1-11 1-7 1-14 2-22 2-5 0-10-1-15-1-10-1-21-2-31-5-2 0-4-1-6-2-14-3-26-8-39-14-20-10-38-23-54-39l-134-134c-38-38-59-90-59-145 0-55 21-107 60-145 38-39 90-60 145-60 55 0 107 21 145 60l128 127c20 21 4 56-25 53z m299 512c-38 39-90 60-145 60s-106-21-145-60l-125-124c-18-19-7-51 20-54 9 0 18 3 25 9l125 125c26 26 62 41 100 41s74-15 101-41c27-27 41-63 41-101 0-38-14-74-41-101l-134-134c-7-6-14-12-22-18-9-6-19-11-29-14-10-4-20-6-30-8-6-1-13-1-20-1-2 0-5 0-9 0-34 3-67 17-91 41-14 15-25 32-32 50-6 15-22 24-37 19-18-4-28-22-22-40 8-27 23-50 46-73l0 0 0 0c33-33 77-54 124-59 7-1 14-1 22-1 5 0 10 0 15 0 13 1 25 3 38 7 13 3 26 8 38 14 20 10 38 23 54 39l134 134c38 38 60 90 60 145s-22 107-61 145z" horiz-adv-x="1000" />

<glyph glyph-name="eternal-link" unicode="&#xebb4;" d="M792 58h-584v584h261v83h-261c-45 0-83-37-83-83v-584c0-45 38-83 83-83h584c46 0 83 38 83 83v261h-83v-261z m-229 667v-83h170l-420-421 58-58 421 420v-170h83v312h-312z" horiz-adv-x="1000" />

<glyph glyph-name="search" unicode="&#xed2f;" d="M713 223h-46l-18 12a363 363 0 0 1 88 242 361 361 0 0 1-108 264 355 355 0 0 1-262 109 353 353 0 0 1-259-109 361 361 0 0 1-108-264 356 356 0 0 1 108-261 357 357 0 0 1 262-108 361 361 0 0 1 242 89l18-16v-44l284-287 86 86z m-161 74a251 251 0 0 0-182-74 247 247 0 0 0-181 74 247 247 0 0 0-74 180 252 252 0 0 0 74 183 245 245 0 0 0 181 75 249 249 0 0 0 182-75 248 248 0 0 0 75-183 243 243 0 0 0-75-180z" horiz-adv-x="1000" />

<glyph glyph-name="download" unicode="&#xed34;" d="M474-2l-327 316 78 78 192-185v643h113v-643l192 185 79-79z m-474-43v-105h1000v105z" horiz-adv-x="1000" />

<glyph glyph-name="angle-lg-down" unicode="&#xf004;" d="M0 533q0 25 18 43t44 18 42-18l305-303 304 303q18 18 43 18t43-18q18-18 18-43t-18-43l-390-391-391 391q-18 19-18 43z" horiz-adv-x="817.4" />

<glyph glyph-name="angle-lg-up" unicode="&#xf005;" d="M0 167q0 26 18 43l391 391 390-391q17-17 17-43 0-26-17-44-18-17-44-17t-43 17l-303 305-305-305q-18-17-43-17t-43 17q-18 18-18 44z" horiz-adv-x="816.9" />

<glyph glyph-name="angle-lg-right" unicode="&#xf006;" d="M0 0q0 25 18 43l305 304-305 304q-18 18-18 44t18 43 44 18 43-18l390-391-390-391q-19-18-43-18t-44 18q-18 18-18 44z" horiz-adv-x="495.1" />

<glyph glyph-name="angle-lg-left" unicode="&#xf007;" d="M0 353l391 391q18 18 43 18 24 0 43-18 18-18 18-44t-18-43l-304-304 304-305q18-17 18-43t-18-43q-18-18-43-18t-43 18z" horiz-adv-x="495.1" />

<glyph glyph-name="angle-sm-left" unicode="&#xf104;" d="M350 546q0-7-6-12l-219-220 219-219q6-6 6-13t-6-13l-28-28q-5-5-12-5t-13 5l-260 261q-6 5-6 12t6 13l260 260q5 6 13 6t12-6l28-28q6-5 6-13z" horiz-adv-x="357.1" />

<glyph glyph-name="angle-sm-right" unicode="&#xf105;" d="M332 314q0-7-5-12l-261-261q-5-5-12-5t-13 5l-28 28q-6 6-6 13t6 13l219 219-219 220q-6 5-6 12t6 13l28 28q5 6 13 6t12-6l261-260q5-5 5-13z" horiz-adv-x="357.1" />

<glyph glyph-name="angle-sm-up" unicode="&#xf106;" d="M600 189q0-7-6-12l-28-28q-5-6-12-6t-13 6l-220 219-219-219q-5-6-13-6t-12 6l-28 28q-6 5-6 12t6 13l260 260q5 6 12 6t13-6l260-260q6-5 6-13z" horiz-adv-x="642.9" />

<glyph glyph-name="angle-sm-down" unicode="&#xf107;" d="M600 439q0-7-6-12l-260-261q-5-5-13-5t-12 5l-260 261q-6 5-6 12t6 13l28 28q5 6 12 6t13-6l219-219 220 219q5 6 13 6t12-6l28-28q6-5 6-13z" horiz-adv-x="642.9" />
</font>
</defs>
</svg>
