<svg width="25" height="19" viewBox="0 0 25 19" fill="none" xmlns="http://www.w3.org/2000/svg">
<path d="M13.3929 6.93268H1.13491C0.930906 6.93268 0.750906 6.86068 0.594906 6.71668C0.450906 6.56068 0.378906 6.38068 0.378906 6.17668C0.378906 5.97268 0.450906 5.79868 0.594906 5.65468C0.750906 5.49868 0.930906 5.42068 1.13491 5.42068H13.3929C13.8009 5.34868 14.1369 5.15068 14.4009 4.82668C14.6769 4.50268 14.8149 4.13668 14.8149 3.72868C14.8149 3.30868 14.6769 2.93668 14.4009 2.61268C14.1369 2.28868 13.8009 2.09068 13.3929 2.01868C12.9849 2.04268 12.6309 2.18668 12.3309 2.45068C12.0309 2.71468 11.8449 3.04468 11.7729 3.44068C11.7369 3.64468 11.6349 3.80668 11.4669 3.92668C11.2989 4.03468 11.1129 4.07068 10.9089 4.03468C10.7169 3.99868 10.5609 3.90268 10.4409 3.74668C10.3209 3.57868 10.2789 3.39268 10.3149 3.18868C10.3989 2.62468 10.6149 2.12068 10.9629 1.67668C11.3229 1.23268 11.7609 0.902677 12.2769 0.686677C12.7929 0.458677 13.3329 0.380678 13.8969 0.452678C14.4729 0.512678 14.9889 0.710678 15.4449 1.04668C15.9009 1.38268 16.2489 1.80868 16.4889 2.32468C16.7289 2.82868 16.8249 3.36868 16.7769 3.94468C16.7409 4.50868 16.5609 5.02468 16.2369 5.49268C15.9249 5.96068 15.5169 6.32668 15.0129 6.59068C14.5089 6.84268 13.9689 6.95668 13.3929 6.93268ZM15.4089 18.5427C16.0569 18.6747 16.6809 18.6147 17.2809 18.3627C17.8929 18.1107 18.3789 17.7087 18.7389 17.1567C19.1109 16.6047 19.2969 16.0047 19.2969 15.3567C19.2969 14.6967 19.1109 14.0907 18.7389 13.5387C18.3789 12.9867 17.8929 12.5847 17.2809 12.3327C16.6809 12.0807 16.0569 12.0207 15.4089 12.1527H2.61091C2.45491 12.1167 2.30491 12.1287 2.16091 12.1887C2.01691 12.2487 1.90291 12.3447 1.81891 12.4767C1.73491 12.5967 1.69291 12.7347 1.69291 12.8907C1.69291 13.0467 1.73491 13.1907 1.81891 13.3227C1.90291 13.4427 2.01691 13.5327 2.16091 13.5927C2.30491 13.6527 2.45491 13.6647 2.61091 13.6287H15.4449C15.9129 13.6047 16.3209 13.7487 16.6689 14.0607C17.0169 14.3607 17.2089 14.7447 17.2449 15.2127C17.2929 15.6687 17.1669 16.0767 16.8669 16.4367C16.5789 16.7967 16.2069 17.0067 15.7509 17.0667C15.2949 17.1267 14.8749 17.0187 14.4909 16.7427C14.1189 16.4667 13.8969 16.1007 13.8249 15.6447C13.7889 15.4407 13.6869 15.2787 13.5189 15.1587C13.3509 15.0387 13.1649 15.0027 12.9609 15.0507C12.7689 15.0867 12.6129 15.1887 12.4929 15.3567C12.3849 15.5127 12.3429 15.6927 12.3669 15.8967C12.4629 16.4007 12.6609 16.8507 12.9609 17.2467C13.2609 17.6427 13.6329 17.9547 14.0769 18.1827C14.5329 18.4107 15.0129 18.5307 15.5169 18.5427H15.4089ZM20.9709 10.2987C21.5469 10.2987 22.0749 10.1607 22.5549 9.88468C23.0469 9.59668 23.4369 9.21268 23.7249 8.73268C24.0249 8.25268 24.1809 7.73068 24.1929 7.16668C24.2169 6.59068 24.0969 6.05668 23.8329 5.56468C23.5809 5.06068 23.2209 4.65268 22.7529 4.34068C22.2849 4.01668 21.7629 3.83668 21.1869 3.80068C20.6229 3.75268 20.0829 3.84868 19.5669 4.08868C19.0629 4.31668 18.6429 4.65868 18.3069 5.11468C17.9829 5.57068 17.7849 6.08068 17.7129 6.64468C17.6889 6.84868 17.7369 7.03468 17.8569 7.20268C17.9769 7.35868 18.1389 7.45468 18.3429 7.49068C18.5469 7.51468 18.7269 7.46668 18.8829 7.34668C19.0509 7.22668 19.1529 7.06468 19.1889 6.86068C19.2489 6.40468 19.4589 6.03868 19.8189 5.76268C20.1909 5.47468 20.6049 5.35468 21.0609 5.40268C21.5169 5.43868 21.8889 5.63668 22.1769 5.99668C22.4769 6.34468 22.6089 6.75268 22.5729 7.22068C22.5489 7.67668 22.3629 8.06068 22.0149 8.37268C21.6789 8.67268 21.2829 8.81668 20.8269 8.80468H4.08691C3.90691 8.82868 3.75091 8.91268 3.61891 9.05668C3.49891 9.20068 3.43891 9.36868 3.43891 9.56068C3.43891 9.74068 3.49891 9.90268 3.61891 10.0467C3.75091 10.1907 3.90691 10.2747 4.08691 10.2987H20.9709Z" fill="#F05E38"/>
</svg>
