<svg width="16" height="13" viewBox="0 0 16 13" fill="none" xmlns="http://www.w3.org/2000/svg">
<path d="M6.38867 0.118652H0.84082C0.618164 0.118652 0.426432 0.199056 0.265625 0.359863C0.117188 0.508301 0.0429688 0.687663 0.0429688 0.897949V4.86865V7.16943C0.0429688 7.21891 0.0800781 7.66423 0.154297 8.50537C0.228516 9.33415 0.636719 10.1567 1.37891 10.9731C1.93555 11.5669 2.63444 12.0184 3.47559 12.3276C4.31673 12.6245 5.28776 12.7729 6.38867 12.7729H7.16797V10.5464L6.53711 10.4165C5.99284 10.3052 5.52897 10.1444 5.14551 9.93408C4.77441 9.7238 4.48991 9.46403 4.29199 9.15479C4.16829 8.95687 4.08171 8.75895 4.03223 8.56104C3.98275 8.36312 3.95182 8.18376 3.93945 8.02295H6.38867C6.59896 8.02295 6.77832 7.94873 6.92676 7.80029C7.08756 7.63949 7.16797 7.45394 7.16797 7.24365V0.897949C7.16797 0.687663 7.08756 0.508301 6.92676 0.359863C6.77832 0.199056 6.59896 0.118652 6.38867 0.118652ZM15.0908 8.02295C15.3135 8.02295 15.499 7.94873 15.6475 7.80029C15.8083 7.63949 15.8887 7.45394 15.8887 7.24365V0.897949C15.8887 0.687663 15.8083 0.508301 15.6475 0.359863C15.499 0.199056 15.3135 0.118652 15.0908 0.118652H9.54297C9.33268 0.118652 9.14714 0.199056 8.98633 0.359863C8.83789 0.508301 8.76367 0.687663 8.76367 0.897949V4.86865V7.16943C8.76367 7.21891 8.7946 7.66423 8.85645 8.50537C8.93066 9.33415 9.34505 10.1567 10.0996 10.9731C10.6562 11.5669 11.349 12.0184 12.1777 12.3276C13.0189 12.6245 13.9899 12.7729 15.0908 12.7729H15.8887V10.5464L15.2393 10.4165C14.7074 10.3052 14.2497 10.1444 13.8662 9.93408C13.4951 9.7238 13.2044 9.46403 12.9941 9.15479C12.8704 8.95687 12.7839 8.75895 12.7344 8.56104C12.6973 8.36312 12.6725 8.18376 12.6602 8.02295H15.0908Z" fill="#BD503C"/>
</svg>
