<svg width="17" height="18" viewBox="0 0 17 18" fill="none" xmlns="http://www.w3.org/2000/svg">
<path d="M3.41844 7.07483V6.22483H4.45544V7.14283L3.41844 7.07483ZM3.04444 6.22483H1.24244V2.77383C1.24244 2.51317 1.3331 2.29217 1.51444 2.11083C1.7071 1.9295 1.93377 1.83883 2.19444 1.83883H8.31444V0.920834H2.19444C1.9451 0.909501 1.70144 0.949167 1.46344 1.03983C1.22544 1.1305 1.01577 1.2665 0.834437 1.44783C0.653104 1.61783 0.511438 1.82183 0.409438 2.05983C0.318771 2.2865 0.273438 2.5245 0.273438 2.77383V7.07483H3.04444V6.22483ZM14.5364 6.22483C14.5591 6.61017 14.4458 6.95017 14.1964 7.24483C13.9584 7.5395 13.6468 7.72083 13.2614 7.78883C12.8874 7.8455 12.5418 7.77183 12.2244 7.56783C11.9071 7.3525 11.6974 7.05783 11.5954 6.68383H10.8984L9.41944 8.89383H7.97444V7.92483H8.94344L10.2694 5.81683H11.5444C11.6011 5.40883 11.7938 5.08017 12.1224 4.83083C12.4624 4.57017 12.8364 4.46817 13.2444 4.52483C13.6524 4.5815 13.9811 4.77983 14.2304 5.11983C14.4911 5.4485 14.5931 5.81683 14.5364 6.22483ZM13.6184 6.22483C13.6184 6.06617 13.5561 5.93017 13.4314 5.81683C13.3068 5.7035 13.1651 5.64683 13.0064 5.64683C12.8478 5.64683 12.7118 5.70917 12.5984 5.83383C12.4851 5.9585 12.4284 6.10017 12.4284 6.25883C12.4284 6.4175 12.4908 6.5535 12.6154 6.66683C12.7401 6.78017 12.8818 6.83683 13.0404 6.83683C13.2104 6.83683 13.3464 6.7745 13.4484 6.64983C13.5618 6.52517 13.6184 6.3835 13.6184 6.22483ZM8.56944 4.55883C8.44477 4.33217 8.38244 4.0885 8.38244 3.82783C8.38244 3.52183 8.46177 3.24417 8.62044 2.99483C8.79044 2.73417 9.01711 2.5415 9.30044 2.41683C9.58377 2.29217 9.87277 2.26383 10.1674 2.33183C10.4734 2.3885 10.7341 2.5245 10.9494 2.73983C11.1761 2.95517 11.3178 3.21583 11.3744 3.52183C11.4424 3.8165 11.4141 4.1055 11.2894 4.38883C11.1761 4.67217 10.9891 4.89883 10.7284 5.06883C10.4791 5.23883 10.2014 5.32383 9.89544 5.32383C9.66877 5.32383 9.44777 5.2785 9.23244 5.18783L7.65144 7.07483H4.81244V6.22483H7.22644L8.56944 4.55883ZM9.30044 3.82783C9.30044 3.9865 9.35711 4.12817 9.47044 4.25283C9.59511 4.36617 9.73677 4.42283 9.89544 4.42283C10.0541 4.42283 10.1901 4.36617 10.3034 4.25283C10.4281 4.12817 10.4904 3.9865 10.4904 3.82783C10.4904 3.66917 10.4281 3.53317 10.3034 3.41983C10.1901 3.29517 10.0541 3.23283 9.89544 3.23283C9.73677 3.23283 9.59511 3.29517 9.47044 3.41983C9.35711 3.53317 9.30044 3.66917 9.30044 3.82783ZM9.70844 0.920834H8.67144V1.83883H9.70844V0.920834ZM6.56344 7.92483V8.89383H7.60044V7.92483H6.56344ZM4.47244 9.65883H11.5954C11.7088 9.3075 11.9241 9.0355 12.2414 8.84283C12.5588 8.63883 12.8988 8.56517 13.2614 8.62183C13.6354 8.6785 13.9414 8.8485 14.1794 9.13183C14.4288 9.41517 14.5534 9.74383 14.5534 10.1178C14.5534 10.4918 14.4288 10.8205 14.1794 11.1038C13.9414 11.3872 13.6354 11.5572 13.2614 11.6138C12.8988 11.6705 12.5588 11.6025 12.2414 11.4098C11.9241 11.2058 11.7088 10.9282 11.5954 10.5768H4.47244V9.65883ZM12.4454 10.1178C12.4454 10.2765 12.5021 10.4182 12.6154 10.5428C12.7401 10.6562 12.8818 10.7128 13.0404 10.7128C13.1991 10.7128 13.3351 10.6562 13.4484 10.5428C13.5731 10.4182 13.6354 10.2765 13.6354 10.1178C13.6354 9.95917 13.5731 9.82317 13.4484 9.70984C13.3351 9.58517 13.1991 9.52283 13.0404 9.52283C12.8818 9.52283 12.7401 9.58517 12.6154 9.70984C12.5021 9.82317 12.4454 9.95917 12.4454 10.1178ZM11.1024 0.920834H10.0824V1.83883H11.1024V0.920834ZM1.24244 16.0678V15.2008H0.273438V16.0678C0.273438 16.4078 0.352771 16.7195 0.511438 17.0028C0.681437 17.2862 0.908104 17.5072 1.19144 17.6658C1.47477 17.8358 1.78644 17.9208 2.12644 17.9208H7.95744V17.0028H2.19444C1.93377 17.0028 1.7071 16.9122 1.51444 16.7308C1.3331 16.5495 1.24244 16.3285 1.24244 16.0678ZM15.3694 16.0678C15.3694 16.3285 15.2788 16.5495 15.0974 16.7308C14.9161 16.9122 14.6951 17.0028 14.4344 17.0028H11.7824V17.9208H14.4344C14.7744 17.9208 15.0861 17.8358 15.3694 17.6658C15.6528 17.5072 15.8738 17.2862 16.0324 17.0028C16.2024 16.7195 16.2874 16.4078 16.2874 16.0678V11.6988H15.3694V16.0678ZM15.3694 11.3248H16.2874V10.3048H15.3694V11.3248ZM15.3694 9.99883H16.2874V8.89383H15.3694V9.99883ZM11.5954 14.4188H10.3714L9.04544 12.3278H0.273438V11.4098H9.47044L10.8984 13.5178H11.6464C11.7711 13.1552 12.0034 12.8888 12.3434 12.7188C12.6834 12.5375 13.0348 12.4922 13.3974 12.5828C13.7714 12.6622 14.0661 12.8605 14.2814 13.1778C14.4968 13.4838 14.5818 13.8295 14.5364 14.2148C14.4911 14.5888 14.3268 14.9005 14.0434 15.1498C13.7601 15.3992 13.4258 15.5238 13.0404 15.5238C12.7004 15.5238 12.3944 15.4218 12.1224 15.2178C11.8618 15.0138 11.6861 14.7475 11.5954 14.4188ZM12.4454 13.9598C12.4454 14.0845 12.4738 14.1978 12.5304 14.2998C12.5984 14.4018 12.6891 14.4755 12.8024 14.5208C12.9158 14.5662 13.0291 14.5832 13.1424 14.5718C13.2671 14.5492 13.3691 14.4982 13.4484 14.4188C13.5391 14.3282 13.5958 14.2262 13.6184 14.1128C13.6411 13.9882 13.6298 13.8692 13.5844 13.7558C13.5391 13.6425 13.4654 13.5518 13.3634 13.4838C13.2728 13.4158 13.1651 13.3818 13.0404 13.3818C12.8818 13.3818 12.7401 13.4385 12.6154 13.5518C12.5021 13.6652 12.4454 13.8012 12.4454 13.9598ZM14.4344 0.920834H11.4764V1.83883H14.4344C14.6951 1.83883 14.9161 1.9295 15.0974 2.11083C15.2788 2.29217 15.3694 2.51317 15.3694 2.77383V8.17983H16.2874V2.77383C16.2874 2.43383 16.2024 2.12217 16.0324 1.83883C15.8738 1.5555 15.6528 1.3345 15.3694 1.17583C15.0861 1.00583 14.7744 0.920834 14.4344 0.920834ZM1.24244 14.0618H3.40144V13.1438H0.273438V14.8268H1.24244V14.0618ZM11.3914 16.4248C11.3461 16.8102 11.1818 17.1332 10.8984 17.3938C10.6151 17.6545 10.2751 17.7848 9.87844 17.7848C9.4931 17.7848 9.15877 17.6545 8.87544 17.3938C8.5921 17.1332 8.42777 16.8102 8.38244 16.4248C8.38244 16.1642 8.44477 15.9205 8.56944 15.6938L7.22644 14.0618H5.16944V13.1438H7.65144L9.23244 15.0478C9.44777 14.9572 9.66877 14.9118 9.89544 14.9118C10.3148 14.9118 10.6661 15.0592 10.9494 15.3538C11.2441 15.6485 11.3914 16.0055 11.3914 16.4248ZM10.4734 16.4248C10.4734 16.3002 10.4394 16.1868 10.3714 16.0848C10.3148 15.9828 10.2298 15.9092 10.1164 15.8638C10.0031 15.8185 9.8841 15.8072 9.75944 15.8298C9.6461 15.8525 9.5441 15.9035 9.45344 15.9828C9.3741 16.0735 9.3231 16.1755 9.30044 16.2888C9.27777 16.4135 9.2891 16.5325 9.33444 16.6458C9.37977 16.7592 9.45344 16.8442 9.55544 16.9008C9.65744 16.9688 9.77077 17.0028 9.89544 17.0028C10.0541 17.0028 10.1901 16.9462 10.3034 16.8328C10.4168 16.7195 10.4734 16.5835 10.4734 16.4248ZM4.09844 10.5768V9.65883H3.07844V10.5768H4.09844ZM2.77244 10.5768V9.65883H1.66744V10.5768H2.77244ZM3.82644 13.1438V14.0618H4.86344V13.1438H3.82644ZM1.24244 8.89383H6.18944V7.92483H0.273438V10.9848H1.24244V8.89383Z" fill="#F05E38"/>
</svg>
