<svg width="16" height="19" viewBox="0 0 16 19" fill="none" xmlns="http://www.w3.org/2000/svg">
<path d="M14.1193 3.97338C13.7713 9.70938 11.7613 14.0354 8.08925 16.9514C4.41725 14.0474 2.40725 9.72138 2.05925 3.97338C3.13925 3.91338 4.18925 3.70938 5.20925 3.36138C6.22925 3.01338 7.18925 2.53938 8.08925 1.93938C8.98925 2.53938 9.94925 3.01338 10.9693 3.36138C11.9893 3.70938 13.0393 3.91338 14.1193 3.97338ZM15.3973 2.78538C15.2173 9.94938 12.7813 15.1754 8.08925 18.4634C3.37325 15.1754 0.93725 9.94938 0.78125 2.78538C2.10125 2.84538 3.38525 2.67738 4.63325 2.28138C5.89325 1.88538 7.04525 1.27938 8.08925 0.463379C9.13325 1.27938 10.2793 1.88538 11.5273 2.28138C12.7873 2.67738 14.0773 2.84538 15.3973 2.78538ZM14.4253 3.70338C13.2853 3.66738 12.1753 3.47538 11.0953 3.12738C10.0273 2.76738 9.02525 2.26338 8.08925 1.61538C7.15325 2.26338 6.14525 2.76738 5.06525 3.12738C3.99725 3.47538 2.89325 3.66738 1.75325 3.70338C1.90925 6.57138 2.45525 9.09138 3.39125 11.2634C4.44725 13.7114 6.01325 15.7274 8.08925 17.3114C11.9893 14.3114 14.1012 9.77538 14.4253 3.70338Z" fill="#F05E38"/>
</svg>
