<svg width="67" height="42" viewBox="0 0 67 42" fill="none" xmlns="http://www.w3.org/2000/svg">
<path fill-rule="evenodd" clip-rule="evenodd" d="M60.3674 0.405762L66.4966 4.90483L59.4766 7.95144L59.8144 5.08966C56.1167 4.95848 52.6891 5.45501 49.9261 7.49202C49.2421 8.00226 48.7173 8.54098 48.5244 9.09238L48.5215 9.10044L48.5186 9.10844C48.101 10.2317 48.7523 11.764 49.9876 12.6543C50.9895 13.3764 52.194 13.7459 53.544 14.109C56.0852 13.8674 58.7835 14.8896 60.5776 16.6749C61.8097 17.3943 62.9354 18.2945 63.8485 19.4484C65.0334 20.9458 65.6566 22.9121 65.6068 24.7885C65.5574 26.6505 64.8369 28.5156 63.2232 29.7093C62.8376 31.1577 62.2395 32.5722 61.3469 33.8256C59.365 36.6442 56.1872 38.247 53.0749 39.1934L53.067 39.1958L53.0591 39.1981C52.3462 39.4005 51.305 39.6942 50.2965 39.4572C48.575 39.0671 47.8183 37.6891 47.4058 36.3469C47.0713 37.5546 46.5029 38.716 45.5005 39.6061C44.4924 40.521 43.2573 40.9497 42.027 41.1431C40.8036 41.3354 39.5226 41.3038 38.3791 41.2506L38.3762 41.2504L38.2963 41.2473C35.9906 41.1557 33.5117 41.0572 31.174 40.2916C30.0421 40.5575 28.8738 40.7532 27.7277 40.799C25.5958 40.8842 23.4379 40.4531 21.7412 38.8898L21.7386 38.8874C20.1638 37.4248 19.5414 35.458 19.4262 33.4688C19.3115 31.487 19.6933 29.4077 20.2052 27.5895C18.1792 25.9172 16.5502 23.7774 15.758 21.2124L15.7562 21.2064L15.7544 21.2004C15.7088 21.0451 15.6674 20.8986 15.6281 20.7599C15.4231 20.0355 15.2793 19.5271 14.9324 19.1163C14.5477 18.6699 13.9589 18.4663 13.1293 18.4814C12.2921 18.4966 11.3457 18.7359 10.4423 19.0292C9.76761 19.2586 9.08444 19.488 8.4032 19.7167L8.40148 19.7172L8.39798 19.7184L8.39579 19.7192C8.10006 19.8184 7.8047 19.9176 7.51029 20.0166L8.4481 22.7595L0.964844 21.3071L5.98931 15.5681L6.93689 18.3396C7.23226 18.2402 7.52812 18.1409 7.82361 18.0417L7.82578 18.041C8.51204 17.8106 9.19632 17.5809 9.87141 17.3513L9.87716 17.3493L9.88295 17.3475C10.8308 17.0394 11.9846 16.7306 13.0967 16.7104C14.2167 16.69 15.4268 16.964 16.2894 17.9685L16.2914 17.9708L16.2933 17.973C16.9144 18.7063 17.1733 19.6495 17.3697 20.3651C17.4021 20.4831 17.4328 20.5949 17.4631 20.6985C18.0646 22.6418 19.2521 24.3401 20.7844 25.7416C21.5648 23.4613 22.6209 21.1923 24.2407 19.3434C27.3358 15.8106 32.3966 14.0706 37.0576 14.9822C41.0287 15.7588 44.5169 18.4267 46.3857 21.9687C46.5924 21.1813 46.8247 20.3964 47.1077 19.6503C47.7016 18.0846 48.5504 16.5942 49.9489 15.5081C50.1756 15.3312 50.4103 15.1719 50.6517 15.0294C50.0562 14.7784 49.4768 14.474 48.9418 14.0884C47.3283 12.9255 46.0565 10.636 46.8444 8.50238C47.2231 7.42874 48.1202 6.6244 48.8589 6.07365L48.8626 6.07091C52.1357 3.65669 56.1024 3.16934 60.0228 3.32487L60.3674 0.405762ZM53.4306 15.9139C52.5587 16.0417 51.7375 16.3642 51.0481 16.9021L51.0464 16.9034C50.0044 17.7125 49.3079 18.8699 48.7749 20.2752C48.3145 21.4891 48.0003 22.8163 47.6741 24.194L47.6738 24.1952C47.6188 24.4273 47.5635 24.6609 47.5071 24.8957L47.5036 24.9104C48.0038 26.9085 48.0813 28.9804 48.0096 30.9892C48.0437 31.0862 48.0761 31.1844 48.1067 31.2839C48.2766 31.8278 48.402 32.4107 48.5106 32.9802L59.5882 29.4292L59.5966 29.4265L59.6192 29.419C60.3895 29.1637 61.0717 28.9377 61.6563 28.6129C61.7444 28.209 61.8163 27.7998 61.8735 27.388C62.316 24.033 61.6801 20.475 59.4991 18.1154L59.4705 18.0847C57.8848 17.1974 56.044 16.5952 54.1574 16.1059L54.1534 16.1048L54.1493 16.1038C53.9678 16.0549 53.782 16.0062 53.5929 15.9565L53.4306 15.9139ZM63.559 22.7274C63.7081 23.5733 63.7805 24.4327 63.7864 25.2854C63.8077 25.1073 63.8208 24.9259 63.8257 24.7418C63.8435 24.0716 63.7509 23.3854 63.559 22.7274ZM60.9708 30.8337C60.7355 30.9167 60.5057 30.9926 60.2866 31.065L60.1517 31.1096L60.1475 31.111L48.839 34.7361C48.9002 35.0333 48.9657 35.3192 49.0411 35.5931C49.3964 36.8839 49.8701 37.5449 50.695 37.7307L50.6997 37.7318L50.7044 37.7329C51.1894 37.8477 51.7829 37.7181 52.5615 37.4972C55.5033 36.6016 58.2365 35.1588 59.888 32.8088L59.8896 32.8065L59.8913 32.8041C60.3244 32.1962 60.681 31.5334 60.9708 30.8337ZM45.5853 30.1399C45.835 30.4939 46.0463 30.8732 46.2145 31.2786C46.1907 31.816 46.1567 32.3563 46.1173 32.8979L46.1171 32.9009L46.1169 32.9038C46.0976 33.1964 46.0751 33.4855 46.0474 33.7698L33.4065 37.822C32.7062 38.0453 31.9873 38.2599 31.2642 38.4449C31.15 38.4017 31.0365 38.3566 30.9235 38.3094C28.6444 37.3571 26.7974 35.4192 26.62 33.2445L26.6198 33.2415C26.5599 32.537 26.6727 31.8259 26.9232 31.1474C30.3832 32.2532 34.0417 32.6386 37.5439 32.9927L37.5467 32.9929L37.6099 32.9989H37.61C39.0575 33.1361 40.7646 33.2979 42.3826 32.7349L42.3871 32.7334L42.3915 32.7318C43.8428 32.2095 44.8521 31.2745 45.5853 30.1399ZM45.6655 24.9306C45.4739 25.7058 45.2756 26.4387 45.0439 27.1156C44.563 26.7639 44.0489 26.4533 43.5133 26.1815C41.4239 25.1216 38.9535 24.622 36.6596 24.5662C34.0473 24.4932 31.2141 24.8529 28.8335 26.2884C27.7463 26.944 26.7696 27.8684 26.0522 28.958C25.906 28.9004 25.7603 28.8412 25.6152 28.7804C24.4354 28.2854 23.3014 27.6657 22.2659 26.9328C23.0329 24.541 24.0359 22.2741 25.5843 20.5068C28.2619 17.4504 32.6799 15.9313 36.7137 16.7201C40.7441 17.5083 44.2289 20.5757 45.5184 24.4535C45.5707 24.6116 45.6197 24.7706 45.6655 24.9306ZM21.7455 28.7247C21.3596 30.2581 21.1185 31.8732 21.205 33.367C21.3036 35.0703 21.8212 36.5393 22.9537 37.5919C24.1788 38.7199 25.7977 39.1034 27.6562 39.0291C27.9154 39.0188 28.1773 38.9996 28.4411 38.9726C26.5537 37.6941 25.0368 35.743 24.8442 33.3891C24.7608 32.4047 24.9144 31.4428 25.2455 30.5449C25.1375 30.5016 25.0299 30.4574 24.9224 30.4123C23.8305 29.9542 22.7571 29.3903 21.7455 28.7247ZM27.7985 29.5645C28.3232 28.8705 28.9944 28.2631 29.7575 27.8029C31.7238 26.6172 34.1638 26.2683 36.6111 26.3368L36.6145 26.3369C38.7032 26.3875 40.9002 26.8445 42.7034 27.7593C43.2939 28.0588 43.8362 28.4039 44.3178 28.7961C43.7218 29.869 42.9404 30.6492 41.7896 31.0646C40.5814 31.4836 39.2512 31.375 37.7214 31.2302C34.3043 30.8847 30.94 30.5219 27.7985 29.5645ZM34.7796 39.2429C35.9624 39.38 37.1903 39.4306 38.4536 39.4808L38.4566 39.4809L38.4597 39.4811C39.5961 39.534 40.7193 39.5554 41.7488 39.3936C42.7705 39.233 43.6361 38.901 44.3021 38.2953L44.3064 38.2914L44.3107 38.2876C45.0354 37.6455 45.4629 36.7605 45.7256 35.7341L34.7796 39.2429Z" fill="#EF5E38"/>
</svg>
