<svg width="39" height="40" viewBox="0 0 39 40" fill="none" xmlns="http://www.w3.org/2000/svg">
<path fill-rule="evenodd" clip-rule="evenodd" d="M18.8132 0.365723C6.97477 0.365723 3.50002 9.29502 2.57073 13.1738C2.01129 15.5314 2.87459 16.6244 3.47993 17.3908L3.50002 17.4162C3.82325 17.8203 3.90406 17.9415 3.86366 18.0223C3.64059 18.9146 3.07542 19.8068 2.2311 21.1398C2.15785 21.2555 2.08249 21.3745 2.00507 21.497C1.93407 21.6063 1.86353 21.7144 1.79371 21.8214L1.79319 21.8222C-0.202709 24.8815 -1.60812 27.0358 3.66164 28.2849L3.65688 28.3327C3.60966 28.8079 3.45101 30.4046 3.21719 30.9112C3.05558 31.3152 3.21719 31.7597 3.58083 31.9617C3.82325 32.0829 3.98487 32.1637 4.38891 32.4061C3.38277 33.5723 3.74843 33.8973 4.25542 34.348C4.64424 34.6935 5.11618 35.113 5.11618 36.0425C5.11618 38.5071 6.48992 39.396 7.78285 39.396C8.75255 39.396 13.1162 39.2748 16.3485 38.7092C19.9445 38.0627 21.1566 33.9011 22.2071 30.2243C22.4899 29.2142 20.9546 28.7698 20.6717 29.7799C19.702 33.1738 18.6919 36.6486 16.1061 37.093C12.9546 37.6587 8.75255 37.7395 7.82325 37.7395C7.09598 37.7395 6.77275 37.1738 6.77275 36.0021C6.77275 34.79 6.16669 33.9011 5.68184 33.3758C5.84346 33.1738 6.04548 32.9718 6.2879 32.8102C6.77275 32.4465 6.69194 31.6385 6.08588 31.4364C6.00507 31.3556 5.92426 31.2748 5.80305 31.2344C5.52022 31.1132 5.23739 30.9516 4.95457 30.79C5.15659 29.9415 5.2778 28.891 5.2778 28.4869C6.73234 28.5677 6.48992 26.7496 5.39901 26.9112C4.55053 26.9112 1.92426 26.1839 1.64143 25.5778C1.6223 25.0805 2.40019 23.8767 3.26326 22.541C4.22312 21.0556 5.28835 19.4071 5.47982 18.3859C5.67881 17.4995 5.29465 17.0262 4.8749 16.509C4.35714 15.871 3.78523 15.1664 4.18689 13.5374C5.19699 9.21421 8.51012 1.98188 18.8132 1.98188C30.4495 1.98188 36.7525 8.68895 36.7525 15.0324C36.7525 23.0324 31.2172 26.7496 28.8334 27.9617C28.5505 28.0829 28.3889 28.3657 28.3889 28.689C28.3889 32.3253 29.3586 36.891 30.6919 39.5576C31.1768 40.4869 32.5909 39.8001 32.1465 38.8304C30.9748 36.4869 30.1263 32.4869 30.0455 29.1738C35.298 26.2647 38.4091 21.0122 38.4091 15.0324C38.3283 7.92128 31.5 0.365723 18.8132 0.365723ZM21.4811 9.13357C20.7135 9.57801 19.7438 9.57801 19.0973 9.01235L18.6529 8.60831C18.4104 8.40629 18.0468 8.4871 17.9256 8.76993L17.7236 9.25478C17.2387 10.4669 15.7842 10.9517 14.6529 10.2245L14.2084 9.98205C13.9256 9.82044 13.5215 10.0225 13.5215 10.3457C13.5174 10.4083 13.5141 10.4726 13.5107 10.5383C13.4813 11.109 13.4464 11.7862 12.7943 12.3659C12.1882 12.9315 12.5518 13.8204 13.2791 13.8204C13.966 13.8204 14.6529 12.7295 14.8549 12.0831C16.3094 12.4467 17.8448 11.9214 18.7337 10.7093C20.6731 11.679 23.2185 10.6689 22.572 9.4972C22.37 9.05276 21.8448 8.93155 21.4811 9.13357ZM24.3875 20.4059H28.0643C28.5087 20.4059 28.9128 20.0018 28.9128 19.5574C28.9128 19.0725 28.5087 18.7089 28.0643 18.7089C22.8742 18.7089 21.8757 18.5737 21.2484 18.9933C21.0357 19.1356 20.8657 19.3416 20.5895 19.6382C19.7006 21.0119 20.7107 22.7493 22.2865 22.7493C24.0643 22.7493 25.5996 24.0826 25.8421 25.8604L26.2461 28.5271C26.4077 29.5776 24.832 29.7796 24.6703 28.7291L24.3067 26.0624C24.1855 25.0927 23.337 24.3655 22.3673 24.3655C20.0239 24.3655 18.2865 22.2241 18.8118 19.921H17.9633C16.4683 19.921 15.1754 18.9513 14.6905 17.5776H12.3067H11.6198C7.82186 17.5776 6.2461 11.7998 10.2057 10.2241C9.76125 7.55739 12.2259 5.33517 14.8118 6.06244C16.0643 3.6382 19.4582 3.43618 21.034 5.6584C22.933 4.56749 25.3976 5.37558 26.2461 7.39578C28.9532 6.78972 31.3774 9.29477 30.6097 12.0018C33.5188 13.3352 33.438 17.5776 30.4077 18.7897C30.933 20.4059 29.7208 22.022 28.0643 22.022H24.3875C23.337 22.022 23.337 20.4059 24.3875 20.4059ZM18.0441 18.3049H19.6198C20.7877 17.0036 21.8453 17.0249 25.2959 17.0946C26.0236 17.1093 26.8578 17.1261 27.8219 17.1332C28.2259 17.1332 28.6703 17.1332 29.2764 17.4564C31.6602 17.214 31.7815 13.7392 29.2764 13.3352L28.8724 13.2544C28.5491 13.214 28.3875 12.8503 28.5491 12.5675L28.832 12.1231C29.9229 10.3453 27.9431 8.20386 26.0845 9.21396L25.64 9.45638C25.3572 9.5776 24.9936 9.41598 24.9532 9.09275L24.8724 8.6079C24.7107 7.35537 23.4582 6.50689 22.1653 6.91093C21.6887 7.08114 21.4129 7.36607 21.0962 7.69324C21.037 7.75438 20.9764 7.817 20.9128 7.88063C20.6703 8.16345 20.2663 8.04224 20.1451 7.71901L19.9835 7.19376C19.4178 5.41598 16.5895 4.97153 15.9027 7.79982C15.8219 8.08265 15.4986 8.24426 15.2158 8.08265L14.8118 7.84022C13.0744 6.83012 11.0946 8.6483 11.9027 10.4665L12.1047 10.8705C12.2259 11.1534 12.0643 11.4766 11.7411 11.517L11.3774 11.5574C10.7714 11.6382 10.2461 11.921 9.88246 12.3655C8.71075 13.8604 10.0845 15.9614 11.5794 15.9614H14.4885C14.6905 14.2645 16.1451 12.9311 17.9229 12.9311H23.7815C24.1047 12.6079 24.3471 12.2039 24.4279 11.7594C24.6703 10.5069 27.1754 11.0725 25.3572 13.5776C27.4582 15.4766 25.2764 16.4867 24.7512 15.3958C24.5895 15.0321 24.3067 14.7493 23.9431 14.5473H17.9633C16.8724 14.5473 15.9835 15.4766 16.1047 16.6079C16.1855 17.5776 17.0744 18.3049 18.0441 18.3049Z" fill="#EF5E38"/>
</svg>
