<svg width="30" height="15" viewBox="0 0 30 15" fill="none" xmlns="http://www.w3.org/2000/svg">
<path d="M29.6977 13.7432C29.5577 13.8832 29.385 13.9532 29.1797 13.9532C28.9837 13.9532 28.8157 13.8832 28.6757 13.7432L18.3157 2.24918C18.185 2.11852 18.0217 2.04852 17.8257 2.03918C17.639 2.02985 17.4803 2.09985 17.3497 2.24918L12.7157 6.79918L18.3437 13.4212C18.4837 13.5612 18.5537 13.7292 18.5537 13.9252C18.5537 14.1305 18.4837 14.3032 18.3437 14.4432C18.2037 14.5552 18.045 14.6112 17.8677 14.6112C17.653 14.6112 17.471 14.5319 17.3217 14.3732L10.4897 6.42118C10.3683 6.26252 10.2097 6.18318 10.0137 6.18318C9.81766 6.18318 9.65432 6.25318 9.52366 6.39318L2.04766 14.3732C1.91699 14.5319 1.74899 14.6065 1.54366 14.5972C1.34766 14.5972 1.17966 14.5319 1.03966 14.4012C0.871656 14.2519 0.792323 14.0652 0.801656 13.8412C0.792323 13.6452 0.857656 13.4725 0.997656 13.3232L8.45966 5.41318C8.66499 5.17985 8.91232 5.00718 9.20166 4.89518C9.50032 4.77385 9.80832 4.72718 10.1257 4.75518C10.415 4.78318 10.6857 4.86718 10.9377 5.00718C11.1897 5.14718 11.4043 5.33385 11.5817 5.56718L11.7777 5.79118L16.3557 1.21318C16.561 1.01718 16.7943 0.867852 17.0557 0.765185C17.317 0.653185 17.5923 0.601851 17.8817 0.611184C18.171 0.611184 18.4417 0.671851 18.6937 0.793184C18.955 0.905184 19.1837 1.06385 19.3797 1.26918L29.7397 12.7072C29.8797 12.8565 29.945 13.0292 29.9357 13.2252C29.9263 13.4305 29.847 13.6032 29.6977 13.7432Z" fill="#F05E38"/>
</svg>
