<svg width="404" height="399" viewBox="0 0 404 399" fill="none" xmlns="http://www.w3.org/2000/svg">
<path d="M402.293 49.9528C402.775 47.5411 401.569 46.0941 400.364 45.1295C397.47 44.406 396.023 42.4766 395.299 40.0649C394.334 37.1709 395.299 31.1417 391.44 33.3122C389.752 34.2769 392.164 36.9298 389.511 37.6533C387.099 38.3768 384.929 34.7593 386.617 32.8299C381.07 34.2769 381.07 29.2124 377.694 27.5242C373.835 25.5949 375.764 18.1187 375.764 14.9835C376.006 11.6072 377.453 11.8483 373.112 10.4013C371.182 9.67783 367.565 11.6072 366.6 10.6425C365.635 9.67783 371.182 5.09565 367.324 5.09565C364.671 5.09565 362.983 6.78382 360.089 6.30149C356.23 4.85448 355.506 -0.933537 351.648 1.47814C351.648 1.96047 351.648 4.37215 351.648 4.85448L354.059 6.78382C350.201 8.71316 350.924 7.02499 349.477 10.8837C348.754 12.813 347.307 14.0188 346.824 15.9482C345.86 18.601 342.483 27.7654 346.824 28.0066C345.86 30.4182 343.207 29.9359 343.207 31.6241C343.207 33.7946 345.377 35.7239 342.001 36.4474C342.725 38.1356 344.895 46.0941 341.277 46.0941C338.142 46.0941 336.695 46.3353 333.319 46.0941C335.248 48.9881 332.354 49.4705 331.631 50.6763C330.666 52.1233 332.113 53.3291 329.701 53.3291C327.531 53.3291 326.325 46.8176 324.878 46.0941C322.949 45.1295 320.296 46.8176 320.296 46.8176L318.849 45.3706L317.643 48.2646H315.473C315.473 48.2646 314.99 50.9175 315.231 50.6763C314.026 51.641 312.096 49.7116 311.373 51.3998C310.167 53.8115 312.82 55.4997 307.996 55.4997C309.202 56.7055 309.926 58.6348 310.408 59.1172C307.514 59.8407 307.514 61.77 310.408 62.7347C308.479 64.664 306.067 66.8345 303.173 68.7639C301.003 70.2109 300.038 68.7639 298.591 71.6579C297.867 73.1049 295.456 71.4167 294.732 72.3814C293.767 73.346 294.009 75.5166 293.526 75.9989C290.632 78.4106 289.426 78.8929 285.568 76.9636C284.603 76.4812 279.78 75.7577 278.815 75.9989C278.333 76.2401 276.403 77.6871 275.921 78.1694C274.715 78.8929 273.992 76.9636 272.786 77.2047C270.615 77.9282 269.41 80.0987 266.757 79.6164H261.933C256.387 71.1755 243.846 79.6164 236.611 79.6164C234.681 81.3046 237.817 92.6395 239.022 95.2923C239.264 96.0158 241.434 97.9451 242.399 99.3921C243.605 102.045 244.328 102.286 246.981 103.974C250.116 106.145 252.046 110.968 251.322 113.38C250.599 115.792 249.875 115.068 248.91 116.997C247.705 119.409 242.881 132.673 239.264 126.644C238.058 124.474 237.575 124.474 238.058 123.991C235.887 125.197 233.717 124.715 233.958 121.821C233.476 122.544 229.858 123.509 230.34 123.027C227.446 121.821 226.482 123.027 224.794 121.821C225.999 126.403 213.941 123.509 211.288 122.062C211.771 122.544 211.529 124.232 211.529 124.232C211.047 124.715 209.841 125.921 209.359 126.403C208.877 124.956 201.159 119.65 199.23 119.409C198.747 119.409 196.577 120.615 195.612 120.615C195.371 120.615 193.924 119.409 193.201 119.409C192.718 119.409 191.754 120.615 190.789 120.615C188.86 120.615 187.895 119.891 189.101 117.48C187.413 116.515 186.207 116.033 184.76 118.203C181.625 114.586 179.213 117.721 177.525 115.792C175.354 113.38 178.248 110.968 181.142 110.968C179.695 110.727 178.972 110.486 177.525 109.762C176.078 109.039 176.801 107.351 175.113 107.351C171.496 107.351 170.049 104.698 173.907 103.733C172.46 100.598 171.254 99.6333 167.878 97.704C167.155 97.704 167.155 97.704 166.19 97.704C166.19 96.9805 166.19 96.0158 166.19 95.2923C162.814 95.2923 163.537 96.0158 161.849 97.704C160.402 98.9098 160.161 100.116 158.231 100.116C155.579 100.116 158.473 103.01 154.614 102.527C151.238 102.045 153.649 95.0511 148.585 100.116C148.585 100.839 148.102 103.01 149.549 103.733C147.138 104.698 146.414 105.421 144.967 106.145C138.697 109.521 144.002 108.557 143.761 112.174C143.52 114.586 140.385 119.409 138.938 121.338C137.25 123.509 142.073 129.779 137.491 130.02C137.973 129.538 135.562 128.091 136.044 127.85C133.391 127.368 125.433 137.497 125.433 139.426C125.433 146.42 113.615 146.661 113.374 151.002C114.58 151.484 111.445 158.237 107.586 157.272C107.104 157.755 105.416 159.443 104.933 159.925C105.416 159.925 107.827 163.784 106.139 164.025C102.763 164.99 101.798 163.06 98.9042 163.06C95.0455 163.06 94.8043 166.196 90.4633 164.266C89.981 165.713 84.9164 168.607 83.2283 170.295C84.1929 170.778 84.6753 172.225 85.6399 172.707C81.7813 177.53 80.0931 172.466 78.6461 172.466C76.4756 172.466 76.7167 174.878 76.7167 176.325C76.7167 178.977 71.8934 175.842 71.8934 177.772C71.8934 178.977 68.2759 181.871 68.2759 183.318C68.2759 185.007 64.4172 183.801 62.2467 185.007C62.729 184.524 62.0055 182.595 62.4879 182.354C59.3527 181.63 56.4587 185.489 53.8058 186.936C52.8412 187.418 47.7766 190.553 47.0531 190.553C44.1591 190.553 42.2298 191.759 43.6768 194.653C45.365 198.03 44.8826 197.547 42.2298 198.512C39.8181 196.1 39.8181 197.788 37.8888 197.788C35.9594 197.788 36.2006 193.689 33.7889 197.065C32.3419 198.994 30.6537 202.612 28.0009 202.612C23.9011 202.612 25.3481 206.953 23.1776 208.641C21.7306 210.329 12.5662 211.776 12.5662 214.429C12.5662 217.805 6.77817 219.494 4.60766 222.146C1.95482 224.317 3.40182 228.899 1.71365 231.793C2.19599 232.758 2.43715 235.411 0.507812 236.858C2.91949 241.44 10.3957 240.716 14.9779 242.887C15.219 249.398 22.9364 251.81 17.3895 257.357C20.2835 259.769 22.4541 254.463 27.0362 254.945C27.0362 252.533 27.0362 250.122 27.0362 247.71C35.9594 254.222 45.6061 253.498 51.153 262.18C53.5647 256.151 58.8703 259.286 60.7997 263.386C67.3112 262.18 72.6169 253.498 76.4756 259.768C71.8934 263.145 63.9349 263.386 65.623 273.033C67.3112 273.756 70.9287 273.756 74.0639 273.033C73.0992 274.721 70.9287 275.686 68.0347 275.444C72.1346 286.538 47.2943 303.902 51.153 317.89C51.6353 319.578 58.388 327.054 57.1822 319.096C60.7997 320.543 55.494 323.678 58.388 325.125C67.3112 323.678 74.3051 319.096 80.0931 326.331C80.8166 323.678 74.0639 319.578 80.0931 319.096C80.5754 323.919 84.1929 325.366 83.7106 331.154C77.1991 328.742 66.8289 320.543 62.0055 329.948C59.1115 322.954 50.9118 333.325 51.153 326.331C48.259 327.054 51.3942 333.807 48.7413 334.772C45.1238 335.736 44.4003 333.566 41.5063 333.566C40.5416 337.666 43.4356 338.148 42.7121 342.007C36.2006 345.383 32.1008 349.724 34.2713 358.888C29.9302 361.782 26.5539 365.882 21.007 367.329C28.4832 371.429 39.8181 363.953 42.7121 372.153C48.7413 370.223 52.6 367.812 59.5938 369.741C58.8703 376.494 54.5293 373.117 48.7413 373.358C48.5001 376.011 49.706 377.217 52.3588 376.976C49.4648 379.388 45.8473 376.011 41.5063 378.182C39.5769 389.034 56.2175 384.211 58.388 384.211C63.9349 383.97 57.1822 388.552 60.7997 390.24C66.1054 389.758 67.07 385.176 69.2406 381.799C70.6876 383.487 74.3051 383.246 74.0639 386.623C69.4817 392.411 60.0762 393.616 54.7705 398.681C60.7997 398.681 70.4464 400.852 74.0639 391.446C75.7521 392.652 78.6461 392.652 80.0931 393.858C83.4694 391.687 80.3343 383.005 87.3281 384.211C86.1223 379.388 82.5048 376.976 77.6814 375.77C83.2283 373.358 88.2928 375.047 93.3573 375.77C92.1515 384.211 99.3865 384.211 101.798 389.034C104.933 386.381 105.898 385.899 109.033 385.417C110.48 388.793 108.551 394.34 115.062 395.063C117.233 393.616 116.027 388.793 117.474 386.623C123.986 387.587 127.362 385.176 131.944 384.211C135.562 383.246 139.42 388.07 140.867 390.24C142.555 392.652 144.726 387.346 146.414 386.623C148.102 385.899 150.032 389.275 148.343 390.24C150.514 388.07 150.996 382.764 153.649 382.764C156.543 382.764 157.026 380.352 159.196 378.423C161.608 376.011 161.608 373.117 164.743 371.188C167.637 369.259 167.396 366.847 169.566 364.435C171.254 362.747 171.978 361.541 174.39 359.853C177.284 357.924 180.178 358.406 182.83 356.718C186.448 354.306 189.342 356.959 193.201 356.236C196.818 355.271 198.265 356.718 201.4 356.718C205.259 356.718 207.188 355.512 211.047 355.512C212.253 355.512 219.97 354.547 220.453 354.789C222.864 357.2 221.9 357.441 225.517 356.236C228.411 355.271 230.823 356.477 234.199 356.477C240.952 356.477 246.74 353.824 251.804 348.518C255.904 344.418 250.116 335.495 257.351 333.325C255.181 328.984 253.01 324.884 250.599 321.025C248.428 320.784 247.946 322.472 245.775 322.231C238.058 311.137 221.176 308.967 218.041 293.291C215.87 293.532 212.012 292.085 213.218 295.702C208.153 288.226 198.989 294.014 193.924 287.262C191.995 280.268 197.3 280.268 199.953 277.615C201.159 273.997 197.3 275.444 195.13 275.203C197.059 273.515 202.365 272.792 203.571 273.997C203.089 267.486 201.4 262.904 204.777 258.322C204.053 254.704 199.23 254.945 201.159 248.675C201.159 243.128 193.924 250.122 195.13 245.057C196.336 244.093 197.059 242.887 197.542 241.44C201.883 239.51 198.265 245.54 201.159 245.057C206.465 239.51 217.559 239.51 225.276 236.616C224.311 229.381 229.858 230.346 231.305 223.352C237.575 223.835 243.605 224.799 245.775 229.381C248.669 226.97 244.328 224.317 248.187 222.146C256.869 226.005 266.516 214.188 275.921 211.294C277.85 206.471 272.786 208.882 272.304 206.47C285.568 195.859 307.032 193.447 311.132 173.672C324.396 173.189 326.807 162.096 342.483 164.025C345.377 148.831 338.384 138.461 347.307 122.785C343.93 118.927 340.554 121.58 336.454 122.785C337.178 121.097 338.383 119.891 340.072 119.168C333.078 106.868 343.689 92.3983 353.336 89.0219C355.265 79.3752 362.5 69.4874 370.218 69.7285C371.665 64.664 374.8 61.2877 377.453 57.6702C380.105 56.9467 379.141 60.0818 381.07 60.0818C384.447 61.5288 384.688 53.5703 384.688 51.1586C388.788 52.8468 390.476 47.3 392.646 51.641C396.023 50.6763 398.193 53.8115 396.746 55.2585C395.54 56.4643 400.364 55.982 403.499 54.0527V53.5703C401.569 53.3291 401.811 52.1233 402.293 49.9528ZM93.8396 365.159C92.6338 365.159 91.428 365.159 90.2221 365.159C90.2221 363.471 90.2221 362.023 90.2221 360.335C93.3573 360.094 94.0808 362.024 93.8396 365.159Z" fill="#7CBFCE"/>
</svg>
