<svg width="49" height="41" viewBox="0 0 49 41" fill="none" xmlns="http://www.w3.org/2000/svg">
<path fill-rule="evenodd" clip-rule="evenodd" d="M5.55957 8.84016C4.63881 3.45863 16.3285 0.848189 19.6113 0.446582C15.1676 0.406422 0.195103 1.89237 0.99577 9.88433C0.99577 10.0851 1.0358 10.2859 1.11587 10.4867C1.9966 13.8201 7.08084 15.7076 13.6063 16.5108C21.2527 17.4747 41.6697 18.6795 48.2351 12.8161C48.7556 12.3341 49.236 11.6514 48.7956 10.8883C48.7155 10.7277 48.5554 10.5269 48.3953 10.3663C46.3891 13.9069 38.4874 13.9542 35.0565 13.9748C34.7903 13.9764 34.5511 13.9778 34.3436 13.9807C29.4995 14.1012 7.20094 13.7799 5.55957 8.84016ZM12.6042 11.7318L12.7323 11.6948C14.4778 11.1879 26.9482 7.56658 36.6643 9.28205C39.2664 9.72381 41.0279 10.3262 41.9887 10.9286C42.389 11.1696 42.6693 11.4507 42.8294 11.7318C42.9895 12.013 43.0296 12.2941 42.9895 12.5351C43.1669 12.5128 43.3443 12.4783 43.5148 12.445C43.6523 12.4183 43.7853 12.3923 43.9103 12.3744C44.3507 12.2941 44.9512 12.1335 45.5116 11.8925C46.1121 11.6515 46.7527 11.3302 47.193 10.9688C47.5533 10.6475 47.7935 10.2861 47.7135 9.92462C47.7135 9.88446 47.7135 9.8443 47.6734 9.80414L47.6334 9.68365C46.3123 8.9206 44.2706 8.31819 41.7085 7.95675C37.585 7.35434 32.3006 7.31418 26.9362 7.7961C21.7318 8.27803 14.9662 9.88446 10.7227 11.4106C10.8673 11.4428 11.1346 11.4815 11.4286 11.5241L11.4286 11.5241C11.8669 11.5876 12.3646 11.6597 12.6042 11.7318ZM16.3384 20.4767C16.4644 20.4995 16.5566 20.5162 16.6089 20.5267C20.1318 21.2094 40.3086 22.6953 42.8708 19.8038C44.352 20.6472 42.9909 21.6512 41.4296 22.2937C39.0276 23.2978 33.1026 24.0206 26.8174 24.0608C21.4929 24.0608 15.9283 23.619 12.0451 22.4544C10.0434 21.852 8.64224 21.1291 7.72147 20.366C6.2002 19.1612 5.4796 17.2737 6.64057 15.5869C6.9208 15.7074 7.24107 15.7877 7.56134 15.868C5.8027 18.5707 14.536 20.1506 16.3384 20.4767ZM14.8477 19.5225C14.9277 19.5426 15.3581 19.6229 15.7884 19.7033C16.2188 19.7836 16.6492 19.8639 16.7292 19.884C24.0954 19.3217 32.7426 19.0406 40.1487 20.2053C40.469 20.1651 42.831 19.5225 42.3105 19.5627C37.8668 17.2334 18.891 17.8358 14.8477 19.5225ZM20.0259 27.912C20.1474 27.9319 20.238 27.9468 20.2925 27.9567C24.1357 28.5591 36.8263 29.6836 40.2691 27.1535C40.7896 27.2338 41.4701 27.6756 41.31 28.4386C41.1499 29.1214 38.948 30.1656 33.6636 30.9286C30.1007 31.4507 25.5769 31.6113 20.3325 30.9286C16.6895 30.4467 5.56021 27.4346 10.7646 22.7358C10.7944 22.7458 10.8516 22.7558 10.9193 22.7677C11.1239 22.8034 11.4252 22.8561 11.3651 22.9768C9.22429 26.1416 18.1823 27.6099 20.0259 27.912ZM17.8906 26.591C18.8514 26.7918 19.2918 26.8721 20.2526 27.0328C23.7355 25.6271 36.1458 25.828 36.7063 27.7557C37.4269 27.6753 39.3885 27.4344 39.8689 26.7918C36.1458 24.2215 21.6938 24.7035 17.8906 26.591ZM18.5364 35.8665C19.1359 36.0122 19.4395 36.0861 20.3327 36.1894C21.7739 39.4425 29.8606 39.8039 33.0633 39.4826C28.9399 41.089 21.1334 41.089 18.4111 36.1493C18.3711 36.089 18.341 36.0288 18.311 35.9686L18.311 35.9685C18.281 35.9083 18.251 35.8481 18.2109 35.7878C18.3302 35.8163 18.4373 35.8424 18.5364 35.8665ZM20.7314 33.7799C20.211 33.6995 14.8465 32.2538 16.0074 30.4867C15.9074 30.4666 15.5972 30.3461 15.2869 30.2257L15.2868 30.2256L15.2868 30.2256C14.9765 30.1051 14.6663 29.9847 14.5662 29.9646C13.8456 31.0088 14.286 32.9365 15.2068 33.6995C15.8073 34.1815 16.648 34.6232 17.889 34.9847C20.291 35.7076 23.7339 35.9887 27.0166 35.9485C30.8999 35.9084 34.5429 35.5068 36.0642 34.8642C37.025 34.4626 37.5054 34.1012 37.7055 33.7799C37.7456 33.6995 37.7856 33.5791 37.7856 33.5389C37.7856 33.4775 37.7389 33.4396 37.699 33.4072C37.6866 33.3972 37.6749 33.3877 37.6655 33.3783C37.5854 33.2979 37.4653 33.2578 37.3052 33.2176C37.2652 33.4184 37.065 33.6192 36.6647 33.7397C36.3044 33.9003 35.7039 34.0208 34.9833 34.1413C31.8206 34.6232 25.7356 34.7437 20.7314 33.7799ZM21.4175 33.4371C21.1087 33.3816 20.8611 33.3371 20.4922 33.2578C22.0535 32.2136 36.5055 31.8522 36.6256 33.2176C36.9459 33.1775 35.2245 33.6192 35.0243 33.6594C30.9809 32.9767 25.3763 32.8963 21.9734 33.5389C21.7546 33.4977 21.5778 33.4659 21.4175 33.4371Z" fill="#F05E39"/>
</svg>
