<svg width="32" height="15" viewBox="0 0 32 15" fill="none" xmlns="http://www.w3.org/2000/svg">
<path d="M29.6949 14.4268C28.3696 14.4081 27.0676 14.2308 25.7889 13.8948C24.5196 13.5681 23.3016 13.0921 22.1349 12.4668C20.8189 13.1948 19.4236 13.6801 17.9489 13.9228C16.4836 14.1748 15.0136 14.1748 13.5389 13.9228C12.0736 13.6801 10.6829 13.1948 9.36693 12.4668C8.03227 13.1481 6.6276 13.6428 5.15293 13.9508C3.6876 14.2681 2.2036 14.3894 0.700933 14.3148C0.4956 14.2868 0.322933 14.1888 0.182933 14.0208C0.0522667 13.8621 -0.0084 13.6754 0.000933333 13.4608C0.0196 13.2461 0.112933 13.0641 0.280933 12.9148C0.458267 12.7654 0.658933 12.7001 0.882933 12.7188C2.29227 12.7748 3.6876 12.6441 5.06893 12.3268C6.45027 12.0188 7.76627 11.5334 9.01693 10.8708L9.45093 10.6328L9.87093 10.8848C10.1696 11.0714 10.5569 11.2674 11.0329 11.4728C11.9289 11.8554 12.8436 12.1401 13.7769 12.3268C15.0649 12.5881 16.3156 12.6348 17.5289 12.4668C19.0409 12.2614 20.4456 11.7341 21.7429 10.8848L22.1349 10.5348L22.5969 10.8148C23.8476 11.5334 25.1776 12.0468 26.5869 12.3548C27.9963 12.6721 29.4196 12.7748 30.8569 12.6628C31.0809 12.6348 31.2816 12.6908 31.4589 12.8308C31.6363 12.9801 31.7389 13.1668 31.7669 13.3908C31.7949 13.6148 31.7343 13.8154 31.5849 13.9928C31.4449 14.1794 31.2583 14.2821 31.0249 14.3008C30.5863 14.3661 30.1429 14.4081 29.6949 14.4268ZM29.6949 9.37276C28.3696 9.35409 27.0676 9.18143 25.7889 8.85476C24.5196 8.51876 23.3016 8.03809 22.1349 7.41276C20.8189 8.14076 19.4236 8.62609 17.9489 8.86876C16.4836 9.11142 15.0136 9.11142 13.5389 8.86876C12.0736 8.62609 10.6829 8.14076 9.36693 7.41276C8.02293 8.09409 6.61827 8.59342 5.15293 8.91076C3.6876 9.21876 2.2036 9.33543 0.700933 9.26076C0.4956 9.23276 0.322933 9.13942 0.182933 8.98076C0.0522667 8.82209 -0.0084 8.64009 0.000933333 8.43476C0.0102667 8.20143 0.0989333 8.01009 0.266933 7.86076C0.444267 7.70209 0.6496 7.63209 0.882933 7.65076C2.29227 7.70676 3.6876 7.58076 5.06893 7.27276C6.45027 6.96476 7.76627 6.47942 9.01693 5.81676L9.45093 5.55076L9.89893 5.83076C10.5056 6.17609 11.1916 6.48409 11.9569 6.75476C13.4316 7.26809 14.8829 7.51076 16.3109 7.48276C18.2803 7.44543 20.0909 6.89009 21.7429 5.81676L22.1349 5.48076L22.5969 5.76076C23.8476 6.47942 25.1776 6.99743 26.5869 7.31476C27.9963 7.62276 29.4196 7.71609 30.8569 7.59476C31.0809 7.56676 31.2816 7.62742 31.4589 7.77676C31.6456 7.91676 31.7483 8.10343 31.7669 8.33676C31.7949 8.56076 31.7343 8.76609 31.5849 8.95276C31.4449 9.13009 31.2583 9.22809 31.0249 9.24676C30.5863 9.31209 30.1429 9.35409 29.6949 9.37276ZM29.6949 4.31876C28.3696 4.30942 27.0676 4.14142 25.7889 3.81476C24.5103 3.47876 23.2923 2.99342 22.1349 2.35876C20.8189 3.08676 19.4236 3.57209 17.9489 3.81476C16.4836 4.05742 15.0136 4.05742 13.5389 3.81476C12.0736 3.57209 10.6829 3.08676 9.36693 2.35876C8.02293 3.04009 6.61827 3.53942 5.15293 3.85676C3.6876 4.16476 2.2036 4.28142 0.700933 4.20676C0.4956 4.17876 0.322933 4.08542 0.182933 3.92676C0.0522667 3.76809 -0.0084 3.58609 0.000933333 3.38076C0.0102667 3.14742 0.0989333 2.95609 0.266933 2.80676C0.444267 2.64809 0.6496 2.57809 0.882933 2.59676C2.29227 2.65276 3.6876 2.52676 5.06893 2.21876C6.45027 1.91076 7.76627 1.42542 9.01693 0.762758L9.45093 0.426758L9.87093 0.678758C10.1696 0.865424 10.5569 1.06142 11.0329 1.26676C11.9289 1.64942 12.8436 1.93409 13.7769 2.12076C15.0649 2.38209 16.3156 2.42876 17.5289 2.26076C19.0409 2.05542 20.4456 1.52809 21.7429 0.678758L22.1349 0.426758L22.5969 0.706758C23.8476 1.42542 25.1776 1.94342 26.5869 2.26076C27.9963 2.56876 29.4196 2.66209 30.8569 2.54076C31.0809 2.52209 31.2816 2.58742 31.4589 2.73676C31.6363 2.87676 31.7389 3.05876 31.7669 3.28276C31.7949 3.50676 31.7343 3.71209 31.5849 3.89876C31.4449 4.07609 31.2583 4.17409 31.0249 4.19276C30.5863 4.25809 30.1429 4.30009 29.6949 4.31876Z" fill="#F05E38"/>
</svg>
