<svg width="21" height="23" viewBox="0 0 21 23" fill="none" xmlns="http://www.w3.org/2000/svg">
<path d="M20.6661 3.23538C20.6221 3.13271 20.5634 3.04471 20.4901 2.97138C20.0501 2.54605 19.3094 2.49471 18.2681 2.81738C17.4468 3.08138 16.4641 3.57271 15.3201 4.29138L14.5061 4.84138C14.4034 4.90005 14.3374 4.98071 14.3081 5.08338C14.2788 5.18605 14.2788 5.28871 14.3081 5.39138C14.3521 5.47938 14.4108 5.55271 14.4841 5.61138C14.5721 5.65538 14.6601 5.67738 14.7481 5.67738C14.8508 5.66271 14.9388 5.62605 15.0121 5.56738C15.9948 4.89271 16.8674 4.37205 17.6301 4.00538C18.2461 3.72671 18.7594 3.55805 19.1701 3.49938C19.5074 3.45538 19.7348 3.48471 19.8521 3.58738C19.9108 3.66071 19.9474 3.74138 19.9621 3.82938C19.8448 5.04671 19.3974 6.12471 18.6201 7.06338C18.2241 7.66471 17.8354 8.22205 17.4541 8.73538C17.1021 8.13405 16.6768 7.59871 16.1781 7.12938C15.1661 6.14671 13.9781 5.48671 12.6141 5.14938C11.2941 4.81205 9.96676 4.81205 8.63209 5.14938C7.26809 5.48671 6.08009 6.14671 5.06809 7.12938C4.33476 7.83338 3.77009 8.65471 3.37409 9.59338C2.97809 10.5174 2.78009 11.4854 2.78009 12.4974C2.78009 13.5094 2.97809 14.4847 3.37409 15.4234C3.77009 16.3474 4.33476 17.1614 5.06809 17.8654C5.56676 18.3494 6.11676 18.76 6.71809 19.0974C5.25143 20.0947 4.04143 20.784 3.08809 21.1654C2.20809 21.532 1.64343 21.6054 1.39409 21.3854C1.32076 21.3267 1.28409 21.2534 1.28409 21.1654C1.28409 21.0774 1.29143 20.9967 1.30609 20.9234C1.67276 19.3394 2.39143 17.9387 3.46209 16.7214C3.50609 16.604 3.50609 16.494 3.46209 16.3914C3.47676 16.2594 3.43276 16.1567 3.33009 16.0834C3.24209 15.9954 3.13943 15.966 3.02209 15.9954C2.90476 16.01 2.80943 16.0687 2.73609 16.1714C1.81209 17.4034 1.15209 18.496 0.756094 19.4494C0.24276 20.6814 0.24276 21.5394 0.756094 22.0234C1.04943 22.2727 1.39409 22.39 1.79009 22.3754C2.52343 22.3754 3.46943 22.0747 4.62809 21.4734C5.61076 20.96 6.61543 20.3074 7.64209 19.5154C9.10876 20.102 10.6121 20.2414 12.1521 19.9334C13.6921 19.64 15.0341 18.9507 16.1781 17.8654C16.9114 17.1614 17.4761 16.3474 17.8721 15.4234C18.2681 14.4847 18.4661 13.5167 18.4661 12.5194C18.4661 11.5074 18.2754 10.5467 17.8941 9.63738C18.8621 8.42005 19.6101 7.29805 20.1381 6.27138C20.8568 4.87804 21.0328 3.86605 20.6661 3.23538ZM15.5401 17.2274C15.2028 17.55 14.8361 17.836 14.4401 18.0854C13.2668 18.8334 11.9908 19.2074 10.6121 19.2074C9.89343 19.2074 9.18943 19.0974 8.50009 18.8774C10.1134 17.6307 11.6461 16.3034 13.0981 14.8954C14.5648 13.4874 15.9434 12.006 17.2341 10.4514C17.4688 11.1114 17.5861 11.7934 17.5861 12.4974C17.5861 13.1574 17.4834 13.81 17.2781 14.4554C17.0874 15.086 16.8014 15.6727 16.4201 16.2154C16.1561 16.582 15.8628 16.9194 15.5401 17.2274ZM5.70609 17.2274C5.06076 16.6114 4.56209 15.9 4.21009 15.0934C3.87276 14.272 3.70409 13.414 3.70409 12.5194C3.70409 11.6247 3.87276 10.774 4.21009 9.96738C4.56209 9.14605 5.06076 8.42738 5.70609 7.81138C6.61543 6.96071 7.67143 6.38138 8.87409 6.07338C10.0328 5.78005 11.1988 5.78005 12.3721 6.07338C13.5748 6.38138 14.6308 6.96071 15.5401 7.81138C15.8188 8.06071 16.0681 8.33205 16.2881 8.62538C16.5081 8.91871 16.6988 9.22671 16.8601 9.54938C15.9214 10.708 14.8874 11.8814 13.7581 13.0694L12.5261 14.2794C10.9568 15.8047 9.29209 17.2127 7.53209 18.5034C6.85743 18.1807 6.24876 17.7554 5.70609 17.2274ZM13.1201 7.54738C13.0761 7.44471 13.0761 7.34204 13.1201 7.23938C13.1788 7.13671 13.2668 7.07071 13.3841 7.04138C13.5014 6.99738 13.6114 7.00471 13.7141 7.06338C14.1688 7.32738 14.5868 7.63538 14.9681 7.98738C15.0561 8.07538 15.1001 8.17805 15.1001 8.29538C15.1001 8.41271 15.0561 8.51538 14.9681 8.60338C14.8801 8.67671 14.7774 8.71338 14.6601 8.71338C14.5428 8.71338 14.4401 8.67671 14.3521 8.60338C14.0734 8.29538 13.7581 8.03138 13.4061 7.81138C13.2888 7.75271 13.2154 7.66471 13.1861 7.54738H13.1201ZM12.3721 7.39338C11.8881 7.23205 11.3894 7.13671 10.8761 7.10738C10.1134 7.06338 9.37276 7.17338 8.65409 7.43738C7.95009 7.68671 7.31943 8.06805 6.76209 8.58138C6.67409 8.65471 6.56409 8.69138 6.43209 8.69138C6.31476 8.69138 6.21209 8.65471 6.12409 8.58138C6.03609 8.49338 5.99209 8.39071 5.99209 8.27338C5.99209 8.15605 6.03609 8.05338 6.12409 7.96538C7.00409 7.15871 8.03076 6.63071 9.20409 6.38138C10.3774 6.13205 11.5361 6.19805 12.6801 6.57938C12.7974 6.62338 12.8781 6.69671 12.9221 6.79938C12.9808 6.90205 12.9881 7.01205 12.9441 7.12938C12.9001 7.23205 12.8268 7.31271 12.7241 7.37138C12.6214 7.41538 12.5188 7.42271 12.4161 7.39338H12.4381H12.3721ZM12.6361 3.19138C13.0321 3.19138 13.3694 3.05938 13.6481 2.79538C13.9414 2.51671 14.1028 2.17938 14.1321 1.78338C14.0881 1.40205 13.9194 1.08671 13.6261 0.837378C13.3474 0.588045 13.0174 0.463379 12.6361 0.463379C12.2694 0.463379 11.9394 0.588045 11.6461 0.837378C11.3674 1.08671 11.2061 1.40205 11.1621 1.78338C11.1914 2.19405 11.3528 2.53871 11.6461 2.81738C11.9394 3.08138 12.2914 3.20604 12.7021 3.19138H12.6361ZM12.6361 2.31138C12.4894 2.31138 12.3648 2.26738 12.2621 2.17938C12.1741 2.09138 12.1301 1.98138 12.1301 1.84938C12.1594 1.71738 12.2254 1.60738 12.3281 1.51938C12.4308 1.43138 12.5481 1.38738 12.6801 1.38738C12.8268 1.38738 12.9514 1.43138 13.0541 1.51938C13.1568 1.60738 13.2228 1.71738 13.2521 1.84938C13.2374 1.98138 13.1714 2.09138 13.0541 2.17938C12.9514 2.26738 12.8341 2.31138 12.7021 2.31138H12.6361Z" fill="#F05E38"/>
</svg>
