<svg xmlns="http://www.w3.org/2000/svg" xmlns:xlink="http://www.w3.org/1999/xlink" viewBox="0 0 273.55 83.58"><defs><clipPath id="clip-path"><path d="M44,39.92a2.71,2.71,0,0,0-2.66-.69L13.73,12.59l-1.9,1.9L39.47,41.13A2.73,2.73,0,1,0,44,39.92" fill="none" clip-rule="evenodd"/></clipPath></defs><title>otr-logo_lg_half_dark</title><g id="Layer_2" data-name="Layer 2"><g id="Layer_1-2" data-name="Layer 1"><g clip-path="url(#clip-path)"><rect x="6.83" y="6.59" width="43" height="43" fill="#f05e39"/></g><path d="M53.69,41.79a12.82,12.82,0,0,1-.86,4.72,10.95,10.95,0,0,1-6.17,6.25,13.6,13.6,0,0,1-9.73,0,11,11,0,0,1-6.19-6.25,13.53,13.53,0,0,1,0-9.44,11.18,11.18,0,0,1,2.43-3.75,11.43,11.43,0,0,1,3.76-2.49,13.6,13.6,0,0,1,9.73,0,11.26,11.26,0,0,1,3.75,2.5,11.1,11.1,0,0,1,2.42,3.76A12.71,12.71,0,0,1,53.69,41.79Zm-4.92,0a10.43,10.43,0,0,0-.48-3.28,7,7,0,0,0-1.38-2.46,5.8,5.8,0,0,0-2.19-1.55,8.19,8.19,0,0,0-5.85,0,5.76,5.76,0,0,0-2.2,1.55,6.89,6.89,0,0,0-1.39,2.46,11.48,11.48,0,0,0,0,6.57,6.76,6.76,0,0,0,1.39,2.45,5.87,5.87,0,0,0,2.2,1.55,8.34,8.34,0,0,0,5.85,0,5.91,5.91,0,0,0,2.19-1.55,6.89,6.89,0,0,0,1.38-2.45A10.49,10.49,0,0,0,48.77,41.79Z" fill="#163a59"/><path d="M77.74,30.18V53.41H75.26a2,2,0,0,1-.94-.19,2.25,2.25,0,0,1-.76-.63L62,37.87c0,.37.06.74.07,1.1s0,.7,0,1V53.41H57.85V30.18h2.53a3.94,3.94,0,0,1,.52,0,1,1,0,0,1,.39.11,1.5,1.5,0,0,1,.33.23,3.59,3.59,0,0,1,.36.39L73.63,45.72c0-.4-.08-.79-.1-1.17s0-.74,0-1.08V30.18Z" fill="#163a59"/><path d="M107,34.06h-6.79V53.41H95.35V34.06H88.56V30.18H107Z" fill="#163a59"/><path d="M130.38,30.18V53.41h-4.83v-10H115.32v10h-4.83V30.18h4.83V40h10.23V30.18Z" fill="#163a59"/><path d="M140.72,34v6h7.74v3.64h-7.74v6.1h9.95v3.76H135.88V30.18h14.79V34Z" fill="#163a59"/><path d="M181.66,53.41h-4.34a1.88,1.88,0,0,1-1.76-.93l-4.42-7.12a1.84,1.84,0,0,0-.6-.61,1.94,1.94,0,0,0-1-.19h-1.63v8.85h-4.8V30.18h7.3a14.82,14.82,0,0,1,4.16.51,7.89,7.89,0,0,1,2.83,1.4,5.33,5.33,0,0,1,1.62,2.14,7,7,0,0,1,.51,2.72,7.17,7.17,0,0,1-.33,2.19,6.4,6.4,0,0,1-.95,1.88,6.87,6.87,0,0,1-1.54,1.5,8,8,0,0,1-2.08,1.06,4.76,4.76,0,0,1,.87.62,4.68,4.68,0,0,1,.72.85ZM170.4,41.18a6.05,6.05,0,0,0,2-.3,3.7,3.7,0,0,0,1.39-.81,3.12,3.12,0,0,0,.8-1.23,4.47,4.47,0,0,0,.26-1.53,3.14,3.14,0,0,0-1.1-2.56,5.11,5.11,0,0,0-3.33-.92h-2.5v7.35Z" fill="#163a59"/><path d="M204.89,53.41h-3.72a1.63,1.63,0,0,1-1-.3,1.74,1.74,0,0,1-.58-.76L198,47.92h-9.25l-1.57,4.43a1.91,1.91,0,0,1-.56.73,1.55,1.55,0,0,1-1,.33h-3.76l9.07-23.23h4.92Zm-8.06-8.82-2.51-7.11c-.15-.37-.31-.81-.48-1.31s-.32-1.05-.47-1.63c-.15.6-.31,1.15-.47,1.65s-.32,1-.47,1.32l-2.5,7.08Z" fill="#163a59"/><path d="M228.5,41.79a12.33,12.33,0,0,1-.86,4.68,10.61,10.61,0,0,1-2.41,3.67,10.88,10.88,0,0,1-3.75,2.4,13.15,13.15,0,0,1-4.87.87h-8.93V30.18h8.93a13.15,13.15,0,0,1,4.87.87,11,11,0,0,1,3.75,2.41,10.7,10.7,0,0,1,2.41,3.67A12.19,12.19,0,0,1,228.5,41.79Zm-4.93,0a10.43,10.43,0,0,0-.48-3.28A7,7,0,0,0,221.72,36a6,6,0,0,0-2.19-1.55,7.49,7.49,0,0,0-2.92-.54h-4.1v15.7h4.1a7.49,7.49,0,0,0,2.92-.54,5.91,5.91,0,0,0,2.19-1.55,7.08,7.08,0,0,0,1.37-2.48A10.49,10.49,0,0,0,223.57,41.79Z" fill="#163a59"/><path d="M252.25,53.41h-3.73a1.62,1.62,0,0,1-1-.3,1.77,1.77,0,0,1-.59-.76l-1.57-4.43H236.1l-1.57,4.43a1.73,1.73,0,0,1-.56.73,1.51,1.51,0,0,1-1,.33H229.2l9.08-23.23h4.91Zm-8.06-8.82-2.52-7.11c-.15-.37-.3-.81-.47-1.31s-.32-1.05-.47-1.63c-.15.6-.31,1.15-.47,1.65s-.33,1-.48,1.32l-2.49,7.08Z" fill="#163a59"/><path d="M273.55,53.41h-4.33a1.9,1.9,0,0,1-1.77-.93L263,45.36a1.84,1.84,0,0,0-.6-.61,1.94,1.94,0,0,0-1-.19h-1.63v8.85H255V30.18h7.29a14.9,14.9,0,0,1,4.17.51,7.89,7.89,0,0,1,2.83,1.4,5.4,5.4,0,0,1,1.61,2.14,6.87,6.87,0,0,1,.52,2.72,7.17,7.17,0,0,1-.33,2.19,6.65,6.65,0,0,1-.95,1.88,6.87,6.87,0,0,1-1.54,1.5,8,8,0,0,1-2.08,1.06,4.37,4.37,0,0,1,.86.62,4,4,0,0,1,.72.85ZM262.3,41.18a6.1,6.1,0,0,0,2-.3,3.78,3.78,0,0,0,1.39-.81,3.24,3.24,0,0,0,.8-1.23,4.47,4.47,0,0,0,.26-1.53,3.14,3.14,0,0,0-1.1-2.56,5.12,5.12,0,0,0-3.34-.92h-2.49v7.35Z" fill="#163a59"/><path d="M41.84,63.17h-.05A21.39,21.39,0,1,1,56.54,26.33h7.84A27.38,27.38,0,1,0,41.79,69.18h.05Z" fill="#f05e39"/><path d="M41.84,77.57h-.05A35.79,35.79,0,1,1,74.07,26.33H80.6A41.78,41.78,0,1,0,41.79,83.58h.05Z" fill="#f05e39"/></g></g></svg>