<svg xmlns="http://www.w3.org/2000/svg" viewBox="0 0 268.75 73.96"><defs><clipPath id="a"><path d="M39.22 35.11a2.72 2.72 0 0 0-2.65-.69L12.16 11.26l-1.9 1.91 24.4 23.15a2.73 2.73 0 1 0 4.56-1.21" fill="none" clip-rule="evenodd"/></clipPath></defs><g data-name="Layer 2"><g data-name="Layer 1"><g clip-path="url(#a)"><path fill="#f05e39" d="M2.02 1.78h43v43h-43z"/></g><path d="M48.88 37a12.78 12.78 0 0 1-.88 4.7 10.87 10.87 0 0 1-6.15 6.3 13.46 13.46 0 0 1-9.73 0 11.23 11.23 0 0 1-3.76-2.49 11 11 0 0 1-2.42-3.76 13.36 13.36 0 0 1 0-9.43 11.1 11.1 0 0 1 2.42-3.76A11.36 11.36 0 0 1 32.12 26a13.46 13.46 0 0 1 9.73 0 11 11 0 0 1 3.76 2.49A11.18 11.18 0 0 1 48 32.28a12.71 12.71 0 0 1 .88 4.72zM44 37a10.32 10.32 0 0 0-.48-3.27 6.85 6.85 0 0 0-1.39-2.47 6 6 0 0 0-2.19-1.55 8.19 8.19 0 0 0-5.85 0 6.06 6.06 0 0 0-2.2 1.55 7 7 0 0 0-1.38 2.47A10 10 0 0 0 30 37a10.17 10.17 0 0 0 .48 3.29 6.93 6.93 0 0 0 1.38 2.46 6 6 0 0 0 2.2 1.54 8.19 8.19 0 0 0 5.85 0 6 6 0 0 0 2.19-1.54 6.8 6.8 0 0 0 1.39-2.46A10.45 10.45 0 0 0 44 37zm28.93-11.62V48.6h-2.48a2.22 2.22 0 0 1-.94-.18 2.29 2.29 0 0 1-.75-.64L57.19 33.06c0 .37.05.74.07 1.1s0 .7 0 1V48.6H53V25.38h3.05a1.6 1.6 0 0 1 .39.11 1.51 1.51 0 0 1 .34.24 3.48 3.48 0 0 1 .35.38l11.69 14.81c0-.41-.07-.8-.1-1.18s0-.74 0-1.08V25.38zm29.21 3.87h-6.78V48.6h-4.82V29.25h-6.79v-3.87h18.39zm23.43-3.87V48.6h-4.83v-10h-10.23v10h-4.83V25.38h4.83v9.86h10.23v-9.86zm10.34 3.76v6h7.75v3.63h-7.75v6.1h10v3.73h-14.83V25.38h14.79v3.76zm40.94 19.46h-4.34a1.88 1.88 0 0 1-1.76-.93l-4.42-7.12a1.84 1.84 0 0 0-.6-.61 1.89 1.89 0 0 0-1-.19h-1.64v8.85h-4.8V25.38h7.3a15.23 15.23 0 0 1 4.16.5 8 8 0 0 1 2.83 1.4 5.33 5.33 0 0 1 1.62 2.14 7.47 7.47 0 0 1 .18 4.91 6.06 6.06 0 0 1-.95 1.88 6.86 6.86 0 0 1-1.53 1.51 7.81 7.81 0 0 1-2.08 1.05 5.05 5.05 0 0 1 .86.62 3.82 3.82 0 0 1 .72.86zM165.6 36.37a6.27 6.27 0 0 0 2-.29 3.84 3.84 0 0 0 1.4-.82 3.2 3.2 0 0 0 .8-1.22 4.52 4.52 0 0 0 .25-1.54 3.14 3.14 0 0 0-1.05-2.56 5.14 5.14 0 0 0-3.34-.91h-2.5v7.34zm34.49 12.23h-3.73a1.63 1.63 0 0 1-1-.3 1.76 1.76 0 0 1-.58-.76l-1.57-4.43h-9.25l-1.57 4.43a1.82 1.82 0 0 1-.56.73 1.53 1.53 0 0 1-1 .33H177l9.08-23.22H191zM192 39.78l-2.51-7.1c-.15-.38-.31-.81-.47-1.32s-.33-1-.48-1.63c-.14.6-.3 1.15-.47 1.66s-.32.94-.47 1.32l-2.5 7.07zM223.69 37a12.45 12.45 0 0 1-.85 4.68 10.67 10.67 0 0 1-2.42 3.68 11.18 11.18 0 0 1-3.75 2.4 13.32 13.32 0 0 1-4.87.86h-8.93V25.38h8.93a13.32 13.32 0 0 1 4.87.86 11 11 0 0 1 3.75 2.41 10.72 10.72 0 0 1 2.42 3.67 12.38 12.38 0 0 1 .85 4.68zm-4.93 0a10.43 10.43 0 0 0-.48-3.28 6.83 6.83 0 0 0-1.37-2.46 6.05 6.05 0 0 0-2.19-1.56 7.49 7.49 0 0 0-2.92-.54h-4.09v15.7h4.09a7.49 7.49 0 0 0 2.92-.54 5.8 5.8 0 0 0 2.19-1.55 7 7 0 0 0 1.37-2.47 10.51 10.51 0 0 0 .48-3.3zm28.68 11.6h-3.72a1.63 1.63 0 0 1-1-.3 1.69 1.69 0 0 1-.58-.76l-1.57-4.43h-9.27l-1.57 4.43a1.91 1.91 0 0 1-.56.73 1.55 1.55 0 0 1-1 .33h-3.77l9.07-23.22h4.92zm-8.06-8.82l-2.51-7.1c-.15-.38-.31-.81-.48-1.32s-.32-1-.47-1.63c-.15.6-.31 1.15-.47 1.66s-.32.94-.47 1.32l-2.5 7.07zm29.37 8.82h-4.34a1.88 1.88 0 0 1-1.76-.93l-4.42-7.12a1.84 1.84 0 0 0-.6-.61 1.94 1.94 0 0 0-1-.19H255v8.85h-4.8V25.38h7.3a15.23 15.23 0 0 1 4.16.5 8 8 0 0 1 2.83 1.4 5.33 5.33 0 0 1 1.62 2.14 7.47 7.47 0 0 1 .18 4.91 6.28 6.28 0 0 1-.95 1.88 6.91 6.91 0 0 1-1.54 1.51 7.67 7.67 0 0 1-2.08 1.05 4.76 4.76 0 0 1 .87.62 4.43 4.43 0 0 1 .72.86zM257.5 36.37a6.32 6.32 0 0 0 2-.29 3.72 3.72 0 0 0 1.39-.82 3.09 3.09 0 0 0 .8-1.22 4.52 4.52 0 0 0 .31-1.54 3.15 3.15 0 0 0-1.1-2.56 5.11 5.11 0 0 0-3.33-.91H255v7.34z" fill="#fff"/><path d="M48.44 52.45a19.28 19.28 0 1 1 0-30.93H57a25.28 25.28 0 1 0 0 30.93z" fill="#f05e39"/><path d="M63.82 52.45a31 31 0 1 1 0-30.93h6.73a37 37 0 1 0 0 30.93z" fill="#f05e39"/></g></g></svg>