<svg xmlns="http://www.w3.org/2000/svg" xmlns:xlink="http://www.w3.org/1999/xlink" viewBox="0 0 560.781 560.781"><defs><radialGradient id="radial-gradient" cx="280.263" cy="279.694" r="198.263" gradientUnits="userSpaceOnUse"><stop offset="0" stop-color="#f15e38" stop-opacity="0.4"/><stop offset="1" stop-color="#f15e38" stop-opacity="0"/></radialGradient></defs><title>Asset 1</title><g id="Layer_2" data-name="Layer 2"><g id="Expanded"><circle cx="280.263" cy="279.694" r="198.263" fill="url(#radial-gradient)"/><g id="layer1" opacity="0.4"><path id="path2830" d="M152.4,405.9c-2.023-.757-2.589-1.5-2.108-2.763.222-.585.65-1.064.95-1.064a11.962,11.962,0,0,1,2.919,1.533,24.876,24.876,0,0,0,3.546,1.96l1.174.426-1.444.032c-.794.017-1.959.106-2.589.2a5.936,5.936,0,0,1-2.448-.321Zm-4.592-3.887a2.049,2.049,0,0,0-1.411-.159c-.5.158-.882-.078-1.251-.766a2.817,2.817,0,0,0-1.165-1.211c-.8-.275-2.474-2.989-3.406-5.519a4.739,4.739,0,0,0-1.856-2.589c-1.334-.759-1.429-1.1-.4-1.431,1.181-.375,1.4-2.457.407-3.853a2.459,2.459,0,0,1-.581-1.822c.168-.439-.3-1.211-1.425-2.36-1.423-1.45-1.686-1.977-1.75-3.5a5.287,5.287,0,0,0-.535-2.353c-.319-.384-.384-1.763-.212-4.49a24.854,24.854,0,0,0-.436-7.321,88.635,88.635,0,0,1-.955-17.225,17.121,17.121,0,0,0-.4-4.177c-.631-2.261-3.535-5.114-7.125-7-2.567-1.349-2.928-1.695-3.931-3.767A27.851,27.851,0,0,0,118.8,328.3a13.982,13.982,0,0,1-1.961-3.386c-.848-2.617-2.341-5.246-3.36-5.914a4.105,4.105,0,0,1-1.373-2.051c-.346-1.252-.255-1.6.827-3.173,1.173-1.7,1.187-1.774.394-1.981-1.947-.51-1.128-3.112,2.367-7.523,2.323-2.932,3-5.165,2.36-7.745-.245-.983-.465-2.012-.488-2.286s-.2-.5-.388-.5-.153-.359.082-.8c.362-.676.27-.87-.6-1.266-1.268-.578-3.183-.007-3.19.952-.009,1.149-.514,1.233-2.181.365a8.474,8.474,0,0,0-2.059-.846,7.165,7.165,0,0,1-2.079-1.414c-.9-.777-1.866-1.591-2.139-1.808a1.883,1.883,0,0,1-.5-1.312,2.558,2.558,0,0,0-.782-1.626,5.765,5.765,0,0,1-1.238-2.089c-.329-1-.576-1.262-.891-.948-.656.656-1.627.532-3.985-.511a8.294,8.294,0,0,1-3.03-2.2,7.116,7.116,0,0,0-2.079-1.865c-1.079-.558-1.349-.553-2.921.047l-1.731.661-5.313-2.574a29.7,29.7,0,0,1-6.59-3.925c-1.218-1.288-1.257-1.428-.852-3.025.372-1.462.309-1.915-.5-3.583a17.927,17.927,0,0,0-2.468-3.585c-.849-.921-1.447-1.831-1.33-2.021a7.806,7.806,0,0,0-1.329-2.857,12.759,12.759,0,0,1-1.814-4.478c-.217-1.576-.469-2.058-1.269-2.422-.847-.386-1.084-.337-1.57.326-.683.934-.489,1.919,1.023,5.185a19.876,19.876,0,0,1,1.41,4.372,13.624,13.624,0,0,0,1.06,3.462c1,1.957.354,1.923-1.221-.066-.929-1.173-1.18-1.816-1-2.552.2-.785,0-1.163-.963-1.877-1.464-1.083-1.774-1.781-1.236-2.787.314-.586.17-1.229-.627-2.8a5.01,5.01,0,0,1-.778-3.555,3.854,3.854,0,0,0-2.163-4.364,2.082,2.082,0,0,1-1.449-1.947c-.135-.8-.393-2.031-.574-2.741-.188-.739-.175-1.387.032-1.514s.068-.669-.289-1.215a1.668,1.668,0,0,1-.189-2,2.013,2.013,0,0,0,.212-1.41c-.137-.221.2-.879.754-1.464a10.117,10.117,0,0,0,1.631-2.591,15.478,15.478,0,0,1,2.367-3.462,18.438,18.438,0,0,0,2.695-4.14c.729-1.685,1.157-2.209,1.807-2.214.468,0,.827.217.8.491-.126,1.141.776.79,1.789-.7.6-.876.92-1.653.717-1.726a.8.8,0,0,1-.37-.732,6.976,6.976,0,0,0-1.833-2.381c-1.671-1.624-1.778-1.84-1.223-2.454a1.028,1.028,0,0,0,.2-1.4c-.527-.943.3-3.055,1.208-3.063.373,0,.48-.131.251-.3-.514-.377-.747-1.234-.675-2.483.116-1.994-.321-2.829-1.8-3.448a14.771,14.771,0,0,1-2.712-1.567,4.6,4.6,0,0,0-1.951-.959,30.648,30.648,0,0,1-3.847-.806c-2.791-.712-3.282-.74-4.249-.243-2,1.031-4.125,1.451-4.99.988-.649-.347-1.357-.133-3.826,1.159a25.321,25.321,0,0,1-4.424,1.886,17.029,17.029,0,0,0-3.261,1.241c-2.912,1.467-7.083,2.946-8.237,2.921-.745-.017-.242-.344,1.74-1.129,3.367-1.336,6.827-3.075,7.147-3.592.394-.638-.461-.867-1.489-.4a2,2,0,0,1-2.1-.145l-1.123-.588,1.222-.632c1.381-.714,1.816-1.522,1.5-2.786-.307-1.225,1.387-2.124,5.038-2.675a10.951,10.951,0,0,0,4.456-1.471c1.77-1.206,1.466-2.116-.443-1.326a3.887,3.887,0,0,1-2.9.018c-1.627-.438-1.684-.5-.957-1.032a8.421,8.421,0,0,1,5.388-1.146,4.18,4.18,0,0,0,2.783-.4l1.271-.657-.837-.891a3.917,3.917,0,0,1-.836-1.124c0-.37,2.4-1.109,3.6-1.109A15.044,15.044,0,0,0,56,185.641a42.7,42.7,0,0,1,7.211-1.606c4.152-.574,5.031-.581,8.144-.065,1.919.318,4.565.7,5.88.844a40.8,40.8,0,0,1,5.169,1.027,16.579,16.579,0,0,0,9.831-.05,13.049,13.049,0,0,1,3.935-.576,2.331,2.331,0,0,0,1.557-.194,1.828,1.828,0,0,1,1.961.164,5.239,5.239,0,0,0,3.09.369,9.42,9.42,0,0,1,4.415.611,16.34,16.34,0,0,0,3.362.837c.862,0,.865.015.112.569s-.741.582-.048.85a10.094,10.094,0,0,0,3.08.036c2.339-.245,2.359-.238,3.011,1.023l.656,1.269.852-1.068a6.208,6.208,0,0,1,2.736-1.636,4.961,4.961,0,0,1,3.775.013,8.885,8.885,0,0,0,3.588.334,3.237,3.237,0,0,1,2.8.543c1.091.777,1.121.777,2.088.028a8.58,8.58,0,0,1,2.468-1.175c1.958-.546,2.622-1.708,1.446-2.531-.831-.583-.795-.627,1.391-1.7,1.63-.8,2.364-.981,2.681-.663s.315.667-.012,1.277c-.556,1.039.136,2.609,1,2.276a1.864,1.864,0,0,1,1.149.006c.5.193.5.357-.059,1.2-1.531,2.337,1.9,1.675,4.226-.815a3.421,3.421,0,0,1,3.781-.793c.886.34.8.619-.664,2.228-1.749,1.918-2.644,2.31-5.271,2.31a9.024,9.024,0,0,0-3.467.636,2.111,2.111,0,0,1-2.2.194c-1.421-.648-1.916-.109-.9.977l.87.926-1.736.493a17.707,17.707,0,0,1-3.529.551c-1.43.047-1.793.2-1.795.767,0,.484-.7.992-2.191,1.6-4.838,1.978-8.942,5.543-7.456,6.478a3.816,3.816,0,0,1,.982,1.4,2.2,2.2,0,0,0,1.584,1.306,20.465,20.465,0,0,1,3.5,1.4,21.767,21.767,0,0,0,3.584,1.437c1.81.395,1.826.436.983,2.574-.721,1.829-.736,2.09-.177,3.17.335.648.828,1.171,1.1,1.163,1.305-.037,2.528-1.242,3.289-3.237.724-1.9,1.055-2.256,3.135-3.367,3.069-1.64,4.346-3.255,4.006-5.068-.222-1.181-.107-1.458.9-2.178A7,7,0,0,0,147.7,199.4c.88-1.952,2.295-2.629,4.68-2.239,2.116.346,4.617,1.689,4.92,2.641a2.367,2.367,0,0,1-.229,1.56c-.379.707-.307,1.006.428,1.789l.883.939,1.441-.747a24.729,24.729,0,0,0,2.824-1.781l1.382-1.035.325.878a2.479,2.479,0,0,1,.113,1.431,1.9,1.9,0,0,0,.2,1.325,1.5,1.5,0,0,1,.053,1.419c-.253.451-.084,1.135.557,2.264.918,1.617.918,1.618.112,2.183-1.061.743-.38,1.531.784.908a2.9,2.9,0,0,1,3.3.2q1.81,1.64-3,3.907c-3.485,1.64-5.039,1.965-9.587,2-3.359.03-3.8.137-7.07,1.7a14,14,0,0,0-3.485,2.021c0,.822.6.75,2.921-.346a11.962,11.962,0,0,1,3.964-1.162c1.431,0,1.483.044,1.036.88a5.893,5.893,0,0,1-1.241,1.5c-.666.539-.705.767-.288,1.682.625,1.373,2.258,2.033,4.212,1.7l1.544-.261-1.187.819a8.14,8.14,0,0,1-2.39,1.079,16.336,16.336,0,0,0-3.021,1.175,3.841,3.841,0,0,1-2.309.613c-.63-.389.035-.974,2.083-1.829,1.821-.761,1.53-1.57-.433-1.2a40.9,40.9,0,0,0-5.509,2.076c-3.536,1.557-4.153,1.968-4.359,2.906-.253,1.152-1.116,1.7-4.152,2.62a7.8,7.8,0,0,0-2.787,1.582,16.132,16.132,0,0,1-2.405,1.915,3.939,3.939,0,0,0-1.611,1.86c-.213.9-.262.92-.528.227-.5-1.3-1.25-.029-1.293,2.183-.044,2.265-1.193,3.811-3.711,4.994-2.583,1.214-6.257,4.081-7,5.463-.657,1.221-.685,1.7-.28,4.834.378,2.926.355,3.661-.142,4.622-.371.718-.8,1.062-1.165.923-.854-.328-1.9-3.844-1.607-5.406a1.965,1.965,0,0,0-.739-2.255c-.652-.612-1.253-.845-1.764-.682a5.538,5.538,0,0,1-2.682-.571c-1.607-.689-2.12-.747-3.268-.368a3.225,3.225,0,0,0-1.8,1.421c-.377.826-.626.932-1.666.709a11.357,11.357,0,0,1-2.3-.813c-1.457-.744-2.273-.692-3.909.249-.763.439-2.321,1.279-3.461,1.866a5.058,5.058,0,0,0-2.447,2.09c-.206.561-.94,2.75-1.632,4.864l-1.259,3.843.643,2.48c1.181,4.558,2.824,5.922,6.248,5.188,2.581-.553,4.131-1.675,4.7-3.4a2.262,2.262,0,0,1,1.92-1.784c1.759-.488,2.493-.506,3.168-.077.558.353.362.935-2.134,6.338-1.712,3.707-1.589,4.039,1.345,3.615,2.672-.385,5.115-.089,5.4.654a20.9,20.9,0,0,1-.4,4.348c-.595,3.758-.591,3.842.265,5.228a6.344,6.344,0,0,0,1.994,1.988c.987.511,1.3.509,2.538-.009,1.972-.824,3.043-.737,4.414.359,1.095.876,1.25.9,2.111.337A5.555,5.555,0,0,0,121.5,290c.769-1.532,2.065-2.609,3.153-2.62a3.142,3.142,0,0,0,1.762-1c1.045-1.112,2.885-1.474,1.986-.391-.755.909-1.187,3.834-.7,4.743.405.756.437.752,1.174-.158.525-.648.631-1.063.344-1.35-.684-.684-.478-1.253.795-2.194a2.267,2.267,0,0,1,3.484.342c.836.893,5.3,2.1,6.58,1.78,1.949-.489,7.214,2.712,9.192,5.589.942,1.369,3.951,2.748,5.274,2.416,2.722-.684,6.454,2.044,7.326,5.353a5.215,5.215,0,0,0,.871,2.041c.581.362-.289,1.792-2.192,3.6-1.216,1.157-1.506,1.655-1.164,2s.9.042,2.254-1.2c1.963-1.81,2.618-1.994,3.6-1.01.6.6.58.72-.24,1.593a3.078,3.078,0,0,1-1.516.97c-.363.015-.216.19.35.416.778.31,1.184.223,1.991-.429,2.1-1.7,2.6-1.781,4.466-.738,1.214.679,1.7,1.195,1.639,1.742-.17,1.518.188,1.855,1.241,1.165.837-.549,1.411-.575,4.211-.191,2.979.408,3.369.57,4.8,2a8.426,8.426,0,0,0,3.753,2.195c2.013.585,2.231.763,2.6,2.119.53,1.965-.09,4.146-1.768,6.218a20.673,20.673,0,0,0-1.951,2.887,10.993,10.993,0,0,1-1.686,2.316c-.966.966-1.02,1.208-.779,3.5.47,4.481-1.722,12.841-3.836,14.629a2.54,2.54,0,0,1-2.369.55c-.9-.139-1.561-.05-1.736.234a6.075,6.075,0,0,1-1.933,1.184,14.608,14.608,0,0,0-3,1.88c-1.287,1.1-1.33,1.22-.9,2.532a5.511,5.511,0,0,1-.906,4.83,3.862,3.862,0,0,0-.629,1.867,4.639,4.639,0,0,1-.924,2.2,40.676,40.676,0,0,0-2.177,3.448c-1.7,3-2.716,3.517-5.176,2.636-2.135-.765-3.273-.857-3.273-.263,0,.224.425.6.945.838a5.308,5.308,0,0,1,1.8,2.143c.7,1.4.775,1.891.41,2.692-.566,1.242-2.729,2.284-4.74,2.284-1.78,0-2.222.436-1.607,1.585a2.647,2.647,0,0,1-.61,2.726,3.621,3.621,0,0,1-1.386-.532c-1.677-.867-2.271-.315-1.423,1.325a3.261,3.261,0,0,0,1.457,1.476c.784.249.793.3.155,1.009a1.574,1.574,0,0,0-.429,1.386,2.779,2.779,0,0,1-.8,2c-1,1.313-1.015,1.4-.373,2.383a3.714,3.714,0,0,0,1.272,1.25c1.2.46,1.4,2.033.483,3.826s-1.057,3.6-.347,4.451c.644.777-1.525,2.29-2.5,1.744Zm-29.352-172.5c1.064-2.223,3.044-3.88,4.639-3.88,1.148,0,1.161.187.11,1.523l-.826,1.05.848.687a1.4,1.4,0,0,0,1.814.246,2.453,2.453,0,0,0,1.211-1.21c.183-.576.48-.711,1.181-.535a1.026,1.026,0,0,0,1.323-.454c.809-1.446-1.25-3.3-2.766-2.484a1.607,1.607,0,0,1-2.2-1.792,2.471,2.471,0,0,0-.518-1.765c-.823-1.086-2.075-1.2-4.816-.44a12.026,12.026,0,0,1-2.5.471c-.388-.015-.6.141-.475.346s.087.379-.091.384a4.228,4.228,0,0,0-1.313.77l-.991.761,1.113.423a2.413,2.413,0,0,0,2.349-.216c1.136-.587,1.347-.587,2.586,0a4.146,4.146,0,0,0,2.282.41c.514-.129,1.043-.057,1.178.161s-.424.508-1.282.653c-2.33.394-3.541,1.364-5.232,4.194-1.412,2.363-1.493,2.648-.93,3.273s.7.623,1.462.093a8.694,8.694,0,0,0,1.842-2.673Zm7.236,2.459c1.417-.724,1.554-.905,1.054-1.405s-.815-.467-2.441.252c-1.908.844-2.514,1.984-1.054,1.984A7.542,7.542,0,0,0,125.69,231.974Zm7.062-3.01c.829-.581.86-.695.275-1.022-.861-.482-3.422.348-3.422,1.11C129.6,229.836,131.585,229.781,132.752,228.964Zm29.911,171.994a1.584,1.584,0,0,1,.478-.8c.262-.263.327-.478.143-.478s-.549.294-.812.653c-.377.516-.638.56-1.239.211-.429-.249-.534-.447-.24-.454s.411-.191.276-.41c-.26-.421.423-.535,2.389-.4,1.755.12,1.932.376.847,1.229-1.01.8-1.842,1-1.842.446Zm332.616-10q-1.709-1.083,7.117-4.781a31.047,31.047,0,0,0,5.563-3.2c2.409-1.821,2.609-1.9,3.086-1.219.725,1.035.3,1.784-1.472,2.582a8.189,8.189,0,0,0-2.364,1.643,2.712,2.712,0,0,1-1.623.95,5.192,5.192,0,0,0-2.293,1.341c-2.814,2.526-6.379,3.719-8.014,2.683Zm-27.874-5.174c-.413-.263-.437-.533-.1-1.163a5.277,5.277,0,0,0,.439-2.069c0-1.122.091-1.216.9-.932a9.645,9.645,0,0,0,2.29.367c.767.029,1.533.078,1.7.11.66.124-1.1,2.132-2.689,3.061-1.888,1.106-1.81,1.087-2.539.626Zm46.023-3.483c-.138-.139.19-.6.729-1.024.813-.639.908-.909.552-1.573-.514-.961.25-1.992,2.019-2.725,1.37-.567,1.715-1.719,1.348-4.5-.253-1.912-.222-2.031.394-1.522.484.4.6.9.43,1.824a2.569,2.569,0,0,0,.822,2.53c.908,1.08,1.178,1.2,1.884.819s.787-.343.565.235a4.594,4.594,0,0,0-.26.832,4.688,4.688,0,0,1-1.294.82,21.878,21.878,0,0,0-3.087,2.142,12.5,12.5,0,0,1-3.691,2.393.846.846,0,0,1-.411-.252Zm-42.116-5.144c-.839-.893-.994-.927-1.8-.4-1.027.672-2.956.279-4.5-.918-.825-.638-.883-.844-.457-1.639a1.821,1.821,0,0,0,.047-1.873,5.158,5.158,0,0,1-.439-1.742c0-.965-.627-1.011-1.145-.084-.214.381-.5.579-.642.44s.322-.909,1.025-1.71c1.73-1.971,1.055-2.506-1.231-.975a8.015,8.015,0,0,0-1.933,1.6c-.078.221-.551-.461-1.052-1.517a7.548,7.548,0,0,0-2.322-2.849c-1.266-.834-1.695-.9-4.126-.66a28.22,28.22,0,0,0-9.256,2.365,15.706,15.706,0,0,1-4.561,1.2,25.863,25.863,0,0,0-5.326,1.261c-2.175.818-2.794.9-3.9.541-1.478-.488-2.092-1.494-1.136-1.861a4.666,4.666,0,0,0,1.4-2.031c.675-1.575.712-2.066.312-4.1a17.753,17.753,0,0,1-.034-5.872,21.179,21.179,0,0,0,.2-4.416,5.585,5.585,0,0,1,.428-2.562c.632-1.655.785-1.763,5.057-3.573a26.959,26.959,0,0,1,5.513-1.866c1.646,0,3.684-1.567,4.808-3.695.695-1.315,1.177-1.816,1.593-1.655,1.164.45,1.393.361,1.3-.5a.956.956,0,0,1,.655-1.109,4.721,4.721,0,0,0,1.683-1.611,6.315,6.315,0,0,1,2.486-2c1.454-.583,1.6-.575,2.39.144,1.459,1.327,2.493,1.714,2.987,1.119.24-.29.323-.64.184-.78-.456-.456,1.63-3.073,2.649-3.324a15.4,15.4,0,0,0,2.5-1,3.468,3.468,0,0,1,3.186-.3c3.114.836,3.217.973,2.059,2.723-1.489,2.251-1.094,3.131,2.559,5.7a12.074,12.074,0,0,0,3.538,2,8.5,8.5,0,0,0,1.823-2.02,7.3,7.3,0,0,0,1.568-4.054c.231-2.332,1.346-5.576,1.918-5.576.189,0,.623.96.964,2.132a8.131,8.131,0,0,0,1.587,3.04c1.243,1.169,1.965,4.435,1.407,6.365-.37,1.279-.3,1.484.969,2.788a18.215,18.215,0,0,1,2.646,4.2,31.236,31.236,0,0,0,2.814,4.821l1.537,2.033-.437,3.142a14.257,14.257,0,0,1-1.787,5.534c-1.5,2.658-3.746,5.195-4.929,5.571a7.5,7.5,0,0,0-2.19,2.217,6.768,6.768,0,0,1-1.807,1.972,8.17,8.17,0,0,0-2.024,2.069c-1.5,1.9-1.776,2.071-3.339,2.1a4.906,4.906,0,0,0-3.1,1.1l-1.4,1.067-.918-.977ZM277.1,368.788a2.23,2.23,0,0,1-.8-2.437,3.382,3.382,0,0,0-.749-2.851,6.342,6.342,0,0,1-.979-1.872,10.681,10.681,0,0,0-1.565-2.531,7.382,7.382,0,0,1-1.823-4.752,31.506,31.506,0,0,0-3.367-11.413,18.562,18.562,0,0,1-1.793-4.429c-.311-1.918.468-4.772,2.246-8.229l1.182-2.3-.664-2a7.013,7.013,0,0,1-.413-3.006,3.032,3.032,0,0,0-.514-2.271,17.6,17.6,0,0,1-1.391-3.456,8.111,8.111,0,0,0-2.411-3.943c-2.524-2.477-2.852-3.452-2.069-6.147,1.595-5.485-.128-8.685-4.337-8.054-1.639.246-1.7.215-1.933-.942-.178-.889-.659-1.411-1.868-2.028-1.571-.8-2.243-.8-4.172-.019-.438.179-2.231.8-3.983,1.374-2.635.869-3.426.981-4.573.648-1.087-.315-2-.234-4.226.376-2.3.631-3.13.7-4.372.356-2.59-.716-7.041-4.727-7.674-6.917-.49-1.695-3.537-5.645-4.573-5.93-.659-.181-.74-.321-.337-.581s.335-.395-.3-.56c-1.006-.264-1.106-1.086-.133-1.095.6,0,.61-.062.1-.392-.377-.243-.418-.388-.113-.392s.2-.5-.347-1.415c-.764-1.3-.78-1.466-.2-2.111,1.781-1.969,2.172-6.208.817-8.879-.646-1.275-.23-3.037,1.149-4.868a35.532,35.532,0,0,0,2.255-3.728c1.26-2.38,4.068-5.69,4.828-5.69.841,0,3.555-2.918,3.555-3.822a6.571,6.571,0,0,1,3.211-5.354,10.576,10.576,0,0,0,2.784-2.607c.946-1.53,1.08-1.58,2.181-.813a7.257,7.257,0,0,0,2.386.816c1.342.225,1.984.063,3.982-1a15.1,15.1,0,0,1,9.5-2.054c2.595.162,3.763.059,5.021-.444,1.853-.742,3.454-.3,3.021.827a1.238,1.238,0,0,0,.176,1.116c.287.345.285.839-.007,1.605-.366.963-.285,1.25.622,2.2a5.225,5.225,0,0,0,2.283,1.337c3.2.64,4.111,1.055,4.772,2.174a2.867,2.867,0,0,0,2.168,1.437,11.537,11.537,0,0,1,2.634.873c1.074.555,1.213.535,2.108-.306.6-.566.875-1.165.734-1.61a2.291,2.291,0,0,1,.21-1.52c.616-1.151,2.365-1.038,5.1.329,2.976,1.49,8.62,2.553,10.621,2a4.829,4.829,0,0,1,2.73-.01c2.752.845,4.162.183,4.537-2.132.125-.769.338-1.4.474-1.4.257,0,.392-1.156.429-3.684.012-.821.206-1.493.432-1.493.268,0,.255-.289-.039-.837-.489-.915-1.483-.894-3.86.081a2.088,2.088,0,0,1-2.451-.153c-1.31-.774-2.654-.89-3.041-.263-.288.466-2.325.139-3.429-.55a4.18,4.18,0,0,1-1.535-3.054,2.085,2.085,0,0,0-.9-1.386c-.763-.538-.808-.69-.3-1.023a2.238,2.238,0,0,1,1.5-.178c.634.149,1.218-.1,1.954-.837a3.721,3.721,0,0,1,2.481-1.126,6.03,6.03,0,0,0,2.533-.8c1.316-.868,4.3-.627,6.623.534,3.126,1.564,5.9,1.472,7.02-.233.581-.887.584-1.074.033-1.916a14.656,14.656,0,0,0-3.589-2.626L303.7,226.7l.558-1.079c.307-.593.457-1.179.335-1.3s-.076-.459.1-.747a3.314,3.314,0,0,0,.405-1.039c.092-.6-.551-.436-3.718.964-1.839.814-2.112,1.063-1.7,1.554a2.015,2.015,0,0,0,1.333.6c.654.014.5.2-.677.822-1.428.754-1.588.763-2.516.155-.794-.52-.9-.762-.522-1.216s.318-.623-.272-.844a3.06,3.06,0,0,1-1.169-.848c-1.14-1.521-4.76,2.479-5.812,6.424-.494,1.851-.478,1.948.452,2.649l.965.728-1.77.365a7.744,7.744,0,0,1-2.917.053c-1.164-.318-2.638.161-2.638.856,0,.205-.271.268-.6.141a1.314,1.314,0,0,0-1.17.239c-.483.4-.428.73.373,2.236.867,1.632.894,1.855.353,2.94-.678,1.359-1.309,1.258-2.267-.363-.667-1.131-.663-1.157.221-1.282,1.115-.159,1.187-.869.105-1.041-2.468-.4-3.784-1.695-3.784-3.739a4.57,4.57,0,0,0-3.271-3.89,5.006,5.006,0,0,1-2.25-1.3,5.418,5.418,0,0,0-1.992-1.395,5.351,5.351,0,0,1-1.963-1.353c-.417-.595-.691-.666-1.3-.34a1.4,1.4,0,0,0-.773.983c0,1.035,5.077,5.713,7.558,6.965,2.631,1.328,3.042,1.8,1.214,1.4-1.63-.358-2.074,0-1.516,1.224.391.859.327,1.121-.46,1.878l-.915.879.208-1.187c.33-1.883-2.153-4.588-4.212-4.588-.755,0-3.655-2.813-4.415-4.282-.811-1.57-1.715-1.874-2.994-1.006-1.928,1.307-3.373,1.749-4.885,1.494-2.009-.34-3.273.361-2.953,1.636.168.666.075.963-.3.963a4.147,4.147,0,0,0-1.7.995,5.1,5.1,0,0,1-1.462,1c-.493,0-1.883,2.517-1.884,3.411,0,.855-1.56,2.539-3.062,3.311a6.708,6.708,0,0,1-2.476.447c-1.214,0-1.712.2-2.045.823-.437.816-.45.814-1.471-.207-.957-.958-1.509-1.2-3.441-1.5-1.016-.157-1.187-2.456-.428-5.73a10.931,10.931,0,0,0,.355-3.486c-.378-1.5.8-2.39,2.78-2.087,4.564.7,7.233.74,7.859.114.859-.86,1.247-3.695.723-5.285-.343-1.037-.813-1.461-2.218-2-2.065-.789-2.109-1.552-.089-1.572a5.4,5.4,0,0,0,2.466-.714c.587-.385,1.236-.595,1.443-.467.563.348,2.695-.881,3.4-1.962a3.074,3.074,0,0,1,1.5-1.172,10.928,10.928,0,0,0,2.867-2.079c1.553-1.446,2.367-1.9,3.7-2.058,1.649-.2,3.308-1.554,2.529-2.069a3.855,3.855,0,0,1-.618-2.951,3.716,3.716,0,0,1,1.252-1.274l1.021-.669-.262,1.639c-.227,1.422-.169,1.623.44,1.521a6.334,6.334,0,0,0,1.6-.612c.755-.415.941-.395,1.14.124.341.889-.608,1.935-1.263,1.391-.362-.3-.591-.289-.793.038s-.372.319-.612-.069c-.179-.291-.418-.437-.53-.325s.207.717.708,1.345c.844,1.059,1,1.109,2.209.69a2.5,2.5,0,0,1,2.4.119c.99.512,1.325.487,3.229-.236,1.668-.634,2.325-.715,3.063-.379a1.842,1.842,0,0,0,1.814-.023c1.791-.925,2.288-1.623,2.065-2.905-.33-1.9.274-2.521,1.864-1.921,1.083.409,1.4.393,1.888-.1.518-.518.473-.709-.376-1.613-.816-.869-.873-1.085-.375-1.421a5.909,5.909,0,0,1,2.688-.173c2.116.224,4.752-.6,4.292-1.346-.4-.65-2.83-.839-4.887-.378a4.488,4.488,0,0,1-3.7-.255c-2.172-.98-2.428-2.125-.938-4.2,1.917-2.672,2.268-3.524,1.721-4.182-.808-.974-1.6-.657-3.45,1.38a11.68,11.68,0,0,1-2.956,2.445,4.142,4.142,0,0,0-1.786,1.659c-.541,1.047-.541,1.266.008,2.1a3.283,3.283,0,0,0,1.42,1.191c1.222.388.98,1.116-.767,2.312a5.644,5.644,0,0,0-1.593,2.312,4.522,4.522,0,0,1-2.077,2.486c-1.419.82-1.483.823-2.267.113a4.053,4.053,0,0,1-1.047-1.821,7.141,7.141,0,0,0-1.329-2.395l-1.09-1.306-1.382.843a5.589,5.589,0,0,1-2.178.835,3.235,3.235,0,0,1-2.825-2.636,7.662,7.662,0,0,0-.361-1.819c-.357-.892,1.427-2.566,3.28-3.077s5.633-3.158,6.276-4.4a11.985,11.985,0,0,1,2.153-2.467,6.5,6.5,0,0,0,1.633-1.859c0-.217.852-.7,1.892-1.069s2.788-1.043,3.883-1.5a14.59,14.59,0,0,1,5.178-.9c3.759-.1,6.218.4,8.246,1.671a3.523,3.523,0,0,0,2.59.7c1.375-.276,8.7,2,9.011,2.792s-1.8,1.556-3.6,1.295c-.829-.119-2.542-.438-3.808-.709-1.7-.364-2.417-.376-2.749-.044s-.166.576.639.942a4.145,4.145,0,0,1,1.662,1.609c.806,1.559,3.388,2.83,4.721,2.323,1.28-.486,1.271-.64-.08-1.373-1.249-.677-.672-.824.9-.227,1.253.476,2.672-.117,2.342-.978-.155-.4.28-.695,1.508-1.009,2.628-.674,2.82-.77,2.6-1.3-.824-2.015-.836-1.957.364-1.82.64.073,1.108.347,1.054.617s.281.687.742.934c.691.37,1.236.238,3.137-.758,2.788-1.462,4.958-1.938,5.767-1.266.451.374,1.2.377,3.365.011a10.4,10.4,0,0,1,3.172-.23.477.477,0,0,0,.647-.184c.314-.507-.554-1.66-1.029-1.366-.573.354-2.457-.281-2.047-.69s11.5,2.17,12.16,2.833c.447.447,1.862-.149,1.862-.785,0-.214-.79-.773-1.756-1.243-3-1.455-3.188-3.786-.371-4.493,1.635-.41,2.342.063,4.6,3.082,2.935,3.92,2.861,3.72,1.9,5.067-.71,1-.753,1.231-.26,1.42.934.359,2.932-.9,3.214-2.016.329-1.313-.286-2.432-1.756-3.192A3.407,3.407,0,0,1,337.906,183c0-.311.433-.389,1.294-.232,1.291.236,2.359-.232,5.283-2.316a5.6,5.6,0,0,1,2.939-.817c2.312-.052,3.06-.44,2.395-1.242-.261-.314-.391-.654-.29-.756.509-.508,7.065-1.425,8.576-1.2a3.169,3.169,0,0,0,3.1-.812c.769-.587,1.4-1.225,1.4-1.418,0-.487-3.48-.443-3.783.047-.418.675-.958.441-.806-.35.128-.667-.209-.775-3.11-1-7.921-.617-8.565-.762-7.615-1.712.836-.836,2.885-.819,4.6.036a6.925,6.925,0,0,0,2.587.638,2.347,2.347,0,0,1,1.556.4,2.331,2.331,0,0,0,1.55.4c1.986,0,5.827.858,5.586,1.248-.117.19.254.345.826.345a6.01,6.01,0,0,1,2.313.686c.943.508,2.26.69,5.058.7,3.009.012,4.009.167,4.879.754.6.407,1.093.853,1.09.992a7.794,7.794,0,0,1-2.043,1.377c-2.7,1.492-2.133,2.143,1.139,1.3a6.115,6.115,0,0,1,4.362-.032,5.48,5.48,0,0,0,3.315.2,6.652,6.652,0,0,1,3.673.22,6.616,6.616,0,0,0,3.813.194,11.187,11.187,0,0,1,7.543.481c.909.493,2.585,1.405,3.725,2.026,2.02,1.1,2.108,1.115,3.51.486a4.871,4.871,0,0,1,3.557-.239c1.72.329,2.346.289,3.314-.212.948-.49,1.1-.731.738-1.166-.7-.843,1.782-1.156,4.831-.61,1.4.25,3.166.5,3.933.555a12.342,12.342,0,0,1,3.328.97c1.623.731,2.848.9,7.6,1.027,4.5.124,5.94.3,7.027.883,1.1.588,2.36.738,6.543.778,3.848.038,5.572.22,6.713.711,1.843.792,2.58.5,1.577-.621-.721-.808-.717-.809,2.065-.533a65.231,65.231,0,0,1,12.148,2.216,21.092,21.092,0,0,0,4.175.985,15.471,15.471,0,0,1,4.249,1.238c1.558.79,2.065.877,3.065.528,1.369-.477,2.257-.134,4.346,1.682l1.3,1.127-.979.246a7.674,7.674,0,0,1-4.488-1.111.822.822,0,0,0-.824-.169,4.591,4.591,0,0,1-2.07-.383c-2.224-.767-3.212-.479-2.2.641.692.765.677.781-.643.689-2.47-.173-1.791.557,1.835,1.971,1.972.769,3.669,1.48,3.772,1.58.374.362-.858.81-1.755.639-.985-.189-3.411.868-3.411,1.485a2.753,2.753,0,0,1-.852,1.166c-.782.73-.944.746-1.991.205a1.883,1.883,0,0,0-2.235-.038,12.746,12.746,0,0,1-2.288.839,5.227,5.227,0,0,0-1.688.7c-.8.665.612,2.6,2.6,3.565a4.04,4.04,0,0,1,2.1,1.883,16.522,16.522,0,0,0,.965,2.1c.531.944.527,1.078-.044,1.3a.629.629,0,0,0-.359.938,7.793,7.793,0,0,1,.383,1.69,7.006,7.006,0,0,0,.39,1.656c.2.474.036.74-.592.94-.7.221-1.17-.046-2.319-1.316a23.361,23.361,0,0,0-2.94-2.683,20.285,20.285,0,0,1-3.28-3.459c-1.728-2.3-1.764-2.4-1.19-3.514a5.735,5.735,0,0,0,.6-2.059,4.92,4.92,0,0,1,.562-1.906c.575-1.039.353-1.868-.876-3.279a1.058,1.058,0,0,0-1.882.909c.334,1.052-.69,1.393-1.868.622a8.2,8.2,0,0,0-2.612-.876c-1.59-.254-1.708-.2-2.12.876a4.758,4.758,0,0,0-.224,2.212c.182.914.056,1.1-.885,1.308a5.075,5.075,0,0,1-2.63-.4,4.117,4.117,0,0,0-2.57-.345,25.041,25.041,0,0,1-4.293.328c-2.835.028-3.381.151-4.242.961a6.726,6.726,0,0,0-1.452,2.788,11.529,11.529,0,0,1-1.038,2.745c-.546.843-.493.928,1.068,1.725a6.567,6.567,0,0,0,4.941.609c1.08-.373,4.375,2.2,5.4,4.213a5.291,5.291,0,0,0,1.548,1.92c1.627.87,1.957,6.583.6,10.318-.942,2.585-2,3.431-3.544,2.842a10.336,10.336,0,0,0-1.209-.409,8.321,8.321,0,0,0-.984,1.634c-.615,1.18-.735,1.775-.432,2.14.58.7.151,1.609-1.01,2.138-.535.244-.973.617-.973.829a11.576,11.576,0,0,0,2.769,2.292c1.937,1.333,2.973,2.357,3.447,3.41a4,4,0,0,1,.517,1.651c-.089.081-.9.52-1.809.977l-1.647.83-.991-2.275c-1.109-2.546-2.061-3.57-3.737-4.021-.844-.227-1.138-.549-1.138-1.247,0-.639-.413-1.182-1.291-1.7-1.279-.75-1.3-.749-2.665.092s-1.377.843-1.8.061a3.675,3.675,0,0,1-.422-1.4,1.377,1.377,0,0,0-.743-1.007c-.609-.326-.993-.129-2.112,1.081a12.957,12.957,0,0,1-2.14,1.919c-.661.376-.7.534-.241,1.083a10.56,10.56,0,0,0,2.251,1.6c1.5.84,1.79.888,2.3.381.482-.482.874-.5,2.327-.1l1.748.475-.974.651c-1.807,1.207-2.376,1.841-2.634,2.931-.212.894-.086,1.163.717,1.529a5.231,5.231,0,0,1,1.811,2.165,6.615,6.615,0,0,0,2.041,2.432c1.457.862,1.88,1.776,1.038,2.248-.785.439-.41,1.095.626,1.095,1.24,0,1.247.74.048,5.011-1.452,5.172-2.762,6.9-6.192,8.152a17.485,17.485,0,0,1-3.65.964,4.86,4.86,0,0,0-3.746,2.046l-.82,1.043-.383-1.007c-.5-1.313-1.643-1.643-3.286-.948a4.765,4.765,0,0,0-2.9,2.967c-.358,1.175.911,3.242,3.011,4.906a14.347,14.347,0,0,1,4.113,7.285c.395,2.169-.305,3.593-2.183,4.44a3.709,3.709,0,0,0-1.779,1.406c-.3.93-2.064,2.088-2.388,1.564a1.64,1.64,0,0,1-.012-1.134,2.453,2.453,0,0,0-.014-1.384c-.2-.511-.414-.557-1.043-.22-.655.35-.908.261-1.436-.506-1.3-1.884-5.068-4.913-6.112-4.913-.368,0-.51.443-.447,1.394a14.224,14.224,0,0,1-.347,3.322c-.393,1.727-.353,2.044.388,3.046a7.477,7.477,0,0,1,1.079,2.121,8.995,8.995,0,0,0,2.609,2.892c2.2,1.761,2.427,2.109,3.351,5.034a35.239,35.239,0,0,1,.993,3.52c0,.675-.832.4-2.568-.846-1.8-1.289-2.942-3.328-3.9-6.933a4.815,4.815,0,0,0-2.162-3.186c-1.584-1.165-1.632-1.267-1.5-3.195.073-1.095.252-2.648.4-3.45.207-1.129.036-1.938-.758-3.584a24.848,24.848,0,0,1-1.48-3.991c-.561-2.291-1.353-2.675-2.753-1.334a4.908,4.908,0,0,1-1.3,1.008c-.634,0-1.5-1.349-1.3-2.008.379-1.195-1.954-5.362-3.32-5.928A3.906,3.906,0,0,1,396.23,269c-.794-1.761-1.685-2.435-2.575-1.948a16.459,16.459,0,0,1-2.873.79c-2.3.473-3.131,1.171-2.816,2.377.117.444-.287.873-1.254,1.335a4.407,4.407,0,0,0-1.877,1.67,2.5,2.5,0,0,1-1.215,1.234,3.448,3.448,0,0,0-1.44,1.354,12.157,12.157,0,0,1-2.461,2.485c-1.344,1.032-1.764,1.61-1.7,2.337.39,4.247-.209,7.8-1.671,9.911-1.427,2.058-1.527,2.115-2.734,1.566a2.256,2.256,0,0,1-1.242-1.8,29.125,29.125,0,0,0-1.783-4.632c-5.093-10.938-5.845-13.025-5.412-15,.293-1.335-.41-3.349-1.09-3.121a.828.828,0,0,0-.5.73c-.034,1.818-2.077,2.1-3.672.5l-1.057-1.058.909-.336c1.024-.378.93-1.4-.111-1.212a3.271,3.271,0,0,1-1.881-.9,5.14,5.14,0,0,0-1.55-1.017c-.187,0-.455-.361-.6-.8a3.221,3.221,0,0,0-3.539-1.686c-.953.43-9.6.34-11.045-.114A6.409,6.409,0,0,1,338.9,260c-1.188-1.36-1.206-1.365-2.987-.885-1.688.455-1.933.412-4.207-.735-1.964-.992-2.553-1.527-3.159-2.872-.774-1.716-2.493-2.958-3.538-2.557a2.109,2.109,0,0,0-.854,1.394c-.2.92,0,1.517.981,2.845a11.892,11.892,0,0,1,1.646,3.2c.485,1.8,1.441,2.334,2.234,1.25.479-.655.608-.677.932-.164a1.464,1.464,0,0,1,.248.993c-.222.689,2.076,1.822,3.149,1.553a7.632,7.632,0,0,0,2.573-2.051c1.376-1.564,1.856-1.669,1.621-.356a2.652,2.652,0,0,0,1.688,2.513c1.777.919,4.253,2.966,4.253,3.516a3.343,3.343,0,0,1-1.035,1.427,10.892,10.892,0,0,0-1.819,2.5c-1.05,2.047-4.091,5.04-5.121,5.04a5.263,5.263,0,0,0-3.666,2.081,5.84,5.84,0,0,1-1.951,1.6,63.049,63.049,0,0,1-9.626,4.046c-1.371.258-1.482.2-2.209-1.238a14.058,14.058,0,0,1-1.061-3.7,6.064,6.064,0,0,0-1.441-3.5,5.458,5.458,0,0,1-1.146-1.692,7.709,7.709,0,0,0-1.6-2.029,8.9,8.9,0,0,1-2.244-3.884,11.954,11.954,0,0,0-1.609-3.433c-3.655-4.539-4.738-6.14-5.282-7.811-.723-2.215-1.333-2.573-1.615-.946l-.2,1.155-1.348-1.7c-2.076-2.621-2.337-1.43-.388,1.77.922,1.515,2.392,4.188,3.267,5.94a38.777,38.777,0,0,0,2.52,4.419,4.848,4.848,0,0,1,.929,2.515c0,1.5.448,2.438,2.207,4.616a8.715,8.715,0,0,1,1.553,2.843c.188.881.957,1.8,2.61,3.129,2.511,2.014,4.139,4.117,4.543,5.87a2.815,2.815,0,0,0,1.455,1.711c1.111.574,1.5.558,5.012-.2a30.443,30.443,0,0,0,4.929-1.4l1.122-.58.267,1.576c.242,1.433-.019,2.123-2.854,7.561-3.049,5.847-3.191,6.04-6.223,8.433a27.934,27.934,0,0,0-3.968,3.665c-.476.668-2,2.474-3.384,4.012-4.044,4.49-4.593,8.438-1.912,13.731a4.93,4.93,0,0,1,.786,3.005,8.863,8.863,0,0,0,.191,3c.377,1.758.335,2.228-.318,3.507-.942,1.845-1.691,2.508-4.323,3.827a5.572,5.572,0,0,0-2.091,1.426,10.76,10.76,0,0,1-1.792,2.4,10.358,10.358,0,0,0-1.793,2.418,8.756,8.756,0,0,0,.822,2.011c1.353,2.654.444,4.577-2.8,5.921-1.368.567-1.817,1.724-1.479,3.81.178,1.092.065,1.456-.554,1.787a6.609,6.609,0,0,0-1.718,1.893c-1.632,2.564-6.325,7.1-8.458,8.176-1.779.9-2.234.977-3.541.616a7.063,7.063,0,0,0-4.014.217c-3.13.786-2.8.819-4.01-.393Zm52.459-127.032c1.028-.532,1.175-.825,1.175-2.341a3.12,3.12,0,0,0-.624-2.251,6.654,6.654,0,0,1-1.235-1.7c-.556-1.076-.554-1.16.026-.938.766.294,1.833-.059,1.833-.607a4.784,4.784,0,0,0-.824-1.551c-.682-.957-.955-1.085-1.593-.744-.515.276-.769.278-.769.008,0-.223-.711-.767-1.58-1.21-1.923-.981-2.607-2.068-2.007-3.189a2.5,2.5,0,0,1,2.767-1.014c.934.577,1.209-.274.439-1.356-1.868-2.623-4.469-2.45-7.695.511-2.081,1.911-2.262,2.419-1.085,3.049a1.45,1.45,0,0,1,.8,1.019,6.6,6.6,0,0,0,1.574,2.3c1.994,2.164,2.36,3.152,2.113,5.713l-.2,2.061,2.736,1.4c1.5.772,2.79,1.413,2.855,1.424a8.1,8.1,0,0,0,1.3-.588ZM318.589,353.007c-1.124-.637-1.284-.974-1.578-3.325-.235-1.878-.137-2.287.987-4.113,1.142-1.856,1.225-2.214.973-4.23-.364-2.912.255-4.441,1.947-4.813,1.594-.349,5.044-3.4,5.87-5.182l.632-1.366.439.964c1.1,2.424.992,3.489-.93,8.806-1.028,2.845-2.131,6.248-2.451,7.562-1.024,4.206-1.606,5.221-3.284,5.723-1.786.535-1.613.537-2.605-.026Zm196.193-6.924c-1.271-1.39-2.031-2.583-2.031-3.186,0-1.337.214-1.22,1.364.741a15.881,15.881,0,0,0,2.207,2.863,4.943,4.943,0,0,1,1.208,1.481c0,.766-.848.18-2.748-1.9Zm-177.673-.565a.4.4,0,1,1,.4.4A.4.4,0,0,1,337.109,345.518Zm209.738-.727a.5.5,0,0,1,.176-.68c.592-.365.8-.074.406.565-.211.342-.417.383-.582.115Zm-206.95-.644c0-.1.179-.286.4-.422s.4-.056.4.176a.412.412,0,0,1-.4.422C340.076,344.323,339.9,344.244,339.9,344.147Zm196.593-4.042c-.388-1.011.1-1.365,1.2-.865.948.432.968.5.308.981C537.076,340.9,536.785,340.874,536.49,340.105Zm2.523-1.771c-.778-.481-.239-.865,1-.712.971.12.993.163.3.591a1.308,1.308,0,0,1-1.3.121Zm-18.6-1.462c-.818-1.761-.532-2.438.314-.742.88,1.764.9,1.822.482,1.817C521.05,337.946,520.692,337.462,520.418,336.872Zm1.525-.282c-.018-.42.077-.655.209-.523a.8.8,0,0,1,.031.763c-.127.318-.221.224-.24-.24Zm32.424-3.824c-.365-.59-.019-.891.831-.725.623.121.629.186.067.652-.448.371-.7.391-.9.073Zm-235.379-1.985c-.136-.219-.057-.4.175-.4a.412.412,0,0,1,.422.4c0,.219-.079.4-.176.4S319.123,331,318.988,330.781Zm174.845-3.742c-2.521-.794-3.664-1.533-4.656-3.007-1.133-1.684-3.207-2.959-4.266-2.623a4.127,4.127,0,0,0-1.6,1.642c-.771,1.306-.919,1.378-2.319,1.129a5.922,5.922,0,0,1-2.554-1.252c-.74-.689-1.307-.907-1.884-.724a2.132,2.132,0,0,1-1.463-.094c-.547-.307-.494-.45.382-1.024,1.015-.665,1.016-.674.335-2.1-.546-1.146-1.3-1.743-3.766-2.983a14.866,14.866,0,0,0-4.26-1.55c-1.481,0-2.093-1.365-.977-2.181.663-.485.566-.606-1.165-1.447-1.839-.893-1.865-.931-.987-1.419a4.57,4.57,0,0,1,1.776-.515,2.67,2.67,0,0,1,2.114,2.411,3.944,3.944,0,0,0,.86,1.748c.849,1.078.87,1.083,1.494.3a11.11,11.11,0,0,1,2.469-1.842l1.836-1.052,2.545,1.148c1.4.631,3.387,1.451,4.415,1.822a28.07,28.07,0,0,1,4.574,2.449c2.838,1.865,4.071,3.436,3.364,4.289-.577.694,1.688,3.858,4.032,5.634,2.577,1.951,2.533,2.131-.3,1.238Zm17.333-.032c-.314-.378-.345-.607-.081-.607.482,0,1.043.756.767,1.032-.1.1-.409-.091-.686-.425Zm-66.92-1.621c-.577-.319-.744-.554-.4-.559.712-.009,1.849.654,1.581.922C445.326,325.852,444.793,325.689,444.246,325.386Zm6.734-.526a4.047,4.047,0,0,1,4.531-1.74c1.191.382,1.21.414.264.452a8.193,8.193,0,0,0-2.9,1.235c-2.365,1.5-2.936,1.516-1.894.053Zm57.788.545c-.538-.649-.409-.73.565-.356.346.133.63.4.63.6C509.963,326.2,509.318,326.067,508.768,325.4Zm1.865-.352a4.212,4.212,0,0,1-.247-1.374c.017-.44.155-.339.41.3a2.78,2.78,0,0,1,.247,1.373c-.076.227-.26.093-.41-.3Zm30.794.375c0-.1.179-.286.4-.422s.4-.056.4.176a.413.413,0,0,1-.4.422C541.606,325.6,541.427,325.525,541.427,325.428Zm-101.863-1.673c-.275-.116-.4-.375-.275-.575.3-.492,2.857-.465,3.165.034.136.219.012.4-.275.4a8.252,8.252,0,0,0-1.318.177,2.632,2.632,0,0,1-1.3-.04Zm5.913-.3c-.723-.872.111-1.137,1.987-.632s1.884.589-.075.942C446.371,323.95,445.812,323.859,445.477,323.456Zm59.8-.242c-.276-.441-.325-.8-.11-.8s.58.358.814.8.284.8.11.8S505.549,323.652,505.276,323.214Zm2.494-.4c-1.065-1.176-.5-1.361.6-.195.514.547.751.994.528.994a2.409,2.409,0,0,1-1.129-.8Zm-74.675-.069a31.246,31.246,0,0,1-4.461-.973,6.012,6.012,0,0,0-2.7-.353c-.912.29-4.791-.851-4.791-1.408,0-1.273,3.571-1.37,5.468-.148.709.456,1.267.486,2.765.151,1.659-.372,2-.326,2.979.394a4.406,4.406,0,0,0,1.5.816c.787,0,3.178,1.332,2.976,1.658a.756.756,0,0,1-.68.278c-.261-.031-1.639-.217-3.063-.415Zm71.491-1.92c-.4-.438-.542-.8-.323-.8a2.409,2.409,0,0,1,1.12.8c.4.439.541.8.322.8a2.416,2.416,0,0,1-1.119-.8Zm-2.512-.5a4.948,4.948,0,0,1-.667-1.688c-.227-1.057-.2-1.1.223-.4a12.72,12.72,0,0,0,1.046,1.454c.331.383.41.755.189.891A.677.677,0,0,1,502.074,320.32Zm-8.434-1.266-.99-.548,1.534-.288a7.263,7.263,0,0,0,2.881-1.471c.809-.71,1.345-.967,1.342-.644-.009.81-.5,1.434-1.988,2.533-1.555,1.147-1.482,1.136-2.779.418ZM418.928,317.5a17.122,17.122,0,0,1-4.962-6.064,22.69,22.69,0,0,0-2.36-3.957,28.116,28.116,0,0,1-2.129-3.186,13.857,13.857,0,0,0-2.27-2.788c-1.924-1.848-3.107-3.789-2.3-3.775,1.045.018,3.735,1.514,4.889,2.718,3.184,3.323,3.836,3.915,5.338,4.841,1.451.893,2.137,1.823,2.206,2.987a4.029,4.029,0,0,0,.917,1.394c.491.547,1.417,1.577,2.059,2.288a6.794,6.794,0,0,1,1.423,2.466c.464,2.112-1.236,3.972-2.81,3.076ZM338.7,317.24a.4.4,0,1,1,.4.4A.4.4,0,0,1,338.7,317.24Zm105.343,0a1.733,1.733,0,0,1,0-1.176,2.365,2.365,0,0,0-.366-1.71c-.555-.846-.549-1.023.056-1.888a8.981,8.981,0,0,0,.964-3.132,5.28,5.28,0,0,1,1.232-3.114c.869-.869,1.088-.907,3.042-.537,1.677.318,2.338.279,3.251-.193,1.529-.791,1.641-.756,1.133.359a2.232,2.232,0,0,1-3.3,1.157c-2.429-1.273-5.651.619-3.951,2.319.625.625.971.682,2.128.35,1.984-.569,2.767-.465,1.535.2-1.395.757-1.66,1.6-.941,2.988a5.752,5.752,0,0,1,.6,2.18c0,.906-.1.978-.8.6a4.362,4.362,0,0,1-1.406-1.883c-.6-1.445-.615-1.45-1.388-.677-.677.678-.723.979-.352,2.322.335,1.214.313,1.616-.106,1.881-.7.446-1.03.433-1.33-.053Zm54.645-2.124a5.96,5.96,0,0,0-1.911-1.677c-.676-.349-1.139-.725-1.029-.834.619-.619,4.075,2.193,3.781,3.077-.091.272-.452.028-.841-.566Zm-62.545-1.326a2.913,2.913,0,0,0-1.8-.348c-.991.315-4.927-.486-5.317-1.082a33.991,33.991,0,0,1-1.71-5.471,2.336,2.336,0,0,1,.313-1.744c.456-.622.692-.67,1.414-.283.762.407.923.338,1.341-.579a4.789,4.789,0,0,1,1.933-1.786,4.439,4.439,0,0,0,1.954-1.943,2.835,2.835,0,0,1,1.853-1.646,6.009,6.009,0,0,0,2.4-1.81c.571-.749,1.251-1.361,1.511-1.361a4.792,4.792,0,0,1,1.746,1.315l1.274,1.314-1.021,1.374c-1.161,1.56-1.1,2.9.215,4.749l.8,1.118-.992.65c-.545.357-.991.87-.99,1.139,0,.912-2.549,6.17-3.188,6.569-.446.279-.964.226-1.729-.175Zm23.137-.007c-.825-.215-.939-.92-.15-.92a13.658,13.658,0,0,1,1.873.265c1.123.224,1.207.312.548.569a2.925,2.925,0,0,1-2.271.086Zm63.426-5.079c0-.1.179-.286.4-.421s.4-.057.4.175a.412.412,0,0,1-.4.422C522.887,308.876,522.708,308.8,522.708,308.7Zm-64.822-1.08c-.318-.318-.337-.687-.061-1.2a1.387,1.387,0,0,0,.162-1.126c-.359-.581.541-1.991,1.271-1.991.585,0,.583.068-.026.741a1.421,1.421,0,0,0-.272,1.789c.632,1.662-.055,2.809-1.074,1.79Zm-200.034-1.309c0-.1.179-.287.4-.422s.4-.056.4.176a.411.411,0,0,1-.4.421C258.031,306.486,257.852,306.407,257.852,306.311Zm276.207-1.02c-.136-.219-.057-.4.175-.4a.412.412,0,0,1,.422.4c0,.22-.079.4-.175.4S534.194,305.511,534.059,305.291Zm-273.818-3.76c0-.1.179-.286.4-.421s.4-.057.4.175a.412.412,0,0,1-.4.422C260.42,301.707,260.241,301.628,260.241,301.531Zm191.577-5.988c-.76-1.772-.861-1.852-2.03-1.6s-1.206.225-.769-.591c.361-.676.7-.81,1.553-.622a2.124,2.124,0,0,0,2.163-.752,3.287,3.287,0,0,0,1.079-1.708c.012-1,1.492,2.366,1.829,4.169.256,1.368.224,1.443-.4.927-.924-.765-1.813.029-1.055.942.3.365.341.615.1.615a3.7,3.7,0,0,0-1.041.24c-.462.177-.836-.248-1.426-1.625Zm-72.618.7a10.246,10.246,0,0,1-.377-4.83c.342-.914.367-.9,1.382.6,1.216,1.8,1.605,2.95,1.2,3.566-.384.589-1.963,1.066-2.209.667Zm88.943-2.06a.876.876,0,0,1,.4-.645c.219-.135.4-.067.4.152a.874.874,0,0,1-.4.645C468.323,294.474,468.143,294.406,468.143,294.187Zm62.53-.047c0-.219.079-.4.176-.4s.286.18.422.4.056.4-.176.4A.412.412,0,0,1,530.673,294.14Zm-90.409-2.3a11.84,11.84,0,0,1,1.774-2.29c1.43-1.6,1.778-1.822,1.793-1.163a4.893,4.893,0,0,1-1.331,2.29C441.243,292.049,440.264,292.558,440.264,291.839Zm8.626-1.063a1.718,1.718,0,0,1,.066-1.276c.28-.5.4-.506.79-.033.352.424.337.727-.065,1.276C449.187,291.418,449.138,291.42,448.89,290.776Zm-305-1.552c.244-.294.326-.652.182-.8s.109-.263.563-.263c.63,0,.777.19.618.8a1.063,1.063,0,0,1-1.007.8c-.624,0-.7-.118-.356-.535Zm307.672-.1a10.863,10.863,0,0,0-.431-1.053c-.089-.164.007-.3.214-.3.4,0,.957,1.636.661,1.932C451.911,289.794,451.711,289.533,451.563,289.119Zm-4.036-1.04a.87.87,0,0,1,.822-1.446c.525.117.544.282.123,1.062C448.066,288.446,447.891,288.518,447.527,288.079Zm4.709-1.368c-.457-.581-.765-1.123-.684-1.205.324-.323,1.444.39,2.04,1.3C454.507,288.2,453.346,288.122,452.236,286.711Zm-6.548-1.542a2.136,2.136,0,0,1-.645-1.1c0-.252.394-.065.874.415s.771.977.645,1.1S446.043,285.524,445.688,285.169Zm-312.631-.057a1.1,1.1,0,0,1-.265-.677c0-.25.185-.226.471.06.259.259.379.564.265.677A.342.342,0,0,1,133.057,285.112Zm-2.257-.531c0-.219.079-.4.176-.4s.286.179.422.4.056.4-.176.4A.412.412,0,0,1,130.8,284.581Zm18.719-.8c0-.219.079-.4.176-.4s.286.179.422.4.056.4-.176.4A.413.413,0,0,1,149.519,283.784Zm300.175-.06a2.647,2.647,0,0,0-1.682-.17c-.771.194-1.3-.116-2.746-1.6-2.04-2.1-2.436-2.983-1.838-4.1a5.047,5.047,0,0,0,.42-1.983c0-2.161,1.448-2.074,2.51.152a2.536,2.536,0,0,1,.039,2.821c-.595,1.424-.583,1.487.478,2.595.767.8,1.342,1.072,1.948.92a1.365,1.365,0,0,1,1.365.394c.718.864.405,1.481-.494.974Zm-302.564-2.5c0-.1.179-.286.4-.422s.4-.056.4.176a.412.412,0,0,1-.4.422C147.309,281.4,147.13,281.316,147.13,281.219Zm62.53-1.417a.4.4,0,1,1,.4.4A.4.4,0,0,1,209.66,279.8Zm-63.725-1.547a.871.871,0,0,1,.4-.644c.219-.135.4-.067.4.152a.874.874,0,0,1-.4.645C146.114,278.543,145.935,278.474,145.935,278.255Zm-3.383-1.635c-.139-.226.021-.293.375-.157.69.265.816.551.243.551A.85.85,0,0,1,142.552,276.62Zm63.324,0c-.135-.219-.056-.4.176-.4a.411.411,0,0,1,.421.4c0,.219-.079.4-.175.4S206.011,276.834,205.876,276.615Zm-61.733-.8c-.136-.219-.057-.4.175-.4a.413.413,0,0,1,.422.4c0,.219-.079.4-.176.4S144.278,276.038,144.143,275.819Zm1.792,0c0-.219.079-.4.176-.4s.286.18.421.4.057.4-.175.4A.412.412,0,0,1,145.935,275.819Zm-27.382-1.061a.755.755,0,0,1-.5-.566c0-.574,1.758-.426,2.613.22.734.556.713.584-.422.566A6.359,6.359,0,0,1,118.553,274.758Zm10.078-.226a2.985,2.985,0,0,0-1.753-.12,4.174,4.174,0,0,1-2.076-.147c-.859-.343-.783-.384.657-.35,2.118.049,2.683-.3,2.142-1.307-.384-.717-.269-.772,1.631-.772,1.838,0,4.49.843,4.939,1.57.3.484-4.826,1.526-5.54,1.126Zm7.64.252c-.472-.472.115-.957,1.158-.957.626,0,.943.188.841.5A1.584,1.584,0,0,1,136.271,274.784Zm288.146-.633c-1.054-1.055-.01-2.315,1.918-2.315.854,0,.855.007.122,1.262C425.6,274.562,425.092,274.825,424.417,274.151Zm-284.855-.082c0-.086.269-.26.6-.386s.6-.055.6.157-.269.386-.6.386S139.562,274.155,139.562,274.069Zm-17.216-2.855a5.121,5.121,0,0,0-1.869-.246c-1.248-.017-1.547-.14-1.241-.509s-.129-.831-1.593-1.78c-2.871-1.86-4.474-2.224-6.4-1.452-1.808.724-1.947.744-1.947.288,0-.833,3.17-1.75,5.452-1.577,2.183.166,3.405.631,7.691,2.924,3.523,1.885,3.527,1.888,2.39,2.212C123.535,271.443,122.625,271.494,122.346,271.214Zm2.878-3.361c.772-.5,1.195-.5,1.195,0,0,.219-.4.4-.9.392C124.8,268.24,124.741,268.165,125.224,267.853Zm317.19-.706a4,4,0,0,1-.921-1.206c-.4-.76-.358-1.129.243-2.158.929-1.591,1.556-1.79,1.858-.588.317,1.264-.6,4.335-1.18,3.952Zm-314.575-.531c.266-.43,1.767-.479,1.766-.057,0,.164-.447.324-.993.356s-.894-.1-.773-.3Zm-7.876-3.838c-.636-.732-.544-1.7.163-1.7.227,0,.32.35.209.778s0,.851.252.941.35.279.221.42S120.3,263.162,119.963,262.778Zm2.314-3.129c-.142-.37-.168-.762-.059-.871s.316.1.457.472.168.762.059.871S122.419,260.018,122.277,259.649Zm-2.5-.359a.7.7,0,0,1,.759-.6c.674,0,.692.066.161.6a2.594,2.594,0,0,1-.759.6C119.854,259.888,119.781,259.619,119.781,259.29Zm334.024-8.731a4.112,4.112,0,0,0-.966-1.716c-1.263-1.5-.816-2.5.679-1.522a2.873,2.873,0,0,1,1.24,3.175C454.457,251.28,453.805,251.322,453.805,250.559Zm-309.065-2.4c0-.1.179-.287.4-.422s.4-.056.4.176a.412.412,0,0,1-.4.421C144.919,248.337,144.74,248.258,144.74,248.162Zm311.285-.49c-.258-.673.351-1.309,1.265-1.32.633-.008.645.883.02,1.507-.649.65-.983.6-1.285-.187Zm3.639-1.454c-.773-1.18-1.866-1.342-4.366-.647a2.9,2.9,0,0,1-2.191.01c-.382-.223-.485-.411-.228-.418a4.708,4.708,0,0,0,1.667-1.021,2.344,2.344,0,0,1,2.148-.772c.713.179,1.482-.164,3.1-1.38,3.151-2.367,3.436-3.114,2.154-5.644-1.231-2.428-.888-3.209.935-2.132,1.327.783,2.577,3.029,2.214,3.975a4.952,4.952,0,0,0,.433,2.376c.523,1.368.572,1.942.224,2.593a4.017,4.017,0,0,1-3.554,1.595c-.907,0-1.178.233-1.475,1.266l-.363,1.267-.7-1.068Zm-161.347-1.359c-.476-.475-.223-.9.534-.9a1.327,1.327,0,0,0,1.019-.4c.37-.6,1-.479.762.145-.245.641-1.97,1.5-2.315,1.156Zm-13.582-.689-1.194-.547,1.593-.027c1.984-.034,3.446.339,3.158.8-.32.518-2.185.4-3.557-.23ZM268.646,240.2c-1.594-.816-1.669-.918-.837-1.136,1-.26,3.2.064,3.158.464a5.268,5.268,0,0,1-.3.909C270.423,241.03,270.23,241.007,268.646,240.2Zm-7.983-4.309c-.344-.989-.317-1.367.131-1.815.809-.81,1.439-.241,1.439,1.3,0,1.822-1,2.149-1.57.514Zm-9.339.331c.283-.736,1.494-.861,1.251-.129a1.159,1.159,0,0,1-.829.627c-.462.089-.59-.061-.422-.5Zm208.1-4.546c-.729-1.024-.749-1.213-.21-1.981s.526-.982-.018-2.035c-.9-1.733-.771-1.838.783-.653a12.517,12.517,0,0,0,3.369,1.651q3.36,1,1.613,1.559c-.441.14-.8.515-.8.833,0,.433-.275.508-1.1.3-2.1-.538-2.7-.407-2.563.563.165,1.189-.1,1.13-1.076-.235Zm-198.123.468a.894.894,0,0,1,.332-1.472c.432-.166.6.044.6.754C262.233,232.379,261.843,232.68,261.3,232.141Zm195.6-8.4a21.076,21.076,0,0,1-1.81-3.088,30.887,30.887,0,0,0-3.863-5.365c-1.639-1.828-2.472-3.04-2.16-3.144.279-.093.877.324,1.329.926a20.824,20.824,0,0,0,4.574,4.295c1.765,1.3,2.638,2.5,1.5,2.067-1.313-.5-.986.692.714,2.606a18.223,18.223,0,0,1,1.8,2.214c0,.484-1.539.107-2.084-.511Zm-291.448-.7c0-.329.173-.6.385-.6s.283.269.157.6-.3.6-.386.6S165.451,223.375,165.451,223.047Zm-2.082-1.286-1.483-.155,2.792-2.765a16.761,16.761,0,0,1,3.238-2.764c.259,0,.181.292-.185.7-.829.916-.264,1.945,1.251,2.278a2.4,2.4,0,0,1,1.576,1.212c.409.9.34.989-1.04,1.372a16.5,16.5,0,0,1-6.149.125ZM66.321,218.9c-1.38-1.289-1.534-1.832-.619-2.183.82-.314,2.332.711,2.905,1.969.6,1.32.591,1.37-.3,1.37A4.185,4.185,0,0,1,66.321,218.9Zm175.4-2.023c.438-.217,1.3-.575,1.916-.8,1.356-.49,1.132-1.011-.584-1.354-1.177-.235-1.218-.295-.545-.788.4-.293.612-.721.469-.952s.264-.6.935-.837,1.195-.593,1.195-.809c0-.92-.831-2.467-1.292-2.407-1.063.138-1.556-.049-1.384-.527a1.8,1.8,0,0,0-.18-1.195c-.513-1,.665-3.058,1.76-3.081.165,0,.254.214.2.483s.322.552.836.63l.934.142-.893.95-.893.951,1.007.383c1.081.411,2.122,1.75,3.183,4.091.508,1.121.842,1.414,1.435,1.259,1.218-.318,1.362.507.22,1.255-.773.507-.92.792-.581,1.131s-.33.566-2.646.9c-1.705.246-3.727.563-4.493.7-1.067.2-1.207.166-.6-.135Zm-6.716-2.2a2.777,2.777,0,0,1,.345-1.792c.374-.724.447-1.238.2-1.392-.69-.427-.431-.971.583-1.226a3.19,3.19,0,0,0,1.443-.8c.53-.639,2.984-.757,3.352-.161.135.219-.033.8-.375,1.284a3.99,3.99,0,0,0-.62,1.945c0,.888-.273,1.153-1.693,1.646-.931.323-1.983.713-2.338.867A.6.6,0,0,1,235.005,214.68Zm7.314-3.957c0-.1.179-.286.4-.421s.4-.057.4.175a.412.412,0,0,1-.4.422C242.5,210.9,242.319,210.82,242.319,210.723ZM65.562,208.8c-.39-.47-.365-.689.124-1.095.81-.672,1.211-.216.74.84-.325.728-.443.763-.864.255Zm-.623-3c-.134-.218.022-.617.349-.888.647-.537.782-.116.238.743C65.318,205.993,65.088,206.049,64.939,205.809ZM39.2,205.555c0-.28,1.207-.77,2.921-1.185.649-.158,1.033-.12.9.089a2.577,2.577,0,0,1-1.328.586,13.713,13.713,0,0,0-1.8.492c-.384.148-.7.156-.7.018Zm236.678-4.478c-.735-.3-.605-.754.232-.817.4-.03.73.2.73.513,0,.593-.138.636-.962.3Zm-87.522-2.036c-2.521-1.374-3.725-3.486-3-5.249a2.039,2.039,0,0,0,.039-1.951c-.659-1.233.2-2.677,2.4-4.031a8.235,8.235,0,0,0,2.319-1.952,3.037,3.037,0,0,0-1.041-3.74c-.562-.256-.867-.661-.743-.985.282-.737-1.044-3.253-2.364-4.486-.972-.907-1.391-1-4.719-1.02-4.532-.029-5.377-.281-5.3-1.582.032-.54.151-.982.267-.982s1.728-.187,3.584-.416a25.183,25.183,0,0,0,7.137-2.019c4.09-1.744,4.4-1.778,14.161-1.549a47.914,47.914,0,0,0,9.558-.769,30.32,30.32,0,0,1,7.235-.624,11.719,11.719,0,0,0,3.739-.205c2.172-.585,7.816.119,10.035,1.251,1.312.669,2.007.758,4.221.537,2.392-.238,2.572-.206,1.853.322a8.541,8.541,0,0,1-2.987.873c-2.614.344-5.016,2.208-4.38,3.4.275.514.078.952-.81,1.8a6.329,6.329,0,0,0-1.383,1.786c-.277.873-3.8,2.5-5.544,2.56-1.939.067-2.142.479-.642,1.305a22.8,22.8,0,0,1,2.3,1.478l1.01.768-.914.338c-.7.258-1.267.092-2.432-.716-1.58-1.095-3.281-1.1-2.374-.007.354.426.269.592-.393.765-1.48.387-.433,1.152,1.2.876,1.039-.175,1.623-.083,1.948.309.386.466-.118.681-3.019,1.291a37.785,37.785,0,0,1-5.673.765c-2.238.033-3.851.676-6.223,2.479a11.752,11.752,0,0,1-4.342,1.539c-4.021.769-5.38,1.659-7.8,5.109-1.947,2.771-3.12,3.8-4.333,3.814a9.566,9.566,0,0,1-2.589-1.081Zm-28.24-2.664a8.476,8.476,0,0,1-2.329-2.178c-.832-1.313-1.6-1.479-3.842-.836a3.184,3.184,0,0,1-1.953.048c-1.179-.66.951-1.309,3.324-1.013,1.8.226,2.2.162,2.416-.387a2.987,2.987,0,0,1,3.433-1.4,2.491,2.491,0,0,0,2.11-.029c1.138-.435,1.154-.474.411-1.02a3.028,3.028,0,0,0-1.079-.567,5.523,5.523,0,0,1-1.347-1.778,8.838,8.838,0,0,0-2.387-2.609c-1.257-.777-1.423-.791-2.548-.21-.983.509-1.551.544-3.106.2a9.922,9.922,0,0,0-3.248-.176c-1.283.24-3.634-.388-3.634-.97,0-1.071,3.373-3.473,5.377-3.829l1.593-.284-1.139,1.214c-1.571,1.673-.98,2.444.726.946a7.031,7.031,0,0,1,2.779-1.43c1.23-.231,1.757-.08,3.3.943,2.055,1.361,2.213,1.4,3.372.777.7-.373.957-.271,1.714.68a6.476,6.476,0,0,0,2.836,1.734c1.82.575,1.944.7,1.944,1.955a2.184,2.184,0,0,0,.91,1.992c2.673,1.911,2.615,1.832,2.036,2.758-.793,1.27-1.419,1.362-3.174.467-1.221-.623-1.754-.709-2.369-.38-.752.4-.76.489-.155,1.66a2.118,2.118,0,0,1,.2,2.187c-.416.913-.482.927-1.612.343-2.221-1.149-3.717-.393-1.645.831.649.383,1.09.844.979,1.022-.385.625-2.356.293-3.9-.655Zm81.808.516c0-.183.269-.332.6-.332s.6.149.6.332-.269.332-.6.332S241.92,197.075,241.92,196.893ZM145.1,194.751a2.96,2.96,0,0,0-2.5-.145c-1.869.517-2.523.139-1.574-.909,1.214-1.342,2.038-1.606,3.5-1.123,1.648.544,2.38,1.353,1.935,2.139C146.181,195.215,145.987,195.22,145.1,194.751Zm79.1-.181a2.9,2.9,0,0,0-1.859-.576c-.5.159-.614.021-.46-.569.237-.906,3.736-2.214,4.919-1.839a5.306,5.306,0,0,0,2.343-.239c1.375-.412,1.739-.381,2.669.228l1.077.706-.959.747c-.81.631-2.311,1.178-5.938,2.165A3.088,3.088,0,0,1,224.2,194.57Zm-108.133-7.435a16.178,16.178,0,0,1-2.965-1.041l-1.969-.884,2.766-.2c1.521-.11,2.765-.378,2.765-.6s-1.075-.494-2.389-.611c-1.736-.155-2.063-.264-1.2-.4,1.453-.224,1.557-.853.2-1.2-.978-.247-.971-.263.405-.855a10.571,10.571,0,0,1,7.174-.556c1.848.548,2.136.546,3.008-.025.616-.4.981-.471,1.013-.187.027.244.072.653.1.909.093.863.887.751,1.835-.258.878-.934,2.4-1.382,2.4-.705a6.694,6.694,0,0,1-.788,1.588l-.786,1.289,1.286.67,1.285.671-2.11.963c-1.9.869-2.295.919-4,.509a4.594,4.594,0,0,0-3.8.364,5.649,5.649,0,0,1-4.229.551Zm15.973-.281c-.359-.433-.211-.647.719-1.032a3.589,3.589,0,0,1,2.073-.2c.862.274.842.317-.469,1.015-1.673.891-1.756.9-2.323.216Zm109.883-1.843c.773-.5,1.2-.5,1.2,0,0,.219-.4.4-.9.392C241.494,185.4,241.437,185.323,241.92,185.011Zm73.085-1.1c-2.037-.8-2-.76-1.4-1.474.277-.334.347-.613.156-.62s.011-.284.449-.615.8-.728.8-.883c.014-.589,1.636-2.143,2.782-2.665a14.735,14.735,0,0,1,3.783-.75c1.424-.113,3.331-.32,4.239-.46.965-.149,1.752-.088,1.9.147.283.457-.256.651-3.348,1.207-3.067.551-4.911,1.41-6.125,2.853-1.28,1.52-1.322,2.48-.148,3.3l.9.625-1.195-.018a9.825,9.825,0,0,1-2.788-.647Zm-208.6-1.155c-.643-.642-.5-.782,2.585-2.469,3.611-1.977,5.425-2.239,8.664-1.253l1.792.546-2.389.473a63.671,63.671,0,0,0-9.367,3.133A1.365,1.365,0,0,1,106.408,182.751Zm28.773-.515c0-.212-.493-.669-1.095-1.015l-1.095-.628,1.466.23c1.042.164,1.561.067,1.793-.337.275-.48,2.81-1.44,3.82-1.447.17,0,.032.535-.308,1.191-.8,1.546-4.581,3.2-4.581,2.006Zm6.2-1.163c-.57-.924,3.327-2.353,4.982-1.827,1.207.383.4,1.041-1.7,1.391a14.48,14.48,0,0,0-2.369.564.759.759,0,0,1-.909-.128ZM154.1,178.14c-2.629-.209-4.829-.426-4.889-.481-.356-.331.532-1.406,1.488-1.8.94-.39,1.373-.338,2.66.317,1.254.638,2.063.744,4.393.576a17.774,17.774,0,0,1,3.982.08l1.128.285-1.394.745a5.5,5.5,0,0,1-1.992.7c-.328-.024-2.748-.214-5.376-.423Zm114.616-1.628c-1.957-1-2.145-1.456-.609-1.464a3.505,3.505,0,0,0,1.693-.436c.516-.372.51-.4-.051-.224a1.21,1.21,0,0,1-1.112-.258c-.352-.352-.536-.346-.766.026-.213.345-.65.385-1.477.138-2.1-.629-2.568-.908-2.568-1.532,0-.528.526-.577,3.783-.348,2.481.175,3.784.126,3.784-.14,0-.784,1.105-.4,1.4.49l.3.9.177-.9c.1-.493.432-.9.746-.9a.531.531,0,0,0,.569-.478c0-.372.107-.372.478,0a6.89,6.89,0,0,0,3.187.478c2.847,0,3.516.509,1.617,1.231a8.054,8.054,0,0,1-4.585-.284c-.383-.112-.695-.058-.694.121,0,.368,2.241,1.72,2.846,1.72a1.849,1.849,0,0,1,.953.558c.48.48.476.591-.028.784-.323.124-.587.032-.587-.2,0-.278-.507-.335-1.434-.162-1,.189-1.351.137-1.16-.172a.988.988,0,0,0-.209-1.021c-.511-.615-1.977-.8-1.977-.254a6.776,6.776,0,0,1-1.294,1.757l-1.3,1.431-1.681-.861Zm-105.655-.876a5.323,5.323,0,0,0-3.186-.383,5.787,5.787,0,0,1-3.1-.32c-.815-.466-.616-.519,1.872-.5,3.11.025,4.476-.641,2.792-1.361-.8-.342-.684-.373.688-.183,1.791.248,2.487-.232,1.511-1.042-1.04-.863.1-1.131,3.806-.891q3.435.222,4.318-.25c1.128-.6.685-1.371-.6-1.048-.891.224-7.071-.143-6.81-.4.186-.186,8.942-1,14.691-1.361,2.982-.188,6.3-.451,7.368-.584l1.947-.241-3.213,1.543c-3.012,1.447-7.911,2.857-9.923,2.857a10.317,10.317,0,0,0-3.13,1.195,11.987,11.987,0,0,1-2.788,1.2,13.136,13.136,0,0,0-2.9,1.19c-1.291.654-2.346,1.186-2.346,1.181s-.448-.273-1-.594ZM155.294,172c-1.93-.427-2-.588-.582-1.323,2.068-1.071,4.024-1.346,4.914-.689.7.519.663.6-.72,1.416A3.923,3.923,0,0,1,155.294,172Z" fill="#f15e37"/></g><g opacity="0.6"><path d="M280.263,540.956a261.262,261.262,0,0,1-184.741-446A261.263,261.263,0,0,1,465,464.435,259.551,259.551,0,0,1,280.263,540.956Zm0-521.524A260.262,260.262,0,0,0,96.229,463.727,260.262,260.262,0,1,0,464.3,95.661,258.557,258.557,0,0,0,280.263,19.432Z" fill="#f15e38"/><rect x="279.763" y="415.271" width="1" height="140.186" fill="#f15e38"/><rect x="306.057" y="539.172" width="1.001" height="14.993" transform="translate(-52.112 32.684) rotate(-5.626)" fill="#f15e38"/><rect x="332.101" y="535.336" width="1" height="14.966" transform="translate(-99.512 75.321) rotate(-11.251)" fill="#f15e38"/><rect x="357.642" y="528.957" width="1" height="14.947" transform="translate(-140.293 127.058) rotate(-16.875)" fill="#f15e38"/><rect x="379.312" y="504.4" width="1" height="31.255" transform="translate(-170.095 184.934) rotate(-22.5)" fill="#f15e38"/><polygon points="409.815 523.13 402.761 509.934 403.644 509.463 410.698 522.659 409.815 523.13" fill="#f15e38"/><polygon points="433.052 509.26 424.728 496.801 425.56 496.246 433.884 508.705 433.052 509.26" fill="#f15e38"/><rect x="449.947" y="479.566" width="1.001" height="14.998" transform="matrix(0.773, -0.634, 0.634, 0.773, -206.743, 396.316)" fill="#f15e38"/><rect x="134.267" y="64.198" width="1" height="140" transform="translate(-55.42 134.601) rotate(-45)" fill="#f15e38"/><rect x="425.259" y="355.19" width="1" height="140" transform="translate(-175.953 425.592) rotate(-45)" fill="#f15e38"/><rect x="487.133" y="442.38" width="1.001" height="14.998" transform="translate(-169.478 541.428) rotate(-50.625)" fill="#f15e38"/><polygon points="509.274 433.316 496.815 424.991 497.37 424.159 509.829 432.484 509.274 433.316" fill="#f15e38"/><polygon points="523.228 410.129 510.032 403.075 510.502 402.193 523.699 409.246 523.228 410.129" fill="#f15e38"/><rect x="520.094" y="363.614" width="1" height="31.258" transform="translate(-29.002 715.081) rotate(-67.5)" fill="#f15e38"/><rect x="536.499" y="350.1" width="1" height="14.947" transform="translate(38.943 767.655) rotate(-73.125)" fill="#f15e38"/><rect x="542.887" y="324.55" width="1" height="14.965" transform="translate(111.744 800.221) rotate(-78.752)" fill="#f15e38"/><rect x="546.737" y="298.492" width="1.001" height="14.993" transform="translate(189.078 820.596) rotate(-84.374)" fill="#f15e38"/><rect x="415.839" y="279.194" width="140.186" height="1" fill="#f15e38"/><rect x="539.741" y="252.9" width="14.993" height="1" transform="translate(-22.132 54.658) rotate(-5.605)" fill="#f15e38"/><rect x="535.905" y="226.856" width="14.965" height="1" transform="translate(-33.947 110.54) rotate(-11.266)" fill="#f15e38"/><rect x="529.525" y="201.314" width="14.947" height="1" transform="translate(-35.486 164.958) rotate(-16.914)" fill="#f15e38"/><rect x="504.965" y="179.646" width="31.258" height="1" transform="translate(-29.306 213.012) rotate(-22.508)" fill="#f15e38"/><rect x="509.384" y="152.728" width="14.963" height="1" transform="translate(-11.262 261.44) rotate(-28.092)" fill="#f15e38"/><rect x="495.83" y="130.152" width="14.984" height="0.999" transform="translate(12.153 301.402) rotate(-33.721)" fill="#f15e38"/><rect x="480.134" y="109.009" width="14.998" height="1.001" transform="translate(41.219 334.216) rotate(-39.376)" fill="#f15e38"/><rect x="442.948" y="71.824" width="14.998" height="1.001" transform="translate(108.774 374.637) rotate(-50.624)" fill="#f15e38"/><rect x="421.814" y="56.135" width="14.984" height="1.001" transform="translate(143.782 382.192) rotate(-56.263)" fill="#f15e38"/><rect x="399.248" y="42.591" width="14.963" height="1.001" transform="translate(177.053 381.521) rotate(-61.885)" fill="#f15e38"/><rect x="364.182" y="38.863" width="31.258" height="1" transform="translate(198.051 375.174) rotate(-67.492)" fill="#f15e38"/><rect x="350.669" y="22.458" width="14.948" height="1" transform="translate(232.298 359.048) rotate(-73.14)" fill="#f15e38"/><rect x="325.118" y="16.07" width="14.966" height="1" transform="translate(251.372 339.525) rotate(-78.734)" fill="#f15e38"/><rect x="299.061" y="12.22" width="14.993" height="1.001" transform="translate(263.987 316.574) rotate(-84.401)" fill="#f15e38"/><rect x="279.763" y="3.932" width="1" height="140.186" fill="#f15e38"/><rect x="253.468" y="5.223" width="1" height="14.993" transform="translate(-0.024 24.949) rotate(-5.624)" fill="#f15e38"/><rect x="227.424" y="9.086" width="1" height="14.966" transform="translate(1.146 44.779) rotate(-11.249)" fill="#f15e38"/><rect x="201.883" y="15.484" width="1" height="14.948" transform="translate(2.051 59.74) rotate(-16.876)" fill="#f15e38"/><rect x="180.214" y="23.733" width="1" height="31.258" transform="translate(-1.307 72.155) rotate(-22.501)" fill="#f15e38"/><rect x="153.296" y="35.61" width="1" height="14.963" transform="translate(-2.153 77.588) rotate(-28.125)" fill="#f15e38"/><rect x="130.72" y="49.143" width="1" height="14.984" transform="translate(-9.35 82.448) rotate(-33.751)" fill="#f15e38"/><rect x="109.578" y="64.825" width="1.001" height="14.998" transform="translate(-20.895 86.252) rotate(-39.376)" fill="#f15e38"/><rect x="72.392" y="102.01" width="1.001" height="14.999" transform="translate(-58.002 96.384) rotate(-50.625)" fill="#f15e38"/><rect x="56.704" y="123.159" width="1" height="14.984" transform="translate(-83.21 105.631) rotate(-56.251)" fill="#f15e38"/><rect x="43.16" y="145.746" width="1" height="14.963" transform="translate(-112.056 119.502) rotate(-61.875)" fill="#f15e38"/><rect x="39.431" y="164.516" width="1" height="31.259" transform="translate(-141.783 148.097) rotate(-67.5)" fill="#f15e38"/><rect x="23.027" y="194.34" width="1" height="14.948" transform="translate(-176.428 165.748) rotate(-73.126)" fill="#f15e38"/><rect x="16.638" y="219.873" width="1" height="14.966" transform="translate(-209.193 199.813) rotate(-78.751)" fill="#f15e38"/><rect x="12.788" y="245.903" width="1" height="14.993" transform="translate(-240.193 241.783) rotate(-84.374)" fill="#f15e38"/><rect x="4.5" y="279.194" width="140.186" height="1" fill="#f15e38"/><rect x="5.792" y="305.489" width="14.993" height="1.001" transform="translate(-29.792 2.757) rotate(-5.599)" fill="#f15e38"/><rect x="9.655" y="331.533" width="14.966" height="1" transform="translate(-64.537 9.746) rotate(-11.266)" fill="#f15e38"/><rect x="16.053" y="357.074" width="14.948" height="1" transform="translate(-102.698 22.193) rotate(-16.86)" fill="#f15e38"/><rect x="24.302" y="378.743" width="31.259" height="1" transform="translate(-142.137 44.174) rotate(-22.508)" fill="#f15e38"/><path d="M82.959,361.893l-.239-.374a214.5,214.5,0,0,1-.066-163.488l.189-.457,14.39,5.766-.372.928-13.472-5.4a213.511,213.511,0,0,0,.066,161.809l13.4-5.557.383.924-13.862,5.742Z" fill="#f15e38"/><rect x="36.179" y="405.66" width="14.963" height="1.001" transform="translate(-186.25 68.501) rotate(-28.115)" fill="#f15e38"/><rect x="49.712" y="428.237" width="14.984" height="1.001" transform="matrix(0.832, -0.555, 0.555, 0.832, -228.477, 103.969)" fill="#f15e38"/><rect x="65.393" y="449.378" width="14.998" height="1.001" transform="translate(-268.859 148.366) rotate(-39.376)" fill="#f15e38"/><rect x="355.759" y="133.698" width="140" height="1" transform="translate(29.809 340.363) rotate(-45)" fill="#f15e38"/><rect x="64.766" y="424.69" width="140" height="1" transform="translate(-261.183 219.83) rotate(-45)" fill="#f15e38"/><rect x="102.579" y="486.564" width="14.998" height="1.001" transform="translate(-336.257 263.158) rotate(-50.624)" fill="#f15e38"/><rect x="123.727" y="502.254" width="14.984" height="0.999" transform="translate(-359.792 332.791) rotate(-56.279)" fill="#f15e38"/><rect x="146.314" y="515.797" width="14.963" height="1" transform="translate(-374.097 408.854) rotate(-61.908)" fill="#f15e38"/><rect x="165.085" y="519.526" width="31.258" height="1" transform="translate(-368.879 487.902) rotate(-67.492)" fill="#f15e38"/><rect x="194.909" y="535.93" width="14.947" height="1" transform="translate(-369.723 573.996) rotate(-73.086)" fill="#f15e38"/><rect x="220.441" y="542.319" width="14.966" height="1" transform="translate(-348.964 660.304) rotate(-78.734)" fill="#f15e38"/><rect x="246.471" y="546.169" width="14.993" height="1" transform="translate(-314.891 746.031) rotate(-84.395)" fill="#f15e38"/><path d="M203.991,96.647l-5.933-14.324.461-.194a214.49,214.49,0,0,1,163.488-.067l.457.189L356.7,96.641l-.928-.372,5.4-13.472a213.5,213.5,0,0,0-161.8.065l5.552,13.4Z" fill="#f15e38"/><path d="M280.182,493.48a212.519,212.519,0,0,1-81.663-16.154l-.457-.188,5.766-14.391.928.371-5.4,13.473a213.516,213.516,0,0,0,161.806-.064l-5.553-13.4.924-.383,5.932,14.324-.46.195A212.519,212.519,0,0,1,280.182,493.48Z" fill="#f15e38"/><path d="M477.707,361.9l-14.391-5.767.371-.928,13.473,5.4a213.517,213.517,0,0,0-.065-161.8l-13.4,5.551-.383-.924,14.323-5.932.2.46a214.511,214.511,0,0,1,.066,163.489Z" fill="#f15e38"/></g><path d="M280.391,560.781v-8.342A271.889,271.889,0,0,0,552.439,280.39h8.342a280.23,280.23,0,0,1-280.39,280.391ZM8.342,280.39H0A280.232,280.232,0,0,1,280.391,0V8.342A271.889,271.889,0,0,0,8.342,280.39Z" fill="#f15e38"/><g opacity="0.8"><path d="M280.263,478.456c-109.6,0-198.763-89.164-198.763-198.762S170.665,80.932,280.263,80.932,479.025,170.1,479.025,279.694,389.861,478.456,280.263,478.456Zm0-396.524C171.216,81.932,82.5,170.648,82.5,279.694s88.716,197.762,197.763,197.762S478.025,388.74,478.025,279.694,389.309,81.932,280.263,81.932Z" fill="#f15e38"/><path d="M280.263,415.956C205.127,415.956,144,354.829,144,279.694s61.127-136.262,136.263-136.262,136.262,61.127,136.262,136.262S355.4,415.956,280.263,415.956Zm0-271.524C205.679,144.432,145,205.11,145,279.694s60.679,135.262,135.263,135.262,135.262-60.678,135.262-135.262S354.846,144.432,280.263,144.432Z" fill="#f15e38"/><path d="M280.263,555.956A276.327,276.327,0,0,1,84.869,84.3,276.328,276.328,0,0,1,475.656,475.087,274.482,274.482,0,0,1,280.263,555.956Zm0-551.524A275.328,275.328,0,0,0,85.576,474.38,275.328,275.328,0,0,0,474.949,85.008,273.493,273.493,0,0,0,280.263,4.432Z" fill="#f15e38"/></g></g></g></svg>