<svg width="15" height="15" viewBox="0 0 15 15" fill="none" xmlns="http://www.w3.org/2000/svg">
<path d="M0.820312 7.09839C0.820312 3.2324 3.95432 0.0983887 7.82031 0.0983887C11.6863 0.0983887 14.8203 3.2324 14.8203 7.09839C14.8203 10.9644 11.6863 14.0984 7.82031 14.0984C3.95432 14.0984 0.820312 10.9644 0.820312 7.09839Z" fill="#F05E39"/>
<path fill-rule="evenodd" clip-rule="evenodd" d="M8.34947 3.63172C8.34947 3.33717 8.11069 3.09839 7.81614 3.09839C7.52159 3.09839 7.28281 3.33717 7.28281 3.63172V9.27462L4.99639 6.98819C4.78811 6.77991 4.45042 6.77991 4.24215 6.98819C4.03387 7.19647 4.03387 7.53415 4.24215 7.74243L7.44212 10.9424C7.6504 11.1507 7.98808 11.1507 8.19636 10.9424L11.3963 7.74243C11.6046 7.53415 11.6046 7.19647 11.3963 6.98819C11.1881 6.77991 10.8504 6.77991 10.6421 6.98819L8.34947 9.28081V3.63172Z" fill="#F2F2F2"/>
</svg>
