<svg version="1.1" id="Layer_1" xmlns="http://www.w3.org/2000/svg" x="0" y="0" viewBox="0 0 575.8 226.8" xml:space="preserve"><style>.st1{fill:#f1c161}.st2{fill:#fff}.st3{fill:none}.st8{fill:#163553}</style><g id="Layer_1_1_"><g id="Inner-Ring"><g id="Inner-Orbit"><linearGradient id="SVGID_1_" gradientUnits="userSpaceOnUse" x1="63.863" y1="-843.415" x2="144.866" y2="-887.769" gradientTransform="matrix(1 0 0 -1 1.55 -749.88)"><stop offset="0" stop-color="#a3a5a9"/><stop offset=".22" stop-color="#a3a5a9" stop-opacity=".73"/><stop offset=".66" stop-color="#a3a5a9" stop-opacity=".16"/><stop offset=".67" stop-color="#a3a5a9" stop-opacity=".12"/><stop offset=".7" stop-color="#a3a5a9" stop-opacity=".05"/><stop offset=".74" stop-color="#a3a5a9" stop-opacity=".01"/><stop offset=".87" stop-color="#a3a5a9" stop-opacity="0"/></linearGradient><path d="M144.3 136.7c-12 21.8-39.2 29.8-61 17.8-10.3-5.7-17.8-15-21.3-26-1.8-5.8-2.5-11.8-1.8-17.8 1.2-12.2 7.3-23.3 17-30.8 19.3-15.3 47.8-12 63 7.5 11.1 14.1 12.6 33.6 4.1 49.3zm0 0c2.8-5 4.5-10.7 5-16.2 2.2-23.3-14.7-44-38-46.3-5.8-.5-11.3 0-17 1.8-22.3 6.8-34.7 30.8-27.8 53 6.8 21.8 29.7 34.3 51.7 28.3 5.3-1.5 10.7-4.2 15.2-7.7s8-7.9 10.9-12.9z" fill="url(#SVGID_1_)"/></g><g id="Inner-Oval"><g id="Oval"><circle class="st1" cx="61.9" cy="112.5" r="7.8"/><path class="st2" d="M61.9 106.7c3.3 0 6 2.7 6 6s-2.7 6-6 6-6-2.7-6-6 2.9-6 6-6m0-3.8c-5.3 0-9.7 4.3-9.7 9.7 0 5.3 4.3 9.7 9.7 9.7s9.7-4.3 9.7-9.7c0-5.4-4.3-9.7-9.7-9.7z"/></g><ellipse id="Oval-guide" transform="rotate(-64.539 105.922 115.646)" class="st3" cx="105.9" cy="115.6" rx="43.7" ry="43.7"/></g></g><g id="Middle-Ring"><g id="Middle-Orbit"><linearGradient id="SVGID_2_" gradientUnits="userSpaceOnUse" x1="40.009" y1="-832.131" x2="168.892" y2="-898.904" gradientTransform="matrix(1 0 0 -1 1.55 -749.88)"><stop offset="0" stop-color="#a3a5a9"/><stop offset=".1" stop-color="#a3a5a9" stop-opacity=".95"/><stop offset=".26" stop-color="#a3a5a9" stop-opacity=".82"/><stop offset=".45" stop-color="#a3a5a9" stop-opacity=".6"/><stop offset=".68" stop-color="#a3a5a9" stop-opacity=".3"/><stop offset=".77" stop-color="#a3a5a9" stop-opacity=".16"/><stop offset=".78" stop-color="#a3a5a9" stop-opacity=".12"/><stop offset=".79" stop-color="#a3a5a9" stop-opacity=".05"/><stop offset=".81" stop-color="#a3a5a9" stop-opacity=".01"/><stop offset=".87" stop-color="#a3a5a9" stop-opacity="0"/></linearGradient><path d="M168.3 148C150 182.8 107 196.5 72 178.3c-16.3-8.5-29.2-23.2-34.8-40.8-3-9-4.2-18.5-3.3-28 1.5-19.2 10.7-37 25.5-49.2 30.3-25.2 75.2-21.3 100.3 9 18.4 22.2 21.7 53.2 8.6 78.7zm0 0c4.2-8.2 6.7-17.2 7.5-26.3 3-37.8-25.3-70.8-63.2-73.8-37.8-3-71 25.3-74 63.2-.7 8.3.2 17 2.8 25.2 11 36.3 49.2 56.8 85.7 45.8 8.8-2.7 17-7.2 24-13 6.8-5.7 12.8-13.1 17.2-21.1z" fill="url(#SVGID_2_)"/></g><g id="Middle-Ovals"><ellipse id="Oval-guide-2" transform="rotate(-64.539 105.922 115.646)" class="st3" cx="105.9" cy="115.6" rx="70" ry="70"/><g id="Oval-2"><circle class="st1" cx="51.9" cy="72" r="9.2"/><path class="st2" d="M51.9 64.9c4 0 7.3 3.2 7.3 7.3s-3.2 7.3-7.3 7.3-7.3-3.2-7.3-7.3c.2-4.2 3.3-7.3 7.3-7.3m0-3.9c-6.2 0-11 4.8-11 11s4.8 11 11 11 11-4.8 11-11c0-6-5-11-11-11z"/></g></g></g><g id="Outer-Ring"><g id="Outer-Orbit"><linearGradient id="SVGID_3_" gradientUnits="userSpaceOnUse" x1="19.405" y1="-842.082" x2="189.19" y2="-889.121" gradientTransform="matrix(1 0 0 -1 1.55 -749.88)"><stop offset="0" stop-color="#a3a5a9"/><stop offset=".19" stop-color="#a3a5a9" stop-opacity=".98"/><stop offset=".33" stop-color="#a3a5a9" stop-opacity=".92"/><stop offset=".45" stop-color="#a3a5a9" stop-opacity=".83"/><stop offset=".57" stop-color="#a3a5a9" stop-opacity=".69"/><stop offset=".68" stop-color="#a3a5a9" stop-opacity=".52"/><stop offset=".79" stop-color="#a3a5a9" stop-opacity=".3"/><stop offset=".85" stop-color="#a3a5a9" stop-opacity=".16"/><stop offset=".86" stop-color="#a3a5a9" stop-opacity=".12"/><stop offset=".88" stop-color="#a3a5a9" stop-opacity=".05"/><stop offset=".91" stop-color="#a3a5a9" stop-opacity=".01"/><stop offset="1" stop-color="#a3a5a9" stop-opacity="0"/></linearGradient><path d="M188.4 138.5c-12.7 46.3-60.7 73.3-106.7 60.5-33.8-9.2-58.7-37.8-63.2-72.5-3-23.3 3.3-46.7 17.8-64.8 29.8-37.7 84.3-44 122-14.3 27.6 21.5 39.5 57.5 30.1 91.1zm0 0c3-10.8 3.7-22.2 2.5-33.2-6-46-48.3-78.7-94.3-73-.2 0-.5 0-.7.2-46 6.3-78.3 48.8-72 95 4.5 32.8 28 60 59.8 69.3 33 9.7 68.5-1.7 89.8-28.5 6.8-8.8 11.8-18.9 14.9-29.8z" fill="url(#SVGID_3_)"/></g><g id="Outer-Ovals"><g id="Oval-small"><ellipse id="Oval-guide-3" transform="rotate(-64.539 105.922 115.646)" class="st3" cx="105.9" cy="115.6" rx="85.5" ry="85.5"/><g id="Oval2"><g id="Oval2-background"><circle class="st2" cx="143.3" cy="192" r="6.2"/><path class="st2" d="M143.3 187.7c2.5 0 4.3 1.8 4.3 4.3s-1.8 4.3-4.3 4.3-4.3-1.8-4.3-4.3 2.1-4.3 4.3-4.3m0-3.7c-4.5 0-8 3.5-8 8s3.5 8 8 8 8-3.5 8-8-3.5-8-8-8z"/></g><circle id="Oval2-yellow" cx="143.3" cy="192" r="4.3" opacity=".35" fill="#f1c161"/></g></g><g id="Oval-large"><ellipse id="Oval-guide-4" transform="rotate(-64.539 105.922 115.646)" class="st3" cx="105.9" cy="115.6" rx="85.5" ry="85.5"/><g id="Oval1"><g id="Oval1-background"><path class="st2" d="M118.9 39.7c-4.3 0-7.8-3.7-7.8-8 0-3.7 2.8-6.8 6.5-7.7 4.3-.7 8.3 2.2 9 6.5.7 4.3-2.2 8.3-6.5 9-.2.2-.5.2-1.2.2z"/><path class="st2" d="M119.3 25.9c3.3 0 6 2.8 6 6.2 0 2.8-2 5.2-5 5.8h-1c-3.3 0-6-2.8-6-6.2 0-2.8 2-5.2 5-5.8h1m0-3.7c-.5 0-1.2 0-1.5.2-2.7.3-4.8 1.7-6.3 3.7s-2 4.7-1.7 7.3c.7 4.8 4.8 8.2 9.5 8.2.5 0 1.2 0 1.5-.2 5.2-1 8.8-6 7.8-11.2-.8-4.7-4.7-8-9.3-8z"/></g><ellipse transform="rotate(-9.249 119.258 31.885)" class="st1" cx="119.3" cy="31.9" rx="6" ry="6" id="Oval1-yellow" opacity=".7"/></g></g></g></g><path id="Shape" class="st8" d="M111.8 108.5V132h-3.5v-31.5h2l18 24-.4-23.6h3.9v31.5h-2.4z"/><path id="Shape-2" class="st8" d="M142.3 100.5h16.8v3.4h-13.2v10.3h12.4v3.5h-12.4V129h13.4v3.4h-17z"/><path id="Shape-3" class="st8" d="M178.4 116.2l-9.6-15.7h4.6l7.5 12.7 8-12.7h4.2l-10.2 15.4 10.5 16.5h-4.5l-8-12.7-8.8 12.7h-4.2z"/><path id="Shape-4" class="st8" d="M223.3 103.9h-9.7v28.5h-4v-28.5h-9.7v-3.4h23.4z"/><path id="Shape-6" class="st8" d="M276.6 100.5h16.8v3.4h-13.3v10.3h12.1v3.5h-12.1V129h13.5v3.4h-17z"/><path id="Shape-7" class="st8" d="M338.4 100.5h17v3.4h-13.3v10.3h12v3.5h-12V129h13.5v3.4h-17.2z"/><path id="Shape-9" class="st8" d="M414.4 123.5h-11.5l-3.2 8.8h-3.5l12-31.8h1.7l12 31.8h-4.2l-3.3-8.8zm-10.2-3.1h9.2l-4.5-13.2-4.7 13.2z"/><path id="Shape-10" class="st8" d="M447.1 103.9h-9.7v28.5h-4v-28.5h-9.7v-3.4h23.4z"/><path id="Shape-11" class="st8" d="M455.7 100.5h4.2v31.9h-4.2z"/><path id="Shape-19" class="st8" d="M366.1 143h19.1v5.5h-13v7.5h11.7v5.7h-11.7v7.8h13.2v5.5h-19.3z"/><path id="Shape-20" class="st8" d="M419.6 148.5h-9.9v26.4h-6.3v-26.4h-9.5V143h25.7z"/><path id="Shape-21" class="st8" d="M436.9 162.2l6.7-19.2h4.1l5.9 19.2 4.3-19.2h6.3l-8.5 31.9h-4.1l-6.4-20.4-6.5 20.4h-4.3l-8.5-31.9h6.5z"/><path id="Shape-23" class="st8" d="M540.2 161.7h-1.3V175h-6.5v-31.6h6.5v14.1l10.5-14.1h7.1l-11.8 15.1 13.2 16.5H550z"/><path id="Shape-24" class="st8" d="M307.9 108.5V132h-3.5v-31.5h2l18 24-.2-23.6h3.5v31.5h-2z"/><path id="Shape-25" class="st8" d="M510.6 108.5V132h-3.9v-31.5h2.4l17.8 24-.2-23.6h3.5v31.5h-2.1z"/><path id="Shape-26" class="st8" d="M341.9 158.5l-2-2.8v19.2h-5.7V143h4.2l11.7 17 1.6 2.4v-19.2h5.9V175h-4.4z"/><path class="st8" d="M468.2 159.2c0-5.2 1.2-9.3 3.5-12.2s5.7-4.3 9.8-4.3c2.2 0 4.2.3 5.8 1.2 1.7.8 3 1.8 4.2 3.3 1.2 1.5 2 3.2 2.5 5.2s.8 4.2.8 6.7c0 5.3-1.2 9.3-3.5 12.2-2.3 2.8-5.7 4.3-9.8 4.3-2.3 0-4.3-.3-6-1.2s-3-1.8-4.2-3.3-1.8-3.2-2.5-5.2c-.4-2-.6-4.2-.6-6.7zm6.5 0c0 1.7.2 3 .3 4.3s.7 2.5 1.2 3.5 1.3 1.7 2.2 2.3c.8.5 1.8.8 3.2.8 2.2 0 3.8-.8 5.2-2.5s1.8-4.5 1.8-8.3c0-1.5-.2-3-.3-4.3-.3-1.3-.7-2.5-1.2-3.5s-1.2-1.8-2.2-2.3c-.8-.5-2-.8-3.2-.8-2.2 0-3.8.8-5.2 2.7-1.3 1.6-1.8 4.4-1.8 8.1zm-220.3-42.5h10.5v13.8c-.5.3-1 .7-1.7 1-.7.3-1.3.5-2.2.8-.8.2-1.5.3-2.3.5-.8.2-1.7.2-2.3.2-2 0-3.8-.3-5.5-1s-3.2-1.7-4.3-3c-1.2-1.3-2.2-3-2.8-5.2-.7-2-1-4.5-1-7.3s.5-5.3 1.3-7.5c.8-2 2-3.8 3.3-5 1.3-1.3 2.8-2.3 4.5-2.8 1.7-.7 3.3-.8 5-.8 1.8 0 3.3.2 4.5.3 1.2.2 2.2.5 3 .8l-1 3.3c-1.5-.7-3.5-1-6.2-1-1.3 0-2.5.2-3.8.7-1.2.5-2.3 1.2-3.3 2.2-1 1-1.8 2.3-2.5 4-.7 1.7-1 3.7-1 6.2 0 2.2.3 4.2.8 5.8.5 1.7 1.2 3 2.2 4 .8 1 2 1.8 3.3 2.3 1.3.5 2.7.8 4.2.8 1.8 0 3.5-.3 4.8-1.2v-8.8h-7.3l-.2-3.1zm111.8-15.8c1.2-.2 2.5-.3 4-.5s2.8-.2 4-.2c1.3 0 2.7.2 4 .5 1.3.3 2.3.8 3.3 1.5s1.7 1.7 2.3 2.7c.7 1 .8 2.5.8 4 0 2.5-.7 4.5-2 6s-2.8 2.2-4.2 2.7l1.3 2.2 7.8 12.5h-4.3l-8.7-13.7h-4.3V132H366v-31.1zm8.2 2.6H372c-.3 0-.8 0-1.2.2-.3 0-.7 0-.8.2v11.7h3.5c2 0 3.8-.5 5.2-1.5 1.3-1 2-2.7 2-4.8 0-1.7-.5-3-1.7-4s-2.6-1.8-4.6-1.8zm128 40.2c5.7-1 15.2-2.3 19.3 3 3.2 4.2 2.8 12.2-3.7 14.7 2.5 4.7 5.5 9.2 8 13.5h-7.2l-7.7-13h-2.7v13h-6.2l.2-31.2zm9.5 4.7c-1 0-2.3 0-3.3.2v9.2c2.5 0 5.8.3 7.5-2 1-1.3 1-3.7.3-5.2-1-1.7-2.8-2.2-4.5-2.2zm-41.2-32.2c0-5.2 1.2-9.3 3.3-12 2.2-2.8 5.3-4.2 9.5-4.2 2.2 0 4.2.3 5.8 1.2s3 1.8 4 3.3c1 1.5 1.8 3.2 2.3 5.2.5 2 .8 4.2.8 6.7 0 5.3-1.2 9.3-3.3 12-2.2 2.8-5.5 4.2-9.5 4.2-2.2 0-4.2-.3-5.7-1.2-1.5-.8-3-1.8-4-3.3-1-1.5-1.8-3.2-2.3-5.2-.5-2-.9-4.2-.9-6.7zm4 0c0 1.7.2 3.3.5 5 .3 1.5.8 3 1.7 4.2.7 1.2 1.7 2.2 2.8 2.8 1.2.7 2.5 1 4 1 2.8 0 5-1 6.5-3.2 1.7-2.2 2.3-5.3 2.3-9.8 0-1.7-.2-3.3-.5-5-.3-1.5-.8-3-1.7-4.2-.7-1.2-1.7-2.2-2.8-2.8-1.2-.7-2.5-1-4-1-2.8 0-5 1-6.5 3.2s-2.3 5.5-2.3 9.8z"/><path id="Shape-13_1_" class="st8" d="M157.6 143.5h6v20.3c0 1.8-.2 3.5-1 5.3-.5 1.3-1.3 2.7-2.5 3.5-1 1-2.2 1.7-3.5 2-1.5.3-3.2.5-4.7.5-8 0-12.2-3.5-12.2-10.8v-20.8h6.2v19.7c.3 5.7 4 6.8 6 6.8s5-1.2 5.7-6.5v-20z"/><path id="Shape-15_1_" class="st8" d="M218.9 175.2h-19v-32h6v26.5h13z"/><path id="Shape-16_1_" class="st8" d="M227.6 143.2h19v5.5h-12.8v7.5h11.4v5.7h-11.4v7.8h12.9v5.5h-19.1z"/><path id="Shape-17_1_" class="st8" d="M271.7 168h-9.8l-2.2 7.2h-6.3l11.5-31.8h4.7l11.3 31.8h-6.5l-2.7-7.2zm-8.3-4.8h6.8l-3.2-11-3.6 11z"/><g id="LetterN_1_"><path id="Shape-28_1_" class="st8" d="M115.8 158.7l-1.9-2.8V175h-5.6v-31.8h4.1l11.9 17 1.6 2.3v-19.1h5.9v31.8h-4.4z"/></g><path class="st8" d="M192.3 173.4c-1 .7-2.2 1.2-3.7 1.5-1.5.3-3 .5-4.5.5-1.8 0-3.7-.3-5.3-.8-1.7-.7-3.2-1.5-4.5-2.8-1.3-1.3-2.3-3-3-5.2s-1.2-4.7-1.2-7.5c0-3.2.5-5.7 1.3-7.8.8-2.2 2-3.8 3.3-5 1.3-1.3 2.8-2.2 4.5-2.7s3.3-.8 5-.8c1.8 0 3.3.2 4.5.3 1.2.2 2.3.5 3 .8l-1.2 5.2c-.7-.3-1.5-.5-2.5-.7-1-.2-2.2-.2-3.5-.2-2.5 0-4.5.8-6 2.7-1.5 1.8-2.3 4.5-2.3 8.3 0 1.7.2 3.2.5 4.5s.8 2.5 1.7 3.5c.7 1 1.7 1.7 2.7 2.2 1.2.5 2.3.8 3.8.8 1.3 0 2.5-.2 3.5-.3 1-.3 1.7-.7 2.5-1l1.4 4.5zm94.9-29.4c5.7-1 15.2-2.3 19.3 3 3.2 4.2 2.8 12.2-3.7 14.7 2.5 4.7 5.5 9.2 8 13.5h-7.2l-7.7-13h-2.7v13H287V144zm9.5 4.9c-1 0-2.3 0-3.3.2v9.2c2.5 0 5.8.3 7.5-2 1-1.3 1-3.7.3-5.2-1-1.7-2.8-2.2-4.5-2.2z"/></g></svg>