<svg xmlns="http://www.w3.org/2000/svg" viewBox="0 0 273.55 83.58"><defs><clipPath id="a"><path d="M44 39.92a2.71 2.71 0 0 0-2.66-.69L13.73 12.59l-1.9 1.9 27.64 26.64A2.73 2.73 0 1 0 44 39.92" fill="none" clip-rule="evenodd"/></clipPath></defs><g data-name="Layer 2"><g data-name="Layer 1"><g clip-path="url(#a)"><path fill="#f05e39" d="M6.83 6.59h43v43h-43z"/></g><path d="M53.69 41.79a12.82 12.82 0 0 1-.86 4.72 10.95 10.95 0 0 1-6.17 6.25 13.6 13.6 0 0 1-9.73 0 11 11 0 0 1-6.19-6.25 13.53 13.53 0 0 1 0-9.44 11.18 11.18 0 0 1 2.43-3.75 11.43 11.43 0 0 1 3.76-2.49 13.6 13.6 0 0 1 9.73 0 11.26 11.26 0 0 1 3.75 2.5 11.1 11.1 0 0 1 2.42 3.76 12.71 12.71 0 0 1 .86 4.7zm-4.92 0a10.43 10.43 0 0 0-.48-3.28 7 7 0 0 0-1.38-2.46 5.8 5.8 0 0 0-2.19-1.55 8.19 8.19 0 0 0-5.85 0 5.76 5.76 0 0 0-2.2 1.55 6.89 6.89 0 0 0-1.39 2.46 11.48 11.48 0 0 0 0 6.57 6.76 6.76 0 0 0 1.39 2.45 5.87 5.87 0 0 0 2.2 1.55 8.34 8.34 0 0 0 5.85 0 5.91 5.91 0 0 0 2.19-1.55 6.89 6.89 0 0 0 1.38-2.45 10.49 10.49 0 0 0 .48-3.29zm28.97-11.61v23.23h-2.48a2 2 0 0 1-.94-.19 2.25 2.25 0 0 1-.76-.63L62 37.87c0 .37.06.74.07 1.1s0 .7 0 1v13.44h-4.22V30.18h2.53a3.94 3.94 0 0 1 .52 0 1 1 0 0 1 .39.11 1.5 1.5 0 0 1 .33.23 3.59 3.59 0 0 1 .36.39l11.65 14.81c0-.4-.08-.79-.1-1.17s0-.74 0-1.08V30.18zM107 34.06h-6.79v19.35h-4.86V34.06h-6.79v-3.88H107zm23.38-3.88v23.23h-4.83v-10h-10.23v10h-4.83V30.18h4.83V40h10.23v-9.82zM140.72 34v6h7.74v3.64h-7.74v6.1h9.95v3.76h-14.79V30.18h14.79V34zm40.94 19.41h-4.34a1.88 1.88 0 0 1-1.76-.93l-4.42-7.12a1.84 1.84 0 0 0-.6-.61 1.94 1.94 0 0 0-1-.19h-1.63v8.85h-4.8V30.18h7.3a14.82 14.82 0 0 1 4.16.51 7.89 7.89 0 0 1 2.83 1.4 5.33 5.33 0 0 1 1.62 2.14 7 7 0 0 1 .51 2.72 7.17 7.17 0 0 1-.33 2.19 6.4 6.4 0 0 1-.95 1.88 6.87 6.87 0 0 1-1.54 1.5 8 8 0 0 1-2.08 1.06 4.76 4.76 0 0 1 .87.62 4.68 4.68 0 0 1 .72.85zM170.4 41.18a6.05 6.05 0 0 0 2-.3 3.7 3.7 0 0 0 1.39-.81 3.12 3.12 0 0 0 .8-1.23 4.47 4.47 0 0 0 .26-1.53 3.14 3.14 0 0 0-1.1-2.56 5.11 5.11 0 0 0-3.33-.92h-2.5v7.35zm34.49 12.23h-3.72a1.63 1.63 0 0 1-1-.3 1.74 1.74 0 0 1-.58-.76L198 47.92h-9.25l-1.57 4.43a1.91 1.91 0 0 1-.56.73 1.55 1.55 0 0 1-1 .33h-3.76l9.07-23.23h4.92zm-8.06-8.82l-2.51-7.11c-.15-.37-.31-.81-.48-1.31s-.32-1.05-.47-1.63c-.15.6-.31 1.15-.47 1.65s-.32 1-.47 1.32l-2.5 7.08zm31.67-2.8a12.33 12.33 0 0 1-.86 4.68 10.61 10.61 0 0 1-2.41 3.67 10.88 10.88 0 0 1-3.75 2.4 13.15 13.15 0 0 1-4.87.87h-8.93V30.18h8.93a13.15 13.15 0 0 1 4.87.87 11 11 0 0 1 3.75 2.41 10.7 10.7 0 0 1 2.41 3.67 12.19 12.19 0 0 1 .86 4.66zm-4.93 0a10.43 10.43 0 0 0-.48-3.28 7 7 0 0 0-1.37-2.51 6 6 0 0 0-2.19-1.55 7.49 7.49 0 0 0-2.92-.54h-4.1v15.7h4.1a7.49 7.49 0 0 0 2.92-.54 5.91 5.91 0 0 0 2.19-1.55 7.08 7.08 0 0 0 1.37-2.48 10.49 10.49 0 0 0 .48-3.25zm28.68 11.62h-3.73a1.62 1.62 0 0 1-1-.3 1.77 1.77 0 0 1-.59-.76l-1.57-4.43h-9.26l-1.57 4.43a1.73 1.73 0 0 1-.56.73 1.51 1.51 0 0 1-1 .33h-3.77l9.08-23.23h4.91zm-8.06-8.82l-2.52-7.11c-.15-.37-.3-.81-.47-1.31s-.32-1.05-.47-1.63c-.15.6-.31 1.15-.47 1.65s-.33 1-.48 1.32l-2.49 7.08zm29.36 8.82h-4.33a1.9 1.9 0 0 1-1.77-.93L263 45.36a1.84 1.84 0 0 0-.6-.61 1.94 1.94 0 0 0-1-.19h-1.63v8.85H255V30.18h7.29a14.9 14.9 0 0 1 4.17.51 7.89 7.89 0 0 1 2.83 1.4 5.4 5.4 0 0 1 1.61 2.14 6.87 6.87 0 0 1 .52 2.72 7.17 7.17 0 0 1-.33 2.19 6.65 6.65 0 0 1-.95 1.88 6.87 6.87 0 0 1-1.54 1.5 8 8 0 0 1-2.08 1.06 4.37 4.37 0 0 1 .86.62 4 4 0 0 1 .72.85zM262.3 41.18a6.1 6.1 0 0 0 2-.3 3.78 3.78 0 0 0 1.39-.81 3.24 3.24 0 0 0 .8-1.23 4.47 4.47 0 0 0 .26-1.53 3.14 3.14 0 0 0-1.1-2.56 5.12 5.12 0 0 0-3.34-.92h-2.49v7.35z" fill="#fff"/><path d="M56.53 57.26a21.39 21.39 0 1 1 0-30.93h7.84a27.39 27.39 0 1 0 0 30.93z" fill="#f05e39"/><path d="M74.06 57.26a35.78 35.78 0 1 1 0-30.93h6.54a41.8 41.8 0 1 0 0 30.93z" fill="#f05e39"/></g></g></svg>