<svg height="40" viewBox="0 0 40 40" width="40" xmlns="http://www.w3.org/2000/svg"><g fill="none" fill-rule="evenodd"><circle cx="20" cy="20" fill="#f05e39" r="20"/><path d="m20.4285714 13.8154704c-1.1177894-2.223296-3.4261598-3.7496339-6.0924401-3.7496339-3.5699791 0-6.49831509 2.7363421-6.78628321 6.2182017h-.01802595c-.3133997 0-.56746031.2530565-.56746031.5652174 0 .312161.25406061.5652174.56746031.5652174h.01816021c.28874276 3.4810879 3.21672385 6.2165809 6.78614895 6.2165809 1.3521168 0 2.6121907-.3925253 3.6716294-1.0694126-.096405.2437933-.0783827.5285774.0736557.7665505l1.7069885 2.6718082h-19.22094458c-.31339968 0-.56746032-.2530565-.56746032-.5652174v-24.86956521c0-.31216094.25406064-.56521739.56746032-.56521739h19.29365078c.3133997 0 .5674603.25305645.5674603.56521739zm0 6.0659495v3.9622085l-.9109218-1.4257907c-.1748104-.2736162-.4809383-.4135831-.7843959-.3902432.7008769-.5909474 1.2801992-1.3204991 1.6953177-2.1461746zm-16.44888462-15.36059891c-.31339968 0-.56746031.25305645-.56746031.56521739 0 .31216095.25406063.56521739.56746031.56521739h12.48412692c.3133998 0 .5674604-.25305644.5674604-.56521739 0-.31216094-.2540606-.56521739-.5674604-.56521739zm0 2.78582828c-.31339968 0-.56746031.25305641-.56746031.56521739 0 .31216091.25406063.56521739.56746031.56521739h12.48412692c.3133998 0 .5674604-.25305648.5674604-.56521739 0-.31216098-.2540606-.56521739-.5674604-.56521739zm-.00550836 2.78582823c-.31339968 0-.56746031.2530565-.56746031.5652174s.25406063.5652174.56746031.5652174h4.53968255c.31339965 0 .56746032-.2530565.56746032-.5652174s-.25406067-.5652174-.56746032-.5652174zm-.00157381 2.7858283c-.31339968 0-.56746032.2530564-.56746032.5652173 0 .312161.25406064.5652174.56746032.5652174h2.26984129c.31339965 0 .56746032-.2530564.56746032-.5652174 0-.3121609-.25406067-.5652173-.56746032-.5652173zm4.71702282 4.5361672h2.31393627l.9230852-1.8388733 1.6609189 5.7902391 2.7497656-4.5648283 1.0942609 1.7438973h2.3190999c-.7233453 2.2927288-2.8739783 3.9557113-5.4145629 3.9557113-2.942201 0-5.36141827-2.2303087-5.64650387-5.0861461zm-.00016161-1.1304348c.28433178-2.8566143 2.70390788-5.0877669 5.64666548-5.0877669 3.1339968 0 5.6746032 2.5305644 5.6746032 5.6521739 0 .1910377-.0095153.3798618-.0280994.5660278h-1.9220137l-1.7430406-2.7778418-2.3573773 3.9134326-1.7438431-6.0793261-1.9142163 3.8133005z" fill="#fff" fill-rule="nonzero" transform="translate(10.227574 6.511628)"/></g></svg>