<svg height="40" viewBox="0 0 40 40" width="40" xmlns="http://www.w3.org/2000/svg"><g fill="none" fill-rule="evenodd"><circle cx="20" cy="20" fill="#f05e39" r="20"/><path d="m3.78571429 0h18.42857141c.5522848 0 1 .44771525 1 1v24c0 .5522847-.4477152 1-1 1h-18.42857141c-.55228475 0-1-.4477153-1-1v-24c0-.55228475.44771525-1 1-1zm3.25595238 4.64285714c-.29915424 0-.54166667.24251243-.54166667.54166667s.24251243.54166667.54166667.54166667h11.91666663c.2991543 0 .5416667-.24251243.5416667-.54166667s-.2425124-.54166667-.5416667-.54166667zm0 2.70833334c-.29915424 0-.54166667.24251242-.54166667.54166666s.24251243.54166667.54166667.54166667h11.91666663c.2991543 0 .5416667-.24251243.5416667-.54166667s-.2425124-.54166666-.5416667-.54166666zm0 2.70833332c-.29915424 0-.54166667.2425124-.54166667.5416667 0 .2991542.24251243.5416666.54166667.5416666h11.91666663c.2991543 0 .5416667-.2425124.5416667-.5416666 0-.2991543-.2425124-.5416667-.5416667-.5416667z" fill="#fff" transform="translate(7.44186 6.511628)"/></g></svg>