<?xml version="1.0" encoding="UTF-8"?>
<svg width="40px" height="40px" viewBox="0 0 40 40" version="1.1" xmlns="http://www.w3.org/2000/svg" xmlns:xlink="http://www.w3.org/1999/xlink">
    <!-- Generator: Sketch 56.1 (81669) - https://sketch.com -->
    <title>icons/area final</title>
    <desc>Created with Sketch.</desc>
    <g id="icons/area-final" stroke="none" stroke-width="1" fill="none" fill-rule="evenodd">
        <g id="icon/areas/final" fill="#9AA3AA">
            <path d="M20,31.4285714 C13.6881743,31.4285714 8.57142857,26.3118257 8.57142857,20 C8.57142857,13.6881743 13.6881743,8.57142857 20,8.57142857 C26.3118257,8.57142857 31.4285714,13.6881743 31.4285714,20 C31.4285714,26.3118257 26.3118257,31.4285714 20,31.4285714 Z M20,27.1428571 C23.9448911,27.1428571 27.1428571,23.9448911 27.1428571,20 C27.1428571,16.0551089 23.9448911,12.8571429 20,12.8571429 C16.0551089,12.8571429 12.8571429,16.0551089 12.8571429,20 C12.8571429,23.9448911 16.0551089,27.1428571 20,27.1428571 Z" id="Combined-Shape"></path>
            <path d="M20,40 C8.954305,40 0,31.045695 0,20 C0,8.954305 8.954305,0 20,0 C31.045695,0 40,8.954305 40,20 C40,31.045695 31.045695,40 20,40 Z M20,35.7142857 C28.6787604,35.7142857 35.7142857,28.6787604 35.7142857,20 C35.7142857,11.3212396 28.6787604,4.28571429 20,4.28571429 C11.3212396,4.28571429 4.28571429,11.3212396 4.28571429,20 C4.28571429,28.6787604 11.3212396,35.7142857 20,35.7142857 Z" id="Combined-Shape"></path>
        </g>
    </g>
</svg>