<svg height="40" viewBox="0 0 40 40" width="40" xmlns="http://www.w3.org/2000/svg"><g fill="#d6d9db" fill-rule="evenodd" opacity=".7"><path d="m20 31.4285714c-6.3118257 0-11.42857143-5.1167457-11.42857143-11.4285714s5.11674573-11.42857143 11.42857143-11.42857143 11.4285714 5.11674573 11.4285714 11.42857143-5.1167457 11.4285714-11.4285714 11.4285714zm0-4.2857143c3.9448911 0 7.1428571-3.197966 7.1428571-7.1428571s-3.197966-7.1428571-7.1428571-7.1428571-7.1428571 3.197966-7.1428571 7.1428571 3.197966 7.1428571 7.1428571 7.1428571z"/><path d="m20 40c-11.045695 0-20-8.954305-20-20s8.954305-20 20-20 20 8.954305 20 20-8.954305 20-20 20zm0-4.2857143c8.6787604 0 15.7142857-7.0355253 15.7142857-15.7142857s-7.0355253-15.71428571-15.7142857-15.71428571-15.71428571 7.03552531-15.71428571 15.71428571 7.03552531 15.7142857 15.71428571 15.7142857z"/></g></svg>