<svg width="40" height="40" viewBox="0 0 40 40" fill="none" xmlns="http://www.w3.org/2000/svg">
<path fill-rule="evenodd" clip-rule="evenodd" d="M31.4284 19.9999C31.4284 26.3117 26.3117 31.4284 19.9999 31.4284C13.688 31.4284 8.57129 26.3117 8.57129 19.9999C8.57129 13.688 13.688 8.57129 19.9999 8.57129C26.3117 8.57129 31.4284 13.688 31.4284 19.9999ZM27.1427 19.9999C27.1427 23.9448 23.9448 27.1427 19.9999 27.1427C16.055 27.1427 12.857 23.9448 12.857 19.9999C12.857 16.055 16.055 12.857 19.9999 12.857C23.9448 12.857 27.1427 16.055 27.1427 19.9999Z" fill="#F05E39"/>
<path fill-rule="evenodd" clip-rule="evenodd" d="M40 20C40 31.0457 31.0457 40 20 40C8.95431 40 0 31.0457 0 20C0 8.95431 8.95431 0 20 0C31.0457 0 40 8.95431 40 20ZM35.7143 20C35.7143 28.6788 28.6788 35.7143 20 35.7143C11.3212 35.7143 4.28571 28.6788 4.28571 20C4.28571 11.3212 11.3212 4.28571 20 4.28571C28.6788 4.28571 35.7143 11.3212 35.7143 20Z" fill="#F05E39"/>
</svg>
