<svg height="40" viewBox="0 0 40 40" width="40" xmlns="http://www.w3.org/2000/svg"><g fill="none" fill-rule="evenodd"><circle cx="20" cy="20" fill="#f05e39" r="20"/><path d="m.36111111 14.9361702h25.27777779c.1994361 0 .3611111.1592179.3611111.3556231v1.0668693c0 .1964052-.161675.3556231-.3611111.3556231h-25.27777779c-.19943616 0-.36111111-.1592179-.36111111-.3556231v-1.0668693c0-.1964052.16167495-.3556231.36111111-.3556231zm10.11111109-2.0211717v-2.6019286c0-.58921562-.48502485-1.06686929-1.08333331-1.06686929h-2.70833333-2.70833334c-.59830848 0-1.08333333.47765367-1.08333333 1.06686929v2.7257594l-.19002528-.0857054c-1.43196114-.6458446-2.02240277-2.2349292-1.31878829-3.54931988.0378077-.07062689.0790218-.13967396.1235199-.2069362l1.00576858-1.52029515c.52386511-.79186165 1.45998167-1.27535686 2.46927509-1.27535686h3.13254558c1.00929342 0 1.94540993.48349521 2.46927513 1.27535686l1.0057685 1.52029515c.8281251 1.25177348.393921 2.88274548-.969822 3.64287768-.0472721.0263488-.0953534.0514432-.1441838.075253zm-3.9722222-7.2250289c-1.59548928 0-2.88888889-1.27374308-2.88888889-2.8449848s1.29339961-2.8449848 2.88888889-2.8449848 2.88888889 1.27374308 2.88888889 2.8449848-1.29339961 2.8449848-2.88888889 2.8449848zm-2.16666667 4.26747721h2.34722223 2.34722222c.39887232 0 .72222222.31843579.72222222.71124619v3.556231h-6.13888889v-3.556231c0-.3928104.3233499-.71124619.72222222-.71124619zm19.13888887 2.95755169v-2.6019286c0-.58921562-.4850249-1.06686929-1.0833333-1.06686929h-2.7083333-2.7083334c-.5983084 0-1.0833333.47765367-1.0833333 1.06686929v2.7257594l-.1900253-.0857054c-1.4319611-.6458446-2.0224028-2.2349292-1.3187883-3.54931988.0378077-.07062689.0790218-.13967396.1235199-.2069362l1.0057686-1.52029515c.5238651-.79186165 1.4599817-1.27535686 2.4692751-1.27535686h3.1325456c1.0092934 0 1.9454099.48349521 2.4692751 1.27535686l1.0057685 1.52029515c.8281251 1.25177348.393921 2.88274548-.969822 3.64287768-.0472721.0263488-.0953534.0514432-.1441838.075253zm-3.9722222-7.2250289c-1.5954893 0-2.8888889-1.27374308-2.8888889-2.8449848s1.2933996-2.8449848 2.8888889-2.8449848 2.8888889 1.27374308 2.8888889 2.8449848-1.2933996 2.8449848-2.8888889 2.8449848zm-2.1666667 4.26747721h2.3472223 2.3472222c.3988723 0 .7222222.31843579.7222222.71124619v3.556231h-6.1388889v-3.556231c0-.3928104.3233499-.71124619.7222222-.71124619z" fill="#fff" fill-rule="nonzero" transform="translate(7.44186 11.154485)"/></g></svg>