<?xml version="1.0" encoding="UTF-8"?>
<svg width="40px" height="40px" viewBox="0 0 40 40" version="1.1" xmlns="http://www.w3.org/2000/svg" xmlns:xlink="http://www.w3.org/1999/xlink">
    <!-- Generator: Sketch 56.1 (81669) - https://sketch.com -->
    <title>icons/area desc</title>
    <desc>Created with Sketch.</desc>
    <g id="icons/area-desc" stroke="none" stroke-width="1" fill="none" fill-rule="evenodd">
        <path d="M20,40 C8.954305,40 0,31.045695 0,20 C0,8.954305 8.954305,0 20,0 C31.045695,0 40,8.954305 40,20 C40,31.045695 31.045695,40 20,40 Z M7.36111111,26.5790274 C7.16167495,26.5790274 7,26.7382453 7,26.9346505 L7,28.0015198 C7,28.197925 7.16167495,28.3571429 7.36111111,28.3571429 L32.6388889,28.3571429 C32.838325,28.3571429 33,28.197925 33,28.0015198 L33,26.9346505 C33,26.7382453 32.838325,26.5790274 32.6388889,26.5790274 L7.36111111,26.5790274 Z M17.4722223,24.5578556 C17.5210527,24.5340458 17.569134,24.5089515 17.6164061,24.4826026 C18.9801491,23.7224704 19.4143532,22.0914985 18.5862281,20.839725 L17.5804596,19.3194298 C17.0565944,18.5275682 16.1204779,18.0440729 15.1111845,18.0440729 L11.9786389,18.0440729 C10.9693455,18.0440729 10.0332289,18.5275682 9.5093638,19.3194298 L8.50359522,20.839725 C8.45909712,20.9069872 8.41788303,20.9760343 8.38007532,21.0466612 C7.67646084,22.3610518 8.26690247,23.9501364 9.69886361,24.595981 L9.88888889,24.6816864 L9.88888889,21.9559271 C9.88888889,21.3667114 10.3739137,20.8890578 10.9722222,20.8890578 L13.6805556,20.8890578 L16.3888889,20.8890578 C16.9871973,20.8890578 17.4722222,21.3667114 17.4722222,21.9559271 L17.4722222,24.5578556 Z M13.5,17.3328267 C15.0954893,17.3328267 16.3888889,16.0590837 16.3888889,14.4878419 C16.3888889,12.9166002 15.0954893,11.6428571 13.5,11.6428571 C11.9045107,11.6428571 10.6111111,12.9166002 10.6111111,14.4878419 C10.6111111,16.0590837 11.9045107,17.3328267 13.5,17.3328267 Z M11.3333333,21.600304 C10.934461,21.600304 10.6111111,21.9187397 10.6111111,22.3115502 L10.6111111,25.8677812 L16.75,25.8677812 L16.75,22.3115502 C16.75,21.9187397 16.4266501,21.600304 16.0277778,21.600304 L13.6805556,21.600304 L11.3333333,21.600304 Z M30.4722223,24.5578556 C30.5210527,24.5340458 30.569134,24.5089515 30.6164061,24.4826026 C31.9801491,23.7224704 32.4143532,22.0914985 31.5862281,20.839725 L30.5804596,19.3194298 C30.0565944,18.5275682 29.1204779,18.0440729 28.1111845,18.0440729 L24.9786389,18.0440729 C23.9693455,18.0440729 23.0332289,18.5275682 22.5093638,19.3194298 L21.5035952,20.839725 C21.4590971,20.9069872 21.417883,20.9760343 21.3800753,21.0466612 C20.6764608,22.3610518 21.2669025,23.9501364 22.6988636,24.595981 L22.8888889,24.6816864 L22.8888889,21.9559271 C22.8888889,21.3667114 23.3739138,20.8890578 23.9722222,20.8890578 L26.6805556,20.8890578 L29.3888889,20.8890578 C29.9871973,20.8890578 30.4722222,21.3667114 30.4722222,21.9559271 L30.4722222,24.5578556 Z M26.5,17.3328267 C28.0954893,17.3328267 29.3888889,16.0590837 29.3888889,14.4878419 C29.3888889,12.9166002 28.0954893,11.6428571 26.5,11.6428571 C24.9045107,11.6428571 23.6111111,12.9166002 23.6111111,14.4878419 C23.6111111,16.0590837 24.9045107,17.3328267 26.5,17.3328267 Z M24.3333333,21.600304 C23.934461,21.600304 23.6111111,21.9187397 23.6111111,22.3115502 L23.6111111,25.8677812 L29.75,25.8677812 L29.75,22.3115502 C29.75,21.9187397 29.4266501,21.600304 29.0277778,21.600304 L26.6805556,21.600304 L24.3333333,21.600304 Z" id="Combined-Shape" fill="#9AA3AA"></path>
    </g>
</svg>