<?xml version="1.0" encoding="UTF-8"?>
<svg width="40px" height="40px" viewBox="0 0 40 40" version="1.1" xmlns="http://www.w3.org/2000/svg" xmlns:xlink="http://www.w3.org/1999/xlink">
    <!-- Generator: Sketch 56.1 (81669) - https://sketch.com -->
    <title>icons/area desc</title>
    <desc>Created with Sketch.</desc>
    <g id="icons/area-desc" stroke="none" stroke-width="1" fill="none" fill-rule="evenodd">
        <g id="Group-5">
            <circle id="Oval" fill="#F05E39" cx="20" cy="20" r="20"></circle>
            <g id="icon/areas/workshops" transform="translate(7.441860, 6.511628)" fill="#FFFFFF">
                <g id="Group" transform="translate(0.000000, 4.642857)">
                    <path d="M0.361111111,14.9361702 L25.6388889,14.9361702 C25.838325,14.9361702 26,15.0953881 26,15.2917933 L26,16.3586626 C26,16.5550678 25.838325,16.7142857 25.6388889,16.7142857 L0.361111111,16.7142857 C0.161674951,16.7142857 0,16.5550678 0,16.3586626 L0,15.2917933 C0,15.0953881 0.161674951,14.9361702 0.361111111,14.9361702 Z M10.4722222,12.9149985 L10.4722222,10.3130699 C10.4722222,9.72385428 9.98719735,9.24620061 9.38888889,9.24620061 L6.68055556,9.24620061 L3.97222222,9.24620061 C3.37391374,9.24620061 2.88888889,9.72385428 2.88888889,10.3130699 L2.88888889,13.0388293 L2.69886361,12.9531239 C1.26690247,12.3072793 0.676460843,10.7181947 1.38007532,9.40380402 C1.41788302,9.33317713 1.45909712,9.26413006 1.50359522,9.19686782 L2.5093638,7.67657267 C3.03322891,6.88471102 3.96934547,6.40121581 4.97863889,6.40121581 L8.11118447,6.40121581 C9.12047789,6.40121581 10.0565944,6.88471102 10.5804596,7.67657267 L11.5862281,9.19686782 C12.4143532,10.4486413 11.9801491,12.0796133 10.6164061,12.8397455 C10.569134,12.8660943 10.5210527,12.8911887 10.4722223,12.9149985 L10.4722222,12.9149985 Z M6.5,5.6899696 C4.90451072,5.6899696 3.61111111,4.41622652 3.61111111,2.8449848 C3.61111111,1.27374308 4.90451072,0 6.5,0 C8.09548928,0 9.38888889,1.27374308 9.38888889,2.8449848 C9.38888889,4.41622652 8.09548928,5.6899696 6.5,5.6899696 Z M4.33333333,9.95744681 L6.68055556,9.95744681 L9.02777778,9.95744681 C9.4266501,9.95744681 9.75,10.2758826 9.75,10.668693 L9.75,14.224924 L3.61111111,14.224924 L3.61111111,10.668693 C3.61111111,10.2758826 3.93446101,9.95744681 4.33333333,9.95744681 Z M23.4722222,12.9149985 L23.4722222,10.3130699 C23.4722222,9.72385428 22.9871973,9.24620061 22.3888889,9.24620061 L19.6805556,9.24620061 L16.9722222,9.24620061 C16.3739138,9.24620061 15.8888889,9.72385428 15.8888889,10.3130699 L15.8888889,13.0388293 L15.6988636,12.9531239 C14.2669025,12.3072793 13.6764608,10.7181947 14.3800753,9.40380402 C14.417883,9.33317713 14.4590971,9.26413006 14.5035952,9.19686782 L15.5093638,7.67657267 C16.0332289,6.88471102 16.9693455,6.40121581 17.9786389,6.40121581 L21.1111845,6.40121581 C22.1204779,6.40121581 23.0565944,6.88471102 23.5804596,7.67657267 L24.5862281,9.19686782 C25.4143532,10.4486413 24.9801491,12.0796133 23.6164061,12.8397455 C23.569134,12.8660943 23.5210527,12.8911887 23.4722223,12.9149985 L23.4722222,12.9149985 Z M19.5,5.6899696 C17.9045107,5.6899696 16.6111111,4.41622652 16.6111111,2.8449848 C16.6111111,1.27374308 17.9045107,0 19.5,0 C21.0954893,0 22.3888889,1.27374308 22.3888889,2.8449848 C22.3888889,4.41622652 21.0954893,5.6899696 19.5,5.6899696 Z M17.3333333,9.95744681 L19.6805556,9.95744681 L22.0277778,9.95744681 C22.4266501,9.95744681 22.75,10.2758826 22.75,10.668693 L22.75,14.224924 L16.6111111,14.224924 L16.6111111,10.668693 C16.6111111,10.2758826 16.934461,9.95744681 17.3333333,9.95744681 Z" id="Combined-Shape" fill-rule="nonzero"></path>
                </g>
            </g>
        </g>
    </g>
</svg>