<svg height="40" viewBox="0 0 40 40" width="40" xmlns="http://www.w3.org/2000/svg"><g fill="none" fill-rule="evenodd"><circle cx="20" cy="20" fill="#f05e39" r="20"/><path d="m15.3260849 21.3571429.9290893-.4632158c1.5539629-.7747589 3.2381664-1.2475392 4.9649341-1.3937287l2.1167819-.1792084c.2806387-.0237591.4964432-.2608611.4964432-.5454368v-16.61097791-1.09671815h1.6360544c.293049 0 .5306122.23904797.5306122.53392857v19.22142859c0 .2948806-.2375632.5339286-.5306122.5339286zm-4.6521698 0h-10.14330285c-.29304906 0-.53061225-.239048-.53061225-.5339286v-19.19645385c0-.29488061.23756319-.53392857.53061225-.53392857.00808307 0 .0161651 0 .02423974.00055741l1.61181467.0741695v17.60799441c0 .2845757.21580442.5216777.49644316.5454368l2.11678193.1792084c1.72676765.1461895 3.41097113.6189698 4.96493409 1.3937287zm12.1424114-21.3571429v18.5561368l-1.6806394.1395224c-1.9313171.1603331-3.815028.6788537-5.5530703 1.5285688l-2.3173107 1.1329149v-18.33894796l2.6402197-1.3308334c1.6234745-.81833117 3.3857858-1.33184935 5.1978867-1.51460714zm-19.63265303 0 1.71291407.1727544c1.81210082.18275779 3.57441213.69627597 5.19788666 1.51460714l2.6402197 1.3308334v18.33894796l-2.3173107-1.1329149c-1.73804229-.8497151-3.62175317-1.3682357-5.55307024-1.5285688l-1.68063949-.1395224z" fill="#fff" fill-rule="nonzero" transform="translate(7.44186 9.297342)"/></g></svg>