<?xml version="1.0" encoding="utf-8"?>
<!-- Generator: Adobe Illustrator 21.0.0, SVG Export Plug-In . SVG Version: 6.00 Build 0)  -->
<svg version="1.1" id="Layer_1" xmlns="http://www.w3.org/2000/svg" xmlns:xlink="http://www.w3.org/1999/xlink" x="0px" y="0px"
	 viewBox="0 0 575.8 226.8" style="enable-background:new 0 0 575.8 226.8;" xml:space="preserve">
<style type="text/css">
	.st0{fill:url(#SVGID_1_);}
	.st1{fill:#F1C161;}
	.st2{fill:#FFFFFF;}
	.st3{fill:none;}
	.st4{fill:url(#SVGID_2_);}
	.st5{fill:url(#SVGID_3_);}
	.st6{opacity:0.35;fill:#F1C161;enable-background:new    ;}
	.st7{opacity:0.7;}
	.st8{fill:#163553;}
</style>
<g id="Layer_1_1_">
	<title>NGNN-header-logo</title>
	<g id="Inner-Ring">
		<g id="Inner-Orbit">
			
				<linearGradient id="SVGID_1_" gradientUnits="userSpaceOnUse" x1="63.8626" y1="-843.4147" x2="144.8663" y2="-887.7686" gradientTransform="matrix(1 0 0 -1 1.55 -749.88)">
				<stop  offset="0" style="stop-color:#A3A5A9"/>
				<stop  offset="0.22" style="stop-color:#A3A5A9;stop-opacity:0.73"/>
				<stop  offset="0.66" style="stop-color:#A3A5A9;stop-opacity:0.16"/>
				<stop  offset="0.67" style="stop-color:#A3A5A9;stop-opacity:0.12"/>
				<stop  offset="0.7" style="stop-color:#A3A5A9;stop-opacity:5.000000e-02"/>
				<stop  offset="0.74" style="stop-color:#A3A5A9;stop-opacity:1.000000e-02"/>
				<stop  offset="0.87" style="stop-color:#A3A5A9;stop-opacity:0"/>
			</linearGradient>
			<path class="st0" d="M144.3,136.7c-12,21.8-39.2,29.8-61,17.8c-10.3-5.7-17.8-15-21.3-26c-1.8-5.8-2.5-11.8-1.8-17.8
				c1.2-12.2,7.3-23.3,17-30.8c19.3-15.3,47.8-12,63,7.5C151.3,101.5,152.8,121,144.3,136.7L144.3,136.7z M144.3,136.7
				c2.8-5,4.5-10.7,5-16.2c2.2-23.3-14.7-44-38-46.3c-5.8-0.5-11.3,0-17,1.8c-22.3,6.8-34.7,30.8-27.8,53
				c6.8,21.8,29.7,34.3,51.7,28.3c5.3-1.5,10.7-4.2,15.2-7.7S141.4,141.7,144.3,136.7z"/>
		</g>
		<g id="Inner-Oval">
			<g id="Oval">
				<circle class="st1" cx="61.9" cy="112.5" r="7.8"/>
				<path class="st2" d="M61.9,106.7c3.3,0,6,2.7,6,6s-2.7,6-6,6s-6-2.7-6-6S58.8,106.7,61.9,106.7L61.9,106.7 M61.9,102.9
					c-5.3,0-9.7,4.3-9.7,9.7c0,5.3,4.3,9.7,9.7,9.7s9.7-4.3,9.7-9.7C71.6,107.2,67.3,102.9,61.9,102.9z"/>
			</g>
			
				<ellipse id="Oval-guide" transform="matrix(0.4299 -0.9029 0.9029 0.4299 -44.0303 161.5665)" class="st3" cx="105.9" cy="115.6" rx="43.7" ry="43.7"/>
		</g>
	</g>
	<g id="Middle-Ring">
		<g id="Middle-Orbit">
			
				<linearGradient id="SVGID_2_" gradientUnits="userSpaceOnUse" x1="40.0094" y1="-832.1312" x2="168.8919" y2="-898.9041" gradientTransform="matrix(1 0 0 -1 1.55 -749.88)">
				<stop  offset="0" style="stop-color:#A3A5A9"/>
				<stop  offset="0.1" style="stop-color:#A3A5A9;stop-opacity:0.95"/>
				<stop  offset="0.26" style="stop-color:#A3A5A9;stop-opacity:0.82"/>
				<stop  offset="0.45" style="stop-color:#A3A5A9;stop-opacity:0.6"/>
				<stop  offset="0.68" style="stop-color:#A3A5A9;stop-opacity:0.3"/>
				<stop  offset="0.77" style="stop-color:#A3A5A9;stop-opacity:0.16"/>
				<stop  offset="0.78" style="stop-color:#A3A5A9;stop-opacity:0.12"/>
				<stop  offset="0.79" style="stop-color:#A3A5A9;stop-opacity:5.000000e-02"/>
				<stop  offset="0.81" style="stop-color:#A3A5A9;stop-opacity:1.000000e-02"/>
				<stop  offset="0.87" style="stop-color:#A3A5A9;stop-opacity:0"/>
			</linearGradient>
			<path class="st4" d="M168.3,148c-18.3,34.8-61.3,48.5-96.3,30.3c-16.3-8.5-29.2-23.2-34.8-40.8c-3-9-4.2-18.5-3.3-28
				c1.5-19.2,10.7-37,25.5-49.2c30.3-25.2,75.2-21.3,100.3,9C178.1,91.5,181.4,122.5,168.3,148z M168.3,148
				c4.2-8.2,6.7-17.2,7.5-26.3c3-37.8-25.3-70.8-63.2-73.8c-37.8-3-71,25.3-74,63.2c-0.7,8.3,0.2,17,2.8,25.2
				c11,36.3,49.2,56.8,85.7,45.8c8.8-2.7,17-7.2,24-13C157.9,163.4,163.9,156,168.3,148z"/>
		</g>
		<g id="Middle-Ovals">
			
				<ellipse id="Oval-guide-2" transform="matrix(0.4299 -0.9029 0.9029 0.4299 -44.0303 161.5665)" class="st3" cx="105.9" cy="115.6" rx="70" ry="70"/>
			<g id="Oval-2">
				<circle class="st1" cx="51.9" cy="72" r="9.2"/>
				<path class="st2" d="M51.9,64.9c4,0,7.3,3.2,7.3,7.3s-3.2,7.3-7.3,7.3s-7.3-3.2-7.3-7.3l0,0C44.8,68,47.9,64.9,51.9,64.9
					 M51.9,61c-6.2,0-11,4.8-11,11s4.8,11,11,11s11-4.8,11-11l0,0C62.9,66,57.9,61,51.9,61z"/>
			</g>
		</g>
	</g>
	<g id="Outer-Ring">
		<g id="Outer-Orbit">
			
				<linearGradient id="SVGID_3_" gradientUnits="userSpaceOnUse" x1="19.4046" y1="-842.0816" x2="189.1901" y2="-889.1207" gradientTransform="matrix(1 0 0 -1 1.55 -749.88)">
				<stop  offset="0" style="stop-color:#A3A5A9"/>
				<stop  offset="0.19" style="stop-color:#A3A5A9;stop-opacity:0.98"/>
				<stop  offset="0.33" style="stop-color:#A3A5A9;stop-opacity:0.92"/>
				<stop  offset="0.45" style="stop-color:#A3A5A9;stop-opacity:0.83"/>
				<stop  offset="0.57" style="stop-color:#A3A5A9;stop-opacity:0.69"/>
				<stop  offset="0.68" style="stop-color:#A3A5A9;stop-opacity:0.52"/>
				<stop  offset="0.79" style="stop-color:#A3A5A9;stop-opacity:0.3"/>
				<stop  offset="0.85" style="stop-color:#A3A5A9;stop-opacity:0.16"/>
				<stop  offset="0.86" style="stop-color:#A3A5A9;stop-opacity:0.12"/>
				<stop  offset="0.88" style="stop-color:#A3A5A9;stop-opacity:5.000000e-02"/>
				<stop  offset="0.91" style="stop-color:#A3A5A9;stop-opacity:1.000000e-02"/>
				<stop  offset="1" style="stop-color:#A3A5A9;stop-opacity:0"/>
			</linearGradient>
			<path class="st5" d="M188.4,138.5c-12.7,46.3-60.7,73.3-106.7,60.5c-33.8-9.2-58.7-37.8-63.2-72.5c-3-23.3,3.3-46.7,17.8-64.8
				c29.8-37.7,84.3-44,122-14.3C185.9,68.9,197.8,104.9,188.4,138.5z M188.4,138.5c3-10.8,3.7-22.2,2.5-33.2
				c-6-46-48.3-78.7-94.3-73c-0.2,0-0.5,0-0.7,0.2c-46,6.3-78.3,48.8-72,95c4.5,32.8,28,60,59.8,69.3c33,9.7,68.5-1.7,89.8-28.5
				C180.3,159.5,185.3,149.4,188.4,138.5z"/>
		</g>
		<g id="Outer-Ovals">
			<g id="Oval-small">
				
					<ellipse id="Oval-guide-3" transform="matrix(0.4299 -0.9029 0.9029 0.4299 -44.0303 161.5665)" class="st3" cx="105.9" cy="115.6" rx="85.5" ry="85.5"/>
				<g id="Oval2">
					<g id="Oval2-background">
						<circle class="st2" cx="143.3" cy="192" r="6.2"/>
						<path class="st2" d="M143.3,187.7c2.5,0,4.3,1.8,4.3,4.3s-1.8,4.3-4.3,4.3c-2.5,0-4.3-1.8-4.3-4.3S141.1,187.7,143.3,187.7
							L143.3,187.7 M143.3,184c-4.5,0-8,3.5-8,8c0,4.5,3.5,8,8,8c4.5,0,8-3.5,8-8S147.8,184,143.3,184L143.3,184z"/>
					</g>
					<circle id="Oval2-yellow" class="st6" cx="143.3" cy="192" r="4.3"/>
				</g>
			</g>
			<g id="Oval-large">
				
					<ellipse id="Oval-guide-4" transform="matrix(0.4299 -0.9029 0.9029 0.4299 -44.0303 161.5665)" class="st3" cx="105.9" cy="115.6" rx="85.5" ry="85.5"/>
				<g id="Oval1">
					<g id="Oval1-background">
						<path class="st2" d="M118.9,39.7c-4.3,0-7.8-3.7-7.8-8c0-3.7,2.8-6.8,6.5-7.7c4.3-0.7,8.3,2.2,9,6.5l0,0
							c0.7,4.3-2.2,8.3-6.5,9C119.9,39.7,119.6,39.7,118.9,39.7z"/>
						<path class="st2" d="M119.3,25.9c3.3,0,6,2.8,6,6.2c0,2.8-2,5.2-5,5.8c-0.3,0-0.5,0-1,0c-3.3,0-6-2.8-6-6.2c0-2.8,2-5.2,5-5.8
							C118.4,25.9,118.8,25.9,119.3,25.9 M119.3,22.2L119.3,22.2c-0.5,0-1.2,0-1.5,0.2c-2.7,0.3-4.8,1.7-6.3,3.7s-2,4.7-1.7,7.3
							c0.7,4.8,4.8,8.2,9.5,8.2c0.5,0,1.2,0,1.5-0.2c5.2-1,8.8-6,7.8-11.2C127.8,25.5,123.9,22.2,119.3,22.2z"/>
					</g>
					<g id="Oval1-yellow" class="st7">
						<ellipse transform="matrix(0.987 -0.1606 0.1606 0.987 -3.5704 19.5673)" class="st1" cx="119.3" cy="31.9" rx="6" ry="6"/>
					</g>
				</g>
			</g>
		</g>
	</g>
	<path class="st3" d="M330.9,198.2"/>
	<g>
		<polygon id="Shape" class="st8" points="111.8,108.5 111.8,132 108.3,132 108.3,100.5 110.3,100.5 128.3,124.5 127.9,100.9 
			131.8,100.9 131.8,132.4 129.4,132.4 		"/>
		<polygon id="Shape-2" class="st8" points="142.3,100.5 159.1,100.5 159.1,103.9 145.9,103.9 145.9,114.2 158.3,114.2 158.3,117.7 
			145.9,117.7 145.9,129 159.3,129 159.3,132.4 142.3,132.4 		"/>
		<polygon id="Shape-3" class="st8" points="178.4,116.2 168.8,100.5 173.4,100.5 180.9,113.2 188.9,100.5 193.1,100.5 182.9,115.9 
			193.4,132.4 188.9,132.4 180.9,119.7 172.1,132.4 167.9,132.4 		"/>
		<polygon id="Shape-4" class="st8" points="223.3,103.9 213.6,103.9 213.6,132.4 209.6,132.4 209.6,103.9 199.9,103.9 199.9,100.5 
			223.3,100.5 		"/>
		<polygon id="Shape-6" class="st8" points="276.6,100.5 293.4,100.5 293.4,103.9 280.1,103.9 280.1,114.2 292.2,114.2 292.2,117.7 
			280.1,117.7 280.1,129 293.6,129 293.6,132.4 276.6,132.4 		"/>
		<polygon id="Shape-7" class="st8" points="338.4,100.5 355.4,100.5 355.4,103.9 342.1,103.9 342.1,114.2 354.1,114.2 354.1,117.7 
			342.1,117.7 342.1,129 355.6,129 355.6,132.4 338.4,132.4 		"/>
		<path id="Shape-9" class="st8" d="M414.4,123.5h-11.5l-3.2,8.8h-3.5l12-31.8h1.7l12,31.8h-4.2L414.4,123.5z M404.2,120.4h9.2
			l-4.5-13.2L404.2,120.4z"/>
		<polygon id="Shape-10" class="st8" points="447.1,103.9 437.4,103.9 437.4,132.4 433.4,132.4 433.4,103.9 423.7,103.9 
			423.7,100.5 447.1,100.5 		"/>
		<polygon id="Shape-11" class="st8" points="455.7,100.5 459.9,100.5 459.9,132.4 455.7,132.4 		"/>
		<polygon id="Shape-19" class="st8" points="366.1,143 385.2,143 385.2,148.5 372.2,148.5 372.2,156 383.9,156 383.9,161.7 
			372.2,161.7 372.2,169.5 385.4,169.5 385.4,175 366.1,175 		"/>
		<polygon id="Shape-20" class="st8" points="419.6,148.5 409.7,148.5 409.7,174.9 403.4,174.9 403.4,148.5 393.9,148.5 393.9,143 
			419.6,143 		"/>
		<polygon id="Shape-21" class="st8" points="436.9,162.2 443.6,143 447.7,143 453.6,162.2 457.9,143 464.2,143 455.7,174.9 
			451.6,174.9 445.2,154.5 438.7,174.9 434.4,174.9 425.9,143 432.4,143 		"/>
		<polygon id="Shape-23" class="st8" points="540.2,161.7 538.9,161.7 538.9,175 532.4,175 532.4,143.4 538.9,143.4 538.9,157.5 
			549.4,143.4 556.5,143.4 544.7,158.5 557.9,175 550,175 		"/>
		<polygon id="Shape-24" class="st8" points="307.9,108.5 307.9,132 304.4,132 304.4,100.5 306.4,100.5 324.4,124.5 324.2,100.9 
			327.7,100.9 327.7,132.4 325.7,132.4 		"/>
		<polygon id="Shape-25" class="st8" points="510.6,108.5 510.6,132 506.7,132 506.7,100.5 509.1,100.5 526.9,124.5 526.7,100.9 
			530.2,100.9 530.2,132.4 528.1,132.4 		"/>
		<polygon id="Shape-26" class="st8" points="341.9,158.5 339.9,155.7 339.9,174.9 334.2,174.9 334.2,143 338.4,143 350.1,160 
			351.7,162.4 351.7,143.2 357.6,143.2 357.6,175 353.2,175 		"/>
		<g>
			<path class="st8" d="M468.2,159.2c0-5.2,1.2-9.3,3.5-12.2s5.7-4.3,9.8-4.3c2.2,0,4.2,0.3,5.8,1.2c1.7,0.8,3,1.8,4.2,3.3
				c1.2,1.5,2,3.2,2.5,5.2s0.8,4.2,0.8,6.7c0,5.3-1.2,9.3-3.5,12.2c-2.3,2.8-5.7,4.3-9.8,4.3c-2.3,0-4.3-0.3-6-1.2s-3-1.8-4.2-3.3
				s-1.8-3.2-2.5-5.2C468.4,163.9,468.2,161.7,468.2,159.2z M474.7,159.2c0,1.7,0.2,3,0.3,4.3s0.7,2.5,1.2,3.5
				c0.5,1,1.3,1.7,2.2,2.3c0.8,0.5,1.8,0.8,3.2,0.8c2.2,0,3.8-0.8,5.2-2.5s1.8-4.5,1.8-8.3c0-1.5-0.2-3-0.3-4.3
				c-0.3-1.3-0.7-2.5-1.2-3.5c-0.5-1-1.2-1.8-2.2-2.3c-0.8-0.5-2-0.8-3.2-0.8c-2.2,0-3.8,0.8-5.2,2.7
				C475.2,152.7,474.7,155.5,474.7,159.2z"/>
		</g>
		<g>
			<path class="st8" d="M254.4,116.7h10.5v13.8c-0.5,0.3-1,0.7-1.7,1c-0.7,0.3-1.3,0.5-2.2,0.8c-0.8,0.2-1.5,0.3-2.3,0.5
				c-0.8,0.2-1.7,0.2-2.3,0.2c-2,0-3.8-0.3-5.5-1s-3.2-1.7-4.3-3c-1.2-1.3-2.2-3-2.8-5.2c-0.7-2-1-4.5-1-7.3c0-2.8,0.5-5.3,1.3-7.5
				c0.8-2,2-3.8,3.3-5c1.3-1.3,2.8-2.3,4.5-2.8c1.7-0.7,3.3-0.8,5-0.8c1.8,0,3.3,0.2,4.5,0.3c1.2,0.2,2.2,0.5,3,0.8l-1,3.3
				c-1.5-0.7-3.5-1-6.2-1c-1.3,0-2.5,0.2-3.8,0.7c-1.2,0.5-2.3,1.2-3.3,2.2c-1,1-1.8,2.3-2.5,4c-0.7,1.7-1,3.7-1,6.2
				c0,2.2,0.3,4.2,0.8,5.8c0.5,1.7,1.2,3,2.2,4c0.8,1,2,1.8,3.3,2.3c1.3,0.5,2.7,0.8,4.2,0.8c1.8,0,3.5-0.3,4.8-1.2v-8.8h-7.3
				L254.4,116.7L254.4,116.7z"/>
		</g>
		<g>
			<path class="st8" d="M366.2,100.9c1.2-0.2,2.5-0.3,4-0.5c1.5-0.2,2.8-0.2,4-0.2c1.3,0,2.7,0.2,4,0.5c1.3,0.3,2.3,0.8,3.3,1.5
				c1,0.7,1.7,1.7,2.3,2.7c0.7,1,0.8,2.5,0.8,4c0,2.5-0.7,4.5-2,6s-2.8,2.2-4.2,2.7l1.3,2.2l7.8,12.5h-4.3l-8.7-13.7h-4.3V132h-4.2
				V100.9z M374.4,103.5c-0.3,0-0.8,0-1.2,0s-0.8,0-1.2,0c-0.3,0-0.8,0-1.2,0.2c-0.3,0-0.7,0-0.8,0.2v11.7h3.5c2,0,3.8-0.5,5.2-1.5
				c1.3-1,2-2.7,2-4.8c0-1.7-0.5-3-1.7-4S376.4,103.5,374.4,103.5z"/>
		</g>
		<path class="st8" d="M502.4,143.7c5.7-1,15.2-2.3,19.3,3c3.2,4.2,2.8,12.2-3.7,14.7c2.5,4.7,5.5,9.2,8,13.5h-7.2l-7.7-13h-2.7v13
			h-6.2L502.4,143.7L502.4,143.7z M511.9,148.4c-1,0-2.3,0-3.3,0.2v9.2c2.5,0,5.8,0.3,7.5-2c1-1.3,1-3.7,0.3-5.2
			C515.4,148.9,513.6,148.4,511.9,148.4z"/>
		<path class="st8" d="M470.7,116.2c0-5.2,1.2-9.3,3.3-12c2.2-2.8,5.3-4.2,9.5-4.2c2.2,0,4.2,0.3,5.8,1.2s3,1.8,4,3.3
			c1,1.5,1.8,3.2,2.3,5.2c0.5,2,0.8,4.2,0.8,6.7c0,5.3-1.2,9.3-3.3,12c-2.2,2.8-5.5,4.2-9.5,4.2c-2.2,0-4.2-0.3-5.7-1.2
			c-1.5-0.8-3-1.8-4-3.3c-1-1.5-1.8-3.2-2.3-5.2C471.1,120.9,470.7,118.7,470.7,116.2z M474.7,116.2c0,1.7,0.2,3.3,0.5,5
			c0.3,1.5,0.8,3,1.7,4.2c0.7,1.2,1.7,2.2,2.8,2.8c1.2,0.7,2.5,1,4,1c2.8,0,5-1,6.5-3.2c1.7-2.2,2.3-5.3,2.3-9.8
			c0-1.7-0.2-3.3-0.5-5c-0.3-1.5-0.8-3-1.7-4.2c-0.7-1.2-1.7-2.2-2.8-2.8c-1.2-0.7-2.5-1-4-1c-2.8,0-5,1-6.5,3.2
			S474.7,111.9,474.7,116.2z"/>
	</g>
	<path id="Shape-13_1_" class="st8" d="M157.6,143.5h6v20.3c0,1.8-0.2,3.5-1,5.3c-0.5,1.3-1.3,2.7-2.5,3.5c-1,1-2.2,1.7-3.5,2
		c-1.5,0.3-3.2,0.5-4.7,0.5c-8,0-12.2-3.5-12.2-10.8v-20.8h6.2v19.7c0.3,5.7,4,6.8,6,6.8c2,0,5-1.2,5.7-6.5L157.6,143.5z"/>
	<polygon id="Shape-15_1_" class="st8" points="218.9,175.2 199.9,175.2 199.9,143.2 205.9,143.2 205.9,169.7 218.9,169.7 	"/>
	<polygon id="Shape-16_1_" class="st8" points="227.6,143.2 246.6,143.2 246.6,148.7 233.8,148.7 233.8,156.2 245.2,156.2 
		245.2,161.9 233.8,161.9 233.8,169.7 246.7,169.7 246.7,175.2 227.6,175.2 	"/>
	<path id="Shape-17_1_" class="st8" d="M271.7,168h-9.8l-2.2,7.2h-6.3l11.5-31.8h4.7l11.3,31.8h-6.5L271.7,168z M263.4,163.2h6.8
		l-3.2-11L263.4,163.2z"/>
	<g id="LetterN_1_">
		<polygon id="Shape-28_1_" class="st8" points="115.8,158.7 113.9,155.9 113.9,175 108.3,175 108.3,143.2 112.4,143.2 124.3,160.2 
			125.9,162.5 125.9,143.4 131.8,143.4 131.8,175.2 127.4,175.2 		"/>
	</g>
	<g>
		<path class="st8" d="M192.3,173.4c-1,0.7-2.2,1.2-3.7,1.5c-1.5,0.3-3,0.5-4.5,0.5c-1.8,0-3.7-0.3-5.3-0.8
			c-1.7-0.7-3.2-1.5-4.5-2.8c-1.3-1.3-2.3-3-3-5.2s-1.2-4.7-1.2-7.5c0-3.2,0.5-5.7,1.3-7.8c0.8-2.2,2-3.8,3.3-5
			c1.3-1.3,2.8-2.2,4.5-2.7s3.3-0.8,5-0.8c1.8,0,3.3,0.2,4.5,0.3c1.2,0.2,2.3,0.5,3,0.8l-1.2,5.2c-0.7-0.3-1.5-0.5-2.5-0.7
			c-1-0.2-2.2-0.2-3.5-0.2c-2.5,0-4.5,0.8-6,2.7c-1.5,1.8-2.3,4.5-2.3,8.3c0,1.7,0.2,3.2,0.5,4.5s0.8,2.5,1.7,3.5
			c0.7,1,1.7,1.7,2.7,2.2c1.2,0.5,2.3,0.8,3.8,0.8c1.3,0,2.5-0.2,3.5-0.3c1-0.3,1.7-0.7,2.5-1L192.3,173.4z"/>
	</g>
	<path class="st8" d="M287.2,144c5.7-1,15.2-2.3,19.3,3c3.2,4.2,2.8,12.2-3.7,14.7c2.5,4.7,5.5,9.2,8,13.5h-7.2l-7.7-13h-2.7v13
		h-6.2V144z M296.7,148.9c-1,0-2.3,0-3.3,0.2v9.2c2.5,0,5.8,0.3,7.5-2c1-1.3,1-3.7,0.3-5.2C300.2,149.4,298.4,148.9,296.7,148.9z"/>
</g>
</svg>
