<svg xmlns="http://www.w3.org/2000/svg" xmlns:xlink="http://www.w3.org/1999/xlink" viewBox="0 0 268.75 73.96"><defs><clipPath id="clip-path"><path d="M39.22,35.11a2.72,2.72,0,0,0-2.65-.69L12.16,11.26l-1.9,1.91,24.4,23.15a2.73,2.73,0,1,0,4.56-1.21" fill="none" clip-rule="evenodd"/></clipPath></defs><title>otr-logo_sm_full_light</title><g id="Layer_2" data-name="Layer 2"><g id="Layer_1-2" data-name="Layer 1"><g clip-path="url(#clip-path)"><rect x="2.02" y="1.78" width="43" height="43" fill="#f05e39"/></g><path d="M48.88,37A12.78,12.78,0,0,1,48,41.7,10.87,10.87,0,0,1,41.85,48a13.46,13.46,0,0,1-9.73,0,11.23,11.23,0,0,1-3.76-2.49,11,11,0,0,1-2.42-3.76,13.36,13.36,0,0,1,0-9.43,11.1,11.1,0,0,1,2.42-3.76A11.36,11.36,0,0,1,32.12,26a13.46,13.46,0,0,1,9.73,0,11,11,0,0,1,3.76,2.49A11.18,11.18,0,0,1,48,32.28,12.71,12.71,0,0,1,48.88,37ZM44,37a10.32,10.32,0,0,0-.48-3.27,6.85,6.85,0,0,0-1.39-2.47,6,6,0,0,0-2.19-1.55,8.19,8.19,0,0,0-5.85,0,6.06,6.06,0,0,0-2.2,1.55,7,7,0,0,0-1.38,2.47A10,10,0,0,0,30,37a10.17,10.17,0,0,0,.48,3.29,6.93,6.93,0,0,0,1.38,2.46,6,6,0,0,0,2.2,1.54,8.19,8.19,0,0,0,5.85,0,6,6,0,0,0,2.19-1.54,6.8,6.8,0,0,0,1.39-2.46A10.45,10.45,0,0,0,44,37Z" fill="#fff"/><path d="M72.93,25.38V48.6H70.45a2.22,2.22,0,0,1-.94-.18,2.29,2.29,0,0,1-.75-.64L57.19,33.06c0,.37.05.74.07,1.1s0,.7,0,1V48.6H53V25.38h2.53l.52,0a1.6,1.6,0,0,1,.39.11,1.51,1.51,0,0,1,.34.24,3.48,3.48,0,0,1,.35.38L68.82,40.92c0-.41-.07-.8-.1-1.18s0-.74,0-1.08V25.38Z" fill="#fff"/><path d="M102.14,29.25H95.36V48.6H90.54V29.25H83.75V25.38h18.39Z" fill="#fff"/><path d="M125.57,25.38V48.6h-4.83v-10H110.51v10h-4.83V25.38h4.83v9.86h10.23V25.38Z" fill="#fff"/><path d="M135.91,29.14v6h7.75v3.63h-7.75v6.1h10V48.6H131.08V25.38h14.79v3.76Z" fill="#fff"/><path d="M176.85,48.6h-4.34a1.88,1.88,0,0,1-1.76-.93l-4.42-7.12a1.84,1.84,0,0,0-.6-.61,1.89,1.89,0,0,0-1-.19h-1.64V48.6h-4.8V25.38h7.3a15.23,15.23,0,0,1,4.16.5,8,8,0,0,1,2.83,1.4,5.33,5.33,0,0,1,1.62,2.14,7.47,7.47,0,0,1,.18,4.91,6.06,6.06,0,0,1-.95,1.88,6.86,6.86,0,0,1-1.53,1.51,7.81,7.81,0,0,1-2.08,1.05,5.05,5.05,0,0,1,.86.62,3.82,3.82,0,0,1,.72.86ZM165.6,36.37a6.27,6.27,0,0,0,2-.29,3.84,3.84,0,0,0,1.4-.82,3.2,3.2,0,0,0,.8-1.22,4.52,4.52,0,0,0,.25-1.54A3.14,3.14,0,0,0,169,29.94a5.14,5.14,0,0,0-3.34-.91h-2.5v7.34Z" fill="#fff"/><path d="M200.09,48.6h-3.73a1.63,1.63,0,0,1-1-.3,1.76,1.76,0,0,1-.58-.76l-1.57-4.43h-9.25l-1.57,4.43a1.82,1.82,0,0,1-.56.73,1.53,1.53,0,0,1-1,.33H177l9.08-23.22H191ZM192,39.78l-2.51-7.1c-.15-.38-.31-.81-.47-1.32s-.33-1-.48-1.63c-.14.6-.3,1.15-.47,1.66s-.32.94-.47,1.32l-2.5,7.07Z" fill="#fff"/><path d="M223.69,37a12.45,12.45,0,0,1-.85,4.68,10.67,10.67,0,0,1-2.42,3.68,11.18,11.18,0,0,1-3.75,2.4,13.32,13.32,0,0,1-4.87.86h-8.93V25.38h8.93a13.32,13.32,0,0,1,4.87.86,11,11,0,0,1,3.75,2.41,10.72,10.72,0,0,1,2.42,3.67A12.38,12.38,0,0,1,223.69,37Zm-4.93,0a10.43,10.43,0,0,0-.48-3.28,6.83,6.83,0,0,0-1.37-2.46,6.05,6.05,0,0,0-2.19-1.56,7.49,7.49,0,0,0-2.92-.54h-4.09v15.7h4.09a7.49,7.49,0,0,0,2.92-.54,5.8,5.8,0,0,0,2.19-1.55,7,7,0,0,0,1.37-2.47A10.51,10.51,0,0,0,218.76,37Z" fill="#fff"/><path d="M247.44,48.6h-3.72a1.63,1.63,0,0,1-1-.3,1.69,1.69,0,0,1-.58-.76l-1.57-4.43H231.3l-1.57,4.43a1.91,1.91,0,0,1-.56.73,1.55,1.55,0,0,1-1,.33H224.4l9.07-23.22h4.92Zm-8.06-8.82-2.51-7.1c-.15-.38-.31-.81-.48-1.32s-.32-1-.47-1.63c-.15.6-.31,1.15-.47,1.66s-.32.94-.47,1.32l-2.5,7.07Z" fill="#fff"/><path d="M268.75,48.6h-4.34a1.88,1.88,0,0,1-1.76-.93l-4.42-7.12a1.84,1.84,0,0,0-.6-.61,1.94,1.94,0,0,0-1-.19H255V48.6h-4.8V25.38h7.3a15.23,15.23,0,0,1,4.16.5,8,8,0,0,1,2.83,1.4,5.33,5.33,0,0,1,1.62,2.14,7.47,7.47,0,0,1,.18,4.91,6.28,6.28,0,0,1-.95,1.88,6.91,6.91,0,0,1-1.54,1.51,7.67,7.67,0,0,1-2.08,1.05,4.76,4.76,0,0,1,.87.62,4.43,4.43,0,0,1,.72.86ZM257.5,36.37a6.32,6.32,0,0,0,2-.29,3.72,3.72,0,0,0,1.39-.82,3.09,3.09,0,0,0,.8-1.22A4.52,4.52,0,0,0,262,32.5a3.15,3.15,0,0,0-1.1-2.56,5.11,5.11,0,0,0-3.33-.91H255v7.34Z" fill="#fff"/><path d="M48.44,52.45a19.28,19.28,0,1,1,0-30.93H57a25.28,25.28,0,1,0,0,30.93Z" fill="#f05e39"/><path d="M63.82,52.45a31,31,0,1,1,0-30.93h6.73a37,37,0,1,0,0,30.93Z" fill="#f05e39"/></g></g></svg>