<svg height="40" width="40" xmlns="http://www.w3.org/2000/svg"><g fill="none" fill-rule="evenodd"><circle cx="20" cy="20" fill="#f05e39" r="20"/><path d="M30.656 20.327a6.812 6.812 0 0 0-6.092-3.75c-3.57 0-6.499 2.737-6.787 6.219h-.018a.566.566 0 1 0 0 1.13h.019c.288 3.481 3.216 6.217 6.786 6.217a6.797 6.797 0 0 0 3.671-1.07.844.844 0 0 0 .074.767l1.707 2.672H10.795a.566.566 0 0 1-.567-.566V7.076c0-.311.254-.564.567-.564h19.294c.313 0 .567.253.567.565zm0 6.066v3.962l-.91-1.426a.852.852 0 0 0-.785-.39c.7-.59 1.28-1.32 1.695-2.146zm-16.449-15.36a.566.566 0 1 0 0 1.13h12.484a.566.566 0 1 0 0-1.13zm0 2.785a.566.566 0 1 0 0 1.13h12.484a.566.566 0 1 0 0-1.13zm-.005 2.786a.566.566 0 1 0 0 1.13h4.54a.566.566 0 1 0 0-1.13zM14.2 19.39a.566.566 0 1 0 0 1.13h2.27a.566.566 0 1 0 0-1.13zm4.717 4.536h2.314l.923-1.839 1.661 5.79 2.75-4.564 1.094 1.744h2.32a5.675 5.675 0 0 1-5.415 3.955c-2.942 0-5.362-2.23-5.647-5.086zm0-1.13c.284-2.857 2.704-5.088 5.647-5.088 3.134 0 5.674 2.53 5.674 5.652 0 .191-.01.38-.028.566h-1.922l-1.743-2.778-2.357 3.914-1.744-6.08-1.914 3.814z" fill="#fff" fill-rule="nonzero"/></g></svg>