<svg width="40" height="40" fill="none" xmlns="http://www.w3.org/2000/svg"><path fill-rule="evenodd" clip-rule="evenodd" d="M31.428 20c0 6.312-5.116 11.428-11.428 11.428-6.312 0-11.43-5.116-11.43-11.428C8.571 13.688 13.688 8.57 20 8.57S31.428 13.688 31.428 20zm-4.285 0a7.143 7.143 0 1 1-14.286 0 7.143 7.143 0 0 1 14.286 0z" fill="#F05E39"/><path fill-rule="evenodd" clip-rule="evenodd" d="M40 20c0 11.046-8.954 20-20 20S0 31.046 0 20 8.954 0 20 0s20 8.954 20 20zm-4.286 0c0 8.679-7.035 15.714-15.714 15.714S4.286 28.68 4.286 20 11.32 4.286 20 4.286 35.714 11.32 35.714 20z" fill="#F05E39"/></svg>