<svg height="40" width="40" xmlns="http://www.w3.org/2000/svg"><g fill="none" fill-rule="evenodd"><circle cx="20" cy="20" fill="#f05e39" r="20"/><path d="M7.803 26.09h25.278c.2 0 .36.16.36.356v1.067a.358.358 0 0 1-.36.356H7.803c-.2 0-.361-.16-.361-.356v-1.067c0-.196.162-.355.361-.355zm10.111-2.02v-2.602c0-.59-.485-1.067-1.083-1.067h-5.417c-.598 0-1.083.477-1.083 1.067v2.725l-.19-.085c-1.432-.646-2.023-2.235-1.32-3.55.039-.07.08-.14.124-.207l1.006-1.52c.524-.792 1.46-1.275 2.47-1.275h3.132c1.01 0 1.945.483 2.47 1.275l1.005 1.52c.828 1.252.394 2.883-.97 3.643a2.967 2.967 0 0 1-.144.075zm-3.972-7.226c-1.596 0-2.889-1.273-2.889-2.845s1.293-2.845 2.889-2.845S16.83 12.428 16.83 14s-1.294 2.845-2.89 2.845zm-2.167 4.268h4.695c.399 0 .722.318.722.711v3.556h-6.139v-3.556c0-.393.323-.711.722-.711zm19.14 2.957v-2.601c0-.59-.486-1.067-1.084-1.067h-5.417c-.598 0-1.083.477-1.083 1.067v2.725l-.19-.085c-1.432-.646-2.023-2.235-1.32-3.55.039-.07.08-.14.124-.207l1.006-1.52c.524-.792 1.46-1.275 2.47-1.275h3.132c1.01 0 1.945.483 2.47 1.275l1.005 1.52c.828 1.252.394 2.883-.97 3.643a2.967 2.967 0 0 1-.144.075zm-3.973-7.225c-1.596 0-2.889-1.273-2.889-2.845s1.293-2.845 2.889-2.845S29.83 12.428 29.83 14s-1.294 2.845-2.89 2.845zm-2.167 4.268h4.695c.399 0 .722.318.722.711v3.556h-6.139v-3.556c0-.393.323-.711.722-.711z" fill="#fff" fill-rule="nonzero"/></g></svg>