<svg height="40" width="40" xmlns="http://www.w3.org/2000/svg"><g fill="none" fill-rule="evenodd"><circle cx="20" cy="20" fill="#f05e39" r="20"/><path d="M22.768 30.654l.929-.463a13.72 13.72 0 0 1 4.965-1.393l2.117-.18a.545.545 0 0 0 .496-.545V10.365h1.636c.293 0 .53.24.53.534v19.222a.532.532 0 0 1-.53.533zm-4.652 0H7.972a.532.532 0 0 1-.53-.533V10.924c0-.295.237-.534.53-.534h.025l1.612.075v17.608c0 .284.215.522.496.545l2.117.18a13.72 13.72 0 0 1 4.965 1.393zM30.258 9.297v18.556l-1.68.14c-1.932.16-3.815.679-5.554 1.529l-2.317 1.132V12.316l2.64-1.331a14.862 14.862 0 0 1 5.198-1.515zm-19.632 0l1.712.173c1.813.183 3.575.696 5.198 1.515l2.64 1.33v18.34l-2.317-1.133a15.579 15.579 0 0 0-5.553-1.529l-1.68-.14z" fill="#fff" fill-rule="nonzero"/></g></svg>